ply
format ascii 1.0
comment Created by Blender 2.91.2 - www.blender.org
element vertex 570
property float x
property float y
property float z
property float nx
property float ny
property float nz
property float s
property float t
element face 190
property list uchar uint vertex_indices
end_header
4.734319 5.839132 -8.670574 0.448303 0.570970 -0.687763 0.072021 0.055419
1.935018 6.950311 -9.572753 0.448303 0.570970 -0.687763 0.085693 0.029541
2.703454 8.114771 -8.105149 0.448303 0.570970 -0.687763 0.068359 0.023193
4.734319 5.839132 -8.670574 0.592505 0.647764 -0.478895 0.072021 0.055419
2.703454 8.114771 -8.105149 0.592505 0.647764 -0.478895 0.068359 0.023193
3.965884 8.067065 -6.607756 0.592505 0.647764 -0.478895 0.050537 0.031250
4.734319 5.839132 -8.670574 0.770457 0.555430 -0.312880 0.072021 0.055419
3.965884 8.067065 -6.607756 0.770457 0.555430 -0.312880 0.050537 0.031250
5.283202 6.731482 -5.734851 0.770457 0.555430 -0.312880 0.040527 0.049560
4.734319 5.839132 -8.670574 0.889949 0.362601 -0.276608 0.072021 0.055419
5.283202 6.731482 -5.734851 0.889949 0.362601 -0.276608 0.040527 0.049560
5.941861 4.936216 -5.969090 0.889949 0.362601 -0.276608 0.043212 0.070068
4.734319 5.839132 -8.670574 0.920550 0.107634 -0.375504 0.072021 0.055419
5.941861 4.936216 -5.969090 0.920550 0.107634 -0.375504 0.043212 0.070068
5.667419 3.312598 -7.107278 0.920550 0.107634 -0.375504 0.056884 0.082763
4.734319 5.839132 -8.670574 0.828693 -0.039405 -0.558314 0.072021 0.055419
5.667419 3.312598 -7.107278 0.828693 -0.039405 -0.558314 0.056884 0.082763
4.569654 2.687078 -8.692517 0.828693 -0.039405 -0.558314 0.075683 0.082031
4.734319 5.839132 -8.670574 0.663200 -0.029440 -0.747863 0.072021 0.055419
4.569654 2.687078 -8.692517 0.663200 -0.029440 -0.747863 0.075683 0.082031
3.197448 3.426930 -9.938505 0.663200 -0.029440 -0.747863 0.090576 0.067871
4.734319 5.839132 -8.670574 0.502109 0.129535 -0.855048 0.072021 0.055419
3.197448 3.426930 -9.938505 0.502109 0.129535 -0.855048 0.090576 0.067871
2.154572 5.098248 -10.297717 0.502109 0.129535 -0.855048 0.094482 0.047119
4.734319 5.839132 -8.670574 0.415621 0.373833 -0.829161 0.072021 0.055419
2.154572 5.098248 -10.297717 0.415621 0.373833 -0.829161 0.094482 0.047119
1.935018 6.950311 -9.572753 0.415621 0.373833 -0.829161 0.085693 0.029541
1.935018 6.950311 -9.572753 -0.271248 0.322788 -0.906771 0.085693 0.029541
2.154572 5.098248 -10.297717 -0.271248 0.322788 -0.906771 0.094482 0.047119
-0.699617 3.991103 -9.838042 -0.271248 0.322788 -0.906771 0.096923 0.039062
1.935018 6.950311 -9.572753 -0.260284 0.313601 -0.913185 0.085693 0.029541
-0.699617 3.991103 -9.838042 -0.260284 0.313601 -0.913185 0.096923 0.039062
-1.083835 6.881406 -8.735955 -0.260284 0.313601 -0.913185 0.083496 0.012207
1.935018 6.950311 -9.572753 -0.172478 0.813608 -0.555242 0.085693 0.029541
-1.083835 6.881406 -8.735955 -0.172478 0.813608 -0.555242 0.083496 0.012207
2.703454 8.114771 -8.105149 -0.172478 0.813608 -0.555242 0.068359 0.023193
2.703454 8.114771 -8.105149 -0.177142 0.821305 -0.542290 0.068359 0.023193
-1.083835 6.881406 -8.735955 -0.177142 0.821305 -0.542290 0.083496 0.012207
0.068818 8.637556 -6.452767 -0.177142 0.821305 -0.542290 0.056884 0.002441
2.703454 8.114771 -8.105149 0.140890 0.986163 -0.087364 0.068359 0.023193
0.068818 8.637556 -6.452767 0.140890 0.986163 -0.087364 0.056884 0.002441
3.965884 8.067065 -6.607756 0.140890 0.986163 -0.087364 0.050537 0.031250
3.965884 8.067065 -6.607756 0.140448 0.985441 -0.095818 0.050537 0.031250
0.068818 8.637556 -6.452767 0.140448 0.985441 -0.095818 0.056884 0.002441
2.099683 8.569160 -4.179407 0.140448 0.985441 -0.095818 0.029541 0.014648
3.965884 8.067065 -6.607756 0.580543 0.761315 0.288738 0.050537 0.031250
2.099683 8.569160 -4.179407 0.580543 0.761315 0.288738 0.029541 0.014648
5.283202 6.731482 -5.734851 0.580543 0.761315 0.288738 0.040527 0.049560
5.283202 6.731482 -5.734851 0.578430 0.767015 0.277680 0.040527 0.049560
2.099683 8.569160 -4.179407 0.578430 0.767015 0.277680 0.029541 0.014648
4.075660 6.617149 -2.903630 0.578430 0.767015 0.277680 0.014404 0.042724
5.283202 6.731482 -5.734851 0.880933 0.272742 0.386740 0.040527 0.049560
4.075660 6.617149 -2.903630 0.880933 0.272742 0.386740 0.014404 0.042724
5.941861 4.936216 -5.969090 0.880933 0.272742 0.386740 0.043212 0.070068
5.941861 4.936216 -5.969090 0.881568 0.258984 0.394671 0.043212 0.070068
4.075660 6.617149 -2.903630 0.881568 0.258984 0.394671 0.014404 0.042724
5.063649 3.760682 -3.236055 0.881568 0.258984 0.394671 0.018310 0.073974
5.941861 4.936216 -5.969090 0.941443 -0.285206 0.179843 0.043212 0.070068
5.063649 3.760682 -3.236055 0.941443 -0.285206 0.179843 0.018310 0.073974
5.667419 3.312598 -7.107278 0.941443 -0.285206 0.179843 0.056884 0.082763
5.667419 3.312598 -7.107278 0.938157 -0.295427 0.180513 0.056884 0.082763
5.063649 3.760682 -3.236055 0.938157 -0.295427 0.180513 0.018310 0.073974
4.624543 1.291683 -4.994703 0.938157 -0.295427 0.180513 0.039550 0.093505
5.667419 3.312598 -7.107278 0.727317 -0.638470 -0.251727 0.056884 0.082763
4.624543 1.291683 -4.994703 0.727317 -0.638470 -0.251727 0.039550 0.093505
4.569654 2.687078 -8.692517 0.727317 -0.638470 -0.251727 0.075683 0.082031
4.569654 2.687078 -8.692517 0.743996 -0.621432 -0.245545 0.075683 0.082031
4.624543 1.291683 -4.994703 0.743996 -0.621432 -0.245545 0.039550 0.093505
3.032784 0.347085 -7.427086 0.743996 -0.621432 -0.245545 0.068115 0.092285
4.569654 2.687078 -8.692517 0.329185 -0.607249 -0.723108 0.075683 0.082031
3.032784 0.347085 -7.427086 0.329185 -0.607249 -0.723108 0.068115 0.092285
3.197448 3.426930 -9.938505 0.329185 -0.607249 -0.723108 0.090576 0.067871
3.197448 3.426930 -9.938505 0.326987 -0.607662 -0.723759 0.090576 0.067871
3.032784 0.347085 -7.427086 0.326987 -0.607662 -0.723759 0.068115 0.092285
0.892142 1.453714 -9.323324 0.326987 -0.607662 -0.723759 0.090820 0.070800
3.197448 3.426930 -9.938505 -0.052362 -0.240964 -0.969121 0.090576 0.067871
0.892142 1.453714 -9.323324 -0.052362 -0.240964 -0.969121 0.090820 0.070800
2.154572 5.098248 -10.297717 -0.052362 -0.240964 -0.969121 0.094482 0.047119
2.154572 5.098248 -10.297717 -0.064218 -0.236932 -0.969401 0.094482 0.047119
0.892142 1.453714 -9.323324 -0.064218 -0.236932 -0.969401 0.090820 0.070800
-0.699617 3.991103 -9.838042 -0.064218 -0.236932 -0.969401 0.096923 0.039062
-0.699617 3.991103 -9.838042 -0.568618 -0.490642 -0.660260 0.096923 0.039062
0.892142 1.453714 -9.323324 -0.568618 -0.490642 -0.660260 0.090820 0.070800
-1.193612 0.881984 -7.102212 -0.568618 -0.490642 -0.660260 0.072998 0.062988
-0.699617 3.991103 -9.838042 -0.580350 -0.484055 -0.654893 0.096923 0.039062
-1.193612 0.881984 -7.102212 -0.580350 -0.484055 -0.654893 0.072998 0.062988
-2.565818 3.098539 -7.524534 -0.580350 -0.484055 -0.654893 0.078369 0.035156
-0.699617 3.991103 -9.838042 -0.794914 0.121026 -0.594528 0.096923 0.039062
-2.565818 3.098539 -7.524534 -0.794914 0.121026 -0.594528 0.078369 0.035156
-1.083835 6.881406 -8.735955 -0.794914 0.121026 -0.594528 0.083496 0.012207
-1.083835 6.881406 -8.735955 -0.800146 0.125648 -0.586497 0.083496 0.012207
-2.565818 3.098539 -7.524534 -0.800146 0.125648 -0.586497 0.078369 0.035156
-2.895147 5.588235 -6.541860 -0.800146 0.125648 -0.586497 0.066406 0.011230
-1.083835 6.881406 -8.735955 -0.703484 0.688898 -0.174727 0.083496 0.012207
-2.895147 5.588235 -6.541860 -0.703484 0.688898 -0.174727 0.066406 0.011230
0.068818 8.637556 -6.452767 -0.703484 0.688898 -0.174727 0.056884 0.002441
0.068818 8.637556 -6.452767 -0.701209 0.687136 -0.190133 0.056884 0.002441
-2.895147 5.588235 -6.541860 -0.701209 0.687136 -0.190133 0.066406 0.011230
-1.907159 7.142943 -4.566875 -0.701209 0.687136 -0.190133 0.043212 0.002685
0.068818 8.637556 -6.452767 -0.344573 0.877253 0.334211 0.056884 0.002441
-1.907159 7.142943 -4.566875 -0.344573 0.877253 0.334211 0.043212 0.002685
2.099683 8.569160 -4.179407 -0.344573 0.877253 0.334211 0.029541 0.014648
2.099683 8.569160 -4.179407 -0.344152 0.872941 0.345735 0.029541 0.014648
-1.907159 7.142943 -4.566875 -0.344152 0.872941 0.345735 0.043212 0.002685
-0.150735 7.042996 -2.566133 -0.344152 0.872941 0.345735 0.019043 0.013427
2.099683 8.569160 -4.179407 0.124623 0.628135 0.768060 0.029541 0.014648
-0.150735 7.042996 -2.566133 0.124623 0.628135 0.768060 0.019043 0.013427
4.075660 6.617149 -2.903630 0.124623 0.628135 0.768060 0.014404 0.042724
4.075660 6.617149 -2.903630 0.124992 0.638973 0.759006 0.014404 0.042724
-0.150735 7.042996 -2.566133 0.124992 0.638973 0.759006 0.019043 0.013427
1.605689 5.350988 -1.430954 0.124992 0.638973 0.759006 0.005615 0.038330
4.075660 6.617149 -2.903630 0.485603 0.066520 0.871645 0.014404 0.042724
1.605689 5.350988 -1.430954 0.485603 0.066520 0.871645 0.005615 0.038330
5.063649 3.760682 -3.236055 0.485603 0.066520 0.871645 0.018310 0.073974
5.063649 3.760682 -3.236055 0.490255 0.080990 0.867808 0.018310 0.073974
1.605689 5.350988 -1.430954 0.490255 0.080990 0.867808 0.005615 0.038330
2.483901 2.834283 -1.692209 0.490255 0.080990 0.867808 0.009033 0.065918
5.063649 3.760682 -3.236055 0.566182 -0.542645 0.620463 0.018310 0.073974
2.483901 2.834283 -1.692209 0.566182 -0.542645 0.620463 0.009033 0.065918
4.624543 1.291683 -4.994703 0.566182 -0.542645 0.620463 0.039550 0.093505
4.624543 1.291683 -4.994703 0.571548 -0.536361 0.621007 0.039550 0.093505
2.483901 2.834283 -1.692209 0.571548 -0.536361 0.621007 0.009033 0.065918
2.154572 0.663148 -3.264310 0.571548 -0.536361 0.621007 0.027832 0.083007
4.624543 1.291683 -4.994703 0.336147 -0.931102 0.141611 0.039550 0.093505
2.154572 0.663148 -3.264310 0.336147 -0.931102 0.141611 0.027832 0.083007
3.032784 0.347085 -7.427086 0.336147 -0.931102 0.141611 0.068115 0.092285
3.032784 0.347085 -7.427086 0.286099 -0.949007 0.132412 0.068115 0.092285
2.154572 0.663148 -3.264310 0.286099 -0.949007 0.132412 0.027832 0.083007
0.672589 -0.080008 -5.388475 0.286099 -0.949007 0.132412 0.052978 0.081787
3.032784 0.347085 -7.427086 -0.150230 -0.918285 -0.366311 0.068115 0.092285
0.672589 -0.080008 -5.388475 -0.150230 -0.918285 -0.366311 0.052978 0.081787
0.892142 1.453714 -9.323324 -0.150230 -0.918285 -0.366311 0.090820 0.070800
0.892142 1.453714 -9.323324 -0.137907 -0.920194 -0.366367 0.090820 0.070800
0.672589 -0.080008 -5.388475 -0.137907 -0.920194 -0.366367 0.052978 0.081787
-1.193612 0.881984 -7.102212 -0.137907 -0.920194 -0.366367 0.072998 0.062988
-1.193612 0.881984 -7.102212 -0.626209 -0.730780 0.271703 0.072998 0.062988
0.672589 -0.080008 -5.388475 -0.626209 -0.730780 0.271703 0.052978 0.081787
-1.797382 2.894604 -3.080556 -0.626209 -0.730780 0.271703 0.031738 0.040039
-1.193612 0.881984 -7.102212 -0.854082 -0.505015 0.124509 0.072998 0.062988
-1.797382 2.894604 -3.080556 -0.854082 -0.505015 0.124509 0.031738 0.040039
-2.565818 3.098539 -7.524534 -0.854082 -0.505015 0.124509 0.078369 0.035156
-2.565818 3.098539 -7.524534 -0.968708 -0.190796 0.158750 0.078369 0.035156
-1.797382 2.894604 -3.080556 -0.968708 -0.190796 0.158750 0.031738 0.040039
-2.895147 5.588235 -6.541860 -0.968708 -0.190796 0.158750 0.066406 0.011230
-2.895147 5.588235 -6.541860 -0.920462 0.107661 0.375711 0.066406 0.011230
-1.797382 2.894604 -3.080556 -0.920462 0.107661 0.375711 0.031738 0.040039
-1.907159 7.142943 -4.566875 -0.920462 0.107661 0.375711 0.043212 0.002685
-1.907159 7.142943 -4.566875 -0.729719 0.208919 0.651047 0.043212 0.002685
-1.797382 2.894604 -3.080556 -0.729719 0.208919 0.651047 0.031738 0.040039
-0.150735 7.042996 -2.566133 -0.729719 0.208919 0.651047 0.019043 0.013427
-0.150735 7.042996 -2.566133 -0.482869 0.083573 0.871695 0.019043 0.013427
-1.797382 2.894604 -3.080556 -0.482869 0.083573 0.871695 0.031738 0.040039
1.605689 5.350988 -1.430954 -0.482869 0.083573 0.871695 0.005615 0.038330
1.605689 5.350988 -1.430954 -0.304638 -0.202909 0.930604 0.005615 0.038330
-1.797382 2.894604 -3.080556 -0.304638 -0.202909 0.930604 0.031738 0.040039
2.483901 2.834283 -1.692209 -0.304638 -0.202909 0.930604 0.009033 0.065918
2.483901 2.834283 -1.692209 -0.266808 -0.538348 0.799372 0.009033 0.065918
-1.797382 2.894604 -3.080556 -0.266808 -0.538348 0.799372 0.031738 0.040039
2.154572 0.663148 -3.264310 -0.266808 -0.538348 0.799372 0.027832 0.083007
2.154572 0.663148 -3.264310 -0.395770 -0.745121 0.536806 0.027832 0.083007
-1.797382 2.894604 -3.080556 -0.395770 -0.745121 0.536806 0.031738 0.040039
0.672589 -0.080008 -5.388475 -0.395770 -0.745121 0.536806 0.052978 0.081787
2.044795 0.651771 -5.749457 -0.423580 0.510650 -0.748209 0.098877 0.034668
-0.095847 1.763982 -3.778505 -0.423580 0.510650 -0.748209 0.075195 0.020752
1.660577 3.078874 -3.875451 -0.423580 0.510650 -0.748209 0.073242 0.005371
2.044795 0.651771 -5.749457 -0.111945 0.596140 -0.795038 0.098877 0.034668
1.660577 3.078874 -3.875451 -0.111945 0.596140 -0.795038 0.073242 0.005371
3.856107 2.797666 -4.395449 -0.111945 0.596140 -0.795038 0.078125 0.010009
2.044795 0.651771 -5.749457 0.127834 0.449829 -0.883919 0.098877 0.034668
3.856107 2.797666 -4.395449 0.127834 0.449829 -0.883919 0.078125 0.010009
5.008760 1.115487 -5.084815 0.127834 0.449829 -0.883919 0.087158 0.031738
2.044795 0.651771 -5.749457 0.197010 0.132975 -0.971342 0.098877 0.034668
5.008760 1.115487 -5.084815 0.197010 0.132975 -0.971342 0.087158 0.031738
4.679431 -1.025858 -5.444757 0.197010 0.132975 -0.971342 0.094726 0.057861
2.044795 0.651771 -5.749457 0.036301 -0.123114 -0.991728 0.098877 0.034668
4.679431 -1.025858 -5.444757 0.036301 -0.123114 -0.991728 0.094726 0.057861
2.868119 -2.340751 -5.347826 0.036301 -0.123114 -0.991728 0.096679 0.073242
2.044795 0.651771 -5.749457 -0.230000 -0.191343 -0.954195 0.098877 0.034668
2.868119 -2.340751 -5.347826 -0.230000 -0.191343 -0.954195 0.096679 0.073242
0.727477 -2.120374 -4.876036 -0.230000 -0.191343 -0.954195 0.091796 0.068603
2.044795 0.651771 -5.749457 -0.517613 -0.023509 -0.855292 0.098877 0.034668
0.727477 -2.120374 -4.876036 -0.517613 -0.023509 -0.855292 0.091796 0.068603
-0.480064 -0.383675 -4.192981 -0.517613 -0.023509 -0.855292 0.082763 0.046875
2.044795 0.651771 -5.749457 -0.580783 0.253214 -0.773675 0.098877 0.034668
-0.480064 -0.383675 -4.192981 -0.580783 0.253214 -0.773675 0.082763 0.046875
-0.095847 1.763982 -3.778505 -0.580783 0.253214 -0.773675 0.075195 0.020752
-0.095847 1.763982 -3.778505 -0.973031 0.197180 -0.119715 0.075195 0.020752
-0.480064 -0.383675 -4.192981 -0.973031 0.197180 -0.119715 0.082763 0.046875
-1.028947 -1.315864 -1.267100 -0.973031 0.197180 -0.119715 0.048095 0.061279
-0.095847 1.763982 -3.778505 -0.972997 0.197845 -0.118886 0.075195 0.020752
-1.028947 -1.315864 -1.267100 -0.972997 0.197845 -0.118886 0.048095 0.061279
-0.480064 1.735727 -0.680971 -0.972997 0.197845 -0.118886 0.037109 0.024414
-0.095847 1.763982 -3.778505 -0.600312 0.796938 -0.067193 0.075195 0.020752
-0.480064 1.735727 -0.680971 -0.600312 0.796938 -0.067193 0.037109 0.024414
1.660577 3.078874 -3.875451 -0.600312 0.796938 -0.067193 0.073242 0.005371
1.660577 3.078874 -3.875451 -0.594541 0.801725 -0.061313 0.073242 0.005371
-0.480064 1.735727 -0.680971 -0.594541 0.801725 -0.061313 0.037109 0.024414
2.044795 3.595864 -0.841033 -0.594541 0.801725 -0.061313 0.034423 0.002685
1.660577 3.078874 -3.875451 0.083519 0.980546 -0.177636 0.073242 0.005371
2.044795 3.595864 -0.841033 0.083519 0.980546 -0.177636 0.034423 0.002685
3.856107 2.797666 -4.395449 0.083519 0.980546 -0.177636 0.078125 0.010009
3.856107 2.797666 -4.395449 0.114017 0.980180 -0.162012 0.078125 0.010009
2.044795 3.595864 -0.841033 0.114017 0.980180 -0.162012 0.034423 0.002685
5.063649 3.125836 -1.560188 0.114017 0.980180 -0.162012 0.041503 0.009033
3.856107 2.797666 -4.395449 0.690738 0.623435 -0.366347 0.078125 0.010009
5.063649 3.125836 -1.560188 0.690738 0.623435 -0.366347 0.041503 0.009033
5.008760 1.115487 -5.084815 0.690738 0.623435 -0.366347 0.087158 0.031738
5.008760 1.115487 -5.084815 0.678432 0.633559 -0.371930 0.087158 0.031738
5.063649 3.125836 -1.560188 0.678432 0.633559 -0.371930 0.041503 0.009033
6.765184 0.751504 -2.500966 0.678432 0.633559 -0.371930 0.053955 0.039794
5.008760 1.115487 -5.084815 0.824504 -0.031840 -0.564959 0.087158 0.031738
6.765184 0.751504 -2.500966 0.824504 -0.031840 -0.564959 0.053955 0.039794
4.679431 -1.025858 -5.444757 0.824504 -0.031840 -0.564959 0.094726 0.057861
4.679431 -1.025858 -5.444757 0.829490 -0.052441 -0.556054 0.094726 0.057861
6.765184 0.751504 -2.500966 0.829490 -0.052441 -0.556054 0.053955 0.039794
6.216302 -2.293782 -3.032562 0.829490 -0.052441 -0.556054 0.064941 0.076904
4.679431 -1.025858 -5.444757 0.438471 -0.649783 -0.620907 0.094726 0.057861
6.216302 -2.293782 -3.032562 0.438471 -0.649783 -0.620907 0.064941 0.076904
2.868119 -2.340751 -5.347826 0.438471 -0.649783 -0.620907 0.096679 0.073242
2.868119 -2.340751 -5.347826 0.444500 -0.636918 -0.629885 0.096679 0.073242
6.216302 -2.293782 -3.032562 0.444500 -0.636918 -0.629885 0.064941 0.076904
3.691442 -4.160223 -2.927033 0.444500 -0.636918 -0.629885 0.067627 0.098388
2.868119 -2.340751 -5.347826 -0.203556 -0.814647 -0.543060 0.096679 0.073242
3.691442 -4.160223 -2.927033 -0.203556 -0.814647 -0.543060 0.067627 0.098388
0.727477 -2.120374 -4.876036 -0.203556 -0.814647 -0.543060 0.091796 0.068603
0.727477 -2.120374 -4.876036 -0.247605 -0.832815 -0.495087 0.091796 0.068603
3.691442 -4.160223 -2.927033 -0.247605 -0.832815 -0.495087 0.067627 0.098388
0.672589 -3.690210 -2.207871 -0.247605 -0.832815 -0.495087 0.060791 0.092041
0.727477 -2.120374 -4.876036 -0.835310 -0.466166 -0.291456 0.091796 0.068603
0.672589 -3.690210 -2.207871 -0.835310 -0.466166 -0.291456 0.060791 0.092041
-0.480064 -0.383675 -4.192981 -0.835310 -0.466166 -0.291456 0.082763 0.046875
-0.480064 -0.383675 -4.192981 -0.827143 -0.471728 -0.305461 0.082763 0.046875
0.672589 -3.690210 -2.207871 -0.827143 -0.471728 -0.305461 0.060791 0.092041
-1.028947 -1.315864 -1.267100 -0.827143 -0.471728 -0.305461 0.048095 0.061279
-1.028947 -1.315864 -1.267100 -0.676892 -0.633559 0.374727 0.048095 0.061279
0.672589 -3.690210 -2.207871 -0.676892 -0.633559 0.374727 0.060791 0.092041
1.935018 -3.362032 0.627382 -0.676892 -0.633559 0.374727 0.023925 0.091308
-1.028947 -1.315864 -1.267100 -0.678498 -0.624138 0.387417 0.048095 0.061279
1.935018 -3.362032 0.627382 -0.678498 -0.624138 0.387417 0.023925 0.091308
0.727484 -1.625334 1.310444 -0.678498 -0.624138 0.387417 0.015136 0.069580
-1.028947 -1.315864 -1.267100 -0.823522 0.039429 0.565912 0.048095 0.061279
0.727484 -1.625334 1.310444 -0.823522 0.039429 0.565912 0.015136 0.069580
-0.480064 1.735727 -0.680971 -0.823522 0.039429 0.565912 0.037109 0.024414
-0.480064 1.735727 -0.680971 -0.837221 0.022936 0.546383 0.037109 0.024414
0.727484 -1.625334 1.310444 -0.837221 0.022936 0.546383 0.015136 0.069580
1.056813 0.522330 1.724919 -0.837221 0.022936 0.546383 0.007324 0.043212
-0.480064 1.735727 -0.680971 -0.443088 0.654171 0.612971 0.037109 0.024414
1.056813 0.522330 1.724919 -0.443088 0.654171 0.612971 0.007324 0.043212
2.044795 3.595864 -0.841033 -0.443088 0.654171 0.612971 0.034423 0.002685
2.044795 3.595864 -0.841033 -0.438163 0.654894 0.615733 0.034423 0.002685
1.056813 0.522330 1.724919 -0.438163 0.654894 0.615733 0.007324 0.043212
2.813237 1.782689 1.634292 -0.438163 0.654894 0.615733 0.005371 0.028076
2.044795 3.595864 -0.841033 0.251007 0.816397 0.520088 0.034423 0.002685
2.813237 1.782689 1.634292 0.251007 0.816397 0.520088 0.005371 0.028076
5.063649 3.125836 -1.560188 0.251007 0.816397 0.520088 0.041503 0.009033
5.063649 3.125836 -1.560188 0.190937 0.849564 0.491716 0.041503 0.009033
2.813237 1.782689 1.634292 0.190937 0.849564 0.491716 0.005371 0.028076
5.008767 1.562318 1.162496 0.190937 0.849564 0.491716 0.010253 0.032470
5.063649 3.125836 -1.560188 0.828474 0.478274 0.291351 0.041503 0.009033
5.008767 1.562318 1.162496 0.828474 0.478274 0.291351 0.010253 0.032470
6.765184 0.751504 -2.500966 0.828474 0.478274 0.291351 0.053955 0.039794
6.765184 0.751504 -2.500966 0.838699 0.453341 0.301772 0.053955 0.039794
5.008767 1.562318 1.162496 0.838699 0.453341 0.301772 0.010253 0.032470
6.216302 -0.180692 0.424922 0.838699 0.453341 0.301772 0.019287 0.054199
6.765184 0.751504 -2.500966 0.973163 -0.196351 0.120003 0.053955 0.039794
6.216302 -0.180692 0.424922 0.973163 -0.196351 0.120003 0.019287 0.054199
6.216302 -2.293782 -3.032562 0.973163 -0.196351 0.120003 0.064941 0.076904
6.216302 -2.293782 -3.032562 0.972010 -0.200466 0.122518 0.064941 0.076904
6.216302 -0.180692 0.424922 0.972010 -0.200466 0.122518 0.019287 0.054199
5.832084 -2.267510 0.058661 0.972010 -0.200466 0.122518 0.026855 0.080322
6.216302 -2.293782 -3.032562 0.594680 -0.799900 0.080713 0.064941 0.076904
5.832084 -2.267510 0.058661 0.594680 -0.799900 0.080713 0.026855 0.080322
3.691442 -4.160223 -2.927033 0.594680 -0.799900 0.080713 0.067627 0.098388
3.691442 -4.160223 -2.927033 0.600259 -0.796333 0.074452 0.067627 0.098388
5.832084 -2.267510 0.058661 0.600259 -0.796333 0.074452 0.026855 0.080322
4.075660 -3.582403 0.155600 0.600259 -0.796333 0.074452 0.028808 0.095703
3.691442 -4.160223 -2.927033 -0.105139 -0.974980 0.195858 0.067627 0.098388
4.075660 -3.582403 0.155600 -0.105139 -0.974980 0.195858 0.028808 0.095703
0.672589 -3.690210 -2.207871 -0.105139 -0.974980 0.195858 0.060791 0.092041
0.672589 -3.690210 -2.207871 -0.069595 -0.986948 0.145226 0.060791 0.092041
4.075660 -3.582403 0.155600 -0.069595 -0.986948 0.145226 0.028808 0.095703
1.935018 -3.362032 0.627382 -0.069595 -0.986948 0.145226 0.023925 0.091308
1.935018 -3.362032 0.627382 0.116711 -0.584814 0.802727 0.023925 0.091308
4.075660 -3.582403 0.155600 0.116711 -0.584814 0.802727 0.028808 0.095703
3.691449 -1.161618 1.975086 0.116711 -0.584814 0.802727 0.003173 0.066650
1.935018 -3.362032 0.627382 -0.130374 -0.440083 0.888442 0.023925 0.091308
3.691449 -1.161618 1.975086 -0.130374 -0.440083 0.888442 0.003173 0.066650
0.727484 -1.625334 1.310444 -0.130374 -0.440083 0.888442 0.015136 0.069580
0.727484 -1.625334 1.310444 -0.192570 -0.157396 0.968578 0.015136 0.069580
3.691449 -1.161618 1.975086 -0.192570 -0.157396 0.968578 0.003173 0.066650
1.056813 0.522330 1.724919 -0.192570 -0.157396 0.968578 0.007324 0.043212
1.056813 0.522330 1.724919 -0.025754 0.107357 0.993887 0.007324 0.043212
3.691449 -1.161618 1.975086 -0.025754 0.107357 0.993887 0.003173 0.066650
2.813237 1.782689 1.634292 -0.025754 0.107357 0.993887 0.005371 0.028076
2.813237 1.782689 1.634292 0.223764 0.177665 0.958314 0.005371 0.028076
3.691449 -1.161618 1.975086 0.223764 0.177665 0.958314 0.003173 0.066650
5.008767 1.562318 1.162496 0.223764 0.177665 0.958314 0.010253 0.032470
5.008767 1.562318 1.162496 0.522803 0.001467 0.852452 0.010253 0.032470
3.691449 -1.161618 1.975086 0.522803 0.001467 0.852452 0.003173 0.066650
6.216302 -0.180692 0.424922 0.522803 0.001467 0.852452 0.019287 0.054199
6.216302 -0.180692 0.424922 0.574342 -0.242949 0.781733 0.019287 0.054199
3.691449 -1.161618 1.975086 0.574342 -0.242949 0.781733 0.003173 0.066650
5.832084 -2.267510 0.058661 0.574342 -0.242949 0.781733 0.026855 0.080322
5.832084 -2.267510 0.058661 0.417958 -0.502508 0.756833 0.026855 0.080322
3.691449 -1.161618 1.975086 0.417958 -0.502508 0.756833 0.003173 0.066650
4.075660 -3.582403 0.155600 0.417958 -0.502508 0.756833 0.028808 0.095703
3.307225 1.670346 -1.723245 0.708008 0.627505 0.323978 0.916016 0.635254
0.343259 3.952798 0.333262 0.708008 0.627505 0.323978 0.893799 0.634521
3.691442 0.056336 0.563241 0.708008 0.627505 0.323978 0.915283 0.646973
3.307225 1.670346 -1.723245 0.894530 -0.280319 -0.348190 0.916016 0.635254
3.691442 0.056336 0.563241 0.894530 -0.280319 -0.348190 0.915283 0.646973
2.154572 -1.423155 -2.194009 0.894530 -0.280319 -0.348190 0.939209 0.639404
2.154572 -1.423155 -2.194009 0.846827 0.095453 -0.523233 0.939209 0.639404
3.691442 0.056336 0.563241 0.846827 0.095453 -0.523233 0.915283 0.646973
2.977895 -3.297670 -1.203468 0.846827 0.095453 -0.523233 0.938232 0.649658
2.154572 -1.423155 -2.194009 0.014456 -0.462187 -0.886665 0.939209 0.639404
2.977895 -3.297670 -1.203468 0.014456 -0.462187 -0.886665 0.938232 0.649658
-1.413165 -4.973028 -0.401752 0.014456 -0.462187 -0.886665 0.963623 0.650146
2.154572 -1.423155 -2.194009 -0.123987 -0.345099 -0.930341 0.939209 0.639404
-1.413165 -4.973028 -0.401752 -0.123987 -0.345099 -0.930341 0.963623 0.650146
-2.620706 -3.259807 -0.876322 -0.123987 -0.345099 -0.930341 0.965576 0.639893
4.459878 -4.337673 -0.641051 0.048531 -0.712316 -0.700179 0.937012 0.661377
-0.480064 -6.004441 0.712214 0.048531 -0.712316 -0.700179 0.964111 0.660889
-1.413165 -4.973028 -0.401752 0.048531 -0.712316 -0.700179 0.963623 0.650146
4.459878 -4.337673 -0.641051 0.013656 -0.460513 -0.887548 0.937012 0.661377
-1.413165 -4.973028 -0.401752 0.013656 -0.460513 -0.887548 0.963623 0.650146
2.977895 -3.297670 -1.203468 0.013656 -0.460513 -0.887548 0.938232 0.649658
4.459878 -4.337673 -0.641051 0.519315 0.309174 -0.796695 0.937012 0.661377
2.977895 -3.297670 -1.203468 0.519315 0.309174 -0.796695 0.938232 0.649658
3.691442 0.056336 0.563241 0.519315 0.309174 -0.796695 0.915283 0.646973
4.459878 -4.337673 -0.641051 0.712139 0.298671 -0.635338 0.937012 0.661377
3.691442 0.056336 0.563241 0.712139 0.298671 -0.635338 0.915283 0.646973
5.722314 -0.716837 2.476142 0.712139 0.298671 -0.635338 0.916992 0.660400
4.459878 -4.337673 -0.641051 0.827021 0.172327 -0.535107 0.937012 0.661377
5.722314 -0.716837 2.476142 0.827021 0.172327 -0.535107 0.916992 0.660400
5.667419 -6.581236 0.502712 0.827021 0.172327 -0.535107 0.938232 0.679932
4.459878 -4.337673 -0.641051 -0.075177 -0.484717 -0.871434 0.937012 0.661377
5.667419 -6.581236 0.502712 -0.075177 -0.484717 -0.871434 0.938232 0.679932
-0.480064 -6.004441 0.712214 -0.075177 -0.484717 -0.871434 0.964111 0.660889
-0.480064 -6.004441 0.712214 -0.091986 -0.737288 -0.669287 0.964111 0.660889
5.667419 -6.581236 0.502712 -0.091986 -0.737288 -0.669287 0.938232 0.679932
-0.095840 -7.235011 2.015006 -0.091986 -0.737288 -0.669287 0.964355 0.679199
-0.480064 -6.004441 0.712214 -0.782530 -0.551084 -0.289747 0.825195 0.667236
-0.095840 -7.235011 2.015006 -0.782530 -0.551084 -0.289747 0.825439 0.687012
-3.279358 -4.834407 6.047014 -0.782530 -0.551084 -0.289747 0.849609 0.684326
-0.480064 -6.004441 0.712214 -0.540846 -0.835079 -0.100644 0.825195 0.667236
-3.279358 -4.834407 6.047014 -0.540846 -0.835079 -0.100644 0.849609 0.684326
-4.541788 -3.870144 4.830300 -0.540846 -0.835079 -0.100644 0.852539 0.660645
-0.480064 -6.004441 0.712214 -0.711836 -0.574150 -0.404526 0.825195 0.667236
-4.541788 -3.870144 4.830300 -0.711836 -0.574150 -0.404526 0.852539 0.660645
-4.212459 -2.788761 2.715964 -0.711836 -0.574150 -0.404526 0.848389 0.649414
-0.480064 -6.004441 0.712214 -0.680235 -0.725827 -0.102247 0.825195 0.667236
-4.212459 -2.788761 2.715964 -0.680235 -0.725827 -0.102247 0.848389 0.649414
-1.413165 -4.973028 -0.401752 -0.680235 -0.725827 -0.102247 0.824707 0.654297
-1.413165 -4.973028 -0.401752 -0.755449 -0.603281 -0.255635 0.824707 0.654297
-4.212459 -2.788761 2.715964 -0.755449 -0.603281 -0.255635 0.848389 0.649414
-2.620706 -3.259807 -0.876322 -0.755449 -0.603281 -0.255635 0.822510 0.641846
-2.620706 -3.259807 -0.876322 -0.593800 -0.788604 -0.159707 0.822510 0.641846
-4.212459 -2.788761 2.715964 -0.593800 -0.788604 -0.159707 0.848389 0.649414
-5.474888 -1.528898 1.188774 -0.593800 -0.788604 -0.159707 0.846436 0.635986
10.442703 -13.857828 19.744768 -0.558582 -0.829344 0.013241 0.843750 0.766113
8.741168 -12.669891 22.370010 -0.558582 -0.829344 0.013241 0.859863 0.764404
-3.279358 -4.834407 6.047014 -0.558582 -0.829344 0.013241 0.849609 0.684326
10.442703 -13.857828 19.744768 -0.573176 -0.818690 0.034879 0.843750 0.766113
-3.279358 -4.834407 6.047014 -0.573176 -0.818690 0.034879 0.849609 0.684326
-0.095840 -7.235011 2.015006 -0.573176 -0.818690 0.034879 0.825439 0.687012
10.442703 -13.857828 19.744768 0.012462 -0.934254 -0.356391 0.952148 0.757324
-0.095840 -7.235011 2.015006 0.012462 -0.934254 -0.356391 0.964355 0.679199
5.667419 -6.581236 0.502712 0.012462 -0.934254 -0.356391 0.938232 0.679932
10.442703 -13.857828 19.744768 0.265553 -0.878122 -0.397973 0.952148 0.757324
5.667419 -6.581236 0.502712 0.265553 -0.878122 -0.397973 0.938232 0.679932
13.790887 -12.683539 19.387833 0.265553 -0.878122 -0.397973 0.933594 0.758301
10.442703 -13.857828 19.744768 0.208284 -0.775163 -0.596440 0.952148 0.757324
13.790887 -12.683539 19.387833 0.208284 -0.775163 -0.596440 0.933594 0.758301
15.108198 -18.688984 27.652830 0.208284 -0.775163 -0.596440 0.950684 0.791260
10.442703 -13.857828 19.744768 -0.629957 -0.770302 -0.098935 0.843750 0.766113
15.108198 -18.688984 27.652830 -0.629957 -0.770302 -0.098935 0.849609 0.800781
13.406662 -17.593430 29.957237 -0.629957 -0.770302 -0.098935 0.864746 0.799072
10.442703 -13.857828 19.744768 -0.654880 -0.750979 -0.084634 0.843750 0.766113
13.406662 -17.593430 29.957237 -0.654880 -0.750979 -0.084634 0.864746 0.799072
8.741168 -12.669891 22.370010 -0.654880 -0.750979 -0.084634 0.859863 0.764404
8.741168 -12.669891 22.370010 -0.825691 0.078455 0.558640 0.859863 0.764404
13.406662 -17.593430 29.957237 -0.825691 0.078455 0.558640 0.864746 0.799072
10.387815 -10.326594 24.474726 -0.825691 0.078455 0.558640 0.877197 0.763184
8.741168 -12.669891 22.370010 -0.808691 0.041229 0.586787 0.859863 0.764404
10.387815 -10.326594 24.474726 -0.808691 0.041229 0.586787 0.877197 0.763184
-0.260505 -1.104518 9.151577 -0.808691 0.041229 0.586787 0.872559 0.683594
8.741168 -12.669891 22.370010 -0.774806 0.108737 0.622777 0.859863 0.764404
-0.260505 -1.104518 9.151577 -0.774806 0.108737 0.622777 0.872559 0.683594
-3.279358 -4.834407 6.047014 -0.774806 0.108737 0.622777 0.849609 0.684326
-3.279358 -4.834407 6.047014 -0.702809 -0.022975 0.711008 0.849609 0.684326
-0.260505 -1.104518 9.151577 -0.702809 -0.022975 0.711008 0.872559 0.683594
-4.541788 -3.870144 4.830300 -0.702809 -0.022975 0.711008 0.852539 0.660645
-4.541788 -3.870144 4.830300 -0.760016 0.461427 0.457668 0.852539 0.660645
-0.260505 -1.104518 9.151577 -0.760016 0.461427 0.457668 0.872559 0.683594
-1.852264 -0.537338 5.936420 -0.760016 0.461427 0.457668 0.871582 0.659180
-4.541788 -3.870144 4.830300 -0.749919 0.441743 0.492427 0.852539 0.660645
-1.852264 -0.537338 5.936420 -0.749919 0.441743 0.492427 0.871582 0.659180
-2.401146 0.726553 3.966721 -0.749919 0.441743 0.492427 0.870850 0.646484
-4.541788 -3.870144 4.830300 -0.897509 0.433336 0.081835 0.852539 0.660645
-2.401146 0.726553 3.966721 -0.897509 0.433336 0.081835 0.870850 0.646484
-4.212459 -2.788761 2.715964 -0.897509 0.433336 0.081835 0.848389 0.649414
-4.212459 -2.788761 2.715964 -0.645744 0.061950 0.761037 0.848389 0.649414
-2.401146 0.726553 3.966721 -0.645744 0.061950 0.761037 0.870850 0.646484
-4.377123 2.888072 2.114142 -0.645744 0.061950 0.761037 0.872559 0.632813
-4.212459 -2.788761 2.715964 -0.749977 0.048184 0.659707 0.848389 0.649414
-4.377123 2.888072 2.114142 -0.749977 0.048184 0.659707 0.872559 0.632813
-5.474888 -1.528898 1.188774 -0.749977 0.048184 0.659707 0.846436 0.635986
13.406662 -17.593430 29.957237 -0.810415 0.098980 0.577434 0.864746 0.799072
14.833763 -15.361465 31.577553 -0.810415 0.098980 0.577434 0.881348 0.795654
10.387815 -10.326594 24.474726 -0.810415 0.098980 0.577434 0.877197 0.763184
10.387815 -10.326594 24.474726 -0.192478 0.739702 0.644821 0.877197 0.763184
14.833763 -15.361465 31.577553 -0.192478 0.739702 0.644821 0.881348 0.795654
13.516445 -9.206833 24.124088 -0.192478 0.739702 0.644821 0.895508 0.761963
10.387815 -10.326594 24.474726 -0.206961 0.768029 0.606051 0.877197 0.763184
13.516445 -9.206833 24.124088 -0.206961 0.768029 0.606051 0.895508 0.761963
-0.260505 -1.104518 9.151577 -0.206961 0.768029 0.606051 0.872559 0.683594
-0.260505 -1.104518 9.151577 -0.244972 0.740319 0.626032 0.872559 0.683594
13.516445 -9.206833 24.124088 -0.244972 0.740319 0.626032 0.895508 0.761963
4.130555 0.868691 8.536403 -0.244972 0.740319 0.626032 0.894043 0.682861
-0.260505 -1.104518 9.151577 -0.302870 0.823528 0.479658 0.872559 0.683594
4.130555 0.868691 8.536403 -0.302870 0.823528 0.479658 0.894043 0.682861
2.758349 2.260060 5.281105 -0.302870 0.823528 0.479658 0.891846 0.656006
-0.260505 -1.104518 9.151577 -0.444630 0.818210 0.364467 0.872559 0.683594
2.758349 2.260060 5.281105 -0.444630 0.818210 0.364467 0.891846 0.656006
-1.852264 -0.537338 5.936420 -0.444630 0.818210 0.364467 0.871582 0.659180
-1.852264 -0.537338 5.936420 -0.364183 0.734406 0.572729 0.871582 0.659180
2.758349 2.260060 5.281105 -0.364183 0.734406 0.572729 0.891846 0.656006
-2.401146 0.726553 3.966721 -0.364183 0.734406 0.572729 0.870850 0.646484
-2.401146 0.726553 3.966721 -0.284436 0.958693 -0.001993 0.870850 0.646484
2.758349 2.260060 5.281105 -0.284436 0.958693 -0.001993 0.891846 0.656006
1.166590 1.783205 3.070841 -0.284436 0.958693 -0.001993 0.893066 0.646729
-2.401146 0.726553 3.966721 -0.001634 0.649898 0.760019 0.870850 0.646484
1.166590 1.783205 3.070841 -0.001634 0.649898 0.760019 0.893066 0.646729
-4.377123 2.888072 2.114142 -0.001634 0.649898 0.760019 0.872559 0.632813
-4.377123 2.888072 2.114142 0.052120 0.790225 0.610596 0.872559 0.632813
1.166590 1.783205 3.070841 0.052120 0.790225 0.610596 0.893066 0.646729
0.343259 3.952798 0.333262 0.052120 0.790225 0.610596 0.893799 0.634521
0.343259 3.952798 0.333262 0.718231 0.634078 0.286512 0.893799 0.634521
1.166590 1.783205 3.070841 0.718231 0.634078 0.286512 0.893066 0.646729
3.691442 0.056336 0.563241 0.718231 0.634078 0.286512 0.915283 0.646973
3.691442 0.056336 0.563241 0.245358 0.896040 -0.370016 0.915283 0.646973
1.166590 1.783205 3.070841 0.245358 0.896040 -0.370016 0.893066 0.646729
2.758349 2.260060 5.281105 0.245358 0.896040 -0.370016 0.891846 0.656006
3.691442 0.056336 0.563241 0.549037 0.793632 -0.262120 0.915283 0.646973
2.758349 2.260060 5.281105 0.549037 0.793632 -0.262120 0.891846 0.656006
5.722314 -0.716837 2.476142 0.549037 0.793632 -0.262120 0.916992 0.660400
5.722314 -0.716837 2.476142 0.668327 0.739681 -0.078809 0.916992 0.660400
2.758349 2.260060 5.281105 0.668327 0.739681 -0.078809 0.891846 0.656006
7.039632 -1.613441 5.232146 0.668327 0.739681 -0.078809 0.914795 0.681641
5.722314 -0.716837 2.476142 0.910364 0.124299 -0.394699 0.916992 0.660400
7.039632 -1.613441 5.232146 0.910364 0.124299 -0.394699 0.914795 0.681641
5.667419 -6.581236 0.502712 0.910364 0.124299 -0.394699 0.938232 0.679932
5.667419 -6.581236 0.502712 0.925224 0.094311 -0.367512 0.938232 0.679932
7.039632 -1.613441 5.232146 0.925224 0.094311 -0.367512 0.914795 0.681641
13.790887 -12.683539 19.387833 0.925224 0.094311 -0.367512 0.933594 0.758301
13.790887 -12.683539 19.387833 0.871228 -0.086541 -0.483191 0.933594 0.758301
7.039632 -1.613441 5.232146 0.871228 -0.086541 -0.483191 0.914795 0.681641
15.217981 -10.442985 21.559698 0.871228 -0.086541 -0.483191 0.914551 0.760254
13.790887 -12.683539 19.387833 0.859778 -0.055551 -0.507637 0.933594 0.758301
15.217981 -10.442985 21.559698 0.859778 -0.055551 -0.507637 0.914551 0.760254
18.017275 -17.485416 27.071491 0.859778 -0.055551 -0.507637 0.935059 0.790771
13.790887 -12.683539 19.387833 0.202124 -0.776692 -0.596569 0.933594 0.758301
18.017275 -17.485416 27.071491 0.202124 -0.776692 -0.596569 0.935059 0.790771
15.108198 -18.688984 27.652830 0.202124 -0.776692 -0.596569 0.950684 0.791260
15.108198 -18.688984 27.652830 0.118311 -0.648973 -0.751556 0.950684 0.791260
18.017275 -17.485416 27.071491 0.118311 -0.648973 -0.751556 0.935059 0.790771
16.864622 -21.422754 30.289957 0.118311 -0.648973 -0.751556 0.953125 0.810303
15.108198 -18.688984 27.652830 -0.715971 -0.665001 -0.212508 0.849609 0.800781
16.864622 -21.422754 30.289957 -0.715971 -0.665001 -0.212508 0.849365 0.823242
13.406662 -17.593430 29.957237 -0.715971 -0.665001 -0.212508 0.864746 0.799072
13.406662 -17.593430 29.957237 -0.718103 -0.666005 -0.201905 0.864746 0.799072
16.864622 -21.422754 30.289957 -0.718103 -0.666005 -0.201905 0.849365 0.823242
14.778869 -20.081587 33.284248 -0.718103 -0.666005 -0.201905 0.867432 0.821289
13.406662 -17.593430 29.957237 -0.850717 0.187451 0.491062 0.864746 0.799072
14.778869 -20.081587 33.284248 -0.850717 0.187451 0.491062 0.867432 0.821289
14.833763 -15.361465 31.577553 -0.850717 0.187451 0.491062 0.881348 0.795654
14.833763 -15.361465 31.577553 -0.819256 0.203387 0.536146 0.881348 0.795654
14.778869 -20.081587 33.284248 -0.819256 0.203387 0.536146 0.867432 0.821289
16.645069 -17.648178 35.212776 -0.819256 0.203387 0.536146 0.884521 0.818115
14.833763 -15.361465 31.577553 -0.182265 0.788799 0.587005 0.881348 0.795654
16.645069 -17.648178 35.212776 -0.182265 0.788799 0.587005 0.884521 0.818115
17.523287 -14.321470 31.015137 -0.182265 0.788799 0.587005 0.899658 0.792969
14.833763 -15.361465 31.577553 -0.154430 0.748269 0.645170 0.881348 0.795654
17.523287 -14.321470 31.015137 -0.154430 0.748269 0.645170 0.899658 0.792969
13.516445 -9.206833 24.124088 -0.154430 0.748269 0.645170 0.895508 0.761963
13.516445 -9.206833 24.124088 0.661309 0.732961 0.159492 0.895508 0.761963
17.523287 -14.321470 31.015137 0.661309 0.732961 0.159492 0.899658 0.792969
19.115047 -15.289036 28.861685 0.661309 0.732961 0.159492 0.917725 0.791260
13.516445 -9.206833 24.124088 0.687210 0.718110 0.109819 0.895508 0.761963
19.115047 -15.289036 28.861685 0.687210 0.718110 0.109819 0.917725 0.791260
15.217981 -10.442985 21.559698 0.687210 0.718110 0.109819 0.914551 0.760254
13.516445 -9.206833 24.124088 0.663267 0.743933 0.081485 0.895508 0.761963
15.217981 -10.442985 21.559698 0.663267 0.743933 0.081485 0.914551 0.760254
4.130555 0.868691 8.536403 0.663267 0.743933 0.081485 0.894043 0.682861
4.130555 0.868691 8.536403 0.682148 0.729312 0.052712 0.894043 0.682861
15.217981 -10.442985 21.559698 0.682148 0.729312 0.052712 0.914551 0.760254
7.039632 -1.613441 5.232146 0.682148 0.729312 0.052712 0.914795 0.681641
4.130555 0.868691 8.536403 0.670736 0.740919 0.033946 0.894043 0.682861
7.039632 -1.613441 5.232146 0.670736 0.740919 0.033946 0.914795 0.681641
2.758349 2.260060 5.281105 0.670736 0.740919 0.033946 0.891846 0.656006
16.645069 -17.648178 35.212776 -0.192147 0.788289 0.584534 0.884521 0.818115
19.993252 -16.486513 34.746788 -0.192147 0.788289 0.584534 0.901855 0.815430
17.523287 -14.321470 31.015137 -0.192147 0.788289 0.584534 0.899658 0.792969
17.523287 -14.321470 31.015137 0.590444 0.803550 0.075394 0.899658 0.792969
19.993252 -16.486513 34.746788 0.590444 0.803550 0.075394 0.901855 0.815430
19.115047 -15.289036 28.861685 0.590444 0.803550 0.075394 0.917725 0.791260
19.115047 -15.289036 28.861685 0.584659 0.807608 0.077083 0.917725 0.791260
19.993252 -16.486513 34.746788 0.584659 0.807608 0.077083 0.901855 0.815430
21.804564 -17.529804 31.939045 0.584659 0.807608 0.077083 0.918213 0.812744
19.115047 -15.289036 28.861685 0.785362 0.104748 -0.610110 0.917725 0.791260
21.804564 -17.529804 31.939045 0.785362 0.104748 -0.610110 0.918213 0.812744
18.017275 -17.485416 27.071491 0.785362 0.104748 -0.610110 0.935059 0.790771
19.115047 -15.289036 28.861685 0.871320 -0.036647 -0.489344 0.917725 0.791260
18.017275 -17.485416 27.071491 0.871320 -0.036647 -0.489344 0.935059 0.790771
15.217981 -10.442985 21.559698 0.871320 -0.036647 -0.489344 0.914551 0.760254
21.804564 -17.529804 31.939045 0.783653 0.124471 -0.608601 0.918213 0.812744
20.377470 -19.728468 29.651802 0.783653 0.124471 -0.608601 0.934814 0.810547
18.017275 -17.485416 27.071491 0.783653 0.124471 -0.608601 0.935059 0.790771
18.017275 -17.485416 27.071491 0.181839 -0.653698 -0.734584 0.935059 0.790771
20.377470 -19.728468 29.651802 0.181839 -0.653698 -0.734584 0.934814 0.810547
16.864622 -21.422754 30.289957 0.181839 -0.653698 -0.734584 0.953125 0.810303
20.377476 -4.966561 23.522783 -0.867004 0.195106 -0.458517 0.647949 0.928223
16.425522 -15.505882 26.510830 -0.867004 0.195106 -0.458517 0.468994 0.910400
16.041306 -15.010615 27.448084 -0.867004 0.195106 -0.458517 0.467529 0.924316
20.377476 -4.966561 23.522783 -0.156443 0.417377 0.895166 0.647949 0.928223
16.041306 -15.010615 27.448084 -0.156443 0.417377 0.895166 0.467529 0.924316
17.029293 -15.306209 27.758572 -0.156443 0.417377 0.895166 0.468262 0.940674
20.377476 -4.966561 23.522783 0.945022 -0.200044 0.258682 0.647949 0.928223
17.029293 -15.306209 27.758572 0.945022 -0.200044 0.258682 0.468262 0.940674
17.193958 -15.686118 26.863222 0.945022 -0.200044 0.258682 0.469238 0.923096
20.377476 -4.966561 23.522783 0.315458 -0.366456 -0.875326 0.647949 0.928223
17.193958 -15.686118 26.863222 0.315458 -0.366456 -0.875326 0.469238 0.923096
16.425522 -15.505882 26.510830 0.315458 -0.366456 -0.875326 0.468994 0.910400
16.260859 0.858353 8.924386 0.124274 0.548769 0.826685 0.678955 0.968750
8.960721 -6.515259 14.916545 0.124274 0.548769 0.826685 0.471191 0.968018
10.003597 -7.507046 15.418138 0.124274 0.548769 0.826685 0.469238 0.987549
16.260859 0.858353 8.924386 0.852416 -0.483952 0.197934 0.678955 0.968750
10.003597 -7.507046 15.418138 0.852416 -0.483952 0.197934 0.469238 0.987549
10.003597 -8.046488 14.099197 0.852416 -0.483952 0.197934 0.470703 0.967529
16.260859 0.858353 8.924386 -0.157409 -0.411164 -0.897868 0.678955 0.968750
10.003597 -8.046488 14.099197 -0.157409 -0.411164 -0.897868 0.470703 0.967529
9.070498 -7.083987 13.822022 -0.157409 -0.411164 -0.897868 0.469971 0.949463
16.260859 0.858353 8.924386 -0.791840 0.505821 -0.342250 0.678955 0.968750
9.070498 -7.083987 13.822022 -0.791840 0.505821 -0.342250 0.469971 0.949463
8.960721 -6.515259 14.916545 -0.791840 0.505821 -0.342250 0.471191 0.968018
1.495919 -1.201899 18.335135 -0.642313 -0.355195 0.679169 0.679688 0.969238
9.125385 -10.076214 20.909441 -0.642313 -0.355195 0.679169 0.469727 0.968994
9.948709 -9.392127 22.045853 -0.642313 -0.355195 0.679169 0.470947 0.987793
1.495919 -1.201899 18.335135 0.352009 0.662748 0.660950 0.679688 0.969238
9.948709 -9.392127 22.045853 0.352009 0.662748 0.660950 0.470947 0.987793
10.552480 -8.633340 20.963446 0.352009 0.662748 0.660950 0.471436 0.964355
1.495919 -1.201899 18.335135 0.502998 0.330559 -0.798576 0.679688 0.969238
10.552480 -8.633340 20.963446 0.502998 0.330559 -0.798576 0.471436 0.964355
9.784044 -9.388603 20.166801 0.502998 0.330559 -0.798576 0.470459 0.951416
1.495919 -1.201899 18.335135 -0.340469 -0.519963 -0.783402 0.679688 0.969238
9.784044 -9.388603 20.166801 -0.340469 -0.519963 -0.783402 0.470459 0.951416
9.125385 -10.076214 20.909441 -0.340469 -0.519963 -0.783402 0.469727 0.968994
4.789214 -13.729552 26.581503 0.034670 -0.580849 0.813273 0.680420 0.970459
14.175104 -13.780038 26.145319 0.034670 -0.580849 0.813273 0.471191 0.969971
14.175104 -12.515122 27.048737 0.034670 -0.580849 0.813273 0.468750 0.952148
4.789214 -13.729552 26.581503 -0.135170 0.846676 0.514655 0.680420 0.970459
14.175104 -12.515122 27.048737 -0.135170 0.846676 0.514655 0.468750 0.952148
14.065328 -11.775270 25.802750 -0.135170 0.846676 0.514655 0.470947 0.968750
4.789214 -13.729552 26.581503 -0.168245 0.448866 -0.877618 0.680420 0.970459
14.065328 -11.775270 25.802750 -0.168245 0.448866 -0.877618 0.470947 0.968750
14.065328 -13.008628 25.171938 -0.168245 0.448866 -0.877618 0.471680 0.986572
4.789214 -13.729552 26.581503 -0.032965 -0.785106 -0.618483 0.680420 0.970459
14.065328 -13.008628 25.171938 -0.032965 -0.785106 -0.618483 0.471680 0.986572
14.175104 -13.780038 26.145319 -0.032965 -0.785106 -0.618483 0.471191 0.969971
3 0 1 2
3 3 4 5
3 6 7 8
3 9 10 11
3 12 13 14
3 15 16 17
3 18 19 20
3 21 22 23
3 24 25 26
3 27 28 29
3 30 31 32
3 33 34 35
3 36 37 38
3 39 40 41
3 42 43 44
3 45 46 47
3 48 49 50
3 51 52 53
3 54 55 56
3 57 58 59
3 60 61 62
3 63 64 65
3 66 67 68
3 69 70 71
3 72 73 74
3 75 76 77
3 78 79 80
3 81 82 83
3 84 85 86
3 87 88 89
3 90 91 92
3 93 94 95
3 96 97 98
3 99 100 101
3 102 103 104
3 105 106 107
3 108 109 110
3 111 112 113
3 114 115 116
3 117 118 119
3 120 121 122
3 123 124 125
3 126 127 128
3 129 130 131
3 132 133 134
3 135 136 137
3 138 139 140
3 141 142 143
3 144 145 146
3 147 148 149
3 150 151 152
3 153 154 155
3 156 157 158
3 159 160 161
3 162 163 164
3 165 166 167
3 168 169 170
3 171 172 173
3 174 175 176
3 177 178 179
3 180 181 182
3 183 184 185
3 186 187 188
3 189 190 191
3 192 193 194
3 195 196 197
3 198 199 200
3 201 202 203
3 204 205 206
3 207 208 209
3 210 211 212
3 213 214 215
3 216 217 218
3 219 220 221
3 222 223 224
3 225 226 227
3 228 229 230
3 231 232 233
3 234 235 236
3 237 238 239
3 240 241 242
3 243 244 245
3 246 247 248
3 249 250 251
3 252 253 254
3 255 256 257
3 258 259 260
3 261 262 263
3 264 265 266
3 267 268 269
3 270 271 272
3 273 274 275
3 276 277 278
3 279 280 281
3 282 283 284
3 285 286 287
3 288 289 290
3 291 292 293
3 294 295 296
3 297 298 299
3 300 301 302
3 303 304 305
3 306 307 308
3 309 310 311
3 312 313 314
3 315 316 317
3 318 319 320
3 321 322 323
3 324 325 326
3 327 328 329
3 330 331 332
3 333 334 335
3 336 337 338
3 339 340 341
3 342 343 344
3 345 346 347
3 348 349 350
3 351 352 353
3 354 355 356
3 357 358 359
3 360 361 362
3 363 364 365
3 366 367 368
3 369 370 371
3 372 373 374
3 375 376 377
3 378 379 380
3 381 382 383
3 384 385 386
3 387 388 389
3 390 391 392
3 393 394 395
3 396 397 398
3 399 400 401
3 402 403 404
3 405 406 407
3 408 409 410
3 411 412 413
3 414 415 416
3 417 418 419
3 420 421 422
3 423 424 425
3 426 427 428
3 429 430 431
3 432 433 434
3 435 436 437
3 438 439 440
3 441 442 443
3 444 445 446
3 447 448 449
3 450 451 452
3 453 454 455
3 456 457 458
3 459 460 461
3 462 463 464
3 465 466 467
3 468 469 470
3 471 472 473
3 474 475 476
3 477 478 479
3 480 481 482
3 483 484 485
3 486 487 488
3 489 490 491
3 492 493 494
3 495 496 497
3 498 499 500
3 501 502 503
3 504 505 506
3 507 508 509
3 510 511 512
3 513 514 515
3 516 517 518
3 519 520 521
3 522 523 524
3 525 526 527
3 528 529 530
3 531 532 533
3 534 535 536
3 537 538 539
3 540 541 542
3 543 544 545
3 546 547 548
3 549 550 551
3 552 553 554
3 555 556 557
3 558 559 560
3 561 562 563
3 564 565 566
3 567 568 569
