ply
format ascii 1.0
comment Created by Blender 2.91.2 - www.blender.org
element vertex 480
property float x
property float y
property float z
property float nx
property float ny
property float nz
property float s
property float t
element face 160
property list uchar uint vertex_indices
end_header
-0.309722 3.175455 -3.159155 -0.326136 0.851319 -0.410964 0.908936 0.038818
-2.999245 3.791146 0.250628 -0.326136 0.851319 -0.410964 0.896973 0.026367
-1.352598 4.464371 0.338468 -0.326136 0.851319 -0.410964 0.886475 0.041259
-0.309722 3.175455 -3.159155 0.380844 0.898667 -0.217614 0.908936 0.038818
-1.352598 4.464371 0.338468 0.380844 0.898667 -0.217614 0.886475 0.041259
3.532456 1.279214 -4.265784 0.380844 0.898667 -0.217614 0.907959 0.055175
-0.309722 3.175455 -3.159155 -0.190647 0.177188 -0.965535 0.908936 0.038818
3.532456 1.279214 -4.265784 -0.190647 0.177188 -0.965535 0.907959 0.055175
4.136225 -3.307647 -5.226745 -0.190647 0.177188 -0.965535 0.921387 0.053710
-0.309722 3.175455 -3.159155 0.104769 0.366668 -0.924434 0.908936 0.038818
4.136225 -3.307647 -5.226745 0.104769 0.366668 -0.924434 0.921387 0.053710
-1.627040 -0.954517 -4.946566 0.104769 0.366668 -0.924434 0.922119 0.037841
-0.309722 3.175455 -3.159155 -0.263943 0.452779 -0.851660 0.908936 0.038818
-1.627040 -0.954517 -4.946566 -0.263943 0.452779 -0.851660 0.922119 0.037841
-6.237653 1.105809 -2.422307 -0.263943 0.452779 -0.851660 0.905762 0.021240
-0.309722 3.175455 -3.159155 -0.345079 0.837630 -0.423434 0.908936 0.038818
-6.237653 1.105809 -2.422307 -0.345079 0.837630 -0.423434 0.905762 0.021240
-2.999245 3.791146 0.250628 -0.345079 0.837630 -0.423434 0.896973 0.026367
-2.999245 3.791146 0.250628 -0.584548 0.805096 -0.100619 0.896973 0.026367
-6.237653 1.105809 -2.422307 -0.584548 0.805096 -0.100619 0.905762 0.021240
-3.877457 3.557418 3.482453 -0.584548 0.805096 -0.100619 0.877197 0.029541
-2.999245 3.791146 0.250628 0.054041 0.994774 0.086628 0.896973 0.026367
-3.877457 3.557418 3.482453 0.054041 0.994774 0.086628 0.877197 0.029541
1.172261 3.163643 4.854144 0.054041 0.994774 0.086628 0.871582 0.042724
-2.999245 3.791146 0.250628 -0.360056 0.823449 0.438511 0.896973 0.026367
1.172261 3.163643 4.854144 -0.360056 0.823449 0.438511 0.871582 0.042724
-1.352598 4.464371 0.338468 -0.360056 0.823449 0.438511 0.886475 0.041259
-1.352598 4.464371 0.338468 0.077503 0.968729 0.235705 0.886475 0.041259
1.172261 3.163643 4.854144 0.077503 0.968729 0.235705 0.871582 0.042724
3.916674 4.141259 -0.066172 0.077503 0.968729 0.235705 0.885254 0.057617
-1.352598 4.464371 0.338468 0.007371 0.826012 -0.563604 0.886475 0.041259
3.916674 4.141259 -0.066172 0.007371 0.826012 -0.563604 0.885254 0.057617
3.532456 1.279214 -4.265784 0.007371 0.826012 -0.563604 0.907959 0.055175
3.532456 1.279214 -4.265784 -0.151630 0.823195 -0.547137 0.907959 0.055175
3.916674 4.141259 -0.066172 -0.151630 0.823195 -0.547137 0.885254 0.057617
5.288880 1.545528 -4.351863 -0.151630 0.823195 -0.547137 0.905762 0.075439
3.532456 1.279214 -4.265784 -0.061659 0.085228 -0.994452 0.907959 0.055175
5.288880 1.545528 -4.351863 -0.061659 0.085228 -0.994452 0.905762 0.075439
6.935526 -3.433356 -4.880667 -0.061659 0.085228 -0.994452 0.923584 0.073486
3.532456 1.279214 -4.265784 0.129408 0.219616 -0.966965 0.907959 0.055175
6.935526 -3.433356 -4.880667 0.129408 0.219616 -0.966965 0.923584 0.073486
4.136225 -3.307647 -5.226745 0.129408 0.219616 -0.966965 0.921387 0.053710
4.136225 -3.307647 -5.226745 0.014805 -0.895408 -0.445000 0.921387 0.053710
6.935526 -3.433356 -4.880667 0.014805 -0.895408 -0.445000 0.923584 0.073486
4.630221 -5.367674 -1.065218 0.014805 -0.895408 -0.445000 0.932617 0.052002
4.136225 -3.307647 -5.226745 -0.365685 -0.850664 -0.377684 0.921387 0.053710
4.630221 -5.367674 -1.065218 -0.365685 -0.850664 -0.377684 0.932617 0.052002
-1.627040 -0.954517 -4.946566 -0.365685 -0.850664 -0.377684 0.922119 0.037841
-1.627040 -0.954517 -4.946566 -0.189962 -0.786351 -0.587850 0.922119 0.037841
4.630221 -5.367674 -1.065218 -0.189962 -0.786351 -0.587850 0.932617 0.052002
-1.187935 -3.648145 -1.485267 -0.189962 -0.786351 -0.587850 0.929932 0.035888
-1.627040 -0.954517 -4.946566 -0.496409 -0.714483 -0.493045 0.922119 0.037841
-1.187935 -3.648145 -1.485267 -0.496409 -0.714483 -0.493045 0.929932 0.035888
-6.072988 -1.409864 0.189574 -0.496409 -0.714483 -0.493045 0.910889 0.011474
-1.627040 -0.954517 -4.946566 -0.572707 -0.608173 -0.549665 0.922119 0.037841
-6.072988 -1.409864 0.189574 -0.572707 -0.608173 -0.549665 0.910889 0.011474
-6.237653 1.105809 -2.422307 -0.572707 -0.608173 -0.549665 0.905762 0.021240
-6.237653 1.105809 -2.422307 -0.986229 -0.145733 -0.078189 0.905762 0.021240
-6.072988 -1.409864 0.189574 -0.986229 -0.145733 -0.078189 0.910889 0.011474
-6.786535 2.537600 1.832343 -0.986229 -0.145733 -0.078189 0.870361 0.014892
-6.237653 1.105809 -2.422307 -0.138828 0.933043 -0.331901 0.905762 0.021240
-6.786535 2.537600 1.832343 -0.138828 0.933043 -0.331901 0.870361 0.014892
-3.877457 3.557418 3.482453 -0.138828 0.933043 -0.331901 0.877197 0.029541
-3.877457 3.557418 3.482453 -0.518552 0.106454 0.848394 0.877197 0.029541
-6.786535 2.537600 1.832343 -0.518552 0.106454 0.848394 0.870361 0.014892
-4.481228 -0.297141 3.597080 -0.518552 0.106454 0.848394 0.859131 0.029296
-3.877457 3.557418 3.482453 -0.256512 0.068850 0.964086 0.877197 0.029541
-4.481228 -0.297141 3.597080 -0.256512 0.068850 0.964086 0.859131 0.029296
1.172261 3.163643 4.854144 -0.256512 0.068850 0.964086 0.871582 0.042724
1.172261 3.163643 4.854144 -0.145865 -0.118476 0.982185 0.871582 0.042724
-4.481228 -0.297141 3.597080 -0.145865 -0.118476 0.982185 0.859131 0.029296
-0.474387 -2.580849 3.916666 -0.145865 -0.118476 0.982185 0.849121 0.045166
1.172261 3.163643 4.854144 0.086168 -0.184477 0.979052 0.871582 0.042724
-0.474387 -2.580849 3.916666 0.086168 -0.184477 0.979052 0.849121 0.045166
4.904662 1.882064 4.284170 0.086168 -0.184477 0.979052 0.866699 0.059570
1.172261 3.163643 4.854144 0.351738 0.861042 0.367270 0.871582 0.042724
4.904662 1.882064 4.284170 0.351738 0.861042 0.367270 0.866699 0.059570
3.916674 4.141259 -0.066172 0.351738 0.861042 0.367270 0.885254 0.057617
3.916674 4.141259 -0.066172 0.344089 0.862960 0.370003 0.885254 0.057617
4.904662 1.882064 4.284170 0.344089 0.862960 0.370003 0.866699 0.059570
7.319745 1.068234 3.936332 0.344089 0.862960 0.370003 0.864990 0.079834
3.916674 4.141259 -0.066172 0.345205 0.862931 0.369032 0.885254 0.057617
7.319745 1.068234 3.936332 0.345205 0.862931 0.369032 0.864990 0.079834
5.508433 3.570775 -0.221158 0.345205 0.862931 0.369032 0.884766 0.077880
3.916674 4.141259 -0.066172 0.265773 0.859937 -0.435745 0.885254 0.057617
5.508433 3.570775 -0.221158 0.265773 0.859937 -0.435745 0.884766 0.077880
5.288880 1.545528 -4.351863 0.265773 0.859937 -0.435745 0.905762 0.075439
5.288880 1.545528 -4.351863 -0.404708 0.829389 -0.385131 0.905762 0.075439
5.508433 3.570775 -0.221158 -0.404708 0.829389 -0.385131 0.884766 0.077880
6.057315 3.776248 -0.355451 -0.404708 0.829389 -0.385131 0.881836 0.094970
5.288880 1.545528 -4.351863 0.091319 0.861958 -0.498687 0.905762 0.075439
6.057315 3.776248 -0.355451 0.091319 0.861958 -0.498687 0.881836 0.094970
6.770863 1.308491 -4.490192 0.091319 0.861958 -0.498687 0.902344 0.092773
5.288880 1.545528 -4.351863 -0.080105 0.079042 -0.993648 0.905762 0.075439
6.770863 1.308491 -4.490192 -0.080105 0.079042 -0.993648 0.902344 0.092773
6.935526 -3.433356 -4.880667 -0.080105 0.079042 -0.993648 0.923584 0.073486
6.935526 -3.433356 -4.880667 0.168202 0.086700 -0.981932 0.923584 0.073486
6.770863 1.308491 -4.490192 0.168202 0.086700 -0.981932 0.902344 0.092773
8.527287 -2.061663 -4.486889 0.168202 0.086700 -0.981932 0.921631 0.090820
6.935526 -3.433356 -4.880667 0.657995 -0.658918 -0.364512 0.923584 0.073486
8.527287 -2.061663 -4.486889 0.657995 -0.658918 -0.364512 0.921631 0.090820
7.594186 -5.147307 -0.593435 0.657995 -0.658918 -0.364512 0.935547 0.072265
6.935526 -3.433356 -4.880667 0.129243 -0.913756 -0.385158 0.923584 0.073486
7.594186 -5.147307 -0.593435 0.129243 -0.913756 -0.385158 0.935547 0.072265
4.630221 -5.367674 -1.065218 0.129243 -0.913756 -0.385158 0.932617 0.052002
4.630221 -5.367674 -1.065218 0.003443 -0.914149 0.405364 0.829834 0.063476
7.594186 -5.147307 -0.593435 0.003443 -0.914149 0.405364 0.831787 0.083496
7.594186 -3.352776 3.453467 0.003443 -0.914149 0.405364 0.848633 0.081543
4.630221 -5.367674 -1.065218 -0.004395 -0.912232 0.409651 0.829834 0.063476
7.594186 -3.352776 3.453467 -0.004395 -0.912232 0.409651 0.848633 0.081543
4.410668 -3.432542 3.241681 -0.004395 -0.912232 0.409651 0.844727 0.061767
4.630221 -5.367674 -1.065218 -0.102803 -0.909273 0.403305 0.829834 0.063476
4.410668 -3.432542 3.241681 -0.102803 -0.909273 0.403305 0.844727 0.061767
-0.474387 -2.580849 3.916666 -0.102803 -0.909273 0.403305 0.849121 0.045166
4.630221 -5.367674 -1.065218 -0.291060 -0.930521 0.222296 0.829834 0.063476
-0.474387 -2.580849 3.916666 -0.291060 -0.930521 0.222296 0.849121 0.045166
-1.187935 -3.648145 -1.485267 -0.291060 -0.930521 0.222296 0.827148 0.047607
-1.187935 -3.648145 -1.485267 -0.340918 -0.912682 0.225357 0.827148 0.047607
-0.474387 -2.580849 3.916666 -0.340918 -0.912682 0.225357 0.849121 0.045166
-6.072988 -1.409864 0.189574 -0.340918 -0.912682 0.225357 0.841553 0.025878
-6.072988 -1.409864 0.189574 -0.466323 -0.753271 0.463816 0.841553 0.025878
-0.474387 -2.580849 3.916666 -0.466323 -0.753271 0.463816 0.849121 0.045166
-4.481228 -0.297141 3.597080 -0.466323 -0.753271 0.463816 0.859131 0.029296
-6.072988 -1.409864 0.189574 -0.800828 -0.347691 0.487632 0.841553 0.025878
-4.481228 -0.297141 3.597080 -0.800828 -0.347691 0.487632 0.859131 0.029296
-6.786535 2.537600 1.832343 -0.800828 -0.347691 0.487632 0.870361 0.014892
-0.474387 -2.580849 3.916666 0.099719 -0.200445 0.974617 0.849121 0.045166
4.410668 -3.432542 3.241681 0.099719 -0.200445 0.974617 0.844727 0.061767
4.904662 1.882064 4.284170 0.099719 -0.200445 0.974617 0.866699 0.059570
4.904662 1.882064 4.284170 0.073846 -0.198567 0.977301 0.866699 0.059570
4.410668 -3.432542 3.241681 0.073846 -0.198567 0.977301 0.844727 0.061767
7.319745 1.068234 3.936332 0.073846 -0.198567 0.977301 0.864990 0.079834
7.319745 1.068234 3.936332 -0.063160 -0.112232 0.991673 0.864990 0.079834
4.410668 -3.432542 3.241681 -0.063160 -0.112232 0.991673 0.844727 0.061767
7.594186 -3.352776 3.453467 -0.063160 -0.112232 0.991673 0.848633 0.081543
7.319745 1.068234 3.936332 0.157373 -0.097563 0.982708 0.864990 0.079834
7.594186 -3.352776 3.453467 0.157373 -0.097563 0.982708 0.848633 0.081543
10.448376 -2.511947 3.079868 0.157373 -0.097563 0.982708 0.848877 0.098632
7.319745 1.068234 3.936332 0.703885 0.492709 0.511649 0.864990 0.079834
10.448376 -2.511947 3.079868 0.703885 0.492709 0.511649 0.848877 0.098632
7.594186 2.122612 2.543432 0.703885 0.492709 0.511649 0.864502 0.096923
7.319745 1.068234 3.936332 -0.196036 0.800057 0.566991 0.864990 0.079834
7.594186 2.122612 2.543432 -0.196036 0.800057 0.566991 0.864502 0.096923
5.508433 3.570775 -0.221158 -0.196036 0.800057 0.566991 0.884766 0.077880
5.508433 3.570775 -0.221158 -0.169323 0.814752 0.554535 0.884766 0.077880
7.594186 2.122612 2.543432 -0.169323 0.814752 0.554535 0.864502 0.096923
6.057315 3.776248 -0.355451 -0.169323 0.814752 0.554535 0.881836 0.094970
6.057315 3.776248 -0.355451 -0.421070 0.673565 0.607462 0.881836 0.094970
7.594186 2.122612 2.543432 -0.421070 0.673565 0.607462 0.864502 0.096923
8.911505 3.097739 2.375309 -0.421070 0.673565 0.607462 0.859619 0.117676
6.057315 3.776248 -0.355451 -0.406384 0.691968 0.596684 0.881836 0.094970
8.911505 3.097739 2.375309 -0.406384 0.691968 0.596684 0.859619 0.117676
6.606198 4.398983 -0.703804 -0.406384 0.691968 0.596684 0.875244 0.115967
6.057315 3.776248 -0.355451 -0.787444 0.472912 -0.395332 0.881836 0.094970
6.606198 4.398983 -0.703804 -0.787444 0.472912 -0.395332 0.875244 0.115967
7.264857 2.619349 -4.144628 -0.787444 0.472912 -0.395332 0.894531 0.114014
6.057315 3.776248 -0.355451 -0.823749 0.412861 -0.388567 0.881836 0.094970
7.264857 2.619349 -4.144628 -0.823749 0.412861 -0.388567 0.894531 0.114014
6.770863 1.308491 -4.490192 -0.823749 0.412861 -0.388567 0.902344 0.092773
6.770863 1.308491 -4.490192 0.204761 0.176632 -0.962743 0.902344 0.092773
7.264857 2.619349 -4.144628 0.204761 0.176632 -0.962743 0.894531 0.114014
9.295722 -1.224865 -4.417982 0.204761 0.176632 -0.962743 0.918701 0.111328
6.770863 1.308491 -4.490192 0.057766 0.029128 -0.997905 0.902344 0.092773
9.295722 -1.224865 -4.417982 0.057766 0.029128 -0.997905 0.918701 0.111328
8.527287 -2.061663 -4.486889 0.057766 0.029128 -0.997905 0.921631 0.090820
8.527287 -2.061663 -4.486889 0.619208 -0.520184 -0.588209 0.921631 0.090820
9.295722 -1.224865 -4.417982 0.619208 -0.520184 -0.588209 0.918701 0.111328
11.326588 -2.253486 -1.370423 0.619208 -0.520184 -0.588209 0.939697 0.109131
8.527287 -2.061663 -4.486889 0.580196 -0.593599 -0.557686 0.921631 0.090820
11.326588 -2.253486 -1.370423 0.580196 -0.593599 -0.557686 0.939697 0.109131
10.283710 -4.037887 -0.556083 0.580196 -0.593599 -0.557686 0.937500 0.089111
8.527287 -2.061663 -4.486889 0.327993 -0.777053 -0.537224 0.921631 0.090820
10.283710 -4.037887 -0.556083 0.327993 -0.777053 -0.537224 0.937500 0.089111
7.594186 -5.147307 -0.593435 0.327993 -0.777053 -0.537224 0.935547 0.072265
7.594186 -5.147307 -0.593435 0.353301 -0.868223 0.348377 0.831787 0.083496
10.283710 -4.037887 -0.556083 0.353301 -0.868223 0.348377 0.832031 0.100342
10.448376 -2.511947 3.079868 0.353301 -0.868223 0.348377 0.848877 0.098632
7.594186 -5.147307 -0.593435 0.306817 -0.870063 0.385815 0.831787 0.083496
10.448376 -2.511947 3.079868 0.306817 -0.870063 0.385815 0.848877 0.098632
7.594186 -3.352776 3.453467 0.306817 -0.870063 0.385815 0.848633 0.081543
8.691952 4.921986 -4.300642 -0.426115 -0.024592 -0.904335 0.892578 0.129883
10.777703 1.668953 -5.194971 -0.426115 -0.024592 -0.904335 0.918945 0.126953
9.295722 -1.224865 -4.417982 -0.426115 -0.024592 -0.904335 0.918701 0.111328
8.691952 4.921986 -4.300642 -0.120076 0.007156 -0.992739 0.892578 0.129883
9.295722 -1.224865 -4.417982 -0.120076 0.007156 -0.992739 0.918701 0.111328
7.264857 2.619349 -4.144628 -0.120076 0.007156 -0.992739 0.894531 0.114014
8.691952 4.921986 -4.300642 -0.793461 0.465167 -0.392478 0.892578 0.129883
7.264857 2.619349 -4.144628 -0.793461 0.465167 -0.392478 0.894531 0.114014
6.606198 4.398983 -0.703804 -0.793461 0.465167 -0.392478 0.875244 0.115967
8.691952 4.921986 -4.300642 -0.763507 0.532545 -0.365312 0.892578 0.129883
6.606198 4.398983 -0.703804 -0.763507 0.532545 -0.365312 0.875244 0.115967
8.252846 6.445658 -1.161721 -0.763507 0.532545 -0.365312 0.875000 0.131592
8.691952 4.921986 -4.300642 -0.911959 0.304244 -0.275259 0.892578 0.129883
8.252846 6.445658 -1.161721 -0.911959 0.304244 -0.275259 0.875000 0.131592
9.625051 10.214140 -1.542657 -0.911959 0.304244 -0.275259 0.883545 0.148193
8.691952 4.921986 -4.300642 -0.885145 0.328048 -0.330006 0.892578 0.129883
9.625051 10.214140 -1.542657 -0.885145 0.328048 -0.330006 0.883545 0.148193
10.283710 7.922582 -5.587283 -0.885145 0.328048 -0.330006 0.900146 0.146240
8.691952 4.921986 -4.300642 -0.512605 -0.094033 -0.853460 0.892578 0.129883
10.283710 7.922582 -5.587283 -0.512605 -0.094033 -0.853460 0.900146 0.146240
10.777703 1.668953 -5.194971 -0.512605 -0.094033 -0.853460 0.918945 0.126953
10.777703 1.668953 -5.194971 -0.288067 -0.082606 -0.954041 0.918945 0.126953
10.283710 7.922582 -5.587283 -0.288067 -0.082606 -0.954041 0.900146 0.146240
13.192786 3.937760 -6.120636 -0.288067 -0.082606 -0.954041 0.926514 0.143555
10.777703 1.668953 -5.194971 0.473655 -0.714358 -0.515116 0.918945 0.126953
13.192786 3.937760 -6.120636 0.473655 -0.714358 -0.515116 0.926514 0.143555
12.753682 0.707481 -2.044675 0.473655 -0.714358 -0.515116 0.939697 0.124756
10.777703 1.668953 -5.194971 0.662570 -0.491148 -0.565486 0.918945 0.126953
12.753682 0.707481 -2.044675 0.662570 -0.491148 -0.565486 0.939697 0.124756
9.295722 -1.224865 -4.417982 0.662570 -0.491148 -0.565486 0.918701 0.111328
9.295722 -1.224865 -4.417982 0.662583 -0.454848 -0.595061 0.918701 0.111328
12.753682 0.707481 -2.044675 0.662583 -0.454848 -0.595061 0.939697 0.124756
11.326588 -2.253486 -1.370423 0.662583 -0.454848 -0.595061 0.939697 0.109131
11.326588 -2.253486 -1.370423 0.883766 -0.357086 0.302403 0.835205 0.120361
12.753682 0.707481 -2.044675 0.883766 -0.357086 0.302403 0.838623 0.135498
12.424353 2.692587 1.261856 0.883766 -0.357086 0.302403 0.849365 0.134521
11.326588 -2.253486 -1.370423 0.887976 -0.353585 0.294068 0.835205 0.120361
12.424353 2.692587 1.261856 0.887976 -0.353585 0.294068 0.849365 0.134521
10.997258 -0.450884 1.791469 0.887976 -0.353585 0.294068 0.849121 0.118896
11.326588 -2.253486 -1.370423 0.972378 -0.144240 0.183510 0.835205 0.120361
10.997258 -0.450884 1.791469 0.972378 -0.144240 0.183510 0.849121 0.118896
10.448376 -2.511947 3.079868 0.972378 -0.144240 0.183510 0.848877 0.098632
11.326588 -2.253486 -1.370423 0.881793 -0.447812 0.148004 0.835205 0.120361
10.448376 -2.511947 3.079868 0.881793 -0.447812 0.148004 0.848877 0.098632
10.283710 -4.037887 -0.556083 0.881793 -0.447812 0.148004 0.832031 0.100342
13.192786 3.937760 -6.120636 0.261715 -0.769930 -0.581990 0.926514 0.143555
15.388318 1.688916 -2.158274 0.261715 -0.769930 -0.581990 0.946289 0.141357
12.753682 0.707481 -2.044675 0.261715 -0.769930 -0.581990 0.939697 0.124756
12.753682 0.707481 -2.044675 0.319332 -0.798096 0.510950 0.838623 0.135498
15.388318 1.688916 -2.158274 0.319332 -0.798096 0.510950 0.839844 0.152832
12.424353 2.692587 1.261856 0.319332 -0.798096 0.510950 0.849365 0.134521
12.424353 2.692587 1.261856 0.355207 -0.767834 0.533159 0.849365 0.134521
15.388318 1.688916 -2.158274 0.355207 -0.767834 0.533159 0.839844 0.152832
14.839436 4.259408 1.909322 0.355207 -0.767834 0.533159 0.852539 0.151367
12.424353 2.692587 1.261856 -0.065486 -0.293206 0.953804 0.849365 0.134521
14.839436 4.259408 1.909322 -0.065486 -0.293206 0.953804 0.852539 0.151367
10.173934 5.538708 1.982264 -0.065486 -0.293206 0.953804 0.862549 0.133057
12.424353 2.692587 1.261856 0.301876 -0.002618 0.953344 0.849365 0.134521
10.173934 5.538708 1.982264 0.301876 -0.002618 0.953344 0.862549 0.133057
8.911505 3.097739 2.375309 0.301876 -0.002618 0.953344 0.859619 0.117676
12.424353 2.692587 1.261856 0.304407 0.022244 0.952282 0.849365 0.134521
8.911505 3.097739 2.375309 0.304407 0.022244 0.952282 0.859619 0.117676
10.997258 -0.450884 1.791469 0.304407 0.022244 0.952282 0.849121 0.118896
10.997258 -0.450884 1.791469 0.654027 0.268029 0.707396 0.849121 0.118896
8.911505 3.097739 2.375309 0.654027 0.268029 0.707396 0.859619 0.117676
10.448376 -2.511947 3.079868 0.654027 0.268029 0.707396 0.848877 0.098632
10.448376 -2.511947 3.079868 0.028545 0.132262 0.990804 0.848877 0.098632
8.911505 3.097739 2.375309 0.028545 0.132262 0.990804 0.859619 0.117676
7.594186 2.122612 2.543432 0.028545 0.132262 0.990804 0.864502 0.096923
16.815411 7.620167 -6.767883 0.484428 -0.606521 -0.630446 0.933594 0.178955
19.340269 5.734054 -3.013270 0.484428 -0.606521 -0.630446 0.949219 0.177490
15.388318 1.688916 -2.158274 0.484428 -0.606521 -0.630446 0.946289 0.141357
16.815411 7.620167 -6.767883 0.501931 -0.602801 -0.620239 0.933594 0.178955
15.388318 1.688916 -2.158274 0.501931 -0.602801 -0.620239 0.946289 0.141357
13.192786 3.937760 -6.120636 0.501931 -0.602801 -0.620239 0.926514 0.143555
16.815411 7.620167 -6.767883 -0.177780 0.001927 -0.984068 0.933594 0.178955
13.192786 3.937760 -6.120636 -0.177780 0.001927 -0.984068 0.926514 0.143555
10.283710 7.922582 -5.587283 -0.177780 0.001927 -0.984068 0.900146 0.146240
16.815411 7.620167 -6.767883 -0.178037 -0.003821 -0.984016 0.933594 0.178955
10.283710 7.922582 -5.587283 -0.178037 -0.003821 -0.984016 0.900146 0.146240
14.016109 11.489625 -6.276432 -0.178037 -0.003821 -0.984016 0.905029 0.182129
16.815411 7.620167 -6.767883 -0.002384 0.124298 -0.992242 0.933594 0.178955
14.016109 11.489625 -6.276432 -0.002384 0.124298 -0.992242 0.905029 0.182129
28.835939 20.119856 -5.230935 -0.002384 0.124298 -0.992242 0.944336 0.239014
16.815411 7.620167 -6.767883 0.695917 -0.625965 -0.351946 0.933594 0.178955
28.835939 20.119856 -5.230935 0.695917 -0.625965 -0.351946 0.944336 0.239014
30.043480 19.661722 -2.028390 0.695917 -0.625965 -0.351946 0.960205 0.237305
16.815411 7.620167 -6.767883 0.628745 -0.437733 -0.642705 0.933594 0.178955
30.043480 19.661722 -2.028390 0.628745 -0.437733 -0.642705 0.960205 0.237305
19.340269 5.734054 -3.013270 0.628745 -0.437733 -0.642705 0.949219 0.177490
19.340269 5.734054 -3.013270 0.696155 -0.566195 0.441351 0.844971 0.188477
30.043480 19.661722 -2.028390 0.696155 -0.566195 0.441351 0.849609 0.249268
18.736500 8.134661 1.018733 0.696155 -0.566195 0.441351 0.861816 0.186768
19.340269 5.734054 -3.013270 0.685661 -0.575714 0.445447 0.844971 0.188477
18.736500 8.134661 1.018733 0.685661 -0.575714 0.445447 0.861816 0.186768
15.388318 1.688916 -2.158274 0.685661 -0.575714 0.445447 0.839844 0.152832
15.388318 1.688916 -2.158274 0.677780 -0.576807 0.455969 0.839844 0.152832
18.736500 8.134661 1.018733 0.677780 -0.576807 0.455969 0.861816 0.186768
14.839436 4.259408 1.909322 0.677780 -0.576807 0.455969 0.852539 0.151367
14.839436 4.259408 1.909322 0.216525 0.006614 0.976255 0.852539 0.151367
18.736500 8.134661 1.018733 0.216525 0.006614 0.976255 0.861816 0.186768
15.937199 12.071268 1.612922 0.216525 0.006614 0.976255 0.876465 0.185303
14.839436 4.259408 1.909322 0.190068 0.010539 0.981714 0.852539 0.151367
15.937199 12.071268 1.612922 0.190068 0.010539 0.981714 0.876465 0.185303
12.204800 8.346961 2.375528 0.190068 0.010539 0.981714 0.868164 0.149658
14.839436 4.259408 1.909322 -0.018845 -0.125282 0.991942 0.852539 0.151367
12.204800 8.346961 2.375528 -0.018845 -0.125282 0.991942 0.868164 0.149658
10.173934 5.538708 1.982264 -0.018845 -0.125282 0.991942 0.862549 0.133057
10.173934 5.538708 1.982264 -0.669050 0.395744 0.629094 0.862549 0.133057
12.204800 8.346961 2.375528 -0.669050 0.395744 0.629094 0.868164 0.149658
9.625051 10.214140 -1.542657 -0.669050 0.395744 0.629094 0.883545 0.148193
10.173934 5.538708 1.982264 -0.758867 0.332904 0.559728 0.862549 0.133057
9.625051 10.214140 -1.542657 -0.758867 0.332904 0.559728 0.883545 0.148193
8.252846 6.445658 -1.161721 -0.758867 0.332904 0.559728 0.875000 0.131592
10.173934 5.538708 1.982264 -0.698027 0.450617 0.556509 0.862549 0.133057
8.252846 6.445658 -1.161721 -0.698027 0.450617 0.556509 0.875000 0.131592
8.911505 3.097739 2.375309 -0.698027 0.450617 0.556509 0.859619 0.117676
8.911505 3.097739 2.375309 -0.527173 0.565955 0.633864 0.859619 0.117676
8.252846 6.445658 -1.161721 -0.527173 0.565955 0.633864 0.875000 0.131592
6.606198 4.398983 -0.703804 -0.527173 0.565955 0.633864 0.875244 0.115967
30.043480 19.661722 -2.028390 0.513332 -0.290020 0.807699 0.849609 0.249268
28.671274 22.130722 -0.269744 0.513332 -0.290020 0.807699 0.866943 0.247314
18.736500 8.134661 1.018733 0.513332 -0.290020 0.807699 0.861816 0.186768
18.736500 8.134661 1.018733 0.168498 -0.028899 0.985278 0.861816 0.186768
28.671274 22.130722 -0.269744 0.168498 -0.028899 0.985278 0.866943 0.247314
15.937199 12.071268 1.612922 0.168498 -0.028899 0.985278 0.876465 0.185303
15.937199 12.071268 1.612922 -0.066283 0.263995 0.962244 0.876465 0.185303
28.671274 22.130722 -0.269744 -0.066283 0.263995 0.962244 0.866943 0.247314
26.530632 24.684780 -1.117915 -0.066283 0.263995 0.962244 0.887451 0.245117
15.937199 12.071268 1.612922 -0.690560 0.649059 0.319138 0.876465 0.185303
26.530632 24.684780 -1.117915 -0.690560 0.649059 0.319138 0.887451 0.245117
25.432869 25.088396 -4.314151 -0.690560 0.649059 0.319138 0.905762 0.243164
15.937199 12.071268 1.612922 -0.486423 0.630328 0.605046 0.876465 0.185303
25.432869 25.088396 -4.314151 -0.486423 0.630328 0.605046 0.905762 0.243164
13.357452 13.829397 -2.292641 -0.486423 0.630328 0.605046 0.891357 0.183594
15.937199 12.071268 1.612922 -0.487697 0.629074 0.605324 0.876465 0.185303
13.357452 13.829397 -2.292641 -0.487697 0.629074 0.605324 0.891357 0.183594
9.625051 10.214140 -1.542657 -0.487697 0.629074 0.605324 0.883545 0.148193
15.937199 12.071268 1.612922 -0.489582 0.616841 0.616293 0.876465 0.185303
9.625051 10.214140 -1.542657 -0.489582 0.616841 0.616293 0.883545 0.148193
12.204800 8.346961 2.375528 -0.489582 0.616841 0.616293 0.868164 0.149658
36.630070 34.231575 0.208275 -0.400042 0.303046 0.864945 0.864746 0.307861
34.818756 37.961685 -1.936369 -0.400042 0.303046 0.864945 0.886963 0.306152
26.530632 24.684780 -1.117915 -0.400042 0.303046 0.864945 0.887451 0.245117
36.630070 34.231575 0.208275 -0.239365 0.119368 0.963564 0.864746 0.307861
26.530632 24.684780 -1.117915 -0.239365 0.119368 0.963564 0.887451 0.245117
28.671274 22.130722 -0.269744 -0.239365 0.119368 0.963564 0.866943 0.247314
36.630070 34.231575 0.208275 0.457171 -0.333257 0.824581 0.864746 0.307861
28.671274 22.130722 -0.269744 0.457171 -0.333257 0.824581 0.866943 0.247314
30.043480 19.661722 -2.028390 0.457171 -0.333257 0.824581 0.849609 0.249268
36.630070 34.231575 0.208275 0.272335 -0.265108 0.924960 0.864746 0.307861
30.043480 19.661722 -2.028390 0.272335 -0.265108 0.924960 0.849609 0.249268
38.441383 30.338638 -1.440806 0.272335 -0.265108 0.924960 0.841309 0.308594
36.630070 34.231575 0.208275 0.197668 -0.302951 0.932281 0.864746 0.307861
38.441383 30.338638 -1.440806 0.197668 -0.302951 0.932281 0.841309 0.308594
43.600883 39.967480 0.594199 0.197668 -0.302951 0.932281 0.839600 0.325439
36.630070 34.231575 0.208275 -0.063196 0.009657 0.997954 0.864746 0.307861
43.600883 39.967480 0.594199 -0.063196 0.009657 0.997954 0.839600 0.325439
41.021137 43.591331 0.395770 -0.063196 0.009657 0.997954 0.863281 0.325439
36.630070 34.231575 0.208275 -0.515312 0.225191 0.826887 0.864746 0.307861
41.021137 43.591331 0.395770 -0.515312 0.225191 0.826887 0.863281 0.325439
34.818756 37.961685 -1.936369 -0.515312 0.225191 0.826887 0.886963 0.306152
34.818756 37.961685 -1.936369 -0.582236 0.334494 0.741023 0.886963 0.306152
41.021137 43.591331 0.395770 -0.582236 0.334494 0.741023 0.863281 0.325439
39.100040 46.996044 -2.650543 -0.582236 0.334494 0.741023 0.886719 0.323975
34.818756 37.961685 -1.936369 -0.894523 0.432760 0.112016 0.886963 0.306152
39.100040 46.996044 -2.650543 -0.894523 0.432760 0.112016 0.886719 0.323975
34.214989 37.957859 -6.743086 -0.894523 0.432760 0.112016 0.907959 0.302734
34.818756 37.961685 -1.936369 -0.812693 0.573762 0.101625 0.886963 0.306152
34.214989 37.957859 -6.743086 -0.812693 0.573762 0.101625 0.907959 0.302734
25.432869 25.088396 -4.314151 -0.812693 0.573762 0.101625 0.905762 0.243164
34.818756 37.961685 -1.936369 -0.789517 0.513571 0.336017 0.886963 0.306152
25.432869 25.088396 -4.314151 -0.789517 0.513571 0.336017 0.905762 0.243164
26.530632 24.684780 -1.117915 -0.789517 0.513571 0.336017 0.887451 0.245117
39.100040 46.996044 -2.650543 -0.816031 0.537412 -0.212796 0.886719 0.323975
39.319595 45.452927 -7.389600 -0.816031 0.537412 -0.212796 0.907715 0.320313
34.214989 37.957859 -6.743086 -0.816031 0.537412 -0.212796 0.907959 0.302734
34.214989 37.957859 -6.743086 -0.478683 0.253504 -0.840594 0.907959 0.302734
39.319595 45.452927 -7.389600 -0.478683 0.253504 -0.840594 0.907715 0.320313
36.630070 35.560043 -8.841498 -0.478683 0.253504 -0.840594 0.929688 0.298096
34.214989 37.957859 -6.743086 -0.522089 0.199781 -0.829163 0.907959 0.302734
36.630070 35.560043 -8.841498 -0.522089 0.199781 -0.829163 0.929688 0.298096
25.432869 25.088396 -4.314151 -0.522089 0.199781 -0.829163 0.905762 0.243164
25.432869 25.088396 -4.314151 -0.578300 0.288432 -0.763136 0.905762 0.243164
36.630070 35.560043 -8.841498 -0.578300 0.288432 -0.763136 0.929688 0.298096
26.695297 22.661285 -6.188154 -0.578300 0.288432 -0.763136 0.923828 0.241211
25.432869 25.088396 -4.314151 -0.476905 0.368186 -0.798123 0.905762 0.243164
26.695297 22.661285 -6.188154 -0.476905 0.368186 -0.798123 0.923828 0.241211
13.357452 13.829397 -2.292641 -0.476905 0.368186 -0.798123 0.891357 0.183594
13.357452 13.829397 -2.292641 -0.577189 0.658888 -0.482409 0.891357 0.183594
26.695297 22.661285 -6.188154 -0.577189 0.658888 -0.482409 0.923828 0.241211
14.016109 11.489625 -6.276432 -0.577189 0.658888 -0.482409 0.905029 0.182129
13.357452 13.829397 -2.292641 -0.664493 0.591201 -0.457089 0.891357 0.183594
14.016109 11.489625 -6.276432 -0.664493 0.591201 -0.457089 0.905029 0.182129
9.625051 10.214140 -1.542657 -0.664493 0.591201 -0.457089 0.883545 0.148193
9.625051 10.214140 -1.542657 -0.659277 0.603083 -0.449050 0.883545 0.148193
14.016109 11.489625 -6.276432 -0.659277 0.603083 -0.449050 0.905029 0.182129
10.283710 7.922582 -5.587283 -0.659277 0.603083 -0.449050 0.900146 0.146240
41.185795 48.910698 -2.816904 -0.489298 0.779994 -0.390123 0.888184 0.333008
41.844452 47.420349 -6.622739 -0.489298 0.779994 -0.390123 0.910400 0.332275
39.319595 45.452927 -7.389600 -0.489298 0.779994 -0.390123 0.907715 0.320313
41.185795 48.910698 -2.816904 -0.664289 0.701141 -0.259079 0.888184 0.333008
39.319595 45.452927 -7.389600 -0.664289 0.701141 -0.259079 0.907715 0.320313
39.100040 46.996044 -2.650543 -0.664289 0.701141 -0.259079 0.886719 0.323975
41.185795 48.910698 -2.816904 -0.383601 0.486106 0.785207 0.888184 0.333008
39.100040 46.996044 -2.650543 -0.383601 0.486106 0.785207 0.886719 0.323975
41.021137 43.591331 0.395770 -0.383601 0.486106 0.785207 0.863281 0.325439
41.185795 48.910698 -2.816904 -0.466190 0.467898 0.750825 0.888184 0.333008
41.021137 43.591331 0.395770 -0.466190 0.467898 0.750825 0.863281 0.325439
42.942226 45.833130 0.191542 -0.466190 0.467898 0.750825 0.864990 0.333008
41.185795 48.910698 -2.816904 -0.159818 0.641896 0.749952 0.888184 0.333008
42.942226 45.833130 0.191542 -0.159818 0.641896 0.749952 0.864990 0.333008
44.204647 47.017765 -0.553379 -0.159818 0.641896 0.749952 0.864990 0.339600
41.185795 48.910698 -2.816904 -0.315539 0.477404 0.820074 0.888184 0.333008
44.204647 47.017765 -0.553379 -0.315539 0.477404 0.820074 0.864990 0.339600
42.667778 50.370235 -3.096349 -0.315539 0.477404 0.820074 0.888916 0.340820
41.185795 48.910698 -2.816904 -0.687330 0.628038 -0.364890 0.888184 0.333008
42.667778 50.370235 -3.096349 -0.687330 0.628038 -0.364890 0.888916 0.340820
41.844452 47.420349 -6.622739 -0.687330 0.628038 -0.364890 0.910400 0.332275
41.844452 47.420349 -6.622739 -0.785394 0.552606 -0.278894 0.910400 0.332275
42.667778 50.370235 -3.096349 -0.785394 0.552606 -0.278894 0.888916 0.340820
43.930206 50.194778 -6.999126 -0.785394 0.552606 -0.278894 0.911133 0.343262
41.844452 47.420349 -6.622739 -0.595484 0.349542 -0.723339 0.910400 0.332275
43.930206 50.194778 -6.999126 -0.595484 0.349542 -0.723339 0.911133 0.343262
44.149761 45.607399 -9.396648 -0.595484 0.349542 -0.723339 0.930664 0.330322
41.844452 47.420349 -6.622739 -0.306115 0.660192 -0.685886 0.910400 0.332275
44.149761 45.607399 -9.396648 -0.306115 0.660192 -0.685886 0.930664 0.330322
39.319595 45.452927 -7.389600 -0.306115 0.660192 -0.685886 0.907715 0.320313
39.319595 45.452927 -7.389600 -0.366903 0.367181 -0.854728 0.907715 0.320313
44.149761 45.607399 -9.396648 -0.366903 0.367181 -0.854728 0.930664 0.330322
42.503113 44.007267 -9.377202 -0.366903 0.367181 -0.854728 0.929688 0.319336
39.319595 45.452927 -7.389600 -0.431126 0.244669 -0.868486 0.907715 0.320313
42.503113 44.007267 -9.377202 -0.431126 0.244669 -0.868486 0.929688 0.319336
36.630070 35.560043 -8.841498 -0.431126 0.244669 -0.868486 0.929688 0.298096
36.630070 35.560043 -8.841498 0.354738 -0.302735 -0.884597 0.929688 0.298096
42.503113 44.007267 -9.377202 0.354738 -0.302735 -0.884597 0.929688 0.319336
38.825600 31.884468 -6.703164 0.354738 -0.302735 -0.884597 0.951416 0.292480
36.630070 35.560043 -8.841498 0.245967 -0.373440 -0.894451 0.929688 0.298096
38.825600 31.884468 -6.703164 0.245967 -0.373440 -0.894451 0.951416 0.292480
26.695297 22.661285 -6.188154 0.245967 -0.373440 -0.894451 0.923828 0.241211
26.695297 22.661285 -6.188154 0.142731 -0.241318 -0.959893 0.923828 0.241211
38.825600 31.884468 -6.703164 0.142731 -0.241318 -0.959893 0.951416 0.292480
28.835939 20.119856 -5.230935 0.142731 -0.241318 -0.959893 0.944336 0.239014
26.695297 22.661285 -6.188154 0.186875 -0.204500 -0.960863 0.923828 0.241211
28.835939 20.119856 -5.230935 0.186875 -0.204500 -0.960863 0.944336 0.239014
14.016109 11.489625 -6.276432 0.186875 -0.204500 -0.960863 0.905029 0.182129
43.930206 50.194778 -6.999126 0.011326 0.463586 -0.885980 0.911133 0.343262
45.412189 47.138630 -8.579300 0.011326 0.463586 -0.885980 0.931396 0.340332
44.149761 45.607399 -9.396648 0.011326 0.463586 -0.885980 0.930664 0.330322
44.149761 45.607399 -9.396648 0.664119 -0.157408 -0.730868 0.930664 0.330322
45.412189 47.138630 -8.579300 0.664119 -0.157408 -0.730868 0.931396 0.340332
46.290401 41.837673 -6.639616 0.664119 -0.157408 -0.730868 0.954834 0.328613
44.149761 45.607399 -9.396648 0.376746 -0.397864 -0.836521 0.930664 0.330322
46.290401 41.837673 -6.639616 0.376746 -0.397864 -0.836521 0.954834 0.328613
42.503113 44.007267 -9.377202 0.376746 -0.397864 -0.836521 0.929688 0.319336
42.503113 44.007267 -9.377202 0.347792 -0.438529 -0.828693 0.929688 0.319336
46.290401 41.837673 -6.639616 0.347792 -0.438529 -0.828693 0.954834 0.328613
44.533978 40.455631 -6.645414 0.347792 -0.438529 -0.828693 0.952637 0.316162
42.503113 44.007267 -9.377202 0.501608 -0.328678 -0.800225 0.929688 0.319336
44.533978 40.455631 -6.645414 0.501608 -0.328678 -0.800225 0.952637 0.316162
38.825600 31.884468 -6.703164 0.501608 -0.328678 -0.800225 0.951416 0.292480
38.825600 31.884468 -6.703164 0.830067 -0.553293 0.069678 0.951416 0.292480
44.533978 40.455631 -6.645414 0.830067 -0.553293 0.069678 0.952637 0.316162
43.600883 39.967480 0.594199 0.830067 -0.553293 0.069678 0.975586 0.311768
38.825600 31.884468 -6.703164 0.885364 -0.459544 -0.070350 0.951416 0.292480
43.600883 39.967480 0.594199 0.885364 -0.459544 -0.070350 0.975586 0.311768
38.441383 30.338638 -1.440806 0.885364 -0.459544 -0.070350 0.972656 0.286377
38.825600 31.884468 -6.703164 0.746599 -0.651070 -0.136742 0.951416 0.292480
38.441383 30.338638 -1.440806 0.746599 -0.651070 -0.136742 0.972656 0.286377
28.835939 20.119856 -5.230935 0.746599 -0.651070 -0.136742 0.944336 0.239014
28.835939 20.119856 -5.230935 0.742623 -0.564256 -0.360729 0.944336 0.239014
38.441383 30.338638 -1.440806 0.742623 -0.564256 -0.360729 0.972656 0.286377
30.043480 19.661722 -2.028390 0.742623 -0.564256 -0.360729 0.960205 0.237305
45.412189 47.138630 -8.579300 0.603288 -0.184003 -0.776007 0.931396 0.340332
47.113724 43.469364 -6.386444 0.603288 -0.184003 -0.776007 0.955322 0.338623
46.290401 41.837673 -6.639616 0.603288 -0.184003 -0.776007 0.954834 0.328613
46.290401 41.837673 -6.639616 0.885635 -0.458402 0.074285 0.954834 0.328613
47.113724 43.469364 -6.386444 0.885635 -0.458402 0.074285 0.955322 0.338623
45.906185 41.952808 -1.348493 0.885635 -0.458402 0.074285 0.978516 0.327393
46.290401 41.837673 -6.639616 0.682233 -0.728205 0.065386 0.954834 0.328613
45.906185 41.952808 -1.348493 0.682233 -0.728205 0.065386 0.978516 0.327393
43.600883 39.967480 0.594199 0.682233 -0.728205 0.065386 0.975586 0.311768
46.290401 41.837673 -6.639616 0.618098 -0.785647 0.026691 0.954834 0.328613
43.600883 39.967480 0.594199 0.618098 -0.785647 0.026691 0.975586 0.311768
44.533978 40.455631 -6.645414 0.618098 -0.785647 0.026691 0.952637 0.316162
47.113724 43.469364 -6.386444 0.936386 -0.327648 0.125810 0.955322 0.338623
46.564842 43.592575 -1.980327 0.936386 -0.327648 0.125810 0.976318 0.338135
45.906185 41.952808 -1.348493 0.936386 -0.327648 0.125810 0.978516 0.327393
45.906185 41.952808 -1.348493 0.590793 0.072325 0.803575 0.840576 0.333008
46.564842 43.592575 -1.980327 0.590793 0.072325 0.803575 0.842773 0.338379
44.204647 47.017765 -0.553379 0.590793 0.072325 0.803575 0.864990 0.339600
45.906185 41.952808 -1.348493 0.488848 0.027345 0.871940 0.840576 0.333008
44.204647 47.017765 -0.553379 0.488848 0.027345 0.871940 0.864990 0.339600
42.942226 45.833130 0.191542 0.488848 0.027345 0.871940 0.864990 0.333008
45.906185 41.952808 -1.348493 0.577131 0.120256 0.807749 0.840576 0.333008
42.942226 45.833130 0.191542 0.577131 0.120256 0.807749 0.864990 0.333008
43.600883 39.967480 0.594199 0.577131 0.120256 0.807749 0.839600 0.325439
43.600883 39.967480 0.594199 0.023101 0.071049 0.997205 0.839600 0.325439
42.942226 45.833130 0.191542 0.023101 0.071049 0.997205 0.864990 0.333008
41.021137 43.591331 0.395770 0.023101 0.071049 0.997205 0.863281 0.325439
3 0 1 2
3 3 4 5
3 6 7 8
3 9 10 11
3 12 13 14
3 15 16 17
3 18 19 20
3 21 22 23
3 24 25 26
3 27 28 29
3 30 31 32
3 33 34 35
3 36 37 38
3 39 40 41
3 42 43 44
3 45 46 47
3 48 49 50
3 51 52 53
3 54 55 56
3 57 58 59
3 60 61 62
3 63 64 65
3 66 67 68
3 69 70 71
3 72 73 74
3 75 76 77
3 78 79 80
3 81 82 83
3 84 85 86
3 87 88 89
3 90 91 92
3 93 94 95
3 96 97 98
3 99 100 101
3 102 103 104
3 105 106 107
3 108 109 110
3 111 112 113
3 114 115 116
3 117 118 119
3 120 121 122
3 123 124 125
3 126 127 128
3 129 130 131
3 132 133 134
3 135 136 137
3 138 139 140
3 141 142 143
3 144 145 146
3 147 148 149
3 150 151 152
3 153 154 155
3 156 157 158
3 159 160 161
3 162 163 164
3 165 166 167
3 168 169 170
3 171 172 173
3 174 175 176
3 177 178 179
3 180 181 182
3 183 184 185
3 186 187 188
3 189 190 191
3 192 193 194
3 195 196 197
3 198 199 200
3 201 202 203
3 204 205 206
3 207 208 209
3 210 211 212
3 213 214 215
3 216 217 218
3 219 220 221
3 222 223 224
3 225 226 227
3 228 229 230
3 231 232 233
3 234 235 236
3 237 238 239
3 240 241 242
3 243 244 245
3 246 247 248
3 249 250 251
3 252 253 254
3 255 256 257
3 258 259 260
3 261 262 263
3 264 265 266
3 267 268 269
3 270 271 272
3 273 274 275
3 276 277 278
3 279 280 281
3 282 283 284
3 285 286 287
3 288 289 290
3 291 292 293
3 294 295 296
3 297 298 299
3 300 301 302
3 303 304 305
3 306 307 308
3 309 310 311
3 312 313 314
3 315 316 317
3 318 319 320
3 321 322 323
3 324 325 326
3 327 328 329
3 330 331 332
3 333 334 335
3 336 337 338
3 339 340 341
3 342 343 344
3 345 346 347
3 348 349 350
3 351 352 353
3 354 355 356
3 357 358 359
3 360 361 362
3 363 364 365
3 366 367 368
3 369 370 371
3 372 373 374
3 375 376 377
3 378 379 380
3 381 382 383
3 384 385 386
3 387 388 389
3 390 391 392
3 393 394 395
3 396 397 398
3 399 400 401
3 402 403 404
3 405 406 407
3 408 409 410
3 411 412 413
3 414 415 416
3 417 418 419
3 420 421 422
3 423 424 425
3 426 427 428
3 429 430 431
3 432 433 434
3 435 436 437
3 438 439 440
3 441 442 443
3 444 445 446
3 447 448 449
3 450 451 452
3 453 454 455
3 456 457 458
3 459 460 461
3 462 463 464
3 465 466 467
3 468 469 470
3 471 472 473
3 474 475 476
3 477 478 479
