ply
format ascii 1.0
comment Created by Blender 2.91.2 - www.blender.org
element vertex 222
property float x
property float y
property float z
property float nx
property float ny
property float nz
property float s
property float t
element face 74
property list uchar uint vertex_indices
end_header
0.163472 -31.401915 5.567661 0.887780 -0.145721 -0.436592 0.959961 0.987793
-0.275634 -33.469799 5.364966 0.887780 -0.145721 -0.436592 0.969238 0.992188
-0.440299 -31.964327 4.527652 0.887780 -0.145721 -0.436592 0.959717 0.991699
0.163472 -31.401915 5.567661 0.876461 -0.056791 -0.478112 0.959961 0.987793
-0.440299 -31.964327 4.527652 0.876461 -0.056791 -0.478112 0.959717 0.991699
-0.275634 -23.536039 3.828376 0.876461 -0.056791 -0.478112 0.927002 0.970703
0.163472 -31.401915 5.567661 0.951587 -0.014767 -0.307024 0.959961 0.987793
-0.275634 -23.536039 3.828376 0.951587 -0.014767 -0.307024 0.927002 0.970703
0.437913 -23.556219 6.040911 0.951587 -0.014767 -0.307024 0.933838 0.964111
0.163472 -31.401915 5.567661 0.513177 -0.069552 0.855460 0.959961 0.987793
0.437913 -23.556219 6.040911 0.513177 -0.069552 0.855460 0.933838 0.964111
-1.812505 -23.677376 7.381050 0.513177 -0.069552 0.855460 0.941895 0.958984
0.163472 -31.401915 5.567661 0.350898 -0.128005 0.927624 0.959961 0.987793
-1.812505 -23.677376 7.381050 0.350898 -0.128005 0.927624 0.941895 0.958984
-0.659852 -31.758339 5.829921 0.350898 -0.128005 0.927624 0.963379 0.984863
0.163472 -31.401915 5.567661 0.364202 -0.167143 0.916199 0.959961 0.987793
-0.659852 -31.758339 5.829921 0.364202 -0.167143 0.916199 0.963379 0.984863
-0.275634 -33.469799 5.364966 0.364202 -0.167143 0.916199 0.969238 0.992188
-0.275634 -33.469799 5.364966 -0.754164 -0.324420 0.570955 0.969238 0.992188
-0.659852 -31.758339 5.829921 -0.754164 -0.324420 0.570955 0.963379 0.984863
-1.592952 -31.733608 4.611458 -0.754164 -0.324420 0.570955 0.968506 0.983643
-0.275634 -33.469799 5.364966 -0.160864 -0.493110 -0.854965 0.969238 0.992188
-1.592952 -31.733608 4.611458 -0.160864 -0.493110 -0.854965 0.968506 0.983643
-0.440299 -31.964327 4.527652 -0.160864 -0.493110 -0.854965 0.973877 0.984375
-0.440299 -31.964327 4.527652 -0.117711 -0.237861 -0.964140 0.973877 0.984375
-1.592952 -31.733608 4.611458 -0.117711 -0.237861 -0.964140 0.968506 0.983643
-1.922281 -23.832146 2.702309 -0.117711 -0.237861 -0.964140 0.964111 0.950439
-0.440299 -31.964327 4.527652 0.572352 -0.078901 -0.816203 0.973877 0.984375
-1.922281 -23.832146 2.702309 0.572352 -0.078901 -0.816203 0.964111 0.950439
-0.275634 -23.536039 3.828376 0.572352 -0.078901 -0.816203 0.970947 0.948975
-0.275634 -23.536039 3.828376 0.555024 0.066716 -0.829155 0.970947 0.948975
-1.922281 -23.832146 2.702309 0.555024 0.066716 -0.829155 0.964111 0.950439
-0.604963 -20.159575 3.879606 0.555024 0.066716 -0.829155 0.967773 0.935303
-0.275634 -23.536039 3.828376 0.947497 0.097039 -0.304685 0.927002 0.970703
-0.604963 -20.159575 3.879606 0.947497 0.097039 -0.304685 0.915527 0.957764
0.437913 -23.556219 6.040911 0.947497 0.097039 -0.304685 0.933838 0.964111
0.437913 -23.556219 6.040911 0.923389 0.040625 -0.381710 0.933838 0.964111
-0.604963 -20.159575 3.879606 0.923389 0.040625 -0.381710 0.915527 0.957764
0.273249 -20.022493 6.018666 0.923389 0.040625 -0.381710 0.924316 0.951416
0.437913 -23.556219 6.040911 0.362947 0.022777 0.931531 0.933838 0.964111
0.273249 -20.022493 6.018666 0.362947 0.022777 0.931531 0.924316 0.951416
-2.086946 -19.806156 6.932966 0.362947 0.022777 0.931531 0.933594 0.945557
0.437913 -23.556219 6.040911 0.501652 0.134476 0.854553 0.933838 0.964111
-2.086946 -19.806156 6.932966 0.501652 0.134476 0.854553 0.933594 0.945557
-1.812505 -23.677376 7.381050 0.501652 0.134476 0.854553 0.941895 0.958984
-1.812505 -23.677376 7.381050 -0.396760 0.077738 0.914625 0.941895 0.958984
-2.086946 -19.806156 6.932966 -0.396760 0.077738 0.914625 0.933594 0.945557
-4.117811 -19.907133 6.060569 -0.396760 0.077738 0.914625 0.941650 0.941895
-1.812505 -23.677376 7.381050 -0.563893 -0.056219 0.823933 0.941895 0.958984
-4.117811 -19.907133 6.060569 -0.563893 -0.056219 0.823933 0.941650 0.941895
-3.788482 -23.835154 6.017942 -0.563893 -0.056219 0.823933 0.948730 0.955078
-1.812505 -23.677376 7.381050 -0.539666 -0.232301 0.809195 0.941895 0.958984
-3.788482 -23.835154 6.017942 -0.539666 -0.232301 0.809195 0.948730 0.955078
-0.659852 -31.758339 5.829921 -0.539666 -0.232301 0.809195 0.963379 0.984863
-0.659852 -31.758339 5.829921 -0.757200 -0.312606 0.573520 0.963379 0.984863
-3.788482 -23.835154 6.017942 -0.757200 -0.312606 0.573520 0.948730 0.955078
-1.592952 -31.733608 4.611458 -0.757200 -0.312606 0.573520 0.968506 0.983643
-1.592952 -31.733608 4.611458 -0.914222 -0.302197 0.269955 0.968506 0.983643
-3.788482 -23.835154 6.017942 -0.914222 -0.302197 0.269955 0.948730 0.955078
-4.447141 -24.131769 3.455307 -0.914222 -0.302197 0.269955 0.956543 0.952637
-1.592952 -31.733608 4.611458 -0.251682 -0.237200 -0.938292 0.968506 0.983643
-4.447141 -24.131769 3.455307 -0.251682 -0.237200 -0.938292 0.956543 0.952637
-1.922281 -23.832146 2.702309 -0.251682 -0.237200 -0.938292 0.964111 0.950439
-1.922281 -23.832146 2.702309 -0.295945 0.108960 -0.948970 0.964111 0.950439
-4.447141 -24.131769 3.455307 -0.295945 0.108960 -0.948970 0.956543 0.952637
-4.172699 -20.165886 3.825079 -0.295945 0.108960 -0.948970 0.950439 0.938965
-1.922281 -23.832146 2.702309 -0.333435 0.082931 -0.939119 0.964111 0.950439
-4.172699 -20.165886 3.825079 -0.333435 0.082931 -0.939119 0.950439 0.938965
-2.196723 -20.247929 3.116262 -0.333435 0.082931 -0.939119 0.959717 0.936523
-1.922281 -23.832146 2.702309 0.422260 0.135842 -0.896239 0.964111 0.950439
-2.196723 -20.247929 3.116262 0.422260 0.135842 -0.896239 0.959717 0.936523
-0.604963 -20.159575 3.879606 0.422260 0.135842 -0.896239 0.967773 0.935303
-0.604963 -20.159575 3.879606 0.394925 -0.509403 -0.764554 0.967773 0.935303
-2.196723 -20.247929 3.116262 0.394925 -0.509403 -0.764554 0.959717 0.936523
-2.196723 -17.939493 1.578212 0.394925 -0.509403 -0.764554 0.956543 0.925781
-0.604963 -20.159575 3.879606 0.408248 -0.499422 -0.764141 0.967773 0.935303
-2.196723 -17.939493 1.578212 0.408248 -0.499422 -0.764141 0.956543 0.925781
0.273249 -17.848864 2.838578 0.408248 -0.499422 -0.764141 0.967773 0.925781
-0.604963 -20.159575 3.879606 0.921767 -0.381516 -0.069225 0.915527 0.957764
0.273249 -17.848864 2.838578 0.921767 -0.381516 -0.069225 0.906982 0.948242
0.712355 -17.267002 5.478708 0.921767 -0.381516 -0.069225 0.917236 0.940430
-0.604963 -20.159575 3.879606 0.908184 -0.215089 -0.359080 0.915527 0.957764
0.712355 -17.267002 5.478708 0.908184 -0.215089 -0.359080 0.917236 0.940430
0.273249 -20.022493 6.018666 0.908184 -0.215089 -0.359080 0.924316 0.951416
0.273249 -20.022493 6.018666 0.368229 0.121935 0.921704 0.924316 0.951416
0.712355 -17.267002 5.478708 0.368229 0.121935 0.921704 0.917236 0.940430
-2.086946 -19.806156 6.932966 0.368229 0.121935 0.921704 0.933594 0.945557
-2.086946 -19.806156 6.932966 0.501287 -0.058193 0.863322 0.933594 0.945557
0.712355 -17.267002 5.478708 0.501287 -0.058193 0.863322 0.917236 0.940430
-1.538064 -16.557673 6.833226 0.501287 -0.058193 0.863322 0.926514 0.934570
-2.086946 -19.806156 6.932966 -0.396893 0.095091 0.912926 0.933594 0.945557
-1.538064 -16.557673 6.833226 -0.396893 0.095091 0.912926 0.926514 0.934570
-4.117811 -19.907133 6.060569 -0.396893 0.095091 0.912926 0.941650 0.941895
-4.117811 -19.907133 6.060569 -0.430214 0.125118 0.894014 0.941650 0.941895
-1.538064 -16.557673 6.833226 -0.430214 0.125118 0.894014 0.926514 0.934570
-4.062923 -16.532942 5.614763 -0.430214 0.125118 0.894014 0.936279 0.930664
-4.117811 -19.907133 6.060569 -0.980983 0.041022 0.189708 0.941650 0.941895
-4.062923 -16.532942 5.614763 -0.980983 0.041022 0.189708 0.936279 0.930664
-4.611805 -17.284687 2.939041 -0.980983 0.041022 0.189708 0.946045 0.927979
-4.117811 -19.907133 6.060569 -0.989554 -0.138413 0.040318 0.941650 0.941895
-4.611805 -17.284687 2.939041 -0.989554 -0.138413 0.040318 0.946045 0.927979
-4.172699 -20.165886 3.825079 -0.989554 -0.138413 0.040318 0.950439 0.938965
-4.117811 -19.907133 6.060569 -0.997581 0.067478 0.016683 0.941650 0.941895
-4.172699 -20.165886 3.825079 -0.997581 0.067478 0.016683 0.950439 0.938965
-4.447141 -24.131769 3.455307 -0.997581 0.067478 0.016683 0.956543 0.952637
-4.117811 -19.907133 6.060569 -0.962765 -0.083509 0.257120 0.941650 0.941895
-4.447141 -24.131769 3.455307 -0.962765 -0.083509 0.257120 0.956543 0.952637
-3.788482 -23.835154 6.017942 -0.962765 -0.083509 0.257120 0.948730 0.955078
-1.647840 2.494984 0.539087 -0.875615 0.463580 0.135619 0.907227 0.847412
-2.416276 1.845973 -2.203785 -0.875615 0.463580 0.135619 0.922363 0.843506
-2.690717 0.154991 1.804518 -0.875615 0.463580 0.135619 0.911133 0.859131
-1.647840 2.494984 0.539087 -0.269796 0.548306 0.791562 0.907227 0.847412
-2.690717 0.154991 1.804518 -0.269796 0.548306 0.791562 0.911133 0.859131
0.822131 0.027526 3.090131 -0.269796 0.548306 0.791562 0.897217 0.863525
-1.647840 2.494984 0.539087 -0.278082 0.541727 0.793222 0.907227 0.847412
0.822131 0.027526 3.090131 -0.278082 0.541727 0.793222 0.897217 0.863525
0.931908 2.335961 1.552080 -0.278082 0.541727 0.793222 0.893066 0.851074
-2.416276 1.845973 -2.203785 -0.665934 0.159948 -0.728662 0.922363 0.843506
-0.330522 0.939245 -4.309016 -0.665934 0.159948 -0.728662 0.937500 0.840332
-3.568929 -0.636896 -1.695372 -0.665934 0.159948 -0.728662 0.925537 0.855469
-2.416276 1.845973 -2.203785 -0.890064 0.438617 0.124098 0.922363 0.843506
-3.568929 -0.636896 -1.695372 -0.890064 0.438617 0.124098 0.925537 0.855469
-2.690717 0.154991 1.804518 -0.890064 0.438617 0.124098 0.911133 0.859131
-2.690717 0.154991 1.804518 -0.965010 -0.058985 0.255492 0.911133 0.859131
-3.568929 -0.636896 -1.695372 -0.965010 -0.058985 0.255492 0.925537 0.855469
-1.922281 -8.696865 2.663340 -0.965010 -0.058985 0.255492 0.923584 0.897217
-2.690717 0.154991 1.804518 -0.341068 0.061401 0.938031 0.911133 0.859131
-1.922281 -8.696865 2.663340 -0.341068 0.061401 0.938031 0.923584 0.897217
0.822131 0.027526 3.090131 -0.341068 0.061401 0.938031 0.897217 0.863525
0.822131 0.027526 3.090131 -0.469076 0.104657 0.876935 0.897217 0.863525
-1.922281 -8.696865 2.663340 -0.469076 0.104657 0.876935 0.923584 0.897217
-0.165857 -8.644104 3.596561 -0.469076 0.104657 0.876935 0.910400 0.901611
0.822131 0.027526 3.090131 0.481647 -0.003696 0.876358 0.897217 0.863525
-0.165857 -8.644104 3.596561 0.481647 -0.003696 0.876358 0.910400 0.901611
1.535678 -9.139372 2.659307 0.481647 -0.003696 0.876358 0.899170 0.906494
0.822131 0.027526 3.090131 0.569030 0.005647 0.822297 0.897217 0.863525
1.535678 -9.139372 2.659307 0.569030 0.005647 0.822297 0.899170 0.906494
3.566544 -0.799440 1.196674 0.569030 0.005647 0.822297 0.883545 0.867676
0.822131 0.027526 3.090131 0.600210 0.378204 0.704776 0.897217 0.863525
3.566544 -0.799440 1.196674 0.600210 0.378204 0.704776 0.883545 0.867676
3.346991 1.614012 0.088523 0.600210 0.378204 0.704776 0.878662 0.854736
0.822131 0.027526 3.090131 0.557849 0.441646 0.702676 0.897217 0.863525
3.346991 1.614012 0.088523 0.557849 0.441646 0.702676 0.878662 0.854736
0.931908 2.335961 1.552080 0.557849 0.441646 0.702676 0.893066 0.851074
-0.330522 0.939245 -4.309016 -0.571514 -0.160285 -0.804786 0.937500 0.840332
-0.604963 -1.361123 -3.655972 -0.571514 -0.160285 -0.804786 0.940186 0.851807
-3.568929 -0.636896 -1.695372 -0.571514 -0.160285 -0.804786 0.925537 0.855469
-3.568929 -0.636896 -1.695372 -0.576232 -0.296641 -0.761551 0.925537 0.855469
-0.604963 -1.361123 -3.655972 -0.576232 -0.296641 -0.761551 0.940186 0.851807
-2.635828 -9.068705 0.882970 -0.576232 -0.296641 -0.761551 0.937012 0.893555
-3.568929 -0.636896 -1.695372 -0.928922 0.010383 0.370130 0.925537 0.855469
-2.635828 -9.068705 0.882970 -0.928922 0.010383 0.370130 0.937012 0.893555
-1.922281 -8.696865 2.663340 -0.928922 0.010383 0.370130 0.923584 0.897217
-1.922281 -8.696865 2.663340 -0.906891 0.293718 0.302124 0.923584 0.897217
-2.635828 -9.068705 0.882970 -0.906891 0.293718 0.302124 0.937012 0.893555
-4.611805 -17.284687 2.939041 -0.906891 0.293718 0.302124 0.946045 0.927979
-1.922281 -8.696865 2.663340 -0.947491 0.300266 0.110003 0.923584 0.897217
-4.611805 -17.284687 2.939041 -0.947491 0.300266 0.110003 0.946045 0.927979
-4.062923 -16.532942 5.614763 -0.947491 0.300266 0.110003 0.936279 0.930664
-1.922281 -8.696865 2.663340 -0.391901 0.416107 0.820529 0.923584 0.897217
-4.062923 -16.532942 5.614763 -0.391901 0.416107 0.820529 0.936279 0.930664
-1.538064 -16.557673 6.833226 -0.391901 0.416107 0.820529 0.926514 0.934570
-1.922281 -8.696865 2.663340 -0.438584 0.404317 0.802604 0.923584 0.897217
-1.538064 -16.557673 6.833226 -0.438584 0.404317 0.802604 0.926514 0.934570
-0.165857 -8.644104 3.596561 -0.438584 0.404317 0.802604 0.910400 0.901611
-0.165857 -8.644104 3.596561 0.521420 0.244014 0.817667 0.910400 0.901611
-1.538064 -16.557673 6.833226 0.521420 0.244014 0.817667 0.926514 0.934570
1.535678 -9.139372 2.659307 0.521420 0.244014 0.817667 0.899170 0.906494
1.535678 -9.139372 2.659307 0.553280 0.222420 0.802752 0.899170 0.906494
-1.538064 -16.557673 6.833226 0.553280 0.222420 0.802752 0.926514 0.934570
0.712355 -17.267002 5.478708 0.553280 0.222420 0.802752 0.917236 0.940430
1.535678 -9.139372 2.659307 0.948136 -0.185569 -0.258073 0.899170 0.906494
0.712355 -17.267002 5.478708 0.948136 -0.185569 -0.258073 0.917236 0.940430
0.931908 -9.427404 0.648220 0.948136 -0.185569 -0.258073 0.889404 0.910645
1.535678 -9.139372 2.659307 0.923538 -0.304063 -0.233717 0.899170 0.906494
0.931908 -9.427404 0.648220 0.923538 -0.304063 -0.233717 0.889404 0.910645
2.798108 -1.434062 -2.376671 0.923538 -0.304063 -0.233717 0.868164 0.872803
1.535678 -9.139372 2.659307 0.952536 -0.259786 -0.158702 0.899170 0.906494
2.798108 -1.434062 -2.376671 0.952536 -0.259786 -0.158702 0.868164 0.872803
3.566544 -0.799440 1.196674 0.952536 -0.259786 -0.158702 0.883545 0.867676
3.566544 -0.799440 1.196674 0.977881 -0.007025 -0.209042 0.883545 0.867676
2.798108 -1.434062 -2.376671 0.977881 -0.007025 -0.209042 0.868164 0.872803
3.346991 1.614012 0.088523 0.977881 -0.007025 -0.209042 0.878662 0.854736
3.346991 1.614012 0.088523 0.990173 -0.119321 -0.072931 0.878662 0.854736
2.798108 -1.434062 -2.376671 0.990173 -0.119321 -0.072931 0.868164 0.872803
3.017661 0.853676 -3.138761 0.990173 -0.119321 -0.072931 0.863525 0.859619
3.017661 0.853676 -3.138761 0.326419 -0.326783 -0.886940 0.953613 0.838623
2.798108 -1.434062 -2.376671 0.326419 -0.326783 -0.886940 0.957031 0.848877
-0.604963 -1.361123 -3.655972 0.326419 -0.326783 -0.886940 0.940186 0.851807
3.017661 0.853676 -3.138761 0.308702 -0.293659 -0.904692 0.953613 0.838623
-0.604963 -1.361123 -3.655972 0.308702 -0.293659 -0.904692 0.940186 0.851807
-0.330522 0.939245 -4.309016 0.308702 -0.293659 -0.904692 0.937500 0.840332
-0.604963 -1.361123 -3.655972 -0.492588 -0.341575 -0.800427 0.940186 0.851807
-0.824516 -9.454922 -0.066908 -0.492588 -0.341575 -0.800427 0.949463 0.890381
-2.635828 -9.068705 0.882970 -0.492588 -0.341575 -0.800427 0.937012 0.893555
-2.635828 -9.068705 0.882970 -0.479085 -0.102927 -0.871713 0.937012 0.893555
-0.824516 -9.454922 -0.066908 -0.479085 -0.102927 -0.871713 0.949463 0.890381
-4.611805 -17.284687 2.939041 -0.479085 -0.102927 -0.871713 0.946045 0.927979
-4.611805 -17.284687 2.939041 -0.506436 -0.084482 -0.858129 0.946045 0.927979
-0.824516 -9.454922 -0.066908 -0.506436 -0.084482 -0.858129 0.949463 0.890381
-2.196723 -17.939493 1.578212 -0.506436 -0.084482 -0.858129 0.956543 0.925781
-4.611805 -17.284687 2.939041 -0.526483 -0.471406 -0.707525 0.946045 0.927979
-2.196723 -17.939493 1.578212 -0.526483 -0.471406 -0.707525 0.956543 0.925781
-2.196723 -20.247929 3.116262 -0.526483 -0.471406 -0.707525 0.959717 0.936523
-4.611805 -17.284687 2.939041 -0.331397 -0.323108 -0.886441 0.946045 0.927979
-2.196723 -20.247929 3.116262 -0.331397 -0.323108 -0.886441 0.959717 0.936523
-4.172699 -20.165886 3.825079 -0.331397 -0.323108 -0.886441 0.950439 0.938965
0.931908 -9.427404 0.648220 0.352864 -0.387274 -0.851766 0.958984 0.888916
-0.824516 -9.454922 -0.066908 0.352864 -0.387274 -0.851766 0.949463 0.890381
-0.604963 -1.361123 -3.655972 0.352864 -0.387274 -0.851766 0.940186 0.851807
0.931908 -9.427404 0.648220 0.315091 -0.399368 -0.860943 0.958984 0.888916
-0.604963 -1.361123 -3.655972 0.315091 -0.399368 -0.860943 0.940186 0.851807
2.798108 -1.434062 -2.376671 0.315091 -0.399368 -0.860943 0.957031 0.848877
-2.196723 -17.939493 1.578212 0.369755 -0.234140 -0.899144 0.956543 0.925781
-0.824516 -9.454922 -0.066908 0.369755 -0.234140 -0.899144 0.949463 0.890381
0.931908 -9.427404 0.648220 0.369755 -0.234140 -0.899144 0.958984 0.888916
-2.196723 -17.939493 1.578212 0.446648 -0.257773 -0.856772 0.956543 0.925781
0.931908 -9.427404 0.648220 0.446648 -0.257773 -0.856772 0.958984 0.888916
0.273249 -17.848864 2.838578 0.446648 -0.257773 -0.856772 0.967773 0.925781
0.273249 -17.848864 2.838578 0.983860 -0.113031 -0.138724 0.906982 0.948242
0.931908 -9.427404 0.648220 0.983860 -0.113031 -0.138724 0.889404 0.910645
0.712355 -17.267002 5.478708 0.983860 -0.113031 -0.138724 0.917236 0.940430
3 0 1 2
3 3 4 5
3 6 7 8
3 9 10 11
3 12 13 14
3 15 16 17
3 18 19 20
3 21 22 23
3 24 25 26
3 27 28 29
3 30 31 32
3 33 34 35
3 36 37 38
3 39 40 41
3 42 43 44
3 45 46 47
3 48 49 50
3 51 52 53
3 54 55 56
3 57 58 59
3 60 61 62
3 63 64 65
3 66 67 68
3 69 70 71
3 72 73 74
3 75 76 77
3 78 79 80
3 81 82 83
3 84 85 86
3 87 88 89
3 90 91 92
3 93 94 95
3 96 97 98
3 99 100 101
3 102 103 104
3 105 106 107
3 108 109 110
3 111 112 113
3 114 115 116
3 117 118 119
3 120 121 122
3 123 124 125
3 126 127 128
3 129 130 131
3 132 133 134
3 135 136 137
3 138 139 140
3 141 142 143
3 144 145 146
3 147 148 149
3 150 151 152
3 153 154 155
3 156 157 158
3 159 160 161
3 162 163 164
3 165 166 167
3 168 169 170
3 171 172 173
3 174 175 176
3 177 178 179
3 180 181 182
3 183 184 185
3 186 187 188
3 189 190 191
3 192 193 194
3 195 196 197
3 198 199 200
3 201 202 203
3 204 205 206
3 207 208 209
3 210 211 212
3 213 214 215
3 216 217 218
3 219 220 221
