ply
format ascii 1.0
comment Created by Blender 2.91.2 - www.blender.org
element vertex 480
property float x
property float y
property float z
property float nx
property float ny
property float nz
property float s
property float t
element face 160
property list uchar uint vertex_indices
end_header
0.541473 0.468915 -5.964140 0.563398 0.642442 -0.519472 0.908936 0.038818
-1.379615 4.379030 -3.211952 0.563398 0.642442 -0.519472 0.886475 0.041259
2.188121 2.580243 -1.567125 0.563398 0.642442 -0.519472 0.896973 0.026367
0.541473 0.468915 -5.964140 0.746885 0.445523 -0.493631 0.908936 0.038818
2.188121 2.580243 -1.567125 0.746885 0.445523 -0.493631 0.896973 0.026367
5.097198 -1.416682 -0.772964 0.746885 0.445523 -0.493631 0.905762 0.021240
0.541473 0.468915 -5.964140 0.722553 -0.125751 -0.679782 0.908936 0.038818
5.097198 -1.416682 -0.772964 0.722553 -0.125751 -0.679782 0.905762 0.021240
0.815914 -4.096223 -4.827937 0.722553 -0.125751 -0.679782 0.922119 0.037841
0.541473 0.468915 -5.964140 0.355884 -0.205504 -0.911655 0.908936 0.038818
0.815914 -4.096223 -4.827937 0.355884 -0.205504 -0.911655 0.922119 0.037841
-7.527101 -4.571310 -7.977719 0.355884 -0.205504 -0.911655 0.921387 0.053710
0.541473 0.468915 -5.964140 0.428387 -0.353572 -0.831548 0.908936 0.038818
-7.527101 -4.571310 -7.977719 0.428387 -0.353572 -0.831548 0.921387 0.053710
-5.606011 -0.301765 -8.803434 0.428387 -0.353572 -0.831548 0.907959 0.055175
0.541473 0.468915 -5.964140 0.255826 0.637323 -0.726892 0.908936 0.038818
-5.606011 -0.301765 -8.803434 0.255826 0.637323 -0.726892 0.907959 0.055175
-1.379615 4.379030 -3.211952 0.255826 0.637323 -0.726892 0.886475 0.041259
-1.379615 4.379030 -3.211952 0.529317 0.409615 -0.742993 0.886475 0.041259
-5.606011 -0.301765 -8.803434 0.529317 0.409615 -0.742993 0.907959 0.055175
-6.209781 4.484772 -6.594728 0.529317 0.409615 -0.742993 0.885254 0.057617
-1.379615 4.379030 -3.211952 0.122237 0.982022 -0.143842 0.886475 0.041259
-6.209781 4.484772 -6.594728 0.122237 0.982022 -0.143842 0.885254 0.057617
-3.190927 5.110078 0.239733 0.122237 0.982022 -0.143842 0.871582 0.042724
-1.379615 4.379030 -3.211952 0.435765 0.899249 0.038217 0.886475 0.041259
-3.190927 5.110078 0.239733 0.435765 0.899249 0.038217 0.871582 0.042724
2.188121 2.580243 -1.567125 0.435765 0.899249 0.038217 0.896973 0.026367
2.188121 2.580243 -1.567125 0.284914 0.878951 -0.382450 0.896973 0.026367
-3.190927 5.110078 0.239733 0.284914 0.878951 -0.382450 0.871582 0.042724
2.023457 4.141778 1.898942 0.284914 0.878951 -0.382450 0.877197 0.029541
2.188121 2.580243 -1.567125 0.810003 0.548124 -0.208460 0.896973 0.026367
2.023457 4.141778 1.898942 0.810003 0.548124 -0.208460 0.877197 0.029541
5.097198 -1.416682 -0.772964 0.810003 0.548124 -0.208460 0.905762 0.021240
5.097198 -1.416682 -0.772964 0.590811 0.590817 -0.549433 0.905762 0.021240
2.023457 4.141778 1.898942 0.590811 0.590817 -0.549433 0.877197 0.029541
4.822757 2.078447 2.690314 0.590811 0.590817 -0.549433 0.870361 0.014892
5.097198 -1.416682 -0.772964 0.852732 -0.332350 0.402979 0.905762 0.021240
4.822757 2.078447 2.690314 0.852732 -0.332350 0.402979 0.870361 0.014892
3.285886 -2.025767 2.557563 0.852732 -0.332350 0.402979 0.910889 0.011474
5.097198 -1.416682 -0.772964 0.464547 -0.880802 0.091564 0.905762 0.021240
3.285886 -2.025767 2.557563 0.464547 -0.880802 0.091564 0.910889 0.011474
0.815914 -4.096223 -4.827937 0.464547 -0.880802 0.091564 0.922119 0.037841
0.815914 -4.096223 -4.827937 0.327727 -0.932495 0.151813 0.922119 0.037841
3.285886 -2.025767 2.557563 0.327727 -0.932495 0.151813 0.910889 0.011474
-1.599169 -4.302433 -0.880984 0.327727 -0.932495 0.151813 0.929932 0.035888
0.815914 -4.096223 -4.827937 -0.032165 -0.996903 -0.071765 0.922119 0.037841
-1.599169 -4.302433 -0.880984 -0.032165 -0.996903 -0.071765 0.929932 0.035888
-9.832405 -3.842020 -3.586500 -0.032165 -0.996903 -0.071765 0.932617 0.052002
0.815914 -4.096223 -4.827937 -0.004741 -0.986876 0.161410 0.922119 0.037841
-9.832405 -3.842020 -3.586500 -0.004741 -0.986876 0.161410 0.932617 0.052002
-7.527101 -4.571310 -7.977719 -0.004741 -0.986876 0.161410 0.921387 0.053710
-7.527101 -4.571310 -7.977719 -0.363951 -0.930703 -0.036497 0.921387 0.053710
-9.832405 -3.842020 -3.586500 -0.363951 -0.930703 -0.036497 0.932617 0.052002
-10.216623 -3.506071 -8.322036 -0.363951 -0.930703 -0.036497 0.923584 0.073486
-7.527101 -4.571310 -7.977719 0.042648 -0.208169 -0.977163 0.921387 0.053710
-10.216623 -3.506071 -8.322036 0.042648 -0.208169 -0.977163 0.923584 0.073486
-5.606011 -0.301765 -8.803434 0.042648 -0.208169 -0.977163 0.907959 0.055175
-5.606011 -0.301765 -8.803434 0.380195 -0.646435 -0.661493 0.907959 0.055175
-10.216623 -3.506071 -8.322036 0.380195 -0.646435 -0.661493 0.923584 0.073486
-7.087994 0.056422 -10.005242 0.380195 -0.646435 -0.661493 0.905762 0.075439
-5.606011 -0.301765 -8.803434 0.635252 0.388209 -0.667644 0.907959 0.055175
-7.087994 0.056422 -10.005242 0.635252 0.388209 -0.667644 0.905762 0.075439
-6.209781 4.484772 -6.594728 0.635252 0.388209 -0.667644 0.885254 0.057617
-6.209781 4.484772 -6.594728 0.261536 0.555843 -0.789074 0.885254 0.057617
-7.087994 0.056422 -10.005242 0.261536 0.555843 -0.789074 0.905762 0.075439
-7.801541 4.117486 -7.381036 0.261536 0.555843 -0.789074 0.884766 0.077880
-6.209781 4.484772 -6.594728 -0.116082 0.969094 -0.217675 0.885254 0.057617
-7.801541 4.117486 -7.381036 -0.116082 0.969094 -0.217675 0.884766 0.077880
-11.588829 4.485801 -3.721602 -0.116082 0.969094 -0.217675 0.864990 0.079834
-6.209781 4.484772 -6.594728 -0.126956 0.962924 -0.238031 0.885254 0.057617
-11.588829 4.485801 -3.721602 -0.126956 0.962924 -0.238031 0.864990 0.079834
-9.173746 5.140607 -2.360771 -0.126956 0.962924 -0.238031 0.866699 0.059570
-6.209781 4.484772 -6.594728 0.055080 0.991829 -0.115075 0.885254 0.057617
-9.173746 5.140607 -2.360771 0.055080 0.991829 -0.115075 0.866699 0.059570
-3.190927 5.110078 0.239733 0.055080 0.991829 -0.115075 0.871582 0.042724
-3.190927 5.110078 0.239733 -0.357917 0.430688 0.828494 0.871582 0.042724
-9.173746 5.140607 -2.360771 -0.357917 0.430688 0.828494 0.866699 0.059570
-3.410480 -0.320619 2.968000 -0.357917 0.430688 0.828494 0.849121 0.045166
-3.190927 5.110078 0.239733 -0.322294 0.435331 0.840603 0.871582 0.042724
-3.410480 -0.320619 2.968000 -0.322294 0.435331 0.840603 0.849121 0.045166
1.200133 0.915020 4.095836 -0.322294 0.435331 0.840603 0.859131 0.029296
-3.190927 5.110078 0.239733 -0.146458 0.581976 0.799909 0.871582 0.042724
1.200133 0.915020 4.095836 -0.146458 0.581976 0.799909 0.859131 0.029296
2.023457 4.141778 1.898942 -0.146458 0.581976 0.799909 0.877197 0.029541
2.023457 4.141778 1.898942 0.153934 0.528938 0.834583 0.877197 0.029541
1.200133 0.915020 4.095836 0.153934 0.528938 0.834583 0.859131 0.029296
4.822757 2.078447 2.690314 0.153934 0.528938 0.834583 0.870361 0.014892
4.822757 2.078447 2.690314 0.405702 -0.180899 0.895925 0.870361 0.014892
1.200133 0.915020 4.095836 0.405702 -0.180899 0.895925 0.859131 0.029296
3.285886 -2.025767 2.557563 0.405702 -0.180899 0.895925 0.841553 0.025878
3.285886 -2.025767 2.557563 -0.075517 -0.503708 0.860567 0.841553 0.025878
1.200133 0.915020 4.095836 -0.075517 -0.503708 0.860567 0.859131 0.029296
-3.410480 -0.320619 2.968000 -0.075517 -0.503708 0.860567 0.849121 0.045166
3.285886 -2.025767 2.557563 -0.141891 -0.720592 0.678686 0.841553 0.025878
-3.410480 -0.320619 2.968000 -0.141891 -0.720592 0.678686 0.849121 0.045166
-1.599169 -4.302433 -0.880984 -0.141891 -0.720592 0.678686 0.827148 0.047607
-1.599169 -4.302433 -0.880984 -0.250052 -0.729331 0.636828 0.827148 0.047607
-3.410480 -0.320619 2.968000 -0.250052 -0.729331 0.636828 0.849121 0.045166
-9.832405 -3.842020 -3.586500 -0.250052 -0.729331 0.636828 0.829834 0.063476
-9.832405 -3.842020 -3.586500 -0.398834 -0.585829 0.705504 0.829834 0.063476
-3.410480 -0.320619 2.968000 -0.398834 -0.585829 0.705504 0.849121 0.045166
-10.271511 0.099649 -0.561691 -0.398834 -0.585829 0.705504 0.844727 0.061767
-9.832405 -3.842020 -3.586500 -0.486425 -0.565377 0.666137 0.829834 0.063476
-10.271511 0.099649 -0.561691 -0.486425 -0.565377 0.666137 0.844727 0.061767
-13.290365 0.551984 -2.382197 -0.486425 -0.565377 0.666137 0.848633 0.081543
-9.832405 -3.842020 -3.586500 -0.498380 -0.571008 0.652356 0.829834 0.063476
-13.290365 0.551984 -2.382197 -0.498380 -0.571008 0.652356 0.848633 0.081543
-12.631706 -3.133723 -5.105107 -0.498380 -0.571008 0.652356 0.831787 0.083496
-9.832405 -3.842020 -3.586500 -0.218683 -0.974442 -0.051386 0.932617 0.052002
-12.631706 -3.133723 -5.105107 -0.218683 -0.974442 -0.051386 0.935547 0.072265
-10.216623 -3.506071 -8.322036 -0.218683 -0.974442 -0.051386 0.923584 0.073486
-10.216623 -3.506071 -8.322036 -0.472902 -0.842651 -0.257494 0.923584 0.073486
-12.631706 -3.133723 -5.105107 -0.472902 -0.842651 -0.257494 0.935547 0.072265
-10.161736 -2.592810 -11.411496 -0.472902 -0.842651 -0.257494 0.921631 0.090820
-10.216623 -3.506071 -8.322036 0.819975 -0.552715 -0.148818 0.923584 0.073486
-10.161736 -2.592810 -11.411496 0.819975 -0.552715 -0.148818 0.921631 0.090820
-7.856429 0.599388 -10.565381 0.819975 -0.552715 -0.148818 0.902344 0.092773
-10.216623 -3.506071 -8.322036 0.197046 -0.554921 -0.808230 0.923584 0.073486
-7.856429 0.599388 -10.565381 0.197046 -0.554921 -0.808230 0.902344 0.092773
-7.087994 0.056422 -10.005242 0.197046 -0.554921 -0.808230 0.905762 0.075439
-7.087994 0.056422 -10.005242 0.711151 0.530349 -0.461514 0.905762 0.075439
-7.856429 0.599388 -10.565381 0.711151 0.530349 -0.461514 0.902344 0.092773
-8.954193 3.815071 -8.561635 0.711151 0.530349 -0.461514 0.881836 0.094970
-7.087994 0.056422 -10.005242 0.539770 0.521735 -0.660637 0.905762 0.075439
-8.954193 3.815071 -8.561635 0.539770 0.521735 -0.660637 0.881836 0.094970
-7.801541 4.117486 -7.381036 0.539770 0.521735 -0.660637 0.884766 0.077880
-7.801541 4.117486 -7.381036 0.024390 0.962454 -0.270348 0.884766 0.077880
-8.954193 3.815071 -8.561635 0.024390 0.962454 -0.270348 0.881836 0.094970
-13.400142 4.299990 -7.236394 0.024390 0.962454 -0.270348 0.864502 0.096923
-7.801541 4.117486 -7.381036 0.030735 0.997174 -0.068555 0.884766 0.077880
-13.400142 4.299990 -7.236394 0.030735 0.997174 -0.068555 0.864502 0.096923
-11.588829 4.485801 -3.721602 0.030735 0.997174 -0.068555 0.864990 0.079834
-11.588829 4.485801 -3.721602 -0.819296 0.410284 0.400526 0.864990 0.079834
-13.400142 4.299990 -7.236394 -0.819296 0.410284 0.400526 0.864502 0.096923
-14.827236 1.330443 -7.113697 -0.819296 0.410284 0.400526 0.848877 0.098632
-11.588829 4.485801 -3.721602 -0.814595 0.468691 0.341707 0.864990 0.079834
-14.827236 1.330443 -7.113697 -0.814595 0.468691 0.341707 0.848877 0.098632
-13.290365 0.551984 -2.382197 -0.814595 0.468691 0.341707 0.848633 0.081543
-11.588829 4.485801 -3.721602 -0.411440 0.448184 0.793630 0.864990 0.079834
-13.290365 0.551984 -2.382197 -0.411440 0.448184 0.793630 0.848633 0.081543
-10.271511 0.099649 -0.561691 -0.411440 0.448184 0.793630 0.844727 0.061767
-11.588829 4.485801 -3.721602 -0.530088 0.385059 0.755471 0.864990 0.079834
-10.271511 0.099649 -0.561691 -0.530088 0.385059 0.755471 0.844727 0.061767
-9.173746 5.140607 -2.360771 -0.530088 0.385059 0.755471 0.866699 0.059570
-9.173746 5.140607 -2.360771 -0.403630 0.384236 0.830328 0.866699 0.059570
-10.271511 0.099649 -0.561691 -0.403630 0.384236 0.830328 0.844727 0.061767
-3.410480 -0.320619 2.968000 -0.403630 0.384236 0.830328 0.849121 0.045166
-8.954193 3.815071 -8.561635 0.954293 0.294676 0.049909 0.881836 0.094970
-7.856429 0.599388 -10.565381 0.954293 0.294676 0.049909 0.902344 0.092773
-9.393299 5.475531 -9.969432 0.954293 0.294676 0.049909 0.894531 0.114014
-8.954193 3.815071 -8.561635 0.574824 0.612271 0.542864 0.881836 0.094970
-9.393299 5.475531 -9.969432 0.574824 0.612271 0.542864 0.894531 0.114014
-11.479053 4.382034 -6.527581 0.574824 0.612271 0.542864 0.875244 0.115967
-8.954193 3.815071 -8.561635 0.230796 -0.824688 0.516355 0.881836 0.094970
-11.479053 4.382034 -6.527581 0.230796 -0.824688 0.516355 0.875244 0.115967
-15.101677 2.985104 -7.139456 0.230796 -0.824688 0.516355 0.859619 0.117676
-8.954193 3.815071 -8.561635 -0.250509 0.255326 -0.933838 0.881836 0.094970
-15.101677 2.985104 -7.139456 -0.250509 0.255326 -0.933838 0.859619 0.117676
-13.400142 4.299990 -7.236394 -0.250509 0.255326 -0.933838 0.864502 0.096923
-13.400142 4.299990 -7.236394 0.039794 0.022152 0.998962 0.864502 0.096923
-15.101677 2.985104 -7.139456 0.039794 0.022152 0.998962 0.859619 0.117676
-14.827236 1.330443 -7.113697 0.039794 0.022152 0.998962 0.848877 0.098632
-14.827236 1.330443 -7.113697 -0.949035 -0.153118 0.275476 0.848877 0.098632
-15.101677 2.985104 -7.139456 -0.949035 -0.153118 0.275476 0.859619 0.117676
-16.089666 2.623101 -10.744365 -0.949035 -0.153118 0.275476 0.849121 0.118896
-14.827236 1.330443 -7.113697 -0.126342 -0.947590 -0.293447 0.848877 0.098632
-16.089666 2.623101 -10.744365 -0.126342 -0.947590 -0.293447 0.849121 0.118896
-14.058802 3.353854 -13.978465 -0.126342 -0.947590 -0.293447 0.835205 0.120361
-14.827236 1.330443 -7.113697 -0.931731 -0.306570 -0.194659 0.848877 0.098632
-14.058802 3.353854 -13.978465 -0.931731 -0.306570 -0.194659 0.835205 0.120361
-13.290365 -2.006912 -9.213871 -0.931731 -0.306570 -0.194659 0.832031 0.100342
-14.827236 1.330443 -7.113697 -0.901650 -0.431674 0.026155 0.848877 0.098632
-13.290365 -2.006912 -9.213871 -0.901650 -0.431674 0.026155 0.832031 0.100342
-12.631706 -3.133723 -5.105107 -0.901650 -0.431674 0.026155 0.831787 0.083496
-14.827236 1.330443 -7.113697 -0.909568 -0.339541 0.239579 0.848877 0.098632
-12.631706 -3.133723 -5.105107 -0.909568 -0.339541 0.239579 0.831787 0.083496
-13.290365 0.551984 -2.382197 -0.909568 -0.339541 0.239579 0.848633 0.081543
-10.545954 4.712925 -13.693737 0.884482 0.320243 -0.339317 0.918701 0.111328
-9.393299 5.475531 -9.969432 0.884482 0.320243 -0.339317 0.894531 0.114014
-7.856429 0.599388 -10.565381 0.884482 0.320243 -0.339317 0.902344 0.092773
-10.545954 4.712925 -13.693737 0.583757 -0.213972 -0.783226 0.918701 0.111328
-7.856429 0.599388 -10.565381 0.583757 -0.213972 -0.783226 0.902344 0.092773
-10.161736 -2.592810 -11.411496 0.583757 -0.213972 -0.783226 0.921631 0.090820
-10.545954 4.712925 -13.693737 0.186127 -0.284038 -0.940574 0.918701 0.111328
-10.161736 -2.592810 -11.411496 0.186127 -0.284038 -0.940574 0.921631 0.090820
-14.058802 3.353854 -13.978465 0.186127 -0.284038 -0.940574 0.939697 0.109131
-10.545954 4.712925 -13.693737 0.076464 0.011235 -0.997009 0.918701 0.111328
-14.058802 3.353854 -13.978465 0.076464 0.011235 -0.997009 0.939697 0.109131
-14.223467 6.063409 -13.960560 0.076464 0.011235 -0.997009 0.939697 0.124756
-10.545954 4.712925 -13.693737 0.074979 0.007161 -0.997159 0.918701 0.111328
-14.223467 6.063409 -13.960560 0.074979 0.007161 -0.997159 0.939697 0.124756
-10.655730 7.476999 -13.682142 0.074979 0.007161 -0.997159 0.918945 0.126953
-10.545954 4.712925 -13.693737 0.985720 0.039835 -0.163610 0.918701 0.111328
-10.655730 7.476999 -13.682142 0.985720 0.039835 -0.163610 0.918945 0.126953
-9.997070 8.120208 -9.557236 0.985720 0.039835 -0.163610 0.892578 0.129883
-10.545954 4.712925 -13.693737 0.906469 0.258933 -0.333568 0.918701 0.111328
-9.997070 8.120208 -9.557236 0.906469 0.258933 -0.333568 0.892578 0.129883
-9.393299 5.475531 -9.969432 0.906469 0.258933 -0.333568 0.894531 0.114014
-9.393299 5.475531 -9.969432 0.835003 0.106489 0.539842 0.894531 0.114014
-9.997070 8.120208 -9.557236 0.835003 0.106489 0.539842 0.892578 0.129883
-11.479053 4.382034 -6.527581 0.835003 0.106489 0.539842 0.875244 0.115967
-11.479053 4.382034 -6.527581 0.830922 0.112246 0.544949 0.875244 0.115967
-9.997070 8.120208 -9.557236 0.830922 0.112246 0.544949 0.892578 0.129883
-11.863271 7.200638 -6.522299 0.830922 0.112246 0.544949 0.875000 0.131592
-11.479053 4.382034 -6.527581 -0.157738 -0.023352 0.987205 0.875244 0.115967
-11.863271 7.200638 -6.522299 -0.157738 -0.023352 0.987205 0.875000 0.131592
-15.101677 2.985104 -7.139456 -0.157738 -0.023352 0.987205 0.859619 0.117676
-15.101677 2.985104 -7.139456 0.036022 -0.171800 0.984473 0.859619 0.117676
-11.863271 7.200638 -6.522299 0.036022 -0.171800 0.984473 0.875000 0.131592
-15.376119 5.805980 -6.637143 0.036022 -0.171800 0.984473 0.862549 0.133057
-15.101677 2.985104 -7.139456 -0.947314 -0.143185 0.286522 0.859619 0.117676
-15.376119 5.805980 -6.637143 -0.947314 -0.143185 0.286522 0.862549 0.133057
-16.473883 5.418733 -10.460150 -0.947314 -0.143185 0.286522 0.849365 0.134521
-15.101677 2.985104 -7.139456 -0.948101 -0.158335 0.275744 0.859619 0.117676
-16.473883 5.418733 -10.460150 -0.948101 -0.158335 0.275744 0.849365 0.134521
-16.089666 2.623101 -10.744365 -0.948101 -0.158335 0.275744 0.849121 0.118896
-16.089666 2.623101 -10.744365 -0.839128 -0.060368 -0.540574 0.849121 0.118896
-16.473883 5.418733 -10.460150 -0.839128 -0.060368 -0.540574 0.849365 0.134521
-14.058802 3.353854 -13.978465 -0.839128 -0.060368 -0.540574 0.835205 0.120361
-14.058802 3.353854 -13.978465 -0.836246 -0.047210 -0.546318 0.835205 0.120361
-16.473883 5.418733 -10.460150 -0.836246 -0.047210 -0.546318 0.849365 0.134521
-14.223467 6.063409 -13.960560 -0.836246 -0.047210 -0.546318 0.838623 0.135498
-14.223467 6.063409 -13.960560 -0.605868 -0.616350 -0.503027 0.838623 0.135498
-16.473883 5.418733 -10.460150 -0.605868 -0.616350 -0.503027 0.849365 0.134521
-15.705449 8.518760 -15.184090 -0.605868 -0.616350 -0.503027 0.839844 0.152832
-14.223467 6.063409 -13.960560 0.355611 -0.236009 -0.904345 0.939697 0.124756
-15.705449 8.518760 -15.184090 0.355611 -0.236009 -0.904345 0.946289 0.141357
-11.533942 11.062976 -14.207719 0.355611 -0.236009 -0.904345 0.926514 0.143555
-14.223467 6.063409 -13.960560 0.122315 -0.114537 -0.985860 0.939697 0.124756
-11.533942 11.062976 -14.207719 0.122315 -0.114537 -0.985860 0.926514 0.143555
-10.655730 7.476999 -13.682142 0.122315 -0.114537 -0.985860 0.918945 0.126953
-10.655730 7.476999 -13.682142 0.929338 0.180378 -0.322171 0.918945 0.126953
-11.533942 11.062976 -14.207719 0.929338 0.180378 -0.322171 0.926514 0.143555
-9.997070 12.025260 -9.235669 0.929338 0.180378 -0.322171 0.900146 0.146240
-10.655730 7.476999 -13.682142 0.987083 0.013148 -0.159666 0.918945 0.126953
-9.997070 12.025260 -9.235669 0.987083 0.013148 -0.159666 0.900146 0.146240
-9.997070 8.120208 -9.557236 0.987083 0.013148 -0.159666 0.892578 0.129883
-9.997070 8.120208 -9.557236 0.856107 -0.042413 0.515056 0.892578 0.129883
-9.997070 12.025260 -9.235669 0.856107 -0.042413 0.515056 0.900146 0.146240
-12.576818 11.020123 -5.030478 0.856107 -0.042413 0.515056 0.883545 0.148193
-9.997070 8.120208 -9.557236 0.856606 -0.040867 0.514350 0.892578 0.129883
-12.576818 11.020123 -5.030478 0.856606 -0.040867 0.514350 0.883545 0.148193
-11.863271 7.200638 -6.522299 0.856606 -0.040867 0.514350 0.875000 0.131592
-11.863271 7.200638 -6.522299 0.106265 -0.344468 0.932764 0.875000 0.131592
-12.576818 11.020123 -5.030478 0.106265 -0.344468 0.932764 0.883545 0.148193
-15.376119 5.805980 -6.637143 0.106265 -0.344468 0.932764 0.862549 0.133057
-15.376119 5.805980 -6.637143 -0.084967 -0.251467 0.964129 0.862549 0.133057
-12.576818 11.020123 -5.030478 -0.084967 -0.251467 0.964129 0.883545 0.148193
-17.022766 8.979247 -5.954600 -0.084967 -0.251467 0.964129 0.868164 0.149658
-15.376119 5.805980 -6.637143 -0.797290 -0.489642 0.352958 0.862549 0.133057
-17.022766 8.979247 -5.954600 -0.797290 -0.489642 0.352958 0.868164 0.149658
-18.394972 7.696130 -10.834262 -0.797290 -0.489642 0.352958 0.852539 0.151367
-15.376119 5.805980 -6.637143 -0.756374 -0.592499 0.277207 0.862549 0.133057
-18.394972 7.696130 -10.834262 -0.756374 -0.592499 0.277207 0.852539 0.151367
-16.473883 5.418733 -10.460150 -0.756374 -0.592499 0.277207 0.849365 0.134521
-16.473883 5.418733 -10.460150 -0.620664 -0.605408 -0.498254 0.849365 0.134521
-18.394972 7.696130 -10.834262 -0.620664 -0.605408 -0.498254 0.852539 0.151367
-15.705449 8.518760 -15.184090 -0.620664 -0.605408 -0.498254 0.839844 0.152832
-15.705449 8.518760 -15.184090 -0.762223 -0.358370 -0.539061 0.839844 0.152832
-18.394972 7.696130 -10.834262 -0.762223 -0.358370 -0.539061 0.852539 0.151367
-20.700279 13.331056 -11.320724 -0.762223 -0.358370 -0.539061 0.861816 0.186768
-15.705449 8.518760 -15.184090 -0.764560 -0.369668 -0.528010 0.839844 0.152832
-20.700279 13.331056 -11.320724 -0.764560 -0.369668 -0.528010 0.861816 0.186768
-18.175419 14.166309 -15.561504 -0.764560 -0.369668 -0.528010 0.844971 0.188477
-15.705449 8.518760 -15.184090 0.207085 0.025211 -0.977998 0.946289 0.141357
-18.175419 14.166309 -15.561504 0.207085 0.025211 -0.977998 0.949219 0.177490
-13.839248 16.268026 -14.589170 0.207085 0.025211 -0.977998 0.933594 0.178955
-15.705449 8.518760 -15.184090 0.214309 0.023355 -0.976487 0.946289 0.141357
-13.839248 16.268026 -14.589170 0.214309 0.023355 -0.976487 0.933594 0.178955
-11.533942 11.062976 -14.207719 0.214309 0.023355 -0.976487 0.926514 0.143555
-11.533942 11.062976 -14.207719 0.869317 0.360217 -0.338424 0.926514 0.143555
-13.839248 16.268026 -14.589170 0.869317 0.360217 -0.338424 0.933594 0.178955
-9.997070 12.025260 -9.235669 0.869317 0.360217 -0.338424 0.900146 0.146240
-9.997070 12.025260 -9.235669 0.868650 0.367746 -0.331979 0.900146 0.146240
-13.839248 16.268026 -14.589170 0.868650 0.367746 -0.331979 0.933594 0.178955
-12.357263 17.163164 -9.719856 0.868650 0.367746 -0.331979 0.905029 0.182129
-9.997070 12.025260 -9.235669 0.739737 0.391394 0.547357 0.900146 0.146240
-12.357263 17.163164 -9.719856 0.739737 0.391394 0.547357 0.905029 0.182129
-12.576818 11.020123 -5.030478 0.739737 0.391394 0.547357 0.883545 0.148193
-12.576818 11.020123 -5.030478 0.750335 0.383962 0.538117 0.883545 0.148193
-12.357263 17.163164 -9.719856 0.750335 0.383962 0.538117 0.905029 0.182129
-14.882122 16.212549 -5.520976 0.750335 0.383962 0.538117 0.891357 0.183594
-12.576818 11.020123 -5.030478 -0.204457 0.001695 0.978874 0.883545 0.148193
-14.882122 16.212549 -5.520976 -0.204457 0.001695 0.978874 0.891357 0.183594
-19.382961 14.280717 -6.457720 -0.204457 0.001695 0.978874 0.876465 0.185303
-12.576818 11.020123 -5.030478 -0.204353 0.001922 0.978895 0.883545 0.148193
-19.382961 14.280717 -6.457720 -0.204353 0.001922 0.978895 0.876465 0.185303
-17.022766 8.979247 -5.954600 -0.204353 0.001922 0.978895 0.868164 0.149658
-17.022766 8.979247 -5.954600 -0.871142 -0.355704 0.338506 0.868164 0.149658
-19.382961 14.280717 -6.457720 -0.871142 -0.355704 0.338506 0.876465 0.185303
-18.394972 7.696130 -10.834262 -0.871142 -0.355704 0.338506 0.852539 0.151367
-18.394972 7.696130 -10.834262 -0.889851 -0.337547 0.306965 0.852539 0.151367
-19.382961 14.280717 -6.457720 -0.889851 -0.337547 0.306965 0.876465 0.185303
-20.700279 13.331056 -11.320724 -0.889851 -0.337547 0.306965 0.861816 0.186768
-20.700279 13.331056 -11.320724 -0.932178 -0.211470 0.293810 0.861816 0.186768
-19.382961 14.280717 -6.457720 -0.932178 -0.211470 0.293810 0.876465 0.185303
-23.938683 26.620577 -12.030126 -0.932178 -0.211470 0.293810 0.866943 0.247314
-20.700279 13.331056 -11.320724 -0.859697 -0.233737 -0.454190 0.861816 0.186768
-23.938683 26.620577 -12.030126 -0.859697 -0.233737 -0.454190 0.866943 0.247314
-22.401812 27.085022 -15.178149 -0.859697 -0.233737 -0.454190 0.849609 0.249268
-20.700279 13.331056 -11.320724 -0.809782 -0.249159 -0.531199 0.861816 0.186768
-22.401812 27.085022 -15.178149 -0.809782 -0.249159 -0.531199 0.849609 0.249268
-18.175419 14.166309 -15.561504 -0.809782 -0.249159 -0.531199 0.844971 0.188477
-18.175419 14.166309 -15.561504 0.177554 0.087175 -0.980242 0.949219 0.177490
-22.401812 27.085022 -15.178149 0.177554 0.087175 -0.980242 0.960205 0.237305
-13.839248 16.268026 -14.589170 0.177554 0.087175 -0.980242 0.933594 0.178955
-13.839248 16.268026 -14.589170 0.212273 0.115194 -0.970397 0.933594 0.178955
-22.401812 27.085022 -15.178149 0.212273 0.115194 -0.970397 0.960205 0.237305
-19.437849 28.561731 -14.354489 0.212273 0.115194 -0.970397 0.944336 0.239014
-13.839248 16.268026 -14.589170 0.855645 0.396025 -0.333220 0.933594 0.178955
-19.437849 28.561731 -14.354489 0.855645 0.396025 -0.333220 0.944336 0.239014
-12.357263 17.163164 -9.719856 0.855645 0.396025 -0.333220 0.905029 0.182129
-12.357263 17.163164 -9.719856 0.856238 0.397959 -0.329371 0.905029 0.182129
-19.437849 28.561731 -14.354489 0.856238 0.397959 -0.329371 0.944336 0.239014
-18.449858 29.292780 -10.902805 0.856238 0.397959 -0.329371 0.923828 0.241211
-12.357263 17.163164 -9.719856 0.732519 0.420173 0.535603 0.905029 0.182129
-18.449858 29.292780 -10.902805 0.732519 0.420173 0.535603 0.923828 0.241211
-14.882122 16.212549 -5.520976 0.732519 0.420173 0.535603 0.891357 0.183594
-14.882122 16.212549 -5.520976 0.769488 0.411013 0.488832 0.891357 0.183594
-18.449858 29.292780 -10.902805 0.769488 0.411013 0.488832 0.923828 0.241211
-20.151394 28.719288 -7.742162 0.769488 0.411013 0.488832 0.905762 0.243164
-14.882122 16.212549 -5.520976 -0.233477 0.073825 0.969556 0.891357 0.183594
-20.151394 28.719288 -7.742162 -0.233477 0.073825 0.969556 0.905762 0.243164
-19.382961 14.280717 -6.457720 -0.233477 0.073825 0.969556 0.876465 0.185303
-19.382961 14.280717 -6.457720 -0.298773 0.068774 0.951843 0.876465 0.185303
-20.151394 28.719288 -7.742162 -0.298773 0.068774 0.951843 0.905762 0.243164
-23.115358 27.242584 -8.565821 -0.298773 0.068774 0.951843 0.887451 0.245117
-19.382961 14.280717 -6.457720 -0.937524 -0.227093 0.263585 0.876465 0.185303
-23.115358 27.242584 -8.565821 -0.937524 -0.227093 0.263585 0.887451 0.245117
-23.938683 26.620577 -12.030126 -0.937524 -0.227093 0.263585 0.866943 0.247314
-23.938683 26.620577 -12.030126 -0.805947 -0.519016 0.284729 0.866943 0.247314
-23.115358 27.242584 -8.565821 -0.805947 -0.519016 0.284729 0.887451 0.245117
-31.458370 37.714241 -13.093167 -0.805947 -0.519016 0.284729 0.864746 0.307861
-23.938683 26.620577 -12.030126 -0.726199 -0.533763 -0.433281 0.866943 0.247314
-31.458370 37.714241 -13.093167 -0.726199 -0.533763 -0.433281 0.864746 0.307861
-22.401812 27.085022 -15.178149 -0.726199 -0.533763 -0.433281 0.849609 0.249268
-22.401812 27.085022 -15.178149 -0.705482 -0.503204 -0.499080 0.849609 0.249268
-31.458370 37.714241 -13.093167 -0.705482 -0.503204 -0.499080 0.864746 0.307861
-28.933510 38.482353 -17.436686 -0.705482 -0.503204 -0.499080 0.841309 0.308594
-22.401812 27.085022 -15.178149 0.281034 -0.029032 -0.959258 0.960205 0.237305
-28.933510 38.482353 -17.436686 0.281034 -0.029032 -0.959258 0.972656 0.286377
-19.437849 28.561731 -14.354489 0.281034 -0.029032 -0.959258 0.944336 0.239014
-19.437849 28.561731 -14.354489 0.255735 -0.055086 -0.965176 0.944336 0.239014
-28.933510 38.482353 -17.436686 0.255735 -0.055086 -0.965176 0.972656 0.286377
-24.652229 40.808472 -16.435070 0.255735 -0.055086 -0.965176 0.951416 0.292480
-19.437849 28.561731 -14.354489 0.889268 0.323738 -0.323105 0.944336 0.239014
-24.652229 40.808472 -16.435070 0.889268 0.323738 -0.323105 0.951416 0.292480
-18.449858 29.292780 -10.902805 0.889268 0.323738 -0.323105 0.923828 0.241211
-18.449858 29.292780 -10.902805 0.889420 0.324287 -0.322132 0.923828 0.241211
-24.652229 40.808472 -16.435070 0.889420 0.324287 -0.322132 0.951416 0.292480
-23.444687 42.120872 -11.779818 0.889420 0.324287 -0.322132 0.929688 0.298096
-18.449858 29.292780 -10.902805 0.798985 0.344782 0.492695 0.923828 0.241211
-23.444687 42.120872 -11.779818 0.798985 0.344782 0.492695 0.929688 0.298096
-20.151394 28.719288 -7.742162 0.798985 0.344782 0.492695 0.905762 0.243164
-20.151394 28.719288 -7.742162 0.777062 0.348807 0.523935 0.905762 0.243164
-23.444687 42.120872 -11.779818 0.777062 0.348807 0.523935 0.929688 0.298096
-25.969547 41.394661 -7.551659 0.777062 0.348807 0.523935 0.907959 0.302734
-20.151394 28.719288 -7.742162 -0.143346 -0.080622 0.986383 0.905762 0.243164
-25.969547 41.394661 -7.551659 -0.143346 -0.080622 0.986383 0.907959 0.302734
-30.141052 39.148308 -8.341490 -0.143346 -0.080622 0.986383 0.886963 0.306152
-20.151394 28.719288 -7.742162 -0.201254 -0.137037 0.969906 0.905762 0.243164
-30.141052 39.148308 -8.341490 -0.201254 -0.137037 0.969906 0.886963 0.306152
-23.115358 27.242584 -8.565821 -0.201254 -0.137037 0.969906 0.887451 0.245117
-23.115358 27.242584 -8.565821 -0.798547 -0.478121 0.365681 0.887451 0.245117
-30.141052 39.148308 -8.341490 -0.798547 -0.478121 0.365681 0.886963 0.306152
-31.458370 37.714241 -13.093167 -0.798547 -0.478121 0.365681 0.864746 0.307861
-31.458370 37.714241 -13.093167 -0.834512 -0.419001 0.357809 0.864746 0.307861
-30.141052 39.148308 -8.341490 -0.834512 -0.419001 0.357809 0.886963 0.306152
-33.653900 41.822498 -13.402923 -0.834512 -0.419001 0.357809 0.863281 0.325439
-31.458370 37.714241 -13.093167 -0.753839 -0.439681 -0.488270 0.864746 0.307861
-33.653900 41.822498 -13.402923 -0.753839 -0.439681 -0.488270 0.863281 0.325439
-31.293705 42.741554 -17.874422 -0.753839 -0.439681 -0.488270 0.839600 0.325439
-31.458370 37.714241 -13.093167 -0.731349 -0.457273 -0.505993 0.864746 0.307861
-31.293705 42.741554 -17.874422 -0.731349 -0.457273 -0.505993 0.839600 0.325439
-28.933510 38.482353 -17.436686 -0.731349 -0.457273 -0.505993 0.841309 0.308594
-28.933510 38.482353 -17.436686 0.217361 0.020153 -0.975883 0.972656 0.286377
-31.293705 42.741554 -17.874422 0.217361 0.020153 -0.975883 0.975586 0.311768
-24.652229 40.808472 -16.435070 0.217361 0.020153 -0.975883 0.951416 0.292480
-24.652229 40.808472 -16.435070 0.215196 0.012261 -0.976494 0.951416 0.292480
-31.293705 42.741554 -17.874422 0.215196 0.012261 -0.976494 0.975586 0.311768
-26.792871 45.346600 -16.849836 0.215196 0.012261 -0.976494 0.952637 0.316162
-24.652229 40.808472 -16.435070 0.872361 0.383823 -0.302765 0.951416 0.292480
-26.792871 45.346600 -16.849836 0.872361 0.383823 -0.302765 0.952637 0.316162
-25.585329 46.466148 -11.951243 0.872361 0.383823 -0.302765 0.929688 0.319336
-24.652229 40.808472 -16.435070 0.850402 0.405724 -0.334970 0.951416 0.292480
-25.585329 46.466148 -11.951243 0.850402 0.405724 -0.334970 0.929688 0.319336
-23.444687 42.120872 -11.779818 0.850402 0.405724 -0.334970 0.929688 0.298096
-23.444687 42.120872 -11.779818 0.753270 0.391926 0.528184 0.929688 0.298096
-25.585329 46.466148 -11.951243 0.753270 0.391926 0.528184 0.929688 0.319336
-27.945524 45.400177 -7.794267 0.753270 0.391926 0.528184 0.907715 0.320313
-23.444687 42.120872 -11.779818 0.753550 0.403186 0.519234 0.929688 0.298096
-27.945524 45.400177 -7.794267 0.753550 0.403186 0.519234 0.907715 0.320313
-25.969547 41.394661 -7.551659 0.753550 0.403186 0.519234 0.907959 0.302734
-25.969547 41.394661 -7.551659 -0.182455 -0.030484 0.982742 0.907959 0.302734
-27.945524 45.400177 -7.794267 -0.182455 -0.030484 0.982742 0.907715 0.320313
-32.117027 43.147514 -8.638621 -0.182455 -0.030484 0.982742 0.886719 0.323975
-25.969547 41.394661 -7.551659 -0.178229 -0.014962 0.983875 0.907959 0.302734
-32.117027 43.147514 -8.638621 -0.178229 -0.014962 0.983875 0.886719 0.323975
-30.141052 39.148308 -8.341490 -0.178229 -0.014962 0.983875 0.886963 0.306152
-30.141052 39.148308 -8.341490 -0.840582 -0.387178 0.378835 0.886963 0.306152
-32.117027 43.147514 -8.638621 -0.840582 -0.387178 0.378835 0.886719 0.323975
-33.653900 41.822498 -13.402923 -0.840582 -0.387178 0.378835 0.863281 0.325439
-33.653900 41.822498 -13.402923 -0.841963 -0.384467 0.378527 0.863281 0.325439
-32.117027 43.147514 -8.638621 -0.841963 -0.384467 0.378527 0.886719 0.323975
-33.269684 45.315868 -9.000111 -0.841963 -0.384467 0.378527 0.888184 0.333008
-33.653900 41.822498 -13.402923 -0.795108 -0.439392 0.418018 0.863281 0.325439
-33.269684 45.315868 -9.000111 -0.795108 -0.439392 0.418018 0.888184 0.333008
-34.916328 44.022396 -13.491791 -0.795108 -0.439392 0.418018 0.864990 0.333008
-33.653900 41.822498 -13.402923 -0.748641 -0.449307 -0.487505 0.863281 0.325439
-34.916328 44.022396 -13.491791 -0.748641 -0.449307 -0.487505 0.864990 0.333008
-31.293705 42.741554 -17.874422 -0.748641 -0.449307 -0.487505 0.839600 0.325439
-31.293705 42.741554 -17.874422 -0.752135 -0.435797 -0.494341 0.839600 0.325439
-34.916328 44.022396 -13.491791 -0.752135 -0.435797 -0.494341 0.864990 0.333008
-32.501247 45.140617 -18.152105 -0.752135 -0.435797 -0.494341 0.840576 0.333008
-31.293705 42.741554 -17.874422 0.199495 -0.012996 -0.979813 0.975586 0.311768
-32.501247 45.140617 -18.152105 0.199495 -0.012996 -0.979813 0.978516 0.327393
-27.780859 47.624001 -17.223948 0.199495 -0.012996 -0.979813 0.954834 0.328613
-31.293705 42.741554 -17.874422 0.249456 -0.050641 -0.967061 0.975586 0.311768
-27.780859 47.624001 -17.223948 0.249456 -0.050641 -0.967061 0.954834 0.328613
-26.792871 45.346600 -16.849836 0.249456 -0.050641 -0.967061 0.952637 0.316162
-26.792871 45.346600 -16.849836 0.892750 0.338438 -0.297418 0.952637 0.316162
-27.780859 47.624001 -17.223948 0.892750 0.338438 -0.297418 0.954834 0.328613
-25.585329 46.466148 -11.951243 0.892750 0.338438 -0.297418 0.929688 0.319336
-25.585329 46.466148 -11.951243 0.886474 0.360715 -0.289913 0.929688 0.319336
-27.780859 47.624001 -17.223948 0.886474 0.360715 -0.289913 0.954834 0.328613
-26.573318 48.768787 -12.107258 0.886474 0.360715 -0.289913 0.930664 0.330322
-25.585329 46.466148 -11.951243 0.766473 0.364691 0.528696 0.929688 0.319336
-26.573318 48.768787 -12.107258 0.766473 0.364691 0.528696 0.930664 0.330322
-27.945524 45.400177 -7.794267 0.766473 0.364691 0.528696 0.907715 0.320313
-27.945524 45.400177 -7.794267 0.285345 0.709192 0.644690 0.907715 0.320313
-26.573318 48.768787 -12.107258 0.285345 0.709192 0.644690 0.930664 0.330322
-29.427505 47.526104 -9.476958 0.285345 0.709192 0.644690 0.910400 0.332275
-27.945524 45.400177 -7.794267 -0.196418 0.520695 0.830841 0.907715 0.320313
-29.427505 47.526104 -9.476958 -0.196418 0.520695 0.830841 0.910400 0.332275
-33.269684 45.315868 -9.000111 -0.196418 0.520695 0.830841 0.888184 0.333008
-27.945524 45.400177 -7.794267 -0.221343 0.044743 0.974169 0.907715 0.320313
-33.269684 45.315868 -9.000111 -0.221343 0.044743 0.974169 0.888184 0.333008
-32.117027 43.147514 -8.638621 -0.221343 0.044743 0.974169 0.886719 0.323975
-10.161736 -2.592810 -11.411496 -0.530643 -0.604304 -0.594335 0.921631 0.090820
-13.290365 -2.006912 -9.213871 -0.530643 -0.604304 -0.594335 0.937500 0.089111
-14.058802 3.353854 -13.978465 -0.530643 -0.604304 -0.594335 0.939697 0.109131
-13.290365 -2.006912 -9.213871 -0.316385 -0.926571 -0.203390 0.937500 0.089111
-10.161736 -2.592810 -11.411496 -0.316385 -0.926571 -0.203390 0.921631 0.090820
-12.631706 -3.133723 -5.105107 -0.316385 -0.926571 -0.203390 0.935547 0.072265
-30.689934 50.049114 -9.161188 0.611381 0.210440 0.762843 0.911133 0.343262
-29.427505 47.526104 -9.476958 0.611381 0.210440 0.762843 0.910400 0.332275
-26.573318 48.768787 -12.107258 0.611381 0.210440 0.762843 0.930664 0.330322
-30.689934 50.049114 -9.161188 0.570811 0.633572 0.522266 0.911133 0.343262
-26.573318 48.768787 -12.107258 0.570811 0.633572 0.522266 0.930664 0.330322
-28.219963 50.308090 -12.174916 0.570811 0.633572 0.522266 0.931396 0.340332
-30.689934 50.049114 -9.161188 0.087085 -0.080696 0.992927 0.911133 0.343262
-33.983231 47.461246 -9.082667 0.087085 -0.080696 0.992927 0.888916 0.340820
-29.427505 47.526104 -9.476958 0.087085 -0.080696 0.992927 0.910400 0.332275
-29.427505 47.526104 -9.476958 0.085094 0.066558 0.994147 0.910400 0.332275
-33.983231 47.461246 -9.082667 0.085094 0.066558 0.994147 0.888916 0.340820
-33.269684 45.315868 -9.000111 0.085094 0.066558 0.994147 0.888184 0.333008
-33.269684 45.315868 -9.000111 -0.900948 -0.287133 0.325342 0.888184 0.333008
-33.983231 47.461246 -9.082667 -0.900948 -0.287133 0.325342 0.888916 0.340820
-35.080994 46.023136 -13.391840 -0.900948 -0.287133 0.325342 0.864990 0.339600
-33.269684 45.315868 -9.000111 -0.925595 -0.094489 0.366532 0.888184 0.333008
-35.080994 46.023136 -13.391840 -0.925595 -0.094489 0.366532 0.864990 0.339600
-34.916328 44.022396 -13.491791 -0.925595 -0.094489 0.366532 0.864990 0.333008
-34.916328 44.022396 -13.491791 -0.881920 -0.049163 -0.468828 0.864990 0.333008
-35.080994 46.023136 -13.391840 -0.881920 -0.049163 -0.468828 0.864990 0.339600
-32.501247 45.140617 -18.152105 -0.881920 -0.049163 -0.468828 0.840576 0.333008
-32.501247 45.140617 -18.152105 -0.868720 0.088876 -0.487265 0.840576 0.333008
-35.080994 46.023136 -13.391840 -0.868720 0.088876 -0.487265 0.864990 0.339600
-32.775688 46.835419 -17.353691 -0.868720 0.088876 -0.487265 0.842773 0.338379
-32.501247 45.140617 -18.152105 -0.100127 0.410716 -0.906249 0.978516 0.327393
-32.775688 46.835419 -17.353691 -0.100127 0.410716 -0.906249 0.976318 0.338135
-28.933510 48.941166 -16.823860 -0.100127 0.410716 -0.906249 0.955322 0.338623
-32.501247 45.140617 -18.152105 0.023969 0.309699 -0.950533 0.978516 0.327393
-28.933510 48.941166 -16.823860 0.023969 0.309699 -0.950533 0.955322 0.338623
-27.780859 47.624001 -17.223948 0.023969 0.309699 -0.950533 0.954834 0.328613
-27.780859 47.624001 -17.223948 0.669973 0.678089 -0.302209 0.954834 0.328613
-28.933510 48.941166 -16.823860 0.669973 0.678089 -0.302209 0.955322 0.338623
-28.219963 50.308090 -12.174916 0.669973 0.678089 -0.302209 0.931396 0.340332
-27.780859 47.624001 -17.223948 0.656241 0.688426 -0.308898 0.954834 0.328613
-28.219963 50.308090 -12.174916 0.656241 0.688426 -0.308898 0.931396 0.340332
-26.573318 48.768787 -12.107258 0.656241 0.688426 -0.308898 0.930664 0.330322
3 0 1 2
3 3 4 5
3 6 7 8
3 9 10 11
3 12 13 14
3 15 16 17
3 18 19 20
3 21 22 23
3 24 25 26
3 27 28 29
3 30 31 32
3 33 34 35
3 36 37 38
3 39 40 41
3 42 43 44
3 45 46 47
3 48 49 50
3 51 52 53
3 54 55 56
3 57 58 59
3 60 61 62
3 63 64 65
3 66 67 68
3 69 70 71
3 72 73 74
3 75 76 77
3 78 79 80
3 81 82 83
3 84 85 86
3 87 88 89
3 90 91 92
3 93 94 95
3 96 97 98
3 99 100 101
3 102 103 104
3 105 106 107
3 108 109 110
3 111 112 113
3 114 115 116
3 117 118 119
3 120 121 122
3 123 124 125
3 126 127 128
3 129 130 131
3 132 133 134
3 135 136 137
3 138 139 140
3 141 142 143
3 144 145 146
3 147 148 149
3 150 151 152
3 153 154 155
3 156 157 158
3 159 160 161
3 162 163 164
3 165 166 167
3 168 169 170
3 171 172 173
3 174 175 176
3 177 178 179
3 180 181 182
3 183 184 185
3 186 187 188
3 189 190 191
3 192 193 194
3 195 196 197
3 198 199 200
3 201 202 203
3 204 205 206
3 207 208 209
3 210 211 212
3 213 214 215
3 216 217 218
3 219 220 221
3 222 223 224
3 225 226 227
3 228 229 230
3 231 232 233
3 234 235 236
3 237 238 239
3 240 241 242
3 243 244 245
3 246 247 248
3 249 250 251
3 252 253 254
3 255 256 257
3 258 259 260
3 261 262 263
3 264 265 266
3 267 268 269
3 270 271 272
3 273 274 275
3 276 277 278
3 279 280 281
3 282 283 284
3 285 286 287
3 288 289 290
3 291 292 293
3 294 295 296
3 297 298 299
3 300 301 302
3 303 304 305
3 306 307 308
3 309 310 311
3 312 313 314
3 315 316 317
3 318 319 320
3 321 322 323
3 324 325 326
3 327 328 329
3 330 331 332
3 333 334 335
3 336 337 338
3 339 340 341
3 342 343 344
3 345 346 347
3 348 349 350
3 351 352 353
3 354 355 356
3 357 358 359
3 360 361 362
3 363 364 365
3 366 367 368
3 369 370 371
3 372 373 374
3 375 376 377
3 378 379 380
3 381 382 383
3 384 385 386
3 387 388 389
3 390 391 392
3 393 394 395
3 396 397 398
3 399 400 401
3 402 403 404
3 405 406 407
3 408 409 410
3 411 412 413
3 414 415 416
3 417 418 419
3 420 421 422
3 423 424 425
3 426 427 428
3 429 430 431
3 432 433 434
3 435 436 437
3 438 439 440
3 441 442 443
3 444 445 446
3 447 448 449
3 450 451 452
3 453 454 455
3 456 457 458
3 459 460 461
3 462 463 464
3 465 466 467
3 468 469 470
3 471 472 473
3 474 475 476
3 477 478 479
