ply
format ascii 1.0
comment Created by Blender 2.91.2 - www.blender.org
element vertex 288
property float x
property float y
property float z
property float nx
property float ny
property float nz
property float s
property float t
element face 96
property list uchar uint vertex_indices
end_header
3.465065 2.400043 -4.810836 -0.056417 0.475722 -0.877785 0.911865 0.352783
-0.816215 -0.454669 -6.082800 -0.056417 0.475722 -0.877785 0.933350 0.353027
-6.579481 4.778924 -2.875998 -0.056417 0.475722 -0.877785 0.936768 0.383545
3.465065 2.400043 -4.810836 0.015107 0.668531 -0.743530 0.911865 0.352783
-6.579481 4.778924 -2.875998 0.015107 0.668531 -0.743530 0.936768 0.383545
-1.859092 8.059991 0.170021 0.015107 0.668531 -0.743530 0.916260 0.380615
3.465065 2.400043 -4.810836 0.604983 0.764612 -0.222179 0.911865 0.352783
-1.859092 8.059991 0.170021 0.604983 0.764612 -0.222179 0.916260 0.380615
2.202639 6.146876 4.646067 0.604983 0.764612 -0.222179 0.893799 0.377930
3.465065 2.400043 -4.810836 0.773701 0.617571 -0.141399 0.911865 0.352783
2.202639 6.146876 4.646067 0.773701 0.617571 -0.141399 0.893799 0.377930
5.825260 0.394538 -0.655624 0.773701 0.617571 -0.141399 0.889404 0.349609
-0.816215 -0.454669 -6.082800 -0.581621 -0.150675 -0.799384 0.933350 0.353027
-2.847080 -5.208110 -3.709198 -0.581621 -0.150675 -0.799384 0.956543 0.351563
-6.579481 4.778924 -2.875998 -0.581621 -0.150675 -0.799384 0.936768 0.383545
-6.579481 4.778924 -2.875998 -0.500724 -0.115563 -0.857858 0.936768 0.383545
-2.847080 -5.208110 -3.709198 -0.500724 -0.115563 -0.857858 0.956543 0.351563
-7.018587 -2.101470 -1.692829 -0.500724 -0.115563 -0.857858 0.958740 0.381104
-6.579481 4.778924 -2.875998 -0.818559 -0.046219 -0.572561 0.936768 0.383545
-7.018587 -2.101470 -1.692829 -0.818559 -0.046219 -0.572561 0.958740 0.381104
-8.939675 4.673182 0.506778 -0.818559 -0.046219 -0.572561 0.936035 0.399170
-6.579481 4.778924 -2.875998 -0.548409 0.755215 -0.359023 0.936768 0.383545
-8.939675 4.673182 0.506778 -0.548409 0.755215 -0.359023 0.936035 0.399170
-4.987721 8.862229 3.281938 -0.548409 0.755215 -0.359023 0.916016 0.396973
-6.579481 4.778924 -2.875998 -0.267286 0.833486 -0.483591 0.936768 0.383545
-4.987721 8.862229 3.281938 -0.267286 0.833486 -0.483591 0.916016 0.396973
-1.859092 8.059991 0.170021 -0.267286 0.833486 -0.483591 0.916260 0.380615
-1.859092 8.059991 0.170021 0.335682 0.937080 0.095909 0.916260 0.380615
-4.987721 8.862229 3.281938 0.335682 0.937080 0.095909 0.916016 0.396973
2.202639 6.146876 4.646067 0.335682 0.937080 0.095909 0.893799 0.377930
2.202639 6.146876 4.646067 0.330788 0.936081 0.119714 0.893799 0.377930
-4.987721 8.862229 3.281938 0.330788 0.936081 0.119714 0.916016 0.396973
-0.816215 6.856719 7.437150 0.330788 0.936081 0.119714 0.896729 0.394531
2.202639 6.146876 4.646067 0.689947 0.207573 0.693460 0.893799 0.377930
-0.816215 6.856719 7.437150 0.689947 0.207573 0.693460 0.896729 0.394531
-0.431997 -0.342238 9.209742 0.689947 0.207573 0.693460 0.868408 0.392822
2.202639 6.146876 4.646067 0.859085 0.011083 0.511713 0.893799 0.377930
-0.431997 -0.342238 9.209742 0.859085 0.011083 0.511713 0.868408 0.392822
1.598868 -0.515426 5.803993 0.859085 0.011083 0.511713 0.866455 0.374268
2.202639 6.146876 4.646067 0.860035 0.010720 0.510122 0.893799 0.377930
1.598868 -0.515426 5.803993 0.860035 0.010720 0.510122 0.866455 0.374268
3.959059 -4.006518 1.898214 0.860035 0.010720 0.510122 0.864258 0.347656
2.202639 6.146876 4.646067 0.818527 -0.013829 0.574301 0.893799 0.377930
3.959059 -4.006518 1.898214 0.818527 -0.013829 0.574301 0.864258 0.347656
5.825260 0.394538 -0.655624 0.818527 -0.013829 0.574301 0.889404 0.349609
-7.018587 -2.101470 -1.692829 -0.619129 -0.781529 -0.076756 0.958740 0.381104
-2.847080 -5.208110 -3.709198 -0.619129 -0.781529 -0.076756 0.956543 0.351563
-0.486885 -7.538489 0.980913 -0.619129 -0.781529 -0.076756 0.980469 0.348145
-7.018587 -2.101470 -1.692829 -0.634304 -0.772774 -0.021879 0.958740 0.381104
-0.486885 -7.538489 0.980913 -0.634304 -0.772774 -0.021879 0.980469 0.348145
-3.395962 -5.218161 3.364569 -0.634304 -0.772774 -0.021879 0.986084 0.378906
-7.018587 -2.101470 -1.692829 -0.305331 -0.892706 -0.331433 0.958740 0.381104
-3.395962 -5.218161 3.364569 -0.305331 -0.892706 -0.331433 0.986084 0.378906
-9.214117 -2.259978 0.756727 -0.305331 -0.892706 -0.331433 0.959473 0.396973
-7.018587 -2.101470 -1.692829 -0.744827 0.005429 -0.667235 0.958740 0.381104
-9.214117 -2.259978 0.756727 -0.744827 0.005429 -0.667235 0.959473 0.396973
-8.939675 4.673182 0.506778 -0.744827 0.005429 -0.667235 0.936035 0.399170
-8.939675 4.673182 0.506778 -0.862475 0.015904 -0.505850 0.936035 0.399170
-9.214117 -2.259978 0.756727 -0.862475 0.015904 -0.505850 0.959473 0.396973
-14.208947 1.446708 9.389459 -0.862475 0.015904 -0.505850 0.936768 0.447998
-8.939675 4.673182 0.506778 -0.674031 0.726055 -0.136114 0.936035 0.399170
-14.208947 1.446708 9.389459 -0.674031 0.726055 -0.136114 0.936768 0.447998
-4.987721 8.862229 3.281938 -0.674031 0.726055 -0.136114 0.916016 0.396973
-4.987721 8.862229 3.281938 -0.657720 0.748544 -0.084181 0.916016 0.396973
-14.208947 1.446708 9.389459 -0.657720 0.748544 -0.084181 0.936768 0.447998
-11.684088 3.949544 11.917748 -0.657720 0.748544 -0.084181 0.911865 0.449219
-4.987721 8.862229 3.281938 -0.112609 0.898675 0.423914 0.916016 0.396973
-11.684088 3.949544 11.917748 -0.112609 0.898675 0.423914 0.911865 0.449219
-8.720122 3.046629 14.619232 -0.112609 0.898675 0.423914 0.887695 0.446289
-4.987721 8.862229 3.281938 -0.020288 0.892280 0.451026 0.916016 0.396973
-8.720122 3.046629 14.619232 -0.020288 0.892280 0.451026 0.887695 0.446289
-0.816215 6.856719 7.437150 -0.020288 0.892280 0.451026 0.896729 0.394531
-0.816215 6.856719 7.437150 0.594955 0.221966 0.772503 0.896729 0.394531
-8.720122 3.046629 14.619232 0.594955 0.221966 0.772503 0.887695 0.446289
-0.431997 -0.342238 9.209742 0.594955 0.221966 0.772503 0.868408 0.392822
-0.431997 -0.342238 9.209742 0.589878 0.189815 0.784866 0.868408 0.392822
-8.720122 3.046629 14.619232 0.589878 0.189815 0.784866 0.887695 0.446289
-8.006576 -1.206259 15.111491 0.589878 0.189815 0.784866 0.866455 0.442383
-0.431997 -0.342238 9.209742 0.431440 -0.788519 0.438290 0.868408 0.392822
-8.006576 -1.206259 15.111491 0.431440 -0.788519 0.438290 0.866455 0.442383
-5.097498 -4.904884 5.593750 0.431440 -0.788519 0.438290 0.837158 0.392578
-0.431997 -0.342238 9.209742 0.507449 -0.790561 0.342796 0.868408 0.392822
-5.097498 -4.904884 5.593750 0.507449 -0.790561 0.342796 0.837158 0.392578
1.598868 -0.515426 5.803993 0.507449 -0.790561 0.342796 0.866455 0.374268
1.598868 -0.515426 5.803993 0.474457 -0.746180 0.467017 0.866455 0.374268
-5.097498 -4.904884 5.593750 0.474457 -0.746180 0.467017 0.837158 0.392578
-3.395962 -5.218161 3.364569 0.474457 -0.746180 0.467017 0.833252 0.374512
1.598868 -0.515426 5.803993 0.172874 -0.591957 0.787211 0.866455 0.374268
-3.395962 -5.218161 3.364569 0.172874 -0.591957 0.787211 0.833252 0.374512
-0.486885 -7.538489 0.980913 0.172874 -0.591957 0.787211 0.837402 0.344727
1.598868 -0.515426 5.803993 0.324925 -0.599067 0.731808 0.866455 0.374268
-0.486885 -7.538489 0.980913 0.324925 -0.599067 0.731808 0.837402 0.344727
3.959059 -4.006518 1.898214 0.324925 -0.599067 0.731808 0.864258 0.347656
-3.395962 -5.218161 3.364569 -0.386214 -0.907107 -0.167318 0.986084 0.378906
-5.097498 -4.904884 5.593750 -0.386214 -0.907107 -0.167318 0.987549 0.397949
-9.214117 -2.259978 0.756727 -0.386214 -0.907107 -0.167318 0.959473 0.396973
-9.214117 -2.259978 0.756727 -0.333792 -0.917220 -0.217462 0.959473 0.396973
-5.097498 -4.904884 5.593750 -0.333792 -0.917220 -0.217462 0.987549 0.397949
-13.605177 -2.812491 9.827197 -0.333792 -0.917220 -0.217462 0.960693 0.446533
-9.214117 -2.259978 0.756727 -0.882849 -0.170140 -0.437755 0.959473 0.396973
-13.605177 -2.812491 9.827197 -0.882849 -0.170140 -0.437755 0.960693 0.446533
-14.208947 1.446708 9.389459 -0.882849 -0.170140 -0.437755 0.936768 0.447998
-14.208947 1.446708 9.389459 -0.713814 -0.170987 -0.679142 0.936768 0.447998
-13.605177 -2.812491 9.827197 -0.713814 -0.170987 -0.679142 0.960693 0.446533
-21.069979 -6.064197 18.491776 -0.713814 -0.170987 -0.679142 0.953125 0.503906
-14.208947 1.446708 9.389459 -0.796564 -0.004980 -0.604534 0.936768 0.447998
-21.069979 -6.064197 18.491776 -0.796564 -0.004980 -0.604534 0.953125 0.503906
-21.893303 -2.792229 19.549673 -0.796564 -0.004980 -0.604534 0.931641 0.504150
-14.208947 1.446708 9.389459 -0.563395 0.821991 -0.083164 0.936768 0.447998
-21.893303 -2.792229 19.549673 -0.563395 0.821991 -0.083164 0.931641 0.504150
-19.203777 -0.809914 20.922617 -0.563395 0.821991 -0.083164 0.906982 0.503906
-14.208947 1.446708 9.389459 -0.632831 0.764208 -0.124541 0.936768 0.447998
-19.203777 -0.809914 20.922617 -0.632831 0.764208 -0.124541 0.906982 0.503906
-11.684088 3.949544 11.917748 -0.632831 0.764208 -0.124541 0.911865 0.449219
-11.684088 3.949544 11.917748 -0.091507 0.909937 0.404526 0.911865 0.449219
-19.203777 -0.809914 20.922617 -0.091507 0.909937 0.404526 0.906982 0.503906
-8.720122 3.046629 14.619232 -0.091507 0.909937 0.404526 0.887695 0.446289
-8.720122 3.046629 14.619232 -0.185591 0.944955 0.269473 0.887695 0.446289
-19.203777 -0.809914 20.922617 -0.185591 0.944955 0.269473 0.906982 0.503906
-17.063137 -1.238761 23.900747 -0.185591 0.944955 0.269473 0.882080 0.502441
-8.720122 3.046629 14.619232 0.682565 0.196012 0.704049 0.887695 0.446289
-17.063137 -1.238761 23.900747 0.682565 0.196012 0.704049 0.882080 0.502441
-8.006576 -1.206259 15.111491 0.682565 0.196012 0.704049 0.866455 0.442383
-8.006576 -1.206259 15.111491 0.670038 0.270178 0.691414 0.866455 0.442383
-17.063137 -1.238761 23.900747 0.670038 0.270178 0.691414 0.882080 0.502441
-16.020260 -5.315467 24.483130 0.670038 0.270178 0.691414 0.860840 0.500488
-8.006576 -1.206259 15.111491 0.665335 -0.698876 0.262490 0.866455 0.442383
-16.020260 -5.315467 24.483130 0.665335 -0.698876 0.262490 0.860840 0.500488
-17.666906 -7.891751 21.797565 0.665335 -0.698876 0.262490 0.843018 0.498535
-8.006576 -1.206259 15.111491 0.630630 -0.761504 0.149725 0.866455 0.442383
-17.666906 -7.891751 21.797565 0.630630 -0.761504 0.149725 0.843018 0.498535
-10.641212 -3.860044 12.711176 0.630630 -0.761504 0.149725 0.846924 0.440430
-8.006576 -1.206259 15.111491 0.409368 -0.801195 0.436469 0.866455 0.442383
-10.641212 -3.860044 12.711176 0.409368 -0.801195 0.436469 0.846924 0.440430
-5.097498 -4.904884 5.593750 0.409368 -0.801195 0.436469 0.837158 0.392578
-5.097498 -4.904884 5.593750 -0.271023 -0.960012 -0.070168 0.987549 0.397949
-10.641212 -3.860044 12.711176 -0.271023 -0.960012 -0.070168 0.983154 0.446777
-13.605177 -2.812491 9.827197 -0.271023 -0.960012 -0.070168 0.960693 0.446533
-13.605177 -2.812491 9.827197 0.005985 -0.937909 -0.346829 0.960693 0.446533
-10.641212 -3.860044 12.711176 0.005985 -0.937909 -0.346829 0.983154 0.446777
-21.069979 -6.064197 18.491776 0.005985 -0.937909 -0.346829 0.953125 0.503906
-21.069979 -6.064197 18.491776 -0.054270 -0.896484 -0.439740 0.953125 0.503906
-10.641212 -3.860044 12.711176 -0.054270 -0.896484 -0.439740 0.983154 0.446777
-17.666906 -7.891751 21.797565 -0.054270 -0.896484 -0.439740 0.972412 0.504639
-21.069979 -6.064197 18.491776 -0.111151 -0.913766 -0.390739 0.953125 0.503906
-17.666906 -7.891751 21.797565 -0.111151 -0.913766 -0.390739 0.972412 0.504639
-26.997910 -11.520069 32.936947 -0.111151 -0.913766 -0.390739 0.965820 0.591309
-21.069979 -6.064197 18.491776 -0.075721 -0.922144 -0.379364 0.953125 0.503906
-26.997910 -11.520069 32.936947 -0.075721 -0.922144 -0.379364 0.965820 0.591309
-31.224304 -9.675860 29.297699 -0.075721 -0.922144 -0.379364 0.945801 0.590332
-21.069979 -6.064197 18.491776 -0.685243 -0.182768 -0.705009 0.953125 0.503906
-31.224304 -9.675860 29.297699 -0.685243 -0.182768 -0.705009 0.945801 0.590332
-31.937851 -4.072481 28.538609 -0.685243 -0.182768 -0.705009 0.922852 0.588867
-21.069979 -6.064197 18.491776 -0.670175 0.070257 -0.738870 0.953125 0.503906
-31.937851 -4.072481 28.538609 -0.670175 0.070257 -0.738870 0.922852 0.588867
-21.893303 -2.792229 19.549673 -0.670175 0.070257 -0.738870 0.931641 0.504150
-21.893303 -2.792229 19.549673 -0.427614 0.829307 -0.359716 0.931641 0.504150
-31.937851 -4.072481 28.538609 -0.427614 0.829307 -0.359716 0.922852 0.588867
-19.203777 -0.809914 20.922617 -0.427614 0.829307 -0.359716 0.906982 0.503906
-19.203777 -0.809914 20.922617 -0.479987 0.726897 -0.491155 0.906982 0.503906
-31.937851 -4.072481 28.538609 -0.479987 0.726897 -0.491155 0.922852 0.588867
-28.479893 0.122872 31.368296 -0.479987 0.726897 -0.491155 0.898193 0.587646
-19.203777 -0.809914 20.922617 0.362513 0.900134 0.241543 0.906982 0.503906
-28.479893 0.122872 31.368296 0.362513 0.900134 0.241543 0.898193 0.587646
-24.527939 -2.055311 33.554325 0.362513 0.900134 0.241543 0.873779 0.587646
-19.203777 -0.809914 20.922617 0.039527 0.992633 0.114527 0.906982 0.503906
-24.527939 -2.055311 33.554325 0.039527 0.992633 0.114527 0.873779 0.587646
-17.063137 -1.238761 23.900747 0.039527 0.992633 0.114527 0.882080 0.502441
-17.063137 -1.238761 23.900747 0.703855 0.411423 0.579068 0.882080 0.502441
-24.527939 -2.055311 33.554325 0.703855 0.411423 0.579068 0.873779 0.587646
-23.539949 -7.697793 36.362362 0.703855 0.411423 0.579068 0.849121 0.587158
-17.063137 -1.238761 23.900747 0.784857 0.279766 0.552929 0.882080 0.502441
-23.539949 -7.697793 36.362362 0.784857 0.279766 0.552929 0.849121 0.587158
-16.020260 -5.315467 24.483130 0.784857 0.279766 0.552929 0.860840 0.500488
-16.020260 -5.315467 24.483130 0.655305 -0.704066 0.273618 0.860840 0.500488
-23.539949 -7.697793 36.362362 0.655305 -0.704066 0.273618 0.849121 0.587158
-17.666906 -7.891751 21.797565 0.655305 -0.704066 0.273618 0.843018 0.498535
-17.666906 -7.891751 21.797565 0.595650 -0.763234 0.250351 0.843018 0.498535
-23.539949 -7.697793 36.362362 0.595650 -0.763234 0.250351 0.849121 0.587158
-26.997910 -11.520069 32.936947 0.595650 -0.763234 0.250351 0.824707 0.584961
-26.997910 -11.520069 32.936947 0.633614 -0.748514 0.195601 0.824707 0.584961
-23.539949 -7.697793 36.362362 0.633614 -0.748514 0.195601 0.849121 0.587158
-25.241486 -8.437135 39.044910 0.633614 -0.748514 0.195601 0.847168 0.607910
-26.997910 -11.520069 32.936947 0.693432 -0.703503 0.155681 0.824707 0.584961
-25.241486 -8.437135 39.044910 0.693432 -0.703503 0.155681 0.847168 0.607910
-29.358105 -13.371100 35.085117 0.693432 -0.703503 0.155681 0.818359 0.609619
-26.997910 -11.520069 32.936947 0.121889 -0.814194 -0.567654 0.965820 0.591309
-29.358105 -13.371100 35.085117 0.121889 -0.814194 -0.567654 0.968750 0.613525
-34.682262 -11.304759 30.978115 0.121889 -0.814194 -0.567654 0.943359 0.613525
-26.997910 -11.520069 32.936947 0.118342 -0.823544 -0.554771 0.965820 0.591309
-34.682262 -11.304759 30.978115 0.118342 -0.823544 -0.554771 0.943359 0.613525
-31.224304 -9.675860 29.297699 0.118342 -0.823544 -0.554771 0.945801 0.590332
-31.224304 -9.675860 29.297699 -0.408752 -0.070930 -0.909885 0.945801 0.590332
-34.682262 -11.304759 30.978115 -0.408752 -0.070930 -0.909885 0.943359 0.613525
-35.670254 -5.503984 30.969753 -0.408752 -0.070930 -0.909885 0.919189 0.612549
-31.224304 -9.675860 29.297699 -0.488265 -0.177918 -0.854367 0.945801 0.590332
-35.670254 -5.503984 30.969753 -0.488265 -0.177918 -0.854367 0.919189 0.612549
-31.937851 -4.072481 28.538609 -0.488265 -0.177918 -0.854367 0.922852 0.588867
-31.937851 -4.072481 28.538609 -0.562245 0.688837 -0.457584 0.922852 0.588867
-35.670254 -5.503984 30.969753 -0.562245 0.688837 -0.457584 0.919189 0.612549
-32.267181 -0.402412 34.468102 -0.562245 0.688837 -0.457584 0.895752 0.611816
-31.937851 -4.072481 28.538609 -0.491996 0.727778 -0.477785 0.922852 0.588867
-32.267181 -0.402412 34.468102 -0.491996 0.727778 -0.477785 0.895752 0.611816
-28.479893 0.122872 31.368296 -0.491996 0.727778 -0.477785 0.898193 0.587646
-28.479893 0.122872 31.368296 0.178396 0.910805 0.372303 0.898193 0.587646
-32.267181 -0.402412 34.468102 0.178396 0.910805 0.372303 0.895752 0.611816
-27.821234 -2.833763 38.285824 0.178396 0.910805 0.372303 0.873535 0.610840
-28.479893 0.122872 31.368296 0.295162 0.888398 0.351608 0.898193 0.587646
-27.821234 -2.833763 38.285824 0.295162 0.888398 0.351608 0.873535 0.610840
-24.527939 -2.055311 33.554325 0.295162 0.888398 0.351608 0.873779 0.587646
-24.527939 -2.055311 33.554325 0.717039 0.406797 0.566014 0.873779 0.587646
-27.821234 -2.833763 38.285824 0.717039 0.406797 0.566014 0.873535 0.610840
-25.241486 -8.437135 39.044910 0.717039 0.406797 0.566014 0.847168 0.607910
-24.527939 -2.055311 33.554325 0.716246 0.407385 0.566594 0.873779 0.587646
-25.241486 -8.437135 39.044910 0.716246 0.407385 0.566594 0.847168 0.607910
-23.539949 -7.697793 36.362362 0.716246 0.407385 0.566594 0.849121 0.587158
-33.858940 -3.838683 37.241795 -0.861471 0.493997 0.117624 0.894775 0.624512
-32.267181 -0.402412 34.468102 -0.861471 0.493997 0.117624 0.895752 0.611816
-35.670254 -5.503984 30.969753 -0.861471 0.493997 0.117624 0.919189 0.612549
-33.858940 -3.838683 37.241795 -0.227494 0.818107 0.528155 0.894775 0.624512
-29.522768 -4.733008 40.494827 -0.227494 0.818107 0.528155 0.871338 0.623535
-27.821234 -2.833763 38.285824 -0.227494 0.818107 0.528155 0.873535 0.610840
-33.858940 -3.838683 37.241795 -0.233379 0.673920 0.700975 0.894775 0.624512
-27.821234 -2.833763 38.285824 -0.233379 0.673920 0.700975 0.873535 0.610840
-32.267181 -0.402412 34.468102 -0.233379 0.673920 0.700975 0.895752 0.611816
-29.522768 -4.733008 40.494827 0.344156 0.030453 0.938418 0.871338 0.623535
-28.150562 -9.304975 40.139950 0.344156 0.030453 0.938418 0.846924 0.623047
-25.241486 -8.437135 39.044910 0.344156 0.030453 0.938418 0.847168 0.607910
-29.522768 -4.733008 40.494827 0.563390 0.360113 0.743580 0.871338 0.623535
-25.241486 -8.437135 39.044910 0.563390 0.360113 0.743580 0.847168 0.607910
-27.821234 -2.833763 38.285824 0.563390 0.360113 0.743580 0.873535 0.610840
-28.150562 -9.304975 40.139950 0.411773 -0.774614 0.480017 0.846924 0.623047
-30.894976 -12.774855 36.894768 0.411773 -0.774614 0.480017 0.820068 0.627197
-25.241486 -8.437135 39.044910 0.411773 -0.774614 0.480017 0.847168 0.607910
-25.241486 -8.437135 39.044910 0.363147 -0.748403 0.554993 0.847168 0.607910
-30.894976 -12.774855 36.894768 0.363147 -0.748403 0.554993 0.820068 0.627197
-29.358105 -13.371100 35.085117 0.363147 -0.748403 0.554993 0.818359 0.609619
-29.358105 -13.371100 35.085117 -0.361766 -0.932269 -0.000070 0.968750 0.613525
-30.894976 -12.774855 36.894768 -0.361766 -0.932269 -0.000070 0.967529 0.628174
-34.682262 -11.304759 30.978115 -0.361766 -0.932269 -0.000070 0.943359 0.613525
-32.870953 -1.004012 23.542049 -0.387546 -0.915982 -0.103854 0.651367 0.928711
-24.143721 -5.412104 29.854025 -0.387546 -0.915982 -0.103854 0.465820 0.922119
-24.802380 -5.243989 30.829149 -0.387546 -0.915982 -0.103854 0.468506 0.941650
-32.870953 -1.004012 23.542049 -0.587805 0.219615 0.778624 0.651367 0.928711
-24.802380 -5.243989 30.829149 -0.587805 0.219615 0.778624 0.468506 0.941650
-24.473049 -4.413502 30.843527 -0.587805 0.219615 0.778624 0.466309 0.921387
-32.870953 -1.004012 23.542049 0.218314 0.956122 0.195372 0.651367 0.928711
-24.473049 -4.413502 30.843527 0.218314 0.956122 0.195372 0.466309 0.921387
-23.869280 -4.392805 30.067568 0.218314 0.956122 0.195372 0.468018 0.906250
-32.870953 -1.004012 23.542049 0.589483 0.010501 -0.807713 0.651367 0.928711
-23.869280 -4.392805 30.067568 0.589483 0.010501 -0.807713 0.468018 0.906250
-24.143721 -5.412104 29.854025 0.589483 0.010501 -0.807713 0.465820 0.922119
-8.006576 6.666734 21.549088 -0.986462 0.140007 0.085382 0.679199 0.971191
-9.817887 -0.756198 12.793950 -0.986462 0.140007 0.085382 0.470459 0.968750
-9.872776 -1.607375 13.555532 -0.986462 0.140007 0.085382 0.468994 0.948975
-8.006576 6.666734 21.549088 -0.008526 -0.693788 0.720129 0.679199 0.971191
-9.872776 -1.607375 13.555532 -0.008526 -0.693788 0.720129 0.468994 0.948975
-8.994564 -1.668213 13.507317 -0.008526 -0.693788 0.720129 0.471680 0.968018
-8.006576 6.666734 21.549088 0.969900 -0.218555 0.107364 0.679199 0.971191
-8.994564 -1.668213 13.507317 0.969900 -0.218555 0.107364 0.471680 0.968018
-8.775011 -1.028817 12.825508 0.969900 -0.218555 0.107364 0.469482 0.988525
-8.006576 6.666734 21.549088 0.209177 0.724108 -0.657201 0.679199 0.971191
-8.775011 -1.028817 12.825508 0.209177 0.724108 -0.657201 0.469482 0.988525
-9.817887 -0.756198 12.793950 0.209177 0.724108 -0.657201 0.470459 0.968750
-16.678919 7.669006 3.475303 -0.897564 0.207255 0.389133 0.679932 0.969971
-14.648053 0.216654 12.128805 -0.897564 0.207255 0.389133 0.469971 0.989014
-14.208947 1.055724 12.694740 -0.897564 0.207255 0.389133 0.468994 0.969238
-16.678919 7.669006 3.475303 0.424732 0.785678 0.449793 0.679932 0.969971
-14.208947 1.055724 12.694740 0.424732 0.785678 0.449793 0.468994 0.969238
-13.440512 0.847976 12.332004 0.424732 0.785678 0.449793 0.468994 0.950928
-16.678919 7.669006 3.475303 0.937571 -0.006385 -0.347736 0.679932 0.969971
-13.440512 0.847976 12.332004 0.937571 -0.006385 -0.347736 0.468994 0.950928
-13.660065 0.117953 11.753446 0.937571 -0.006385 -0.347736 0.470703 0.966797
-16.678919 7.669006 3.475303 -0.296811 -0.756928 -0.582205 0.679932 0.969971
-13.660065 0.117953 11.753446 -0.296811 -0.756928 -0.582205 0.470703 0.966797
-14.648053 0.216654 12.128805 -0.296811 -0.756928 -0.582205 0.469971 0.989014
-14.702942 7.350593 27.934732 -0.771849 0.517461 0.369438 0.650635 0.927246
-21.563972 -1.827155 26.455315 -0.771849 0.517461 0.369438 0.467773 0.923584
-21.289532 -2.197966 27.548075 -0.771849 0.517461 0.369438 0.466797 0.907471
-14.702942 7.350593 27.934732 0.278238 -0.229695 0.932643 0.650635 0.927246
-21.289532 -2.197966 27.548075 0.278238 -0.229695 0.932643 0.466797 0.907471
-20.575985 -2.678345 27.216890 0.278238 -0.229695 0.932643 0.469482 0.922119
-14.702942 7.350593 27.934732 0.842792 -0.475495 -0.252204 0.650635 0.927246
-20.575985 -2.678345 27.216890 0.842792 -0.475495 -0.252204 0.469482 0.922119
-20.740648 -2.458484 26.252117 0.842792 -0.475495 -0.252204 0.469971 0.941895
-14.702942 7.350593 27.934732 -0.076259 0.213991 -0.973854 0.650635 0.927246
-20.740648 -2.458484 26.252117 -0.076259 0.213991 -0.973854 0.469971 0.941895
-21.563972 -1.827155 26.455315 -0.076259 0.213991 -0.973854 0.467773 0.923584
3 0 1 2
3 3 4 5
3 6 7 8
3 9 10 11
3 12 13 14
3 15 16 17
3 18 19 20
3 21 22 23
3 24 25 26
3 27 28 29
3 30 31 32
3 33 34 35
3 36 37 38
3 39 40 41
3 42 43 44
3 45 46 47
3 48 49 50
3 51 52 53
3 54 55 56
3 57 58 59
3 60 61 62
3 63 64 65
3 66 67 68
3 69 70 71
3 72 73 74
3 75 76 77
3 78 79 80
3 81 82 83
3 84 85 86
3 87 88 89
3 90 91 92
3 93 94 95
3 96 97 98
3 99 100 101
3 102 103 104
3 105 106 107
3 108 109 110
3 111 112 113
3 114 115 116
3 117 118 119
3 120 121 122
3 123 124 125
3 126 127 128
3 129 130 131
3 132 133 134
3 135 136 137
3 138 139 140
3 141 142 143
3 144 145 146
3 147 148 149
3 150 151 152
3 153 154 155
3 156 157 158
3 159 160 161
3 162 163 164
3 165 166 167
3 168 169 170
3 171 172 173
3 174 175 176
3 177 178 179
3 180 181 182
3 183 184 185
3 186 187 188
3 189 190 191
3 192 193 194
3 195 196 197
3 198 199 200
3 201 202 203
3 204 205 206
3 207 208 209
3 210 211 212
3 213 214 215
3 216 217 218
3 219 220 221
3 222 223 224
3 225 226 227
3 228 229 230
3 231 232 233
3 234 235 236
3 237 238 239
3 240 241 242
3 243 244 245
3 246 247 248
3 249 250 251
3 252 253 254
3 255 256 257
3 258 259 260
3 261 262 263
3 264 265 266
3 267 268 269
3 270 271 272
3 273 274 275
3 276 277 278
3 279 280 281
3 282 283 284
3 285 286 287
