ply
format ascii 1.0
comment Created by Blender 2.91.2 - www.blender.org
element vertex 516
property float x
property float y
property float z
property float nx
property float ny
property float nz
property float s
property float t
element face 172
property list uchar uint vertex_indices
end_header
-2.486260 1.414056 -4.542331 0.303433 0.696277 -0.650482 0.908936 0.038818
-2.431372 4.886217 -0.800119 0.303433 0.696277 -0.650482 0.886475 0.041259
1.301029 2.719632 -1.378166 0.303433 0.696277 -0.650482 0.896973 0.026367
-2.486260 1.414056 -4.542331 0.467151 0.465983 -0.751419 0.908936 0.038818
1.301029 2.719632 -1.378166 0.467151 0.465983 -0.751419 0.896973 0.026367
3.716111 -1.498181 -2.492352 0.467151 0.465983 -0.751419 0.905762 0.021240
-2.486260 1.414056 -4.542331 0.294659 -0.044388 -0.954571 0.908936 0.038818
3.716111 -1.498181 -2.492352 0.294659 -0.044388 -0.954571 0.905762 0.021240
-2.156932 -3.245747 -4.223991 0.294659 -0.044388 -0.954571 0.922119 0.037841
-2.486260 1.414056 -4.542331 -0.152694 -0.078095 -0.985183 0.908936 0.038818
-2.156932 -3.245747 -4.223991 -0.152694 -0.078095 -0.985183 0.922119 0.037841
-10.993938 -2.924397 -2.879817 -0.152694 -0.078095 -0.985183 0.921387 0.053710
-2.486260 1.414056 -4.542331 -0.061580 -0.249570 -0.966397 0.908936 0.038818
-10.993938 -2.924397 -2.879817 -0.061580 -0.249570 -0.966397 0.921387 0.053710
-9.292403 1.355496 -4.093514 -0.061580 -0.249570 -0.966397 0.907959 0.055175
-2.486260 1.414056 -4.542331 -0.051069 0.732479 -0.678872 0.908936 0.038818
-9.292403 1.355496 -4.093514 -0.051069 0.732479 -0.678872 0.907959 0.055175
-2.431372 4.886217 -0.800119 -0.051069 0.732479 -0.678872 0.886475 0.041259
-2.431372 4.886217 -0.800119 0.165844 0.480836 -0.860984 0.886475 0.041259
-9.292403 1.355496 -4.093514 0.165844 0.480836 -0.860984 0.907959 0.055175
-8.249526 5.810854 -1.404438 0.165844 0.480836 -0.860984 0.885254 0.057617
-2.431372 4.886217 -0.800119 0.165689 0.981782 -0.093017 0.886475 0.041259
-8.249526 5.810854 -1.404438 0.165689 0.981782 -0.093017 0.885254 0.057617
-2.266706 5.231560 3.138245 0.165689 0.981782 -0.093017 0.871582 0.042724
-2.431372 4.886217 -0.800119 0.488470 0.867231 -0.096468 0.886475 0.041259
-2.266706 5.231560 3.138245 0.488470 0.867231 -0.096468 0.871582 0.042724
1.301029 2.719632 -1.378166 0.488470 0.867231 -0.096468 0.896973 0.026367
1.301029 2.719632 -1.378166 0.167575 0.911846 -0.374773 0.896973 0.026367
-2.266706 5.231560 3.138245 0.167575 0.911846 -0.374773 0.871582 0.042724
3.002565 3.765205 1.926603 0.167575 0.911846 -0.374773 0.877197 0.029541
1.301029 2.719632 -1.378166 0.678106 0.524328 -0.515027 0.896973 0.026367
3.002565 3.765205 1.926603 0.678106 0.524328 -0.515027 0.877197 0.029541
3.716111 -1.498181 -2.492352 0.678106 0.524328 -0.515027 0.905762 0.021240
3.716111 -1.498181 -2.492352 0.332188 0.632492 -0.699717 0.905762 0.021240
3.002565 3.765205 1.926603 0.332188 0.632492 -0.699717 0.877197 0.029541
5.527424 1.451701 1.034036 0.332188 0.632492 -0.699717 0.870361 0.014892
3.716111 -1.498181 -2.492352 0.901418 -0.417806 -0.113508 0.905762 0.021240
5.527424 1.451701 1.034036 0.901418 -0.417806 -0.113508 0.870361 0.014892
3.716112 -2.505596 1.215810 0.901418 -0.417806 -0.113508 0.910889 0.011474
3.716111 -1.498181 -2.492352 0.342418 -0.906684 -0.246323 0.905762 0.021240
3.716112 -2.505596 1.215810 0.342418 -0.906684 -0.246323 0.910889 0.011474
-2.156932 -3.245747 -4.223991 0.342418 -0.906684 -0.246323 0.922119 0.037841
-2.156932 -3.245747 -4.223991 0.248780 -0.958656 -0.138157 0.922119 0.037841
3.716112 -2.505596 1.215810 0.248780 -0.958656 -0.138157 0.910889 0.011474
-2.486261 -3.988611 0.337625 0.248780 -0.958656 -0.138157 0.929932 0.035888
-2.156932 -3.245747 -4.223991 -0.173470 -0.969971 -0.170484 0.922119 0.037841
-2.486261 -3.988611 0.337625 -0.173470 -0.969971 -0.170484 0.929932 0.035888
-10.884162 -2.792597 2.077851 -0.173470 -0.969971 -0.170484 0.932617 0.052002
-2.156932 -3.245747 -4.223991 -0.032183 -0.999110 0.027274 0.922119 0.037841
-10.884162 -2.792597 2.077851 -0.032183 -0.999110 0.027274 0.932617 0.052002
-10.993938 -2.924397 -2.879817 -0.032183 -0.999110 0.027274 0.921387 0.053710
-10.993938 -2.924397 -2.879817 -0.241748 -0.969840 0.031136 0.921387 0.053710
-10.884162 -2.792597 2.077851 -0.241748 -0.969840 0.031136 0.932617 0.052002
-13.957904 -2.177714 -2.634716 -0.241748 -0.969840 0.031136 0.923584 0.073486
-10.993938 -2.924397 -2.879817 -0.135343 -0.220141 -0.966033 0.921387 0.053710
-13.957904 -2.177714 -2.634716 -0.135343 -0.220141 -0.966033 0.923584 0.073486
-9.292403 1.355496 -4.093514 -0.135343 -0.220141 -0.966033 0.907959 0.055175
-9.292403 1.355496 -4.093514 0.017552 -0.401288 -0.915784 0.907959 0.055175
-13.957904 -2.177714 -2.634716 0.017552 -0.401288 -0.915784 0.923584 0.073486
-11.158604 1.930020 -4.381033 0.017552 -0.401288 -0.915784 0.905762 0.075439
-9.292403 1.355496 -4.093514 0.269804 0.450496 -0.851034 0.907959 0.055175
-11.158604 1.930020 -4.381033 0.269804 0.450496 -0.851034 0.905762 0.075439
-8.249526 5.810854 -1.404438 0.269804 0.450496 -0.851034 0.885254 0.057617
-8.249526 5.810854 -1.404438 -0.132587 0.663887 -0.735986 0.885254 0.057617
-11.158604 1.930020 -4.381033 -0.132587 0.663887 -0.735986 0.905762 0.075439
-10.060839 5.544540 -1.318358 -0.132587 0.663887 -0.735986 0.884766 0.077880
-8.249526 5.810854 -1.404438 -0.147174 0.988335 -0.039166 0.885254 0.057617
-10.060839 5.544540 -1.318358 -0.147174 0.988335 -0.039166 0.884766 0.077880
-11.542821 5.525391 3.767292 -0.147174 0.988335 -0.039166 0.864990 0.079834
-8.249526 5.810854 -1.404438 -0.119922 0.992549 -0.021579 0.885254 0.057617
-11.542821 5.525391 3.767292 -0.119922 0.992549 -0.021579 0.864990 0.079834
-8.743521 5.865157 3.838475 -0.119922 0.992549 -0.021579 0.866699 0.059570
-8.249526 5.810854 -1.404438 0.097238 0.995260 -0.001146 0.885254 0.057617
-8.743521 5.865157 3.838475 0.097238 0.995260 -0.001146 0.866699 0.059570
-2.266706 5.231560 3.138245 0.097238 0.995260 -0.001146 0.871582 0.042724
-2.266706 5.231560 3.138245 0.132524 0.316695 0.939224 0.871582 0.042724
-8.743521 5.865157 3.838475 0.132524 0.316695 0.939224 0.866699 0.059570
-1.772712 -0.572738 5.025680 0.132524 0.316695 0.939224 0.849121 0.045166
-2.266706 5.231560 3.138245 0.169204 0.317775 0.932947 0.871582 0.042724
-1.772712 -0.572738 5.025680 0.169204 0.317775 0.932947 0.849121 0.045166
2.947676 0.288790 3.876119 0.169204 0.317775 0.932947 0.859131 0.029296
-2.266706 5.231560 3.138245 0.318562 0.459810 0.828911 0.871582 0.042724
2.947676 0.288790 3.876119 0.318562 0.459810 0.828911 0.859131 0.029296
3.002565 3.765205 1.926603 0.318562 0.459810 0.828911 0.877197 0.029541
3.002565 3.765205 1.926603 0.600004 0.384069 0.701773 0.877197 0.029541
2.947676 0.288790 3.876119 0.600004 0.384069 0.701773 0.859131 0.029296
5.527424 1.451701 1.034036 0.600004 0.384069 0.701773 0.870361 0.014892
5.527424 1.451701 1.034036 0.762752 -0.323399 0.560020 0.870361 0.014892
2.947676 0.288790 3.876119 0.762752 -0.323399 0.560020 0.859131 0.029296
3.716112 -2.505596 1.215810 0.762752 -0.323399 0.560020 0.841553 0.025878
3.716112 -2.505596 1.215810 0.290713 -0.616593 0.731641 0.841553 0.025878
2.947676 0.288790 3.876119 0.290713 -0.616593 0.731641 0.859131 0.029296
-1.772712 -0.572738 5.025680 0.290713 -0.616593 0.731641 0.849121 0.045166
3.716112 -2.505596 1.215810 0.112695 -0.811150 0.573878 0.841553 0.025878
-1.772712 -0.572738 5.025680 0.112695 -0.811150 0.573878 0.849121 0.045166
-2.486261 -3.988611 0.337625 0.112695 -0.811150 0.573878 0.827148 0.047607
-2.486261 -3.988611 0.337625 0.006719 -0.808681 0.588209 0.827148 0.047607
-1.772712 -0.572738 5.025680 0.006719 -0.808681 0.588209 0.849121 0.045166
-10.884162 -2.792597 2.077851 0.006719 -0.808681 0.588209 0.829834 0.063476
-10.884162 -2.792597 2.077851 -0.076105 -0.669201 0.739174 0.829834 0.063476
-1.772712 -0.572738 5.025680 -0.076105 -0.669201 0.739174 0.849121 0.045166
-9.402180 0.683594 5.377556 -0.076105 -0.669201 0.739174 0.844727 0.061767
-10.884162 -2.792597 2.077851 -0.182762 -0.634755 0.750789 0.829834 0.063476
-9.402180 0.683594 5.377556 -0.182762 -0.634755 0.750789 0.844727 0.061767
-12.860139 1.616822 5.324793 -0.182762 -0.634755 0.750789 0.848633 0.081543
-10.884162 -2.792597 2.077851 -0.184047 -0.634968 0.750295 0.829834 0.063476
-12.860139 1.616822 5.324793 -0.184047 -0.634968 0.750295 0.848633 0.081543
-13.957904 -1.664245 2.278775 -0.184047 -0.634968 0.750295 0.831787 0.083496
-10.884162 -2.792597 2.077851 -0.337312 -0.936294 0.097844 0.932617 0.052002
-13.957904 -1.664245 2.278775 -0.337312 -0.936294 0.097844 0.935547 0.072265
-13.957904 -2.177714 -2.634716 -0.337312 -0.936294 0.097844 0.923584 0.073486
-13.957904 -2.177714 -2.634716 -0.123521 -0.986967 0.103140 0.923584 0.073486
-13.957904 -1.664245 2.278775 -0.123521 -0.986967 0.103140 0.935547 0.072265
-17.196310 -1.600402 -0.988642 -0.123521 -0.986967 0.103140 0.921631 0.090820
-13.957904 -2.177714 -2.634716 -0.460690 -0.059172 -0.885586 0.923584 0.073486
-17.196310 -1.600402 -0.988642 -0.460690 -0.059172 -0.885586 0.921631 0.090820
-13.738351 2.414942 -3.055794 -0.460690 -0.059172 -0.885586 0.902344 0.092773
-13.957904 -2.177714 -2.634716 -0.464871 -0.058774 -0.883425 0.923584 0.073486
-13.738351 2.414942 -3.055794 -0.464871 -0.058774 -0.883425 0.902344 0.092773
-11.158604 1.930020 -4.381033 -0.464871 -0.058774 -0.883425 0.905762 0.075439
-11.158604 1.930020 -4.381033 -0.262562 0.621151 -0.738398 0.905762 0.075439
-13.738351 2.414942 -3.055794 -0.262562 0.621151 -0.738398 0.902344 0.092773
-11.652597 5.441806 -1.251210 -0.262562 0.621151 -0.738398 0.881836 0.094970
-11.158604 1.930020 -4.381033 -0.074072 0.657686 -0.749641 0.905762 0.075439
-11.652597 5.441806 -1.251210 -0.074072 0.657686 -0.749641 0.881836 0.094970
-10.060839 5.544540 -1.318358 -0.074072 0.657686 -0.749641 0.884766 0.077880
-10.060839 5.544540 -1.318358 -0.069156 0.989730 -0.125106 0.884766 0.077880
-11.652597 5.441806 -1.251210 -0.069156 0.989730 -0.125106 0.881836 0.094970
-13.134581 5.911097 3.280611 -0.069156 0.989730 -0.125106 0.864502 0.096923
-10.060839 5.544540 -1.318358 0.215718 0.974187 0.066529 0.884766 0.077880
-13.134581 5.911097 3.280611 0.215718 0.974187 0.066529 0.864502 0.096923
-11.542821 5.525391 3.767292 0.215718 0.974187 0.066529 0.864990 0.079834
-11.542821 5.525391 3.767292 -0.128059 0.529580 0.838538 0.864990 0.079834
-13.134581 5.911097 3.280611 -0.128059 0.529580 0.838538 0.864502 0.096923
-14.671451 1.920998 5.565859 -0.128059 0.529580 0.838538 0.848877 0.098632
-11.542821 5.525391 3.767292 0.176682 0.312389 0.933379 0.864990 0.079834
-14.671451 1.920998 5.565859 0.176682 0.312389 0.933379 0.848877 0.098632
-12.860139 1.616822 5.324793 0.176682 0.312389 0.933379 0.848633 0.081543
-11.542821 5.525391 3.767292 0.079086 0.345901 0.934932 0.864990 0.079834
-12.860139 1.616822 5.324793 0.079086 0.345901 0.934932 0.848633 0.081543
-9.402180 0.683594 5.377556 0.079086 0.345901 0.934932 0.844727 0.061767
-11.542821 5.525391 3.767292 -0.059622 0.291185 0.954807 0.864990 0.079834
-9.402180 0.683594 5.377556 -0.059622 0.291185 0.954807 0.844727 0.061767
-8.743521 5.865157 3.838475 -0.059622 0.291185 0.954807 0.866699 0.059570
-8.743521 5.865157 3.838475 0.089158 0.273170 0.957825 0.866699 0.059570
-9.402180 0.683594 5.377556 0.089158 0.273170 0.957825 0.844727 0.061767
-1.772712 -0.572738 5.025680 0.089158 0.273170 0.957825 0.849121 0.045166
-13.738351 2.414942 -3.055794 -0.314507 0.681346 -0.660949 0.902344 0.092773
-18.842957 3.236109 0.219697 -0.314507 0.681346 -0.660949 0.894531 0.114014
-16.647427 4.918287 0.909065 -0.314507 0.681346 -0.660949 0.875244 0.115967
-13.738351 2.414942 -3.055794 -0.358593 0.647812 -0.672123 0.902344 0.092773
-16.647427 4.918287 0.909065 -0.358593 0.647812 -0.672123 0.875244 0.115967
-11.652597 5.441806 -1.251210 -0.358593 0.647812 -0.672123 0.881836 0.094970
-11.652597 5.441806 -1.251210 -0.196275 0.954999 -0.222379 0.881836 0.094970
-16.647427 4.918287 0.909065 -0.196275 0.954999 -0.222379 0.875244 0.115967
-14.945891 6.110773 4.528357 -0.196275 0.954999 -0.222379 0.859619 0.117676
-11.652597 5.441806 -1.251210 0.049964 0.994981 -0.086696 0.881836 0.094970
-14.945891 6.110773 4.528357 0.049964 0.994981 -0.086696 0.859619 0.117676
-13.134581 5.911097 3.280611 0.049964 0.994981 -0.086696 0.864502 0.096923
-13.134581 5.911097 3.280611 0.568992 0.232590 0.788765 0.864502 0.096923
-14.945891 6.110773 4.528357 0.568992 0.232590 0.788765 0.859619 0.117676
-14.671451 1.920998 5.565859 0.568992 0.232590 0.788765 0.848877 0.098632
-14.671451 1.920998 5.565859 0.419851 0.243974 0.874186 0.848877 0.098632
-14.945891 6.110773 4.528357 0.419851 0.243974 0.874186 0.859619 0.117676
-15.714327 2.619463 5.871796 0.419851 0.243974 0.874186 0.849121 0.118896
-14.671451 1.920998 5.565859 0.108802 -0.258036 0.959989 0.848877 0.098632
-15.714327 2.619463 5.871796 0.108802 -0.258036 0.959989 0.849121 0.118896
-19.666281 0.448845 5.736256 0.108802 -0.258036 0.959989 0.835205 0.120361
-14.671451 1.920998 5.565859 0.205861 -0.609880 0.765290 0.848877 0.098632
-19.666281 0.448845 5.736256 0.205861 -0.609880 0.765290 0.835205 0.120361
-16.757204 -1.781365 3.176408 0.205861 -0.609880 0.765290 0.832031 0.100342
-14.671451 1.920998 5.565859 0.262315 -0.623245 0.736720 0.848877 0.098632
-16.757204 -1.781365 3.176408 0.262315 -0.623245 0.736720 0.832031 0.100342
-13.957904 -1.664245 2.278775 0.262315 -0.623245 0.736720 0.831787 0.083496
-14.671451 1.920998 5.565859 -0.015884 -0.677423 0.735422 0.848877 0.098632
-13.957904 -1.664245 2.278775 -0.015884 -0.677423 0.735422 0.831787 0.083496
-12.860139 1.616822 5.324793 -0.015884 -0.677423 0.735422 0.848633 0.081543
-19.940722 0.162058 1.349075 -0.549160 -0.108335 -0.828665 0.918701 0.111328
-18.842957 3.236109 0.219697 -0.549160 -0.108335 -0.828665 0.894531 0.114014
-13.738351 2.414942 -3.055794 -0.549160 -0.108335 -0.828665 0.902344 0.092773
-19.940722 0.162058 1.349075 -0.601997 0.111372 -0.790693 0.918701 0.111328
-13.738351 2.414942 -3.055794 -0.601997 0.111372 -0.790693 0.902344 0.092773
-17.196310 -1.600402 -0.988642 -0.601997 0.111372 -0.790693 0.921631 0.090820
-19.940722 0.162058 1.349075 -0.484651 -0.870349 0.087211 0.918701 0.111328
-17.196310 -1.600402 -0.988642 -0.484651 -0.870349 0.087211 0.921631 0.090820
-19.666281 0.448845 5.736256 -0.484651 -0.870349 0.087211 0.939697 0.109131
-19.940722 0.162058 1.349075 -0.745495 -0.660433 0.089807 0.918701 0.111328
-19.666281 0.448845 5.736256 -0.745495 -0.660433 0.089807 0.939697 0.109131
-22.136251 3.437842 7.213696 -0.745495 -0.660433 0.089807 0.939697 0.124756
-19.940722 0.162058 1.349075 -0.638576 -0.748452 0.178998 0.918701 0.111328
-22.136251 3.437842 7.213696 -0.638576 -0.748452 0.178998 0.939697 0.124756
-23.618235 3.858111 3.684003 -0.638576 -0.748452 0.178998 0.918945 0.126953
-19.940722 0.162058 1.349075 -0.586176 -0.073525 -0.806841 0.918701 0.111328
-23.618235 3.858111 3.684003 -0.586176 -0.073525 -0.806841 0.918945 0.126953
-21.093376 6.545943 1.604742 -0.586176 -0.073525 -0.806841 0.892578 0.129883
-19.940722 0.162058 1.349075 -0.602181 -0.076903 -0.794647 0.918701 0.111328
-21.093376 6.545943 1.604742 -0.602181 -0.076903 -0.794647 0.892578 0.129883
-18.842957 3.236109 0.219697 -0.602181 -0.076903 -0.794647 0.894531 0.114014
-18.842957 3.236109 0.219697 -0.004027 0.383693 -0.923452 0.894531 0.114014
-21.093376 6.545943 1.604742 -0.004027 0.383693 -0.923452 0.892578 0.129883
-16.647427 4.918287 0.909065 -0.004027 0.383693 -0.923452 0.875244 0.115967
-16.647427 4.918287 0.909065 0.021172 0.441273 -0.897123 0.875244 0.115967
-21.093376 6.545943 1.604742 0.021172 0.441273 -0.897123 0.892578 0.129883
-17.745192 7.961811 2.380191 0.021172 0.441273 -0.897123 0.875000 0.131592
-16.647427 4.918287 0.909065 0.710710 0.497001 -0.497877 0.875244 0.115967
-17.745192 7.961811 2.380191 0.710710 0.497001 -0.497877 0.875000 0.131592
-14.945891 6.110773 4.528357 0.710710 0.497001 -0.497877 0.859619 0.117676
-14.945891 6.110773 4.528357 0.650253 0.726851 -0.221038 0.859619 0.117676
-17.745192 7.961811 2.380191 0.650253 0.726851 -0.221038 0.875000 0.131592
-16.098545 7.528920 5.800832 0.650253 0.726851 -0.221038 0.862549 0.133057
-14.945891 6.110773 4.528357 0.711323 -0.050859 0.701023 0.859619 0.117676
-16.098545 7.528920 5.800832 0.711323 -0.050859 0.701023 0.862549 0.133057
-18.568516 5.369672 8.150439 0.711323 -0.050859 0.701023 0.849365 0.134521
-14.945891 6.110773 4.528357 0.688949 0.123207 0.714261 0.859619 0.117676
-18.568516 5.369672 8.150439 0.688949 0.123207 0.714261 0.849365 0.134521
-15.714327 2.619463 5.871796 0.688949 0.123207 0.714261 0.849121 0.118896
-15.714327 2.619463 5.871796 0.228578 -0.469418 0.852877 0.849121 0.118896
-18.568516 5.369672 8.150439 0.228578 -0.469418 0.852877 0.849365 0.134521
-19.666281 0.448845 5.736256 0.228578 -0.469418 0.852877 0.835205 0.120361
-19.666281 0.448845 5.736256 0.003154 -0.441018 0.897493 0.835205 0.120361
-18.568516 5.369672 8.150439 0.003154 -0.441018 0.897493 0.849365 0.134521
-22.136251 3.437842 7.213696 0.003154 -0.441018 0.897493 0.838623 0.135498
-22.136251 3.437842 7.213696 0.169941 -0.666035 0.726304 0.838623 0.135498
-18.568516 5.369672 8.150439 0.169941 -0.666035 0.726304 0.849365 0.134521
-24.002453 5.101603 9.176053 0.169941 -0.666035 0.726304 0.839844 0.152832
-22.136251 3.437842 7.213696 -0.649069 -0.760240 0.027295 0.939697 0.124756
-24.002453 5.101603 9.176053 -0.649069 -0.760240 0.027295 0.946289 0.141357
-25.923542 6.584835 4.805015 -0.649069 -0.760240 0.027295 0.926514 0.143555
-22.136251 3.437842 7.213696 -0.701073 -0.680429 0.213337 0.939697 0.124756
-25.923542 6.584835 4.805015 -0.701073 -0.680429 0.213337 0.926514 0.143555
-23.618235 3.858111 3.684003 -0.701073 -0.680429 0.213337 0.918945 0.126953
-23.618235 3.858111 3.684003 -0.608912 -0.199131 -0.767836 0.918945 0.126953
-25.923542 6.584835 4.805015 -0.608912 -0.199131 -0.767836 0.926514 0.143555
-23.014463 9.758835 1.674899 -0.608912 -0.199131 -0.767836 0.900146 0.146240
-23.618235 3.858111 3.684003 -0.445253 -0.247440 -0.860536 0.918945 0.126953
-23.014463 9.758835 1.674899 -0.445253 -0.247440 -0.860536 0.900146 0.146240
-21.093376 6.545943 1.604742 -0.445253 -0.247440 -0.860536 0.892578 0.129883
-21.093376 6.545943 1.604742 0.167529 0.121534 -0.978347 0.892578 0.129883
-23.014463 9.758835 1.674899 0.167529 0.121534 -0.978347 0.900146 0.146240
-18.623404 11.921383 2.695447 0.167529 0.121534 -0.978347 0.883545 0.148193
-21.093376 6.545943 1.604742 0.176846 0.117031 -0.977256 0.892578 0.129883
-18.623404 11.921383 2.695447 0.176846 0.117031 -0.977256 0.883545 0.148193
-17.745192 7.961811 2.380191 0.176846 0.117031 -0.977256 0.875000 0.131592
-17.745192 7.961811 2.380191 0.888148 0.228722 -0.398596 0.875000 0.131592
-18.623404 11.921383 2.695447 0.888148 0.228722 -0.398596 0.883545 0.148193
-16.098545 7.528920 5.800832 0.888148 0.228722 -0.398596 0.862549 0.133057
-16.098545 7.528920 5.800832 0.905139 0.355737 -0.232753 0.862549 0.133057
-18.623404 11.921383 2.695447 0.905139 0.355737 -0.232753 0.883545 0.148193
-17.031645 10.912212 7.343142 0.905139 0.355737 -0.232753 0.868164 0.149658
-16.098545 7.528920 5.800832 0.777732 -0.070261 0.624656 0.862549 0.133057
-17.031645 10.912212 7.343142 0.777732 -0.070261 0.624656 0.868164 0.149658
-19.666281 7.434035 10.232191 0.777732 -0.070261 0.624656 0.852539 0.151367
-16.098545 7.528920 5.800832 0.763833 -0.209445 0.610485 0.862549 0.133057
-19.666281 7.434035 10.232191 0.763833 -0.209445 0.610485 0.852539 0.151367
-18.568516 5.369672 8.150439 0.763833 -0.209445 0.610485 0.849365 0.134521
-18.568516 5.369672 8.150439 0.171465 -0.652856 0.737821 0.849365 0.134521
-19.666281 7.434035 10.232191 0.171465 -0.652856 0.737821 0.852539 0.151367
-24.002453 5.101603 9.176053 0.171465 -0.652856 0.737821 0.839844 0.152832
-24.002453 5.101603 9.176053 0.006936 -0.423152 0.906032 0.839844 0.152832
-19.666281 7.434035 10.232191 0.006936 -0.423152 0.906032 0.852539 0.151367
-22.904688 12.226884 12.495426 0.006936 -0.423152 0.906032 0.861816 0.186768
-24.002453 5.101603 9.176053 0.011432 -0.423703 0.905729 0.839844 0.152832
-22.904688 12.226884 12.495426 0.011432 -0.423703 0.905729 0.861816 0.186768
-27.240860 9.955287 11.487498 0.011432 -0.423703 0.905729 0.844971 0.188477
-24.002453 5.101603 9.176053 -0.799683 -0.589018 0.116467 0.946289 0.141357
-27.240860 9.955287 11.487498 -0.799683 -0.589018 0.116467 0.949219 0.177490
-28.777731 11.140653 6.929919 -0.799683 -0.589018 0.116467 0.933594 0.178955
-24.002453 5.101603 9.176053 -0.802259 -0.575916 0.157169 0.946289 0.141357
-28.777731 11.140653 6.929919 -0.802259 -0.575916 0.157169 0.933594 0.178955
-25.923542 6.584835 4.805015 -0.802259 -0.575916 0.157169 0.926514 0.143555
-25.923542 6.584835 4.805015 -0.682699 -0.089460 -0.725203 0.926514 0.143555
-28.777731 11.140653 6.929919 -0.682699 -0.089460 -0.725203 0.933594 0.178955
-23.014463 9.758835 1.674899 -0.682699 -0.089460 -0.725203 0.900146 0.146240
-23.014463 9.758835 1.674899 -0.682615 -0.088244 -0.725431 0.900146 0.146240
-28.777731 11.140653 6.929919 -0.682615 -0.088244 -0.725431 0.933594 0.178955
-25.978430 14.218224 3.921472 -0.682615 -0.088244 -0.725431 0.905029 0.182129
-23.014463 9.758835 1.674899 -0.010592 0.444267 -0.895832 0.900146 0.146240
-25.978430 14.218224 3.921472 -0.010592 0.444267 -0.895832 0.905029 0.182129
-18.623404 11.921383 2.695447 -0.010592 0.444267 -0.895832 0.883545 0.148193
-18.623404 11.921383 2.695447 -0.018971 0.422860 -0.905996 0.883545 0.148193
-25.978430 14.218224 3.921472 -0.018971 0.422860 -0.905996 0.905029 0.182129
-21.587370 16.368153 4.832973 -0.018971 0.422860 -0.905996 0.891357 0.183594
-18.623404 11.921383 2.695447 0.791607 0.594829 -0.139774 0.883545 0.148193
-21.587370 16.368153 4.832973 0.791607 0.594829 -0.139774 0.891357 0.183594
-20.050499 15.413504 9.474355 0.791607 0.594829 -0.139774 0.876465 0.185303
-18.623404 11.921383 2.695447 0.790035 0.596620 -0.141028 0.883545 0.148193
-20.050499 15.413504 9.474355 0.790035 0.596620 -0.141028 0.876465 0.185303
-17.031645 10.912212 7.343142 0.790035 0.596620 -0.141028 0.868164 0.149658
-17.031645 10.912212 7.343142 0.670786 0.102066 0.734594 0.868164 0.149658
-20.050499 15.413504 9.474355 0.670786 0.102066 0.734594 0.876465 0.185303
-19.666281 7.434035 10.232191 0.670786 0.102066 0.734594 0.852539 0.151367
-19.666281 7.434035 10.232191 0.667027 0.102207 0.737989 0.852539 0.151367
-20.050499 15.413504 9.474355 0.667027 0.102207 0.737989 0.876465 0.185303
-22.904688 12.226884 12.495426 0.667027 0.102207 0.737989 0.861816 0.186768
-22.904688 12.226884 12.495426 0.603094 0.193471 0.773852 0.861816 0.186768
-20.050499 15.413504 9.474355 0.603094 0.193471 0.773852 0.876465 0.185303
-32.125912 22.540333 17.103415 0.603094 0.193471 0.773852 0.866943 0.247314
-22.904688 12.226884 12.495426 0.083100 -0.343639 0.935418 0.861816 0.186768
-32.125912 22.540333 17.103415 0.083100 -0.343639 0.935418 0.866943 0.247314
-35.144768 20.841490 16.747507 0.083100 -0.343639 0.935418 0.849609 0.249268
-22.904688 12.226884 12.495426 0.013544 -0.427028 0.904137 0.861816 0.186768
-35.144768 20.841490 16.747507 0.013544 -0.427028 0.904137 0.849609 0.249268
-27.240860 9.955287 11.487498 0.013544 -0.427028 0.904137 0.844971 0.188477
-27.240860 9.955287 11.487498 -0.780617 -0.616482 0.102895 0.949219 0.177490
-35.144768 20.841490 16.747507 -0.780617 -0.616482 0.102895 0.960205 0.237305
-28.777731 11.140653 6.929919 -0.780617 -0.616482 0.102895 0.933594 0.178955
-28.777731 11.140653 6.929919 -0.800403 -0.595446 0.069276 0.933594 0.178955
-35.144768 20.841490 16.747507 -0.800403 -0.595446 0.069276 0.960205 0.237305
-36.132755 21.790350 13.488158 -0.800403 -0.595446 0.069276 0.944336 0.239014
-28.777731 11.140653 6.929919 -0.704673 -0.050854 -0.707707 0.933594 0.178955
-36.132755 21.790350 13.488158 -0.704673 -0.050854 -0.707707 0.944336 0.239014
-25.978430 14.218224 3.921472 -0.704673 -0.050854 -0.707707 0.905029 0.182129
-25.978430 14.218224 3.921472 -0.705424 -0.053006 -0.706801 0.905029 0.182129
-36.132755 21.790350 13.488158 -0.705424 -0.053006 -0.706801 0.944336 0.239014
-34.156780 24.083891 11.344030 -0.705424 -0.053006 -0.706801 0.923828 0.241211
-25.978430 14.218224 3.921472 -0.095126 0.546927 -0.831758 0.905029 0.182129
-34.156780 24.083891 11.344030 -0.095126 0.546927 -0.831758 0.923828 0.241211
-21.587370 16.368153 4.832973 -0.095126 0.546927 -0.831758 0.891357 0.183594
-21.587370 16.368153 4.832973 -0.132696 0.504019 -0.853438 0.891357 0.183594
-34.156780 24.083891 11.344030 -0.132696 0.504019 -0.853438 0.923828 0.241211
-30.973261 25.801655 11.863514 -0.132696 0.504019 -0.853438 0.905762 0.243164
-21.587370 16.368153 4.832973 0.678644 0.730687 -0.074426 0.891357 0.183594
-30.973261 25.801655 11.863514 0.678644 0.730687 -0.074426 0.905762 0.243164
-20.050499 15.413504 9.474355 0.678644 0.730687 -0.074426 0.876465 0.185303
-20.050499 15.413504 9.474355 0.690728 0.722972 0.014365 0.876465 0.185303
-30.973261 25.801655 11.863514 0.690728 0.722972 0.014365 0.905762 0.243164
-30.040159 24.846491 15.068333 0.690728 0.722972 0.014365 0.887451 0.245117
-20.050499 15.413504 9.474355 0.593012 0.160036 0.789130 0.876465 0.185303
-30.040159 24.846491 15.068333 0.593012 0.160036 0.789130 0.887451 0.245117
-32.125912 22.540333 17.103415 0.593012 0.160036 0.789130 0.866943 0.247314
-32.125912 22.540333 17.103415 0.714106 -0.028622 0.699452 0.866943 0.247314
-30.040159 24.846491 15.068333 0.714106 -0.028622 0.699452 0.887451 0.245117
-40.029816 31.695410 25.547552 0.714106 -0.028622 0.699452 0.864746 0.307861
-32.125912 22.540333 17.103415 0.216997 -0.553990 0.803746 0.866943 0.247314
-40.029816 31.695410 25.547552 0.216997 -0.553990 0.803746 0.864746 0.307861
-35.144768 20.841490 16.747507 0.216997 -0.553990 0.803746 0.849609 0.249268
-35.144768 20.841490 16.747507 0.158360 -0.577854 0.800629 0.849609 0.249268
-40.029816 31.695410 25.547552 0.158360 -0.577854 0.800629 0.864746 0.307861
-44.420876 29.272861 24.667604 0.158360 -0.577854 0.800629 0.841309 0.308594
-35.144768 20.841490 16.747507 -0.676835 -0.736078 -0.009122 0.960205 0.237305
-44.420876 29.272861 24.667604 -0.676835 -0.736078 -0.009122 0.972656 0.286377
-36.132755 21.790350 13.488158 -0.676835 -0.736078 -0.009122 0.944336 0.239014
-36.132755 21.790350 13.488158 -0.655371 -0.755055 0.019492 0.944336 0.239014
-44.420876 29.272861 24.667604 -0.655371 -0.755055 0.019492 0.972656 0.286377
-46.122410 30.634426 20.200142 -0.655371 -0.755055 0.019492 0.951416 0.292480
-36.132755 21.790350 13.488158 -0.640420 -0.152036 -0.752826 0.944336 0.239014
-46.122410 30.634426 20.200142 -0.640420 -0.152036 -0.752826 0.951416 0.292480
-34.156780 24.083891 11.344030 -0.640420 -0.152036 -0.752826 0.923828 0.241211
-34.156780 24.083891 11.344030 -0.637968 -0.142142 -0.756831 0.923828 0.241211
-46.122410 30.634426 20.200142 -0.637968 -0.142142 -0.756831 0.951416 0.292480
-43.597549 34.070698 17.426449 -0.637968 -0.142142 -0.756831 0.929688 0.298096
-34.156780 24.083891 11.344030 -0.097318 0.448975 -0.888229 0.923828 0.241211
-43.597549 34.070698 17.426449 -0.097318 0.448975 -0.888229 0.929688 0.298096
-30.973261 25.801655 11.863514 -0.097318 0.448975 -0.888229 0.905762 0.243164
-30.973261 25.801655 11.863514 -0.074455 0.475887 -0.876349 0.905762 0.243164
-43.597549 34.070698 17.426449 -0.074455 0.475887 -0.876349 0.929688 0.298096
-39.316269 36.384197 18.319016 -0.074455 0.475887 -0.876349 0.907959 0.302734
-30.973261 25.801655 11.863514 0.749671 0.653768 -0.102860 0.905762 0.243164
-39.316269 36.384197 18.319016 0.749671 0.653768 -0.102860 0.907959 0.302734
-37.614731 35.125374 22.719332 0.749671 0.653768 -0.102860 0.886963 0.306152
-30.973261 25.801655 11.863514 0.787480 0.614613 -0.046100 0.905762 0.243164
-37.614731 35.125374 22.719332 0.787480 0.614613 -0.046100 0.886963 0.306152
-30.040159 24.846491 15.068333 0.787480 0.614613 -0.046100 0.887451 0.245117
-30.040159 24.846491 15.068333 0.735920 0.039178 0.675934 0.887451 0.245117
-37.614731 35.125374 22.719332 0.735920 0.039178 0.675934 0.886963 0.306152
-40.029816 31.695410 25.547552 0.735920 0.039178 0.675934 0.864746 0.307861
-40.029816 31.695410 25.547552 0.715159 0.069896 0.695458 0.864746 0.307861
-37.614731 35.125374 22.719332 0.715159 0.069896 0.695458 0.886963 0.306152
-42.719337 35.125153 27.968561 0.715159 0.069896 0.695458 0.863281 0.325439
-40.029816 31.695410 25.547552 0.110921 -0.513606 0.850827 0.864746 0.307861
-42.719337 35.125153 27.968561 0.110921 -0.513606 0.850827 0.863281 0.325439
-47.275063 32.763443 27.136826 0.110921 -0.513606 0.850827 0.839600 0.325439
-40.029816 31.695410 25.547552 0.111482 -0.511541 0.851996 0.864746 0.307861
-47.275063 32.763443 27.136826 0.111482 -0.511541 0.851996 0.839600 0.325439
-44.420876 29.272861 24.667604 0.111482 -0.511541 0.851996 0.841309 0.308594
-44.420876 29.272861 24.667604 -0.742985 -0.664453 0.080475 0.972656 0.286377
-47.275063 32.763443 27.136826 -0.742985 -0.664453 0.080475 0.975586 0.311768
-46.122410 30.634426 20.200142 -0.742985 -0.664453 0.080475 0.951416 0.292480
-46.122410 30.634426 20.200142 -0.740929 -0.666622 0.081482 0.951416 0.292480
-47.275063 32.763443 27.136826 -0.740929 -0.666622 0.081482 0.975586 0.311768
-49.141262 34.275959 22.541382 -0.740929 -0.666622 0.081482 0.952637 0.316162
-46.122410 30.634426 20.200142 -0.674648 -0.088110 -0.732862 0.951416 0.292480
-49.141262 34.275959 22.541382 -0.674648 -0.088110 -0.732862 0.952637 0.316162
-46.396851 37.693295 19.604116 -0.674648 -0.088110 -0.732862 0.929688 0.319336
-46.122410 30.634426 20.200142 -0.680016 -0.087900 -0.727909 0.951416 0.292480
-46.396851 37.693295 19.604116 -0.680016 -0.087900 -0.727909 0.929688 0.319336
-43.597549 34.070698 17.426449 -0.680016 -0.087900 -0.727909 0.929688 0.298096
-43.597549 34.070698 17.426449 -0.065787 0.476262 -0.876839 0.929688 0.298096
-46.396851 37.693295 19.604116 -0.065787 0.476262 -0.876839 0.929688 0.319336
-41.896015 39.715244 20.364666 -0.065787 0.476262 -0.876839 0.907715 0.320313
-43.597549 34.070698 17.426449 -0.076091 0.478343 -0.874870 0.929688 0.298096
-41.896015 39.715244 20.364666 -0.076091 0.478343 -0.874870 0.907715 0.320313
-39.316269 36.384197 18.319016 -0.076091 0.478343 -0.874870 0.907959 0.302734
-39.316269 36.384197 18.319016 0.756776 0.646284 -0.098019 0.907959 0.302734
-41.896015 39.715244 20.364666 0.756776 0.646284 -0.098019 0.907715 0.320313
-40.249367 38.462723 24.819511 0.756776 0.646284 -0.098019 0.886719 0.323975
-39.316269 36.384197 18.319016 0.748568 0.655160 -0.102035 0.907959 0.302734
-40.249367 38.462723 24.819511 0.748568 0.655160 -0.102035 0.886719 0.323975
-37.614731 35.125374 22.719332 0.748568 0.655160 -0.102035 0.886963 0.306152
-37.614731 35.125374 22.719332 0.711178 0.126218 0.691589 0.886963 0.306152
-40.249367 38.462723 24.819511 0.711178 0.126218 0.691589 0.886719 0.323975
-42.719337 35.125153 27.968561 0.711178 0.126218 0.691589 0.863281 0.325439
-42.719337 35.125153 27.968561 0.706850 0.132493 0.694845 0.863281 0.325439
-40.249367 38.462723 24.819511 0.706850 0.132493 0.694845 0.886719 0.323975
-41.731350 40.147179 26.005907 0.706850 0.132493 0.694845 0.888184 0.333008
-42.719337 35.125153 27.968561 0.765601 0.097870 0.635827 0.863281 0.325439
-41.731350 40.147179 26.005907 0.765601 0.097870 0.635827 0.888184 0.333008
-43.926880 37.027710 29.129715 0.765601 0.097870 0.635827 0.864990 0.333008
-42.719337 35.125153 27.968561 0.088017 -0.477634 0.874139 0.863281 0.325439
-43.926880 37.027710 29.129715 0.088017 -0.477634 0.874139 0.864990 0.333008
-47.275063 32.763443 27.136826 0.088017 -0.477634 0.874139 0.839600 0.325439
-47.275063 32.763443 27.136826 0.083050 -0.474706 0.876218 0.839600 0.325439
-43.926880 37.027710 29.129715 0.083050 -0.474706 0.876218 0.864990 0.333008
-48.811935 34.726826 28.346189 0.083050 -0.474706 0.876218 0.840576 0.333008
-47.275063 32.763443 27.136826 -0.748033 -0.654225 0.111515 0.975586 0.311768
-48.811935 34.726826 28.346189 -0.748033 -0.654225 0.111515 0.978516 0.327393
-50.733025 36.105045 23.545273 -0.748033 -0.654225 0.111515 0.954834 0.328613
-47.275063 32.763443 27.136826 -0.731756 -0.677519 0.074170 0.975586 0.311768
-50.733025 36.105045 23.545273 -0.731756 -0.677519 0.074170 0.954834 0.328613
-49.141262 34.275959 22.541382 -0.731756 -0.677519 0.074170 0.952637 0.316162
-49.141262 34.275959 22.541382 -0.637673 -0.139104 -0.757643 0.952637 0.316162
-50.733025 36.105045 23.545273 -0.637673 -0.139104 -0.757643 0.954834 0.328613
-46.396851 37.693295 19.604116 -0.637673 -0.139104 -0.757643 0.929688 0.319336
-46.396851 37.693295 19.604116 -0.658450 -0.063305 -0.749957 0.929688 0.319336
-50.733025 36.105045 23.545273 -0.658450 -0.063305 -0.749957 0.954834 0.328613
-47.714169 39.576916 20.601700 -0.658450 -0.063305 -0.749957 0.930664 0.330322
-46.396851 37.693295 19.604116 -0.047002 0.441638 -0.895961 0.929688 0.319336
-47.714169 39.576916 20.601700 -0.047002 0.441638 -0.895961 0.930664 0.330322
-41.896015 39.715244 20.364666 -0.047002 0.441638 -0.895961 0.907715 0.320313
-41.896015 39.715244 20.364666 -0.040725 0.869550 -0.492163 0.907715 0.320313
-47.714169 39.576916 20.601700 -0.040725 0.869550 -0.492163 0.930664 0.330322
-44.256210 40.785549 22.450972 -0.040725 0.869550 -0.492163 0.910400 0.332275
-41.896015 39.715244 20.364666 0.350846 0.932865 -0.081668 0.907715 0.320313
-44.256210 40.785549 22.450972 0.350846 0.932865 -0.081668 0.910400 0.332275
-41.731350 40.147179 26.005907 0.350846 0.932865 -0.081668 0.888184 0.333008
-41.896015 39.715244 20.364666 0.722420 0.687513 -0.073728 0.907715 0.320313
-41.731350 40.147179 26.005907 0.722420 0.687513 -0.073728 0.888184 0.333008
-40.249367 38.462723 24.819511 0.722420 0.687513 -0.073728 0.886719 0.323975
-17.196310 -1.600402 -0.988642 -0.592817 -0.804866 0.027529 0.921631 0.090820
-16.757204 -1.781365 3.176408 -0.592817 -0.804866 0.027529 0.937500 0.089111
-19.666281 0.448845 5.736256 -0.592817 -0.804866 0.027529 0.939697 0.109131
-16.757204 -1.781365 3.176408 0.026956 -0.998567 -0.046228 0.937500 0.089111
-17.196310 -1.600402 -0.988642 0.026956 -0.998567 -0.046228 0.921631 0.090820
-13.957904 -1.664245 2.278775 0.026956 -0.998567 -0.046228 0.935547 0.072265
-45.353973 43.159882 23.391750 0.285970 0.464342 -0.838217 0.911133 0.343262
-44.256210 40.785549 22.450972 0.285970 0.464342 -0.838217 0.910400 0.332275
-47.714169 39.576916 20.601700 0.285970 0.464342 -0.838217 0.930664 0.330322
-45.353973 43.159882 23.391750 -0.093813 0.649420 -0.754621 0.911133 0.343262
-47.714169 39.576916 20.601700 -0.093813 0.649420 -0.754621 0.930664 0.330322
-48.427715 41.183872 22.073338 -0.093813 0.649420 -0.754621 0.931396 0.340332
-45.353973 43.159882 23.391750 0.318875 0.130351 -0.938790 0.911133 0.343262
-48.427715 41.183872 22.073338 0.318875 0.130351 -0.938790 0.931396 0.340332
-46.232185 46.718853 23.587614 0.318875 0.130351 -0.938790 0.911865 0.352783
-45.353973 43.159882 23.391750 0.811588 0.229828 -0.537126 0.911133 0.343262
-46.232185 46.718853 23.587614 0.811588 0.229828 -0.537126 0.911865 0.352783
-42.884003 41.986618 26.621815 0.811588 0.229828 -0.537126 0.888916 0.340820
-45.353973 43.159882 23.391750 0.762548 0.510178 -0.397793 0.911133 0.343262
-42.884003 41.986618 26.621815 0.762548 0.510178 -0.397793 0.888916 0.340820
-44.256210 40.785549 22.450972 0.762548 0.510178 -0.397793 0.910400 0.332275
-44.256210 40.785549 22.450972 0.710169 0.579084 -0.400403 0.910400 0.332275
-42.884003 41.986618 26.621815 0.710169 0.579084 -0.400403 0.888916 0.340820
-41.731350 40.147179 26.005907 0.710169 0.579084 -0.400403 0.888184 0.333008
-41.731350 40.147179 26.005907 0.638160 0.146833 0.755772 0.888184 0.333008
-42.884003 41.986618 26.621815 0.638160 0.146833 0.755772 0.888916 0.340820
-45.134422 38.743195 29.152166 0.638160 0.146833 0.755772 0.864990 0.339600
-41.731350 40.147179 26.005907 0.542664 0.372130 0.753018 0.888184 0.333008
-45.134422 38.743195 29.152166 0.542664 0.372130 0.753018 0.864990 0.339600
-43.926880 37.027710 29.129715 0.542664 0.372130 0.753018 0.864990 0.333008
-43.926880 37.027710 29.129715 -0.114552 -0.093578 0.989000 0.864990 0.333008
-45.134422 38.743195 29.152166 -0.114552 -0.093578 0.989000 0.864990 0.339600
-48.811935 34.726826 28.346189 -0.114552 -0.093578 0.989000 0.840576 0.333008
-48.811935 34.726826 28.346189 -0.204387 -0.009285 0.978846 0.840576 0.333008
-45.134422 38.743195 29.152166 -0.204387 -0.009285 0.978846 0.864990 0.339600
-49.141262 36.599583 28.295189 -0.204387 -0.009285 0.978846 0.842773 0.338379
-48.811935 34.726826 28.346189 -0.910663 -0.149654 0.385093 0.978516 0.327393
-49.141262 36.599583 28.295189 -0.910663 -0.149654 0.385093 0.976318 0.338135
-50.952576 37.642590 24.417150 -0.910663 -0.149654 0.385093 0.955322 0.338623
-48.811935 34.726826 28.346189 -0.914207 -0.290667 0.282377 0.978516 0.327393
-50.952576 37.642590 24.417150 -0.914207 -0.290667 0.282377 0.955322 0.338623
-50.733025 36.105045 23.545273 -0.914207 -0.290667 0.282377 0.954834 0.328613
-50.733025 36.105045 23.545273 -0.803615 0.202581 -0.559610 0.954834 0.328613
-50.952576 37.642590 24.417150 -0.803615 0.202581 -0.559610 0.955322 0.338623
-48.427715 41.183872 22.073338 -0.803615 0.202581 -0.559610 0.931396 0.340332
-50.733025 36.105045 23.545273 -0.787768 0.187527 -0.586732 0.954834 0.328613
-48.427715 41.183872 22.073338 -0.787768 0.187527 -0.586732 0.931396 0.340332
-47.714169 39.576916 20.601700 -0.787768 0.187527 -0.586732 0.930664 0.330322
-48.427715 41.183872 22.073338 0.150789 0.204776 -0.967124 0.931396 0.340332
-50.513470 43.864143 22.315651 0.150789 0.204776 -0.967124 0.933350 0.353027
-46.232185 46.718853 23.587614 0.150789 0.204776 -0.967124 0.911865 0.352783
-46.232185 46.718853 23.587614 0.859133 0.427158 -0.281828 0.911865 0.352783
-43.871990 44.713348 27.742826 0.859133 0.427158 -0.281828 0.889404 0.349609
-42.884003 41.986618 26.621815 0.859133 0.427158 -0.281828 0.888916 0.340820
-42.884003 41.986618 26.621815 0.748259 -0.001619 0.663405 0.888916 0.340820
-43.871990 44.713348 27.742826 0.748259 -0.001619 0.663405 0.889404 0.349609
-45.134422 38.743195 29.152166 0.748259 -0.001619 0.663405 0.864990 0.339600
-45.134422 38.743195 29.152166 0.849501 -0.055787 0.524630 0.864990 0.339600
-43.871990 44.713348 27.742826 0.849501 -0.055787 0.524630 0.889404 0.349609
-45.738194 40.312294 30.296667 0.849501 -0.055787 0.524630 0.864258 0.347656
-45.134422 38.743195 29.152166 0.236074 -0.511710 0.826088 0.864990 0.339600
-45.738194 40.312294 30.296667 0.236074 -0.511710 0.826088 0.864258 0.347656
-50.184139 36.780323 29.379366 0.236074 -0.511710 0.826088 0.837402 0.344727
-45.134422 38.743195 29.152166 0.339179 -0.819011 0.462794 0.864990 0.339600
-50.184139 36.780323 29.379366 0.339179 -0.819011 0.462794 0.837402 0.344727
-49.141262 36.599583 28.295189 0.339179 -0.819011 0.462794 0.842773 0.338379
-49.141262 36.599583 28.295189 -0.289510 -0.949601 -0.120176 0.976318 0.338135
-50.184139 36.780323 29.379366 -0.289510 -0.949601 -0.120176 0.980469 0.348145
-50.952576 37.642590 24.417150 -0.289510 -0.949601 -0.120176 0.955322 0.338623
-50.952576 37.642590 24.417150 -0.679853 -0.733016 -0.022093 0.955322 0.338623
-50.184139 36.780323 29.379366 -0.679853 -0.733016 -0.022093 0.980469 0.348145
-52.544334 39.110703 24.689253 -0.679853 -0.733016 -0.022093 0.956543 0.351563
-50.952576 37.642590 24.417150 -0.409010 -0.282645 -0.867654 0.955322 0.338623
-52.544334 39.110703 24.689253 -0.409010 -0.282645 -0.867654 0.956543 0.351563
-48.427715 41.183872 22.073338 -0.409010 -0.282645 -0.867654 0.931396 0.340332
-48.427715 41.183872 22.073338 -0.425246 -0.252341 -0.869189 0.931396 0.340332
-52.544334 39.110703 24.689253 -0.425246 -0.252341 -0.869189 0.956543 0.351563
-50.513470 43.864143 22.315651 -0.425246 -0.252341 -0.869189 0.933350 0.353027
3 0 1 2
3 3 4 5
3 6 7 8
3 9 10 11
3 12 13 14
3 15 16 17
3 18 19 20
3 21 22 23
3 24 25 26
3 27 28 29
3 30 31 32
3 33 34 35
3 36 37 38
3 39 40 41
3 42 43 44
3 45 46 47
3 48 49 50
3 51 52 53
3 54 55 56
3 57 58 59
3 60 61 62
3 63 64 65
3 66 67 68
3 69 70 71
3 72 73 74
3 75 76 77
3 78 79 80
3 81 82 83
3 84 85 86
3 87 88 89
3 90 91 92
3 93 94 95
3 96 97 98
3 99 100 101
3 102 103 104
3 105 106 107
3 108 109 110
3 111 112 113
3 114 115 116
3 117 118 119
3 120 121 122
3 123 124 125
3 126 127 128
3 129 130 131
3 132 133 134
3 135 136 137
3 138 139 140
3 141 142 143
3 144 145 146
3 147 148 149
3 150 151 152
3 153 154 155
3 156 157 158
3 159 160 161
3 162 163 164
3 165 166 167
3 168 169 170
3 171 172 173
3 174 175 176
3 177 178 179
3 180 181 182
3 183 184 185
3 186 187 188
3 189 190 191
3 192 193 194
3 195 196 197
3 198 199 200
3 201 202 203
3 204 205 206
3 207 208 209
3 210 211 212
3 213 214 215
3 216 217 218
3 219 220 221
3 222 223 224
3 225 226 227
3 228 229 230
3 231 232 233
3 234 235 236
3 237 238 239
3 240 241 242
3 243 244 245
3 246 247 248
3 249 250 251
3 252 253 254
3 255 256 257
3 258 259 260
3 261 262 263
3 264 265 266
3 267 268 269
3 270 271 272
3 273 274 275
3 276 277 278
3 279 280 281
3 282 283 284
3 285 286 287
3 288 289 290
3 291 292 293
3 294 295 296
3 297 298 299
3 300 301 302
3 303 304 305
3 306 307 308
3 309 310 311
3 312 313 314
3 315 316 317
3 318 319 320
3 321 322 323
3 324 325 326
3 327 328 329
3 330 331 332
3 333 334 335
3 336 337 338
3 339 340 341
3 342 343 344
3 345 346 347
3 348 349 350
3 351 352 353
3 354 355 356
3 357 358 359
3 360 361 362
3 363 364 365
3 366 367 368
3 369 370 371
3 372 373 374
3 375 376 377
3 378 379 380
3 381 382 383
3 384 385 386
3 387 388 389
3 390 391 392
3 393 394 395
3 396 397 398
3 399 400 401
3 402 403 404
3 405 406 407
3 408 409 410
3 411 412 413
3 414 415 416
3 417 418 419
3 420 421 422
3 423 424 425
3 426 427 428
3 429 430 431
3 432 433 434
3 435 436 437
3 438 439 440
3 441 442 443
3 444 445 446
3 447 448 449
3 450 451 452
3 453 454 455
3 456 457 458
3 459 460 461
3 462 463 464
3 465 466 467
3 468 469 470
3 471 472 473
3 474 475 476
3 477 478 479
3 480 481 482
3 483 484 485
3 486 487 488
3 489 490 491
3 492 493 494
3 495 496 497
3 498 499 500
3 501 502 503
3 504 505 506
3 507 508 509
3 510 511 512
3 513 514 515
