ply
format ascii 1.0
comment Created by Blender 2.91.2 - www.blender.org
element vertex 360
property float x
property float y
property float z
property float nx
property float ny
property float nz
property float s
property float t
element face 120
property list uchar uint vertex_indices
end_header
2.817183 -0.827574 5.031572 0.685255 0.416561 0.597413 0.911133 0.343262
5.287155 -0.568597 2.017845 0.685255 0.416561 0.597413 0.931396 0.340332
0.621654 3.788064 4.331564 0.685255 0.416561 0.597413 0.911865 0.352783
2.817183 -0.827574 5.031572 -0.068747 0.117546 0.990685 0.911133 0.343262
0.621654 3.788064 4.331564 -0.068747 0.117546 0.990685 0.911865 0.352783
-0.476111 -3.415442 5.110095 -0.068747 0.117546 0.990685 0.888916 0.340820
5.287155 -0.568597 2.017845 0.697219 0.450513 0.557606 0.931396 0.340332
4.024725 3.388188 0.399509 0.697219 0.450513 0.557606 0.933350 0.353027
0.621654 3.788064 4.331564 0.697219 0.450513 0.557606 0.911865 0.352783
0.621654 3.788064 4.331564 0.557986 0.721766 0.409519 0.911865 0.352783
4.024725 3.388188 0.399509 0.557986 0.721766 0.409519 0.933350 0.353027
0.676542 9.379764 -5.598449 0.557986 0.721766 0.409519 0.936768 0.383545
0.621654 3.788064 4.331564 0.323933 0.823598 0.465568 0.911865 0.352783
0.676542 9.379764 -5.598449 0.323933 0.823598 0.465568 0.936768 0.383545
-4.647618 9.414625 -1.955674 0.323933 0.823598 0.465568 0.916260 0.380615
0.621654 3.788064 4.331564 -0.340555 0.540638 0.769242 0.911865 0.352783
-4.647618 9.414625 -1.955674 -0.340555 0.540638 0.769242 0.916260 0.380615
-8.928902 4.868415 -0.655899 -0.340555 0.540638 0.769242 0.893799 0.377930
0.621654 3.788064 4.331564 -0.408545 0.325318 0.852795 0.911865 0.352783
-8.928902 4.868415 -0.655899 -0.408545 0.325318 0.852795 0.893799 0.377930
-2.891194 -0.049838 4.112733 -0.408545 0.325318 0.852795 0.889404 0.349609
0.621654 3.788064 4.331564 -0.209524 0.136572 0.968219 0.911865 0.352783
-2.891194 -0.049838 4.112733 -0.209524 0.136572 0.968219 0.889404 0.349609
-0.476111 -3.415442 5.110095 -0.209524 0.136572 0.968219 0.888916 0.340820
-0.476111 -3.415442 5.110095 -0.804862 -0.470280 0.361987 0.888916 0.340820
-2.891194 -0.049838 4.112733 -0.804862 -0.470280 0.361987 0.889404 0.349609
-1.573876 -4.853552 0.800922 -0.804862 -0.470280 0.361987 0.864990 0.339600
-1.573876 -4.853552 0.800922 -0.670445 -0.536905 0.512091 0.864990 0.339600
-2.891194 -0.049838 4.112733 -0.670445 -0.536905 0.512091 0.889404 0.349609
-2.836306 -3.813550 0.238506 -0.670445 -0.536905 0.512091 0.864258 0.347656
-1.573876 -4.853552 0.800922 -0.541080 -0.798879 -0.262725 0.864990 0.339600
-2.836306 -3.813550 0.238506 -0.541080 -0.798879 -0.262725 0.864258 0.347656
0.676542 -4.719038 -4.242827 -0.541080 -0.798879 -0.262725 0.837402 0.344727
-1.573876 -4.853552 0.800922 0.753730 -0.573451 0.321006 0.864990 0.339600
0.676542 -4.719038 -4.242827 0.753730 -0.573451 0.321006 0.837402 0.344727
0.731430 -4.041270 -3.160928 0.753730 -0.573451 0.321006 0.842773 0.338379
0.731430 -4.041270 -3.160928 0.369920 -0.795655 0.479680 0.976318 0.338135
0.676542 -4.719038 -4.242827 0.369920 -0.795655 0.479680 0.980469 0.348145
4.573607 -1.935523 -2.631098 0.369920 -0.795655 0.479680 0.955322 0.338623
4.573607 -1.935523 -2.631098 0.590763 -0.432825 -0.680927 0.955322 0.338623
0.676542 -4.719038 -4.242827 0.590763 -0.432825 -0.680927 0.980469 0.348145
4.408943 -0.509823 -3.680193 0.590763 -0.432825 -0.680927 0.956543 0.351563
4.573607 -1.935523 -2.631098 0.988331 0.002077 -0.152305 0.955322 0.338623
4.408943 -0.509823 -3.680193 0.988331 0.002077 -0.152305 0.956543 0.351563
5.287155 -0.568597 2.017845 0.988331 0.002077 -0.152305 0.931396 0.340332
5.287155 -0.568597 2.017845 0.958246 0.246366 -0.145149 0.931396 0.340332
4.408943 -0.509823 -3.680193 0.958246 0.246366 -0.145149 0.956543 0.351563
4.024725 3.388188 0.399509 0.958246 0.246366 -0.145149 0.933350 0.353027
4.024725 3.388188 0.399509 0.927698 0.309675 -0.208515 0.933350 0.353027
4.408943 -0.509823 -3.680193 0.927698 0.309675 -0.208515 0.956543 0.351563
0.676542 9.379764 -5.598449 0.927698 0.309675 -0.208515 0.936768 0.383545
0.676542 9.379764 -5.598449 0.937125 0.334134 -0.100757 0.936768 0.383545
4.408943 -0.509823 -3.680193 0.937125 0.334134 -0.100757 0.956543 0.351563
2.597631 3.320227 -7.825577 0.937125 0.334134 -0.100757 0.958740 0.381104
0.676542 9.379764 -5.598449 0.792362 0.415410 -0.446762 0.936768 0.383545
2.597631 3.320227 -7.825577 0.792362 0.415410 -0.446762 0.958740 0.381104
-1.573876 9.233585 -9.725632 0.792362 0.415410 -0.446762 0.936035 0.399170
0.676542 9.379764 -5.598449 0.168236 0.977615 -0.126359 0.936768 0.383545
-1.573876 9.233585 -9.725632 0.168236 0.977615 -0.126359 0.936035 0.399170
-6.788260 10.532846 -6.615991 0.168236 0.977615 -0.126359 0.916016 0.396973
0.676542 9.379764 -5.598449 0.126802 0.976191 0.175988 0.936768 0.383545
-6.788260 10.532846 -6.615991 0.126802 0.976191 0.175988 0.916016 0.396973
-4.647618 9.414625 -1.955674 0.126802 0.976191 0.175988 0.916260 0.380615
-4.647618 9.414625 -1.955674 -0.590419 0.680213 0.434414 0.916260 0.380615
-6.788260 10.532846 -6.615991 -0.590419 0.680213 0.434414 0.916016 0.396973
-8.928902 4.868415 -0.655899 -0.590419 0.680213 0.434414 0.893799 0.377930
-8.928902 4.868415 -0.655899 -0.608215 0.672890 0.421062 0.893799 0.377930
-6.788260 10.532846 -6.615991 -0.608215 0.672890 0.421062 0.916016 0.396973
-10.795102 5.957362 -5.091807 -0.608215 0.672890 0.421062 0.896729 0.394531
-8.928902 4.868415 -0.655899 -0.911947 -0.255700 0.320889 0.893799 0.377930
-10.795102 5.957362 -5.091807 -0.911947 -0.255700 0.320889 0.896729 0.394531
-9.477784 -0.869545 -6.788072 -0.911947 -0.255700 0.320889 0.868408 0.392822
-8.928902 4.868415 -0.655899 -0.871129 -0.317243 0.374822 0.893799 0.377930
-9.477784 -0.869545 -6.788072 -0.871129 -0.317243 0.374822 0.868408 0.392822
-7.721360 -1.264570 -3.040286 -0.871129 -0.317243 0.374822 0.866455 0.374268
-8.928902 4.868415 -0.655899 -0.644286 -0.383994 0.661396 0.893799 0.377930
-7.721360 -1.264570 -3.040286 -0.644286 -0.383994 0.661396 0.866455 0.374268
-2.836306 -3.813550 0.238506 -0.644286 -0.383994 0.661396 0.864258 0.347656
-8.928902 4.868415 -0.655899 -0.750191 -0.479550 0.455242 0.893799 0.377930
-2.836306 -3.813550 0.238506 -0.750191 -0.479550 0.455242 0.864258 0.347656
-2.891194 -0.049838 4.112733 -0.750191 -0.479550 0.455242 0.889404 0.349609
2.597631 3.320227 -7.825577 0.598280 -0.441091 -0.668954 0.958740 0.381104
4.408943 -0.509823 -3.680193 0.598280 -0.441091 -0.668954 0.956543 0.351563
0.676542 -4.719038 -4.242827 0.598280 -0.441091 -0.668954 0.980469 0.348145
2.597631 3.320227 -7.825577 0.540919 -0.446821 -0.712571 0.958740 0.381104
0.676542 -4.719038 -4.242827 0.540919 -0.446821 -0.712571 0.980469 0.348145
-1.573876 -2.224571 -7.515308 0.540919 -0.446821 -0.712571 0.986084 0.378906
2.597631 3.320227 -7.825577 0.748038 -0.580744 -0.321209 0.958740 0.381104
-1.573876 -2.224571 -7.515308 0.748038 -0.580744 -0.321209 0.986084 0.378906
1.170536 3.413353 -11.317401 0.748038 -0.580744 -0.321209 0.959473 0.396973
2.597631 3.320227 -7.825577 0.819237 0.474404 -0.322167 0.958740 0.381104
1.170536 3.413353 -11.317401 0.819237 0.474404 -0.322167 0.959473 0.396973
-1.573876 9.233585 -9.725632 0.819237 0.474404 -0.322167 0.936035 0.399170
-1.573876 9.233585 -9.725632 0.735662 0.478108 -0.479806 0.936035 0.399170
1.170536 3.413353 -11.317401 0.735662 0.478108 -0.479806 0.959473 0.396973
-6.568710 6.232915 -20.373999 0.735662 0.478108 -0.479806 0.936768 0.447998
-1.573876 9.233585 -9.725632 0.060407 0.953000 -0.296887 0.936035 0.399170
-6.568710 6.232915 -20.373999 0.060407 0.953000 -0.296887 0.936768 0.447998
-6.788260 10.532846 -6.615991 0.060407 0.953000 -0.296887 0.916016 0.396973
-6.788260 10.532846 -6.615991 -0.044867 0.953304 -0.298662 0.916016 0.396973
-6.568710 6.232915 -20.373999 -0.044867 0.953304 -0.298662 0.936768 0.447998
-10.575552 6.518673 -18.859943 -0.044867 0.953304 -0.298662 0.911865 0.449219
-6.788260 10.532846 -6.615991 -0.688536 0.724784 -0.024643 0.916016 0.396973
-10.575552 6.518673 -18.859943 -0.688536 0.724784 -0.024643 0.911865 0.449219
-13.429741 3.851541 -17.556644 -0.688536 0.724784 -0.024643 0.887695 0.446289
-6.788260 10.532846 -6.615991 -0.744133 0.666536 0.044679 0.916016 0.396973
-13.429741 3.851541 -17.556644 -0.744133 0.666536 0.044679 0.887695 0.446289
-10.795102 5.957362 -5.091807 -0.744133 0.666536 0.044679 0.896729 0.394531
-10.795102 5.957362 -5.091807 -0.940511 -0.240990 0.239505 0.896729 0.394531
-13.429741 3.851541 -17.556644 -0.940511 -0.240990 0.239505 0.887695 0.446289
-9.477784 -0.869545 -6.788072 -0.940511 -0.240990 0.239505 0.868408 0.392822
-9.477784 -0.869545 -6.788072 -0.934082 -0.281821 0.219245 0.868408 0.392822
-13.429741 3.851541 -17.556644 -0.934082 -0.281821 0.219245 0.887695 0.446289
-12.277088 -0.284233 -17.962015 -0.934082 -0.281821 0.219245 0.866455 0.442383
-9.477784 -0.869545 -6.788072 -0.163071 -0.986555 -0.010825 0.868408 0.392822
-12.277088 -0.284233 -17.962015 -0.163071 -0.986555 -0.010825 0.866455 0.442383
-3.220524 -1.866900 -10.153678 -0.163071 -0.986555 -0.010825 0.837158 0.392578
-9.477784 -0.869545 -6.788072 -0.170017 -0.985145 -0.024157 0.868408 0.392822
-3.220524 -1.866900 -10.153678 -0.170017 -0.985145 -0.024157 0.837158 0.392578
-7.721360 -1.264570 -3.040286 -0.170017 -0.985145 -0.024157 0.866455 0.374268
-7.721360 -1.264570 -3.040286 -0.172546 -0.984664 -0.025798 0.866455 0.374268
-3.220524 -1.866900 -10.153678 -0.172546 -0.984664 -0.025798 0.837158 0.392578
-1.573876 -2.224571 -7.515308 -0.172546 -0.984664 -0.025798 0.833252 0.374512
-7.721360 -1.264570 -3.040286 -0.398343 -0.840670 -0.366873 0.866455 0.374268
-1.573876 -2.224571 -7.515308 -0.398343 -0.840670 -0.366873 0.833252 0.374512
0.676542 -4.719038 -4.242827 -0.398343 -0.840670 -0.366873 0.837402 0.344727
-7.721360 -1.264570 -3.040286 -0.392590 -0.911371 -0.123595 0.866455 0.374268
0.676542 -4.719038 -4.242827 -0.392590 -0.911371 -0.123595 0.837402 0.344727
-2.836306 -3.813550 0.238506 -0.392590 -0.911371 -0.123595 0.864258 0.347656
-1.573876 -2.224571 -7.515308 0.623189 -0.622564 -0.473340 0.986084 0.378906
-3.220524 -1.866900 -10.153678 0.623189 -0.622564 -0.473340 0.987549 0.397949
1.170536 3.413353 -11.317401 0.623189 -0.622564 -0.473340 0.959473 0.396973
1.170536 3.413353 -11.317401 0.669874 -0.640015 -0.376365 0.959473 0.396973
-3.220524 -1.866900 -10.153678 0.669874 -0.640015 -0.376365 0.987549 0.397949
-5.416057 2.187258 -20.955564 0.669874 -0.640015 -0.376365 0.960693 0.446533
1.170536 3.413353 -11.317401 0.769307 0.300250 -0.563930 0.959473 0.396973
-5.416057 2.187258 -20.955564 0.769307 0.300250 -0.563930 0.960693 0.446533
-6.568710 6.232915 -20.373999 0.769307 0.300250 -0.563930 0.936768 0.447998
-6.568710 6.232915 -20.373999 0.846830 0.304007 -0.436416 0.936768 0.447998
-5.416057 2.187258 -20.955564 0.846830 0.304007 -0.436416 0.960693 0.446533
-11.618429 2.174568 -32.999622 0.846830 0.304007 -0.436416 0.953125 0.503906
-6.568710 6.232915 -20.373999 0.856114 0.282010 -0.433058 0.936768 0.447998
-11.618429 2.174568 -32.999622 0.856114 0.282010 -0.433058 0.953125 0.503906
-12.386865 5.091866 -32.618984 0.856114 0.282010 -0.433058 0.931641 0.504150
-6.568710 6.232915 -20.373999 -0.037610 0.996475 -0.074986 0.936768 0.447998
-12.386865 5.091866 -32.618984 -0.037610 0.996475 -0.074986 0.931641 0.504150
-15.295941 5.086071 -31.236940 -0.037610 0.996475 -0.074986 0.906982 0.503906
-6.568710 6.232915 -20.373999 0.023914 0.992001 -0.123942 0.936768 0.447998
-15.295941 5.086071 -31.236940 0.023914 0.992001 -0.123942 0.906982 0.503906
-10.575552 6.518673 -18.859943 0.023914 0.992001 -0.123942 0.911865 0.449219
-10.575552 6.518673 -18.859943 -0.635811 0.756128 0.154968 0.911865 0.449219
-15.295941 5.086071 -31.236940 -0.635811 0.756128 0.154968 0.906982 0.503906
-13.429741 3.851541 -17.556644 -0.635811 0.756128 0.154968 0.887695 0.446289
-13.429741 3.851541 -17.556644 -0.559010 0.815508 0.149850 0.887695 0.446289
-15.295941 5.086071 -31.236940 -0.559010 0.815508 0.149850 0.906982 0.503906
-17.711021 3.259763 -30.307245 -0.559010 0.815508 0.149850 0.882080 0.502441
-13.429741 3.851541 -17.556644 -0.905097 -0.283330 0.317055 0.887695 0.446289
-17.711021 3.259763 -30.307245 -0.905097 -0.283330 0.317055 0.882080 0.502441
-12.277088 -0.284233 -17.962015 -0.905097 -0.283330 0.317055 0.866455 0.442383
-12.277088 -0.284233 -17.962015 -0.915243 -0.213848 0.341467 0.866455 0.442383
-17.711021 3.259763 -30.307245 -0.915243 -0.213848 0.341467 0.882080 0.502441
-17.107250 0.185197 -30.614424 -0.915243 -0.213848 0.341467 0.860840 0.500488
-12.277088 -0.284233 -17.962015 -0.087956 -0.996119 -0.003380 0.866455 0.442383
-17.107250 0.185197 -30.614424 -0.087956 -0.996119 -0.003380 0.860840 0.500488
-14.033512 -0.081626 -31.964907 -0.087956 -0.996119 -0.003380 0.843018 0.498535
-12.277088 -0.284233 -17.962015 -0.120462 -0.992718 0.000746 0.866455 0.442383
-14.033512 -0.081626 -31.964907 -0.120462 -0.992718 0.000746 0.843018 0.498535
-8.325134 -0.765115 -19.729759 -0.120462 -0.992718 0.000746 0.846924 0.440430
-12.277088 -0.284233 -17.962015 -0.138353 -0.989571 -0.040106 0.866455 0.442383
-8.325134 -0.765115 -19.729759 -0.138353 -0.989571 -0.040106 0.846924 0.440430
-3.220524 -1.866900 -10.153678 -0.138353 -0.989571 -0.040106 0.837158 0.392578
-3.220524 -1.866900 -10.153678 0.571045 -0.723623 -0.387657 0.987549 0.397949
-8.325134 -0.765115 -19.729759 0.571045 -0.723623 -0.387657 0.983154 0.446777
-5.416057 2.187258 -20.955564 0.571045 -0.723623 -0.387657 0.960693 0.446533
-5.416057 2.187258 -20.955564 0.608513 -0.729379 -0.312600 0.960693 0.446533
-8.325134 -0.765115 -19.729759 0.608513 -0.729379 -0.312600 0.983154 0.446777
-11.618429 2.174568 -32.999622 0.608513 -0.729379 -0.312600 0.953125 0.503906
-11.618429 2.174568 -32.999622 0.574546 -0.757344 -0.310365 0.953125 0.503906
-8.325134 -0.765115 -19.729759 0.574546 -0.757344 -0.310365 0.983154 0.446777
-14.033512 -0.081626 -31.964907 0.574546 -0.757344 -0.310365 0.972412 0.504639
-11.618429 2.174568 -32.999622 0.602936 -0.758625 -0.246894 0.953125 0.503906
-14.033512 -0.081626 -31.964907 0.602936 -0.758625 -0.246894 0.972412 0.504639
-22.211864 -0.482595 -50.705097 0.602936 -0.758625 -0.246894 0.965820 0.591309
-11.618429 2.174568 -32.999622 0.645106 -0.711242 -0.279236 0.953125 0.503906
-22.211864 -0.482595 -50.705097 0.645106 -0.711242 -0.279236 0.965820 0.591309
-19.028345 2.905977 -51.981396 0.645106 -0.711242 -0.279236 0.945801 0.590332
-11.618429 2.174568 -32.999622 0.903018 0.259303 -0.342520 0.953125 0.503906
-19.028345 2.905977 -51.981396 0.903018 0.259303 -0.342520 0.945801 0.590332
-20.071222 7.765456 -51.051987 0.903018 0.259303 -0.342520 0.922852 0.588867
-11.618429 2.174568 -32.999622 0.899698 0.280613 -0.334365 0.953125 0.503906
-20.071222 7.765456 -51.051987 0.899698 0.280613 -0.334365 0.922852 0.588867
-12.386865 5.091866 -32.618984 0.899698 0.280613 -0.334365 0.931641 0.504150
-12.386865 5.091866 -32.618984 0.055359 0.991147 0.120682 0.931641 0.504150
-20.071222 7.765456 -51.051987 0.055359 0.991147 0.120682 0.922852 0.588867
-15.295941 5.086071 -31.236940 0.055359 0.991147 0.120682 0.906982 0.503906
-15.295941 5.086071 -31.236940 0.278109 0.958508 0.062587 0.906982 0.503906
-20.071222 7.765456 -51.051987 0.278109 0.958508 0.062587 0.922852 0.588867
-24.297617 8.848388 -48.856640 0.278109 0.958508 0.062587 0.898193 0.587646
-15.295941 5.086071 -31.236940 -0.565134 0.699126 0.438003 0.906982 0.503906
-24.297617 8.848388 -48.856640 -0.565134 0.699126 0.438003 0.898193 0.587646
-27.700689 5.434569 -47.798439 -0.565134 0.699126 0.438003 0.873779 0.587646
-15.295941 5.086071 -31.236940 -0.467151 0.804491 0.366830 0.906982 0.503906
-27.700689 5.434569 -47.798439 -0.467151 0.804491 0.366830 0.873779 0.587646
-17.711021 3.259763 -30.307245 -0.467151 0.804491 0.366830 0.882080 0.502441
-17.711021 3.259763 -30.307245 -0.852840 -0.255692 0.455286 0.882080 0.502441
-27.700689 5.434569 -47.798439 -0.852840 -0.255692 0.455286 0.873779 0.587646
-26.712700 0.581401 -48.673321 -0.852840 -0.255692 0.455286 0.849121 0.587158
-17.711021 3.259763 -30.307245 -0.864152 -0.215150 0.454919 0.882080 0.502441
-26.712700 0.581401 -48.673321 -0.864152 -0.215150 0.454919 0.849121 0.587158
-17.107250 0.185197 -30.614424 -0.864152 -0.215150 0.454919 0.860840 0.500488
-17.107250 0.185197 -30.614424 -0.077924 -0.996767 0.019579 0.860840 0.500488
-26.712700 0.581401 -48.673321 -0.077924 -0.996767 0.019579 0.849121 0.587158
-14.033512 -0.081626 -31.964907 -0.077924 -0.996767 0.019579 0.843018 0.498535
-14.033512 -0.081626 -31.964907 -0.185149 -0.977433 0.101714 0.843018 0.498535
-26.712700 0.581401 -48.673321 -0.185149 -0.977433 0.101714 0.849121 0.587158
-22.211864 -0.482595 -50.705097 -0.185149 -0.977433 0.101714 0.824707 0.584961
-22.211864 -0.482595 -50.705097 -0.219385 -0.975324 0.024769 0.824707 0.584961
-26.712700 0.581401 -48.673321 -0.219385 -0.975324 0.024769 0.849121 0.587158
-31.268425 1.428249 -55.678177 -0.219385 -0.975324 0.024769 0.846924 0.623047
-22.211864 -0.482595 -50.705097 -0.231622 -0.971597 0.048486 0.824707 0.584961
-31.268425 1.428249 -55.678177 -0.231622 -0.971597 0.048486 0.846924 0.623047
-25.560047 -0.042658 -57.883881 -0.231622 -0.971597 0.048486 0.820068 0.627197
-22.211864 -0.482595 -50.705097 0.621285 -0.709199 -0.333229 0.965820 0.591309
-25.560047 -0.042658 -57.883881 0.621285 -0.709199 -0.333229 0.967529 0.628174
-19.028345 2.905977 -51.981396 0.621285 -0.709199 -0.333229 0.945801 0.590332
-19.028345 2.905977 -51.981396 0.651389 -0.645867 -0.398180 0.945801 0.590332
-25.560047 -0.042658 -57.883881 0.651389 -0.645867 -0.398180 0.967529 0.628174
-21.827646 5.111382 -60.138088 0.651389 -0.645867 -0.398180 0.938721 0.627686
-19.028345 2.905977 -51.981396 0.908409 0.358699 -0.214773 0.945801 0.590332
-21.827646 5.111382 -60.138088 0.908409 0.358699 -0.214773 0.938721 0.627686
-23.693848 10.211923 -59.512859 0.908409 0.358699 -0.214773 0.917236 0.625244
-19.028345 2.905977 -51.981396 0.913140 0.256554 -0.316789 0.945801 0.590332
-23.693848 10.211923 -59.512859 0.913140 0.256554 -0.316789 0.917236 0.625244
-20.071222 7.765456 -51.051987 0.913140 0.256554 -0.316789 0.922852 0.588867
-20.071222 7.765456 -51.051987 0.290301 0.945260 0.149027 0.922852 0.588867
-23.693848 10.211923 -59.512859 0.290301 0.945260 0.149027 0.917236 0.625244
-29.072895 11.548544 -57.512634 0.290301 0.945260 0.149027 0.894775 0.624512
-20.071222 7.765456 -51.051987 0.306746 0.943534 0.125103 0.922852 0.588867
-29.072895 11.548544 -57.512634 0.306746 0.943534 0.125103 0.894775 0.624512
-24.297617 8.848388 -48.856640 0.306746 0.943534 0.125103 0.898193 0.587646
-24.297617 8.848388 -48.856640 -0.528259 0.682971 0.504473 0.898193 0.587646
-29.072895 11.548544 -57.512634 -0.528259 0.682971 0.504473 0.894775 0.624512
-27.700689 5.434569 -47.798439 -0.528259 0.682971 0.504473 0.873779 0.587646
-27.700689 5.434569 -47.798439 -0.483590 0.708372 0.514150 0.873779 0.587646
-29.072895 11.548544 -57.512634 -0.483590 0.708372 0.514150 0.894775 0.624512
-32.915073 7.327724 -55.311188 -0.483590 0.708372 0.514150 0.871338 0.623535
-27.700689 5.434569 -47.798439 -0.822600 -0.261027 0.505167 0.873779 0.587646
-32.915073 7.327724 -55.311188 -0.822600 -0.261027 0.505167 0.871338 0.623535
-31.268425 1.428249 -55.678177 -0.822600 -0.261027 0.505167 0.846924 0.623047
-27.700689 5.434569 -47.798439 -0.823771 -0.258644 0.504485 0.873779 0.587646
-31.268425 1.428249 -55.678177 -0.823771 -0.258644 0.504485 0.846924 0.623047
-26.712700 0.581401 -48.673321 -0.823771 -0.258644 0.504485 0.849121 0.587158
-25.285606 9.569230 -62.201195 0.768288 0.347036 -0.537867 0.916016 0.635254
-23.693848 10.211923 -59.512859 0.768288 0.347036 -0.537867 0.917236 0.625244
-21.827646 5.111382 -60.138088 0.768288 0.347036 -0.537867 0.938721 0.627686
-25.285606 9.569230 -62.201195 0.720789 0.262150 -0.641670 0.916016 0.635254
-21.827646 5.111382 -60.138088 0.720789 0.262150 -0.641670 0.938721 0.627686
-23.309629 4.387155 -62.098682 0.720789 0.262150 -0.641670 0.939209 0.639404
-25.285606 9.569230 -62.201195 0.863788 0.321700 -0.387788 0.916016 0.635254
-23.309629 4.387155 -62.098682 0.863788 0.321700 -0.387788 0.939209 0.639404
-24.572060 5.432953 -64.043144 0.863788 0.321700 -0.387788 0.915283 0.646973
-25.285606 9.569230 -62.201195 -0.159635 0.378475 -0.911742 0.916016 0.635254
-24.572060 5.432953 -64.043144 -0.159635 0.378475 -0.911742 0.915283 0.646973
-30.445101 10.781898 -60.794437 -0.159635 0.378475 -0.911742 0.893799 0.634521
-25.285606 9.569230 -62.201195 0.137731 0.941788 -0.306701 0.916016 0.635254
-30.445101 10.781898 -60.794437 0.137731 0.941788 -0.306701 0.893799 0.634521
-23.693848 10.211923 -59.512859 0.137731 0.941788 -0.306701 0.917236 0.625244
-23.693848 10.211923 -59.512859 0.133068 0.951355 -0.277880 0.917236 0.625244
-30.445101 10.781898 -60.794437 0.133068 0.951355 -0.277880 0.893799 0.634521
-29.072895 11.548544 -57.512634 0.133068 0.951355 -0.277880 0.894775 0.624512
-29.072895 11.548544 -57.512634 -0.665238 0.739142 0.105486 0.894775 0.624512
-30.445101 10.781898 -60.794437 -0.665238 0.739142 0.105486 0.893799 0.634521
-34.067726 7.186088 -58.444313 -0.665238 0.739142 0.105486 0.872559 0.632813
-29.072895 11.548544 -57.512634 -0.664990 0.716050 0.212275 0.894775 0.624512
-34.067726 7.186088 -58.444313 -0.664990 0.716050 0.212275 0.872559 0.632813
-32.915073 7.327724 -55.311188 -0.664990 0.716050 0.212275 0.871338 0.623535
-32.915073 7.327724 -55.311188 -0.898996 -0.272265 0.343042 0.871338 0.623535
-34.067726 7.186088 -58.444313 -0.898996 -0.272265 0.343042 0.872559 0.632813
-31.268425 1.428249 -55.678177 -0.898996 -0.272265 0.343042 0.846924 0.623047
-31.268425 1.428249 -55.678177 -0.907818 -0.416041 0.052695 0.846924 0.623047
-34.067726 7.186088 -58.444313 -0.907818 -0.416041 0.052695 0.872559 0.632813
-31.433090 1.465087 -58.224163 -0.907818 -0.416041 0.052695 0.846436 0.635986
-31.268425 1.428249 -55.678177 -0.296975 -0.954870 0.005391 0.846924 0.623047
-31.433090 1.465087 -58.224163 -0.296975 -0.954870 0.005391 0.846436 0.635986
-26.273594 -0.148187 -59.750320 -0.296975 -0.954870 0.005391 0.822510 0.641846
-31.268425 1.428249 -55.678177 -0.199531 -0.971070 0.131186 0.846924 0.623047
-26.273594 -0.148187 -59.750320 -0.199531 -0.971070 0.131186 0.822510 0.641846
-25.560047 -0.042658 -57.883881 -0.199531 -0.971070 0.131186 0.820068 0.627197
-25.560047 -0.042658 -57.883881 0.745990 -0.617128 -0.250302 0.967529 0.628174
-26.273594 -0.148187 -59.750320 0.745990 -0.617128 -0.250302 0.965576 0.639893
-23.309629 4.387155 -62.098682 0.745990 -0.617128 -0.250302 0.939209 0.639404
-25.560047 -0.042658 -57.883881 0.706867 -0.641879 -0.297205 0.967529 0.628174
-23.309629 4.387155 -62.098682 0.706867 -0.641879 -0.297205 0.939209 0.639404
-21.827646 5.111382 -60.138088 0.706867 -0.641879 -0.297205 0.938721 0.627686
-24.572060 5.432953 -64.043144 0.142774 0.623582 -0.768610 0.915283 0.646973
-28.469124 4.425755 -65.584198 0.142774 0.623582 -0.768610 0.893066 0.646729
-30.445101 10.781898 -60.794437 0.142774 0.623582 -0.768610 0.893799 0.634521
-30.445101 10.781898 -60.794437 -0.701190 0.277062 -0.656939 0.893799 0.634521
-28.469124 4.425755 -65.584198 -0.701190 0.277062 -0.656939 0.893066 0.646729
-34.067726 7.186088 -58.444313 -0.701190 0.277062 -0.656939 0.872559 0.632813
-34.067726 7.186088 -58.444313 -0.743590 0.166706 -0.647521 0.872559 0.632813
-28.469124 4.425755 -65.584198 -0.743590 0.166706 -0.647521 0.893066 0.646729
-31.048872 1.817692 -63.293159 -0.743590 0.166706 -0.647521 0.870850 0.646484
-34.067726 7.186088 -58.444313 -0.902544 -0.419395 -0.097584 0.872559 0.632813
-31.048872 1.817692 -63.293159 -0.902544 -0.419395 -0.097584 0.870850 0.646484
-31.433090 1.465087 -58.224163 -0.902544 -0.419395 -0.097584 0.846436 0.635986
-31.433090 1.465087 -58.224163 -0.881781 -0.461170 -0.098917 0.846436 0.635986
-31.048872 1.817692 -63.293159 -0.881781 -0.461170 -0.098917 0.870850 0.646484
-30.280437 -0.527581 -59.209118 -0.881781 -0.461170 -0.098917 0.848389 0.649414
-31.433090 1.465087 -58.224163 0.158371 -0.362384 0.918475 0.846436 0.635986
-30.280437 -0.527581 -59.209118 0.158371 -0.362384 0.918475 0.848389 0.649414
-26.273594 -0.148187 -59.750320 0.158371 -0.362384 0.918475 0.822510 0.641846
-9.038678 15.153169 -23.506174 -0.454790 -0.245514 -0.856089 0.647461 0.927246
-7.172481 3.864888 -21.260258 -0.454790 -0.245514 -0.856089 0.468262 0.924561
-8.215358 3.873477 -20.708702 -0.454790 -0.245514 -0.856089 0.468262 0.910889
-9.038678 15.153169 -23.506174 -0.868401 0.058727 0.492373 0.647461 0.927246
-8.215358 3.873477 -20.708702 -0.868401 0.058727 0.492373 0.468262 0.910889
-7.776252 4.125399 -19.964296 -0.868401 0.058727 0.492373 0.468262 0.924316
-9.038678 15.153169 -23.506174 0.360381 0.322390 0.875323 0.647461 0.927246
-7.776252 4.125399 -19.964296 0.360381 0.322390 0.875323 0.468262 0.924316
-6.843152 4.135751 -20.352278 0.360381 0.322390 0.875323 0.467773 0.941650
-9.038678 15.153169 -23.506174 0.928874 0.081684 -0.361275 0.647461 0.927246
-6.843152 4.135751 -20.352278 0.928874 0.081684 -0.361275 0.467773 0.941650
-7.172481 3.864888 -21.260258 0.928874 0.081684 -0.361275 0.468262 0.924561
-23.035181 3.630353 -26.150776 0.034362 0.778825 -0.626299 0.677246 0.969238
-14.637282 1.949936 -27.779678 0.034362 0.778825 -0.626299 0.470459 0.987061
-15.241054 1.364558 -28.540743 0.034362 0.778825 -0.626299 0.469971 0.968750
-23.035181 3.630353 -26.150776 -0.389147 -0.647353 -0.655361 0.677246 0.969238
-15.241054 1.364558 -28.540743 -0.389147 -0.647353 -0.655361 0.469971 0.968750
-15.405718 0.779688 -27.865244 -0.389147 -0.647353 -0.655361 0.470459 0.950928
-23.035181 3.630353 -26.150776 -0.179497 -0.813285 0.553488 0.677246 0.969238
-15.405718 0.779688 -27.865244 -0.179497 -0.813285 0.553488 0.470459 0.950928
-14.911724 1.201494 -27.085247 -0.179497 -0.813285 0.553488 0.470703 0.963623
-23.035181 3.630353 -26.150776 0.266431 0.601264 0.753323 0.677246 0.969238
-14.911724 1.201494 -27.085247 0.266431 0.601264 0.753323 0.470703 0.963623
-14.637282 1.949936 -27.779678 0.266431 0.601264 0.753323 0.470459 0.987061
-23.803623 11.550675 -39.831375 -0.102114 -0.129394 -0.986321 0.677246 0.969238
-17.546364 5.380853 -39.669785 -0.102114 -0.129394 -0.986321 0.470459 0.987061
-18.534351 4.848225 -39.497623 -0.102114 -0.129394 -0.986321 0.469971 0.968750
-23.803623 11.550675 -39.831375 -0.762697 -0.585980 0.273716 0.677246 0.969238
-18.534351 4.848225 -39.497623 -0.762697 -0.585980 0.273716 0.469971 0.968750
-18.534351 5.215518 -38.711311 -0.762697 -0.585980 0.273716 0.470459 0.950928
-23.803623 11.550675 -39.831375 -0.107874 0.085396 0.990490 0.677246 0.969238
-18.534351 5.215518 -38.711311 -0.107874 0.085396 0.990490 0.470459 0.950928
-17.656139 5.718859 -38.659061 -0.107874 0.085396 0.990490 0.470703 0.963623
-23.803623 11.550675 -39.831375 0.695271 0.700962 -0.158902 0.677246 0.969238
-17.656139 5.718859 -38.659061 0.695271 0.700962 -0.158902 0.470703 0.963623
-17.546364 5.380853 -39.669785 0.695271 0.700962 -0.158902 0.470459 0.987061
-11.673317 10.835546 -39.803856 -0.143607 0.332374 -0.932150 0.677246 0.969238
-16.448591 3.662567 -41.625828 -0.143607 0.332374 -0.932150 0.470459 0.987061
-17.162146 4.482701 -41.223465 -0.143607 0.332374 -0.932150 0.469971 0.968750
-11.673317 10.835546 -39.803856 -0.729452 0.534995 0.426240 0.677246 0.969238
-17.162146 4.482701 -41.223465 -0.729452 0.534995 0.426240 0.469971 0.968750
-16.832809 4.298438 -40.428574 -0.729452 0.534995 0.426240 0.470459 0.950928
-11.673317 10.835546 -39.803856 0.107072 -0.177989 0.978190 0.677246 0.969238
-16.832809 4.298438 -40.428574 0.107072 -0.177989 0.978190 0.470459 0.950928
-16.174150 3.612590 -40.625465 0.107072 -0.177989 0.978190 0.470703 0.963623
-11.673317 10.835546 -39.803856 0.833714 -0.490706 -0.253237 0.677246 0.969238
-16.174150 3.612590 -40.625465 0.833714 -0.490706 -0.253237 0.470703 0.963623
-16.448591 3.662567 -41.625828 0.833714 -0.490706 -0.253237 0.470459 0.987061
3 0 1 2
3 3 4 5
3 6 7 8
3 9 10 11
3 12 13 14
3 15 16 17
3 18 19 20
3 21 22 23
3 24 25 26
3 27 28 29
3 30 31 32
3 33 34 35
3 36 37 38
3 39 40 41
3 42 43 44
3 45 46 47
3 48 49 50
3 51 52 53
3 54 55 56
3 57 58 59
3 60 61 62
3 63 64 65
3 66 67 68
3 69 70 71
3 72 73 74
3 75 76 77
3 78 79 80
3 81 82 83
3 84 85 86
3 87 88 89
3 90 91 92
3 93 94 95
3 96 97 98
3 99 100 101
3 102 103 104
3 105 106 107
3 108 109 110
3 111 112 113
3 114 115 116
3 117 118 119
3 120 121 122
3 123 124 125
3 126 127 128
3 129 130 131
3 132 133 134
3 135 136 137
3 138 139 140
3 141 142 143
3 144 145 146
3 147 148 149
3 150 151 152
3 153 154 155
3 156 157 158
3 159 160 161
3 162 163 164
3 165 166 167
3 168 169 170
3 171 172 173
3 174 175 176
3 177 178 179
3 180 181 182
3 183 184 185
3 186 187 188
3 189 190 191
3 192 193 194
3 195 196 197
3 198 199 200
3 201 202 203
3 204 205 206
3 207 208 209
3 210 211 212
3 213 214 215
3 216 217 218
3 219 220 221
3 222 223 224
3 225 226 227
3 228 229 230
3 231 232 233
3 234 235 236
3 237 238 239
3 240 241 242
3 243 244 245
3 246 247 248
3 249 250 251
3 252 253 254
3 255 256 257
3 258 259 260
3 261 262 263
3 264 265 266
3 267 268 269
3 270 271 272
3 273 274 275
3 276 277 278
3 279 280 281
3 282 283 284
3 285 286 287
3 288 289 290
3 291 292 293
3 294 295 296
3 297 298 299
3 300 301 302
3 303 304 305
3 306 307 308
3 309 310 311
3 312 313 314
3 315 316 317
3 318 319 320
3 321 322 323
3 324 325 326
3 327 328 329
3 330 331 332
3 333 334 335
3 336 337 338
3 339 340 341
3 342 343 344
3 345 346 347
3 348 349 350
3 351 352 353
3 354 355 356
3 357 358 359
