ply
format ascii 1.0
comment Created by Blender 2.91.2 - www.blender.org
element vertex 408
property float x
property float y
property float z
property float nx
property float ny
property float nz
property float s
property float t
element face 136
property list uchar uint vertex_indices
end_header
2.142576 1.869843 -4.469091 -0.184597 0.772154 -0.608031 0.908936 0.038818
-2.358260 2.638248 -2.126826 -0.184597 0.772154 -0.608031 0.896973 0.026367
0.989923 4.767479 -0.439362 -0.184597 0.772154 -0.608031 0.886475 0.041259
2.142576 1.869843 -4.469091 0.159109 0.822562 -0.545964 0.908936 0.038818
0.989923 4.767479 -0.439362 0.159109 0.822562 -0.545964 0.886475 0.041259
8.619390 2.000611 -2.384550 0.159109 0.822562 -0.545964 0.907959 0.055175
2.142576 1.869843 -4.469091 0.306528 -0.109644 -0.945526 0.908936 0.038818
8.619390 2.000611 -2.384550 0.306528 -0.109644 -0.945526 0.907959 0.055175
10.320926 -2.352740 -1.328115 0.306528 -0.109644 -0.945526 0.921387 0.053710
2.142576 1.869843 -4.469091 0.385900 0.062772 -0.920403 0.908936 0.038818
10.320926 -2.352740 -1.328115 0.385900 0.062772 -0.920403 0.921387 0.053710
2.087688 -2.811170 -4.811353 0.385900 0.062772 -0.920403 0.922119 0.037841
2.142576 1.869843 -4.469091 -0.056801 0.073467 -0.995679 0.908936 0.038818
2.087688 -2.811170 -4.811353 -0.056801 0.073467 -0.995679 0.922119 0.037841
-4.169572 -1.487691 -4.356740 -0.056801 0.073467 -0.995679 0.905762 0.021240
2.142576 1.869843 -4.469091 -0.308174 0.553475 -0.773753 0.908936 0.038818
-4.169572 -1.487691 -4.356740 -0.308174 0.553475 -0.773753 0.905762 0.021240
-2.358260 2.638248 -2.126826 -0.308174 0.553475 -0.773753 0.896973 0.026367
-2.358260 2.638248 -2.126826 -0.571380 0.569969 -0.590475 0.896973 0.026367
-4.169572 -1.487691 -4.356740 -0.571380 0.569969 -0.590475 0.905762 0.021240
-4.828231 3.136303 0.744026 -0.571380 0.569969 -0.590475 0.877197 0.029541
-2.358260 2.638248 -2.126826 -0.137704 0.949142 -0.283139 0.896973 0.026367
-4.828231 3.136303 0.744026 -0.137704 0.949142 -0.283139 0.877197 0.029541
-0.162729 4.603173 3.392230 -0.137704 0.949142 -0.283139 0.871582 0.042724
-2.358260 2.638248 -2.126826 -0.492768 0.863022 -0.111231 0.896973 0.026367
-0.162729 4.603173 3.392230 -0.492768 0.863022 -0.111231 0.871582 0.042724
0.989923 4.767479 -0.439362 -0.492768 0.863022 -0.111231 0.886475 0.041259
0.989923 4.767479 -0.439362 -0.205224 0.978515 -0.019776 0.886475 0.041259
-0.162729 4.603173 3.392230 -0.205224 0.978515 -0.019776 0.871582 0.042724
6.698301 5.984183 0.524900 -0.205224 0.978515 -0.019776 0.885254 0.057617
0.989923 4.767479 -0.439362 0.009674 0.592813 -0.805282 0.886475 0.041259
6.698301 5.984183 0.524900 0.009674 0.592813 -0.805282 0.885254 0.057617
8.619390 2.000611 -2.384550 0.009674 0.592813 -0.805282 0.907959 0.055175
8.619390 2.000611 -2.384550 -0.097796 0.555789 -0.825551 0.907959 0.055175
6.698301 5.984183 0.524900 -0.097796 0.555789 -0.825551 0.885254 0.057617
10.430702 2.692768 -2.133137 -0.097796 0.555789 -0.825551 0.905762 0.075439
8.619390 2.000611 -2.384550 0.232161 -0.267903 -0.935056 0.907959 0.055175
10.430702 2.692768 -2.133137 0.232161 -0.267903 -0.935056 0.905762 0.075439
13.065338 -1.565919 -0.258840 0.232161 -0.267903 -0.935056 0.923584 0.073486
8.619390 2.000611 -2.384550 0.380591 -0.074915 -0.921704 0.907959 0.055175
13.065338 -1.565919 -0.258840 0.380591 -0.074915 -0.921704 0.923584 0.073486
10.320926 -2.352740 -1.328115 0.380591 -0.074915 -0.921704 0.921387 0.053710
10.320926 -2.352740 -1.328115 0.286962 -0.957407 -0.032018 0.921387 0.053710
13.065338 -1.565919 -0.258840 0.286962 -0.957407 -0.032018 0.923584 0.073486
9.003608 -2.906788 3.432665 0.286962 -0.957407 -0.032018 0.932617 0.052002
10.320926 -2.352740 -1.328115 0.093134 -0.991611 -0.089631 0.921387 0.053710
9.003608 -2.906788 3.432665 0.093134 -0.991611 -0.089631 0.932617 0.052002
2.087688 -2.811170 -4.811353 0.093134 -0.991611 -0.089631 0.922119 0.037841
2.087688 -2.811170 -4.811353 0.268238 -0.934034 -0.235859 0.922119 0.037841
9.003608 -2.906788 3.432665 0.268238 -0.934034 -0.235859 0.932617 0.052002
1.319252 -4.130829 -0.459248 0.268238 -0.934034 -0.235859 0.929932 0.035888
2.087688 -2.811170 -4.811353 -0.143482 -0.939752 -0.310289 0.922119 0.037841
1.319252 -4.130829 -0.459248 -0.143482 -0.939752 -0.310289 0.929932 0.035888
-4.938008 -3.023687 -0.918924 -0.143482 -0.939752 -0.310289 0.910889 0.011474
2.087688 -2.811170 -4.811353 -0.216370 -0.872460 -0.438174 0.922119 0.037841
-4.938008 -3.023687 -0.918924 -0.216370 -0.872460 -0.438174 0.910889 0.011474
-4.169572 -1.487691 -4.356740 -0.216370 -0.872460 -0.438174 0.905762 0.021240
-4.169572 -1.487691 -4.356740 -0.816923 -0.436089 -0.377444 0.905762 0.021240
-4.938008 -3.023687 -0.918924 -0.816923 -0.436089 -0.377444 0.910889 0.011474
-6.968873 0.885399 -1.039863 -0.816923 -0.436089 -0.377444 0.870361 0.014892
-4.169572 -1.487691 -4.356740 -0.191071 0.714831 -0.672688 0.905762 0.021240
-6.968873 0.885399 -1.039863 -0.191071 0.714831 -0.672688 0.870361 0.014892
-4.828231 3.136303 0.744026 -0.191071 0.714831 -0.672688 0.877197 0.029541
-4.828231 3.136303 0.744026 -0.767644 0.269062 0.581660 0.877197 0.029541
-6.968873 0.885399 -1.039863 -0.767644 0.269062 0.581660 0.870361 0.014892
-5.047784 -0.566795 2.167233 -0.767644 0.269062 0.581660 0.859131 0.029296
-4.828231 3.136303 0.744026 -0.542282 0.329238 0.773002 0.877197 0.029541
-5.047784 -0.566795 2.167233 -0.542282 0.329238 0.773002 0.859131 0.029296
-0.162729 4.603173 3.392230 -0.542282 0.329238 0.773002 0.871582 0.042724
-0.162729 4.603173 3.392230 -0.405288 0.170125 0.898220 0.871582 0.042724
-5.047784 -0.566795 2.167233 -0.405288 0.170125 0.898220 0.859131 0.029296
-0.656723 -1.423770 4.310850 -0.405288 0.170125 0.898220 0.849121 0.045166
-0.162729 4.603173 3.392230 -0.364458 0.169439 0.915675 0.871582 0.042724
-0.656723 -1.423770 4.310850 -0.364458 0.169439 0.915675 0.849121 0.045166
5.929867 5.310744 5.686282 -0.364458 0.169439 0.915675 0.866699 0.059570
-0.162729 4.603173 3.392230 -0.153751 0.982483 0.105300 0.871582 0.042724
5.929867 5.310744 5.686282 -0.153751 0.982483 0.105300 0.866699 0.059570
6.698301 5.984183 0.524900 -0.153751 0.982483 0.105300 0.885254 0.057617
6.698301 5.984183 0.524900 0.046942 0.989582 0.136106 0.885254 0.057617
5.929867 5.310744 5.686282 0.046942 0.989582 0.136106 0.866699 0.059570
8.674279 5.101228 6.263078 0.046942 0.989582 0.136106 0.864990 0.079834
6.698301 5.984183 0.524900 0.084956 0.988777 0.122892 0.885254 0.057617
8.674279 5.101228 6.263078 0.084956 0.988777 0.122892 0.864990 0.079834
8.454725 5.768359 1.047173 0.084956 0.988777 0.122892 0.884766 0.077880
6.698301 5.984183 0.524900 0.266861 0.770311 -0.579142 0.885254 0.057617
8.454725 5.768359 1.047173 0.266861 0.770311 -0.579142 0.884766 0.077880
10.430702 2.692768 -2.133137 0.266861 0.770311 -0.579142 0.905762 0.075439
10.430702 2.692768 -2.133137 0.217295 0.765656 -0.605436 0.905762 0.075439
8.454725 5.768359 1.047173 0.217295 0.765656 -0.605436 0.884766 0.077880
9.991596 5.648964 1.447776 0.217295 0.765656 -0.605436 0.881836 0.094970
10.430702 2.692768 -2.133137 0.416006 0.725659 -0.548050 0.905762 0.075439
9.991596 5.648964 1.447776 0.416006 0.725659 -0.548050 0.881836 0.094970
12.681120 2.926274 -0.115741 0.416006 0.725659 -0.548050 0.902344 0.092773
10.430702 2.692768 -2.133137 0.660718 0.080286 -0.746328 0.905762 0.075439
12.681120 2.926274 -0.115741 0.660718 0.080286 -0.746328 0.902344 0.092773
13.065338 -1.565919 -0.258840 0.660718 0.080286 -0.746328 0.923584 0.073486
13.065338 -1.565919 -0.258840 0.663413 0.080439 -0.743917 0.923584 0.073486
12.681120 2.926274 -0.115741 0.663413 0.080439 -0.743917 0.902344 0.092773
15.754860 -1.172877 2.182129 0.663413 0.080439 -0.743917 0.921631 0.090820
13.065338 -1.565919 -0.258840 0.143043 -0.989715 0.001754 0.923584 0.073486
15.754860 -1.172877 2.182129 0.143043 -0.989715 0.001754 0.921631 0.090820
11.857797 -1.731987 4.512289 0.143043 -0.989715 0.001754 0.935547 0.072265
13.065338 -1.565919 -0.258840 0.360822 -0.930771 0.058924 0.923584 0.073486
11.857797 -1.731987 4.512289 0.360822 -0.930771 0.058924 0.935547 0.072265
9.003608 -2.906788 3.432665 0.360822 -0.930771 0.058924 0.932617 0.052002
9.003608 -2.906788 3.432665 0.041753 -0.729165 0.683063 0.829834 0.063476
11.857797 -1.731987 4.512289 0.041753 -0.729165 0.683063 0.831787 0.083496
9.826933 1.058362 7.615106 0.041753 -0.729165 0.683063 0.848633 0.081543
9.003608 -2.906788 3.432665 0.038996 -0.728976 0.683427 0.829834 0.063476
9.826933 1.058362 7.615106 0.038996 -0.728976 0.683427 0.848633 0.081543
6.533638 0.011542 6.686431 0.038996 -0.728976 0.683427 0.844727 0.061767
9.003608 -2.906788 3.432665 -0.059150 -0.765036 0.641265 0.829834 0.063476
6.533638 0.011542 6.686431 -0.059150 -0.765036 0.641265 0.844727 0.061767
-0.656723 -1.423770 4.310850 -0.059150 -0.765036 0.641265 0.849121 0.045166
9.003608 -2.906788 3.432665 -0.093419 -0.882022 0.461855 0.829834 0.063476
-0.656723 -1.423770 4.310850 -0.093419 -0.882022 0.461855 0.849121 0.045166
1.319252 -4.130829 -0.459248 -0.093419 -0.882022 0.461855 0.827148 0.047607
1.319252 -4.130829 -0.459248 -0.187898 -0.885598 0.424747 0.827148 0.047607
-0.656723 -1.423770 4.310850 -0.187898 -0.885598 0.424747 0.849121 0.045166
-4.938008 -3.023687 -0.918924 -0.187898 -0.885598 0.424747 0.841553 0.025878
-4.938008 -3.023687 -0.918924 -0.412952 -0.719633 0.558211 0.841553 0.025878
-0.656723 -1.423770 4.310850 -0.412952 -0.719633 0.558211 0.849121 0.045166
-5.047784 -0.566795 2.167233 -0.412952 -0.719633 0.558211 0.859131 0.029296
-4.938008 -3.023687 -0.918924 -0.846883 -0.430310 0.312446 0.841553 0.025878
-5.047784 -0.566795 2.167233 -0.846883 -0.430310 0.312446 0.859131 0.029296
-6.968873 0.885399 -1.039863 -0.846883 -0.430310 0.312446 0.870361 0.014892
-0.656723 -1.423770 4.310850 -0.335390 0.137682 0.931964 0.849121 0.045166
6.533638 0.011542 6.686431 -0.335390 0.137682 0.931964 0.844727 0.061767
5.929867 5.310744 5.686282 -0.335390 0.137682 0.931964 0.866699 0.059570
5.929867 5.310744 5.686282 -0.191212 0.160960 0.968261 0.866699 0.059570
6.533638 0.011542 6.686431 -0.191212 0.160960 0.968261 0.844727 0.061767
8.674279 5.101228 6.263078 -0.191212 0.160960 0.968261 0.864990 0.079834
8.674279 5.101228 6.263078 -0.327609 0.214327 0.920183 0.864990 0.079834
6.533638 0.011542 6.686431 -0.327609 0.214327 0.920183 0.844727 0.061767
9.826933 1.058362 7.615106 -0.327609 0.214327 0.920183 0.848633 0.081543
8.674279 5.101228 6.263078 -0.392283 0.189197 0.900177 0.864990 0.079834
9.826933 1.058362 7.615106 -0.392283 0.189197 0.900177 0.848633 0.081543
11.528468 1.303979 8.304985 -0.392283 0.189197 0.900177 0.848877 0.098632
8.674279 5.101228 6.263078 -0.119244 0.399209 0.909073 0.864990 0.079834
11.528468 1.303979 8.304985 -0.119244 0.399209 0.909073 0.848877 0.098632
10.320927 5.598258 6.260806 -0.119244 0.399209 0.909073 0.864502 0.096923
8.674279 5.101228 6.263078 -0.286215 0.948833 0.133406 0.864990 0.079834
10.320927 5.598258 6.260806 -0.286215 0.948833 0.133406 0.864502 0.096923
8.454725 5.768359 1.047173 -0.286215 0.948833 0.133406 0.884766 0.077880
8.454725 5.768359 1.047173 0.076079 0.997088 0.005299 0.884766 0.077880
10.320927 5.598258 6.260806 0.076079 0.997088 0.005299 0.864502 0.096923
9.991596 5.648964 1.447776 0.076079 0.997088 0.005299 0.881836 0.094970
9.991596 5.648964 1.447776 0.008576 0.999914 0.009948 0.881836 0.094970
10.320927 5.598258 6.260806 0.008576 0.999914 0.009948 0.864502 0.096923
11.748021 5.569493 7.921775 0.008576 0.999914 0.009948 0.859619 0.117676
9.991596 5.648964 1.447776 0.179634 0.983050 -0.036668 0.881836 0.094970
11.748021 5.569493 7.921775 0.179634 0.983050 -0.036668 0.859619 0.117676
14.327765 4.979043 4.730090 0.179634 0.983050 -0.036668 0.875244 0.115967
9.991596 5.648964 1.447776 0.474167 0.741232 -0.475122 0.881836 0.094970
14.327765 4.979043 4.730090 0.474167 0.741232 -0.475122 0.875244 0.115967
12.681120 2.926274 -0.115741 0.474167 0.741232 -0.475122 0.902344 0.092773
12.681120 2.926274 -0.115741 0.427093 0.771317 -0.471871 0.902344 0.092773
14.327765 4.979043 4.730090 0.427093 0.771317 -0.471871 0.875244 0.115967
16.742851 3.382945 4.307031 0.427093 0.771317 -0.471871 0.894531 0.114014
12.681120 2.926274 -0.115741 0.733970 0.038876 -0.678068 0.902344 0.092773
16.742851 3.382945 4.307031 0.733970 0.038876 -0.678068 0.894531 0.114014
17.566175 0.149356 5.012839 0.733970 0.038876 -0.678068 0.918701 0.111328
12.681120 2.926274 -0.115741 0.764317 0.236924 -0.599739 0.902344 0.092773
17.566175 0.149356 5.012839 0.764317 0.236924 -0.599739 0.918701 0.111328
15.754860 -1.172877 2.182129 0.764317 0.236924 -0.599739 0.921631 0.090820
15.754860 -1.172877 2.182129 0.536117 -0.842629 0.050544 0.921631 0.090820
17.566175 0.149356 5.012839 0.536117 -0.842629 0.050544 0.918701 0.111328
16.193970 -0.474110 9.173850 0.536117 -0.842629 0.050544 0.939697 0.109131
15.754860 -1.172877 2.182129 0.580254 -0.813201 0.044830 0.921631 0.090820
16.193970 -0.474110 9.173850 0.580254 -0.813201 0.044830 0.939697 0.109131
14.382657 -1.936947 6.083141 0.580254 -0.813201 0.044830 0.937500 0.089111
15.754860 -1.172877 2.182129 0.032807 -0.982939 -0.180983 0.921631 0.090820
14.382657 -1.936947 6.083141 0.032807 -0.982939 -0.180983 0.937500 0.089111
11.857797 -1.731987 4.512289 0.032807 -0.982939 -0.180983 0.935547 0.072265
11.857797 -1.731987 4.512289 -0.401991 -0.731544 0.550678 0.831787 0.083496
14.382657 -1.936947 6.083141 -0.401991 -0.731544 0.550678 0.832031 0.100342
11.528468 1.303979 8.304985 -0.401991 -0.731544 0.550678 0.848877 0.098632
11.857797 -1.731987 4.512289 -0.135633 -0.779185 0.611943 0.831787 0.083496
11.528468 1.303979 8.304985 -0.135633 -0.779185 0.611943 0.848877 0.098632
9.826933 1.058362 7.615106 -0.135633 -0.779185 0.611943 0.848633 0.081543
18.499275 6.328280 6.839362 0.758454 0.076776 -0.647188 0.892578 0.129883
20.530142 3.246157 8.853750 0.758454 0.076776 -0.647188 0.918945 0.126953
17.566175 0.149356 5.012839 0.758454 0.076776 -0.647188 0.918701 0.111328
18.499275 6.328280 6.839362 0.783297 0.064483 -0.618294 0.892578 0.129883
17.566175 0.149356 5.012839 0.783297 0.064483 -0.618294 0.918701 0.111328
16.742851 3.382945 4.307031 0.783297 0.064483 -0.618294 0.894531 0.114014
18.499275 6.328280 6.839362 0.225879 0.554143 -0.801189 0.892578 0.129883
16.742851 3.382945 4.307031 0.225879 0.554143 -0.801189 0.894531 0.114014
14.327765 4.979043 4.730090 0.225879 0.554143 -0.801189 0.875244 0.115967
18.499275 6.328280 6.839362 0.195597 0.603590 -0.772930 0.892578 0.129883
14.327765 4.979043 4.730090 0.195597 0.603590 -0.772930 0.875244 0.115967
15.041316 7.735559 7.063255 0.195597 0.603590 -0.772930 0.875000 0.131592
18.499275 6.328280 6.839362 0.000768 0.158961 -0.987285 0.892578 0.129883
15.041316 7.735559 7.063255 0.000768 0.158961 -0.987285 0.875000 0.131592
15.260869 12.127292 7.770531 0.000768 0.158961 -0.987285 0.883545 0.148193
18.499275 6.328280 6.839362 0.033171 0.176488 -0.983744 0.892578 0.129883
15.260869 12.127292 7.770531 0.033171 0.176488 -0.983744 0.883545 0.148193
19.926371 10.283818 7.597122 0.033171 0.176488 -0.983744 0.900146 0.146240
18.499275 6.328280 6.839362 0.635955 -0.082449 -0.767309 0.892578 0.129883
19.926371 10.283818 7.597122 0.635955 -0.082449 -0.767309 0.900146 0.146240
20.530142 3.246157 8.853750 0.635955 -0.082449 -0.767309 0.918945 0.126953
20.530142 3.246157 8.853750 0.803095 -0.037286 -0.594683 0.918945 0.126953
19.926371 10.283818 7.597122 0.803095 -0.037286 -0.594683 0.900146 0.146240
22.231676 6.801605 10.928678 0.803095 -0.037286 -0.594683 0.926514 0.143555
20.530142 3.246157 8.853750 0.729436 -0.569889 0.378351 0.918945 0.126953
22.231676 6.801605 10.928678 0.729436 -0.569889 0.378351 0.926514 0.143555
18.169947 2.144077 11.744048 0.729436 -0.569889 0.378351 0.939697 0.124756
20.530142 3.246157 8.853750 0.588979 -0.787710 0.180600 0.918945 0.126953
18.169947 2.144077 11.744048 0.588979 -0.787710 0.180600 0.939697 0.124756
17.566175 0.149356 5.012839 0.588979 -0.787710 0.180600 0.918701 0.111328
17.566175 0.149356 5.012839 0.721766 -0.678574 0.136348 0.918701 0.111328
18.169947 2.144077 11.744048 0.721766 -0.678574 0.136348 0.939697 0.124756
16.193970 -0.474110 9.173850 0.721766 -0.678574 0.136348 0.939697 0.109131
16.193970 -0.474110 9.173850 -0.211561 -0.598701 0.772528 0.835205 0.120361
18.169947 2.144077 11.744048 -0.211561 -0.598701 0.772528 0.838623 0.135498
14.492434 4.019108 12.190072 -0.211561 -0.598701 0.772528 0.849365 0.134521
16.193970 -0.474110 9.173850 -0.436026 -0.609551 0.662064 0.835205 0.120361
14.492434 4.019108 12.190072 -0.436026 -0.609551 0.662064 0.849365 0.134521
12.406680 1.985791 8.944381 -0.436026 -0.609551 0.662064 0.849121 0.118896
16.193970 -0.474110 9.173850 -0.313587 -0.402578 0.859997 0.835205 0.120361
12.406680 1.985791 8.944381 -0.313587 -0.402578 0.859997 0.849121 0.118896
11.528468 1.303979 8.304985 -0.313587 -0.402578 0.859997 0.848877 0.098632
16.193970 -0.474110 9.173850 -0.383255 -0.727587 0.568975 0.835205 0.120361
11.528468 1.303979 8.304985 -0.383255 -0.727587 0.568975 0.848877 0.098632
14.382657 -1.936947 6.083141 -0.383255 -0.727587 0.568975 0.832031 0.100342
22.231676 6.801605 10.928678 0.753718 -0.618314 0.222702 0.926514 0.143555
19.432377 4.672153 14.490440 0.753718 -0.618314 0.222702 0.946289 0.141357
18.169947 2.144077 11.744048 0.753718 -0.618314 0.222702 0.939697 0.124756
18.169947 2.144077 11.744048 -0.246638 -0.653878 0.715272 0.838623 0.135498
19.432377 4.672153 14.490440 -0.246638 -0.653878 0.715272 0.839844 0.152832
14.492434 4.019108 12.190072 -0.246638 -0.653878 0.715272 0.849365 0.134521
14.492434 4.019108 12.190072 -0.244003 -0.659328 0.711161 0.849365 0.134521
19.432377 4.672153 14.490440 -0.244003 -0.659328 0.711161 0.839844 0.152832
14.766875 6.630987 14.705746 -0.244003 -0.659328 0.711161 0.852539 0.151367
14.492434 4.019108 12.190072 -0.880258 -0.277925 0.384583 0.849365 0.134521
14.766875 6.630987 14.705746 -0.880258 -0.277925 0.384583 0.852539 0.151367
12.626233 6.675386 9.838193 -0.880258 -0.277925 0.384583 0.862549 0.133057
14.492434 4.019108 12.190072 -0.855814 -0.168123 0.489200 0.849365 0.134521
12.626233 6.675386 9.838193 -0.855814 -0.168123 0.489200 0.862549 0.133057
11.748021 5.569493 7.921775 -0.855814 -0.168123 0.489200 0.859619 0.117676
14.492434 4.019108 12.190072 -0.841183 -0.000301 0.540751 0.849365 0.134521
11.748021 5.569493 7.921775 -0.841183 -0.000301 0.540751 0.859619 0.117676
12.406680 1.985791 8.944381 -0.841183 -0.000301 0.540751 0.849121 0.118896
12.406680 1.985791 8.944381 -0.635836 0.101466 0.765126 0.849121 0.118896
11.748021 5.569493 7.921775 -0.635836 0.101466 0.765126 0.859619 0.117676
11.528468 1.303979 8.304985 -0.635836 0.101466 0.765126 0.848877 0.098632
11.528468 1.303979 8.304985 -0.754066 0.097170 0.649571 0.848877 0.098632
11.748021 5.569493 7.921775 -0.754066 0.097170 0.649571 0.859619 0.117676
10.320927 5.598258 6.260806 -0.754066 0.097170 0.649571 0.864502 0.096923
24.152765 11.114597 14.297289 0.784852 -0.567607 0.248657 0.933594 0.178955
21.627907 9.289319 18.100117 0.784852 -0.567607 0.248657 0.949219 0.177490
19.432377 4.672153 14.490440 0.784852 -0.567607 0.248657 0.946289 0.141357
24.152765 11.114597 14.297289 0.779237 -0.562672 0.276024 0.933594 0.178955
19.432377 4.672153 14.490440 0.779237 -0.562672 0.276024 0.946289 0.141357
22.231676 6.801605 10.928678 0.779237 -0.562672 0.276024 0.926514 0.143555
24.152765 11.114597 14.297289 0.842493 0.044078 -0.536901 0.933594 0.178955
22.231676 6.801605 10.928678 0.842493 0.044078 -0.536901 0.926514 0.143555
19.926371 10.283818 7.597122 0.842493 0.044078 -0.536901 0.900146 0.146240
24.152765 11.114597 14.297289 0.843694 0.030405 -0.535963 0.933594 0.178955
19.926371 10.283818 7.597122 0.843694 0.030405 -0.535963 0.900146 0.146240
21.957235 14.494073 11.032879 0.843694 0.030405 -0.535963 0.905029 0.182129
24.152765 11.114597 14.297289 0.860399 0.071584 -0.504568 0.933594 0.178955
21.957235 14.494073 11.032879 0.860399 0.071584 -0.504568 0.905029 0.182129
28.873156 21.050192 23.756176 0.860399 0.071584 -0.504568 0.944336 0.239014
24.152765 11.114597 14.297289 0.802065 -0.565089 0.193304 0.933594 0.178955
28.873156 21.050192 23.756176 0.802065 -0.565089 0.193304 0.944336 0.239014
27.226507 19.656551 26.514458 0.802065 -0.565089 0.193304 0.960205 0.237305
24.152765 11.114597 14.297289 0.769758 -0.597665 0.224208 0.933594 0.178955
27.226507 19.656551 26.514458 0.769758 -0.597665 0.224208 0.960205 0.237305
21.627907 9.289319 18.100117 0.769758 -0.597665 0.224208 0.949219 0.177490
21.627907 9.289319 18.100117 -0.199528 -0.550299 0.810777 0.844971 0.188477
27.226507 19.656551 26.514458 -0.199528 -0.550299 0.810777 0.849609 0.249268
17.072182 11.187322 18.267210 -0.199528 -0.550299 0.810777 0.861816 0.186768
21.627907 9.289319 18.100117 -0.196763 -0.544090 0.815629 0.844971 0.188477
17.072182 11.187322 18.267210 -0.196763 -0.544090 0.815629 0.861816 0.186768
19.432377 4.672153 14.490440 -0.196763 -0.544090 0.815629 0.839844 0.152832
19.432377 4.672153 14.490440 -0.190252 -0.543033 0.817875 0.839844 0.152832
17.072182 11.187322 18.267210 -0.190252 -0.543033 0.817875 0.861816 0.186768
14.766875 6.630987 14.705746 -0.190252 -0.543033 0.817875 0.852539 0.151367
14.766875 6.630987 14.705746 -0.818421 -0.034268 0.573597 0.852539 0.151367
17.072182 11.187322 18.267210 -0.818421 -0.034268 0.573597 0.861816 0.186768
14.711987 14.633941 15.105537 -0.818421 -0.034268 0.573597 0.876465 0.185303
14.766875 6.630987 14.705746 -0.841628 -0.032702 0.539066 0.852539 0.151367
14.711987 14.633941 15.105537 -0.841628 -0.032702 0.539066 0.876465 0.185303
12.681122 10.369164 11.676091 -0.841628 -0.032702 0.539066 0.868164 0.149658
14.766875 6.630987 14.705746 -0.900571 -0.182849 0.394383 0.852539 0.151367
12.681122 10.369164 11.676091 -0.900571 -0.182849 0.394383 0.868164 0.149658
12.626233 6.675386 9.838193 -0.900571 -0.182849 0.394383 0.862549 0.133057
12.626233 6.675386 9.838193 -0.856194 0.240296 -0.457372 0.862549 0.133057
12.681122 10.369164 11.676091 -0.856194 0.240296 -0.457372 0.868164 0.149658
15.260869 12.127292 7.770531 -0.856194 0.240296 -0.457372 0.883545 0.148193
12.626233 6.675386 9.838193 -0.772644 0.138406 -0.619569 0.862549 0.133057
15.260869 12.127292 7.770531 -0.772644 0.138406 -0.619569 0.883545 0.148193
15.041316 7.735559 7.063255 -0.772644 0.138406 -0.619569 0.875000 0.131592
12.626233 6.675386 9.838193 -0.573997 0.795107 -0.195788 0.862549 0.133057
15.041316 7.735559 7.063255 -0.573997 0.795107 -0.195788 0.875000 0.131592
11.748021 5.569493 7.921775 -0.573997 0.795107 -0.195788 0.859619 0.117676
11.748021 5.569493 7.921775 -0.552114 0.617300 -0.560456 0.859619 0.117676
15.041316 7.735559 7.063255 -0.552114 0.617300 -0.560456 0.875000 0.131592
14.327765 4.979043 4.730090 -0.552114 0.617300 -0.560456 0.875244 0.115967
27.226507 19.656551 26.514458 -0.285442 -0.470717 0.834834 0.849609 0.249268
24.042990 21.176933 26.283226 -0.285442 -0.470717 0.834834 0.866943 0.247314
17.072182 11.187322 18.267210 -0.285442 -0.470717 0.834834 0.861816 0.186768
17.072182 11.187322 18.267210 -0.778711 0.041032 0.626040 0.861816 0.186768
24.042990 21.176933 26.283226 -0.778711 0.041032 0.626040 0.866943 0.247314
14.711987 14.633941 15.105537 -0.778711 0.041032 0.626040 0.876465 0.185303
14.711987 14.633941 15.105537 -0.776153 0.030989 0.629783 0.876465 0.185303
24.042990 21.176933 26.283226 -0.776153 0.030989 0.629783 0.866943 0.247314
22.341454 23.627728 24.065638 -0.776153 0.030989 0.629783 0.887451 0.245117
14.711987 14.633941 15.105537 -0.724393 0.685676 -0.071438 0.876465 0.185303
22.341454 23.627728 24.065638 -0.724393 0.685676 -0.071438 0.887451 0.245117
23.933212 25.027672 21.361879 -0.724393 0.685676 -0.071438 0.905762 0.243164
14.711987 14.633941 15.105537 -0.690007 0.706597 -0.156877 0.876465 0.185303
23.933212 25.027672 21.361879 -0.690007 0.706597 -0.156877 0.905762 0.243164
17.291735 16.276714 11.158072 -0.690007 0.706597 -0.156877 0.891357 0.183594
14.711987 14.633941 15.105537 -0.767928 0.586349 -0.257842 0.876465 0.185303
17.291735 16.276714 11.158072 -0.767928 0.586349 -0.257842 0.891357 0.183594
15.260869 12.127292 7.770531 -0.767928 0.586349 -0.257842 0.883545 0.148193
14.711987 14.633941 15.105537 -0.777476 0.575034 -0.254690 0.876465 0.185303
15.260869 12.127292 7.770531 -0.777476 0.575034 -0.254690 0.883545 0.148193
12.681122 10.369164 11.676091 -0.777476 0.575034 -0.254690 0.868164 0.149658
28.982939 29.380871 37.489677 -0.880139 -0.076974 0.468434 0.864746 0.307861
27.116737 33.022614 34.581692 -0.880139 -0.076974 0.468434 0.886963 0.306152
22.341454 23.627728 24.065638 -0.880139 -0.076974 0.468434 0.887451 0.245117
28.982939 29.380871 37.489677 -0.858280 -0.152517 0.489994 0.864746 0.307861
22.341454 23.627728 24.065638 -0.858280 -0.152517 0.489994 0.887451 0.245117
24.042990 21.176933 26.283226 -0.858280 -0.152517 0.489994 0.866943 0.247314
28.982939 29.380871 37.489677 -0.365630 -0.666833 0.649345 0.864746 0.307861
24.042990 21.176933 26.283226 -0.365630 -0.666833 0.649345 0.866943 0.247314
27.226507 19.656551 26.514458 -0.365630 -0.666833 0.649345 0.849609 0.249268
28.982939 29.380871 37.489677 -0.305512 -0.687892 0.658382 0.864746 0.307861
27.226507 19.656551 26.514458 -0.305512 -0.687892 0.658382 0.849609 0.249268
33.648438 27.277395 37.456871 -0.305512 -0.687892 0.658382 0.841309 0.308594
28.982939 29.380871 37.489677 -0.276982 -0.625719 0.729216 0.864746 0.307861
33.648438 27.277395 37.456871 -0.276982 -0.625719 0.729216 0.841309 0.308594
35.569527 30.499901 40.951706 -0.276982 -0.625719 0.729216 0.839600 0.325439
28.982939 29.380871 37.489677 -0.275516 -0.628544 0.727340 0.864746 0.307861
35.569527 30.499901 40.951706 -0.275516 -0.628544 0.727340 0.839600 0.325439
30.739363 32.536232 40.881775 -0.275516 -0.628544 0.727340 0.863281 0.325439
28.982939 29.380871 37.489677 -0.867488 -0.049267 0.495013 0.864746 0.307861
30.739363 32.536232 40.881775 -0.867488 -0.049267 0.495013 0.863281 0.325439
27.116737 33.022614 34.581692 -0.867488 -0.049267 0.495013 0.886963 0.306152
27.116737 33.022614 34.581692 -0.867182 -0.009617 0.497898 0.886963 0.306152
30.739363 32.536232 40.881775 -0.867182 -0.009617 0.497898 0.863281 0.325439
28.873161 36.146427 37.701172 -0.867182 -0.009617 0.497898 0.886719 0.323975
27.116737 33.022614 34.581692 -0.754554 0.624767 -0.200783 0.886963 0.306152
28.873161 36.146427 37.701172 -0.754554 0.624767 -0.200783 0.886719 0.323975
29.696486 34.982182 30.984341 -0.754554 0.624767 -0.200783 0.907959 0.302734
27.116737 33.022614 34.581692 -0.752978 0.627499 -0.198164 0.886963 0.306152
29.696486 34.982182 30.984341 -0.752978 0.627499 -0.198164 0.907959 0.302734
23.933212 25.027672 21.361879 -0.752978 0.627499 -0.198164 0.905762 0.243164
27.116737 33.022614 34.581692 -0.793411 0.586312 -0.163519 0.886963 0.306152
23.933212 25.027672 21.361879 -0.793411 0.586312 -0.163519 0.905762 0.243164
22.341454 23.627728 24.065638 -0.793411 0.586312 -0.163519 0.887451 0.245117
28.873161 36.146427 37.701172 -0.757250 0.621569 -0.200559 0.886719 0.323975
31.452909 38.093372 33.994762 -0.757250 0.621569 -0.200559 0.907715 0.320313
29.696486 34.982182 30.984341 -0.757250 0.621569 -0.200559 0.907959 0.302734
29.696486 34.982182 30.984341 0.248622 0.597386 -0.762441 0.907959 0.302734
31.452909 38.093372 33.994762 0.248622 0.597386 -0.762441 0.907715 0.320313
34.197319 32.981449 30.884394 0.248622 0.597386 -0.762441 0.929688 0.298096
29.696486 34.982182 30.984341 0.247696 0.595396 -0.764297 0.907959 0.302734
34.197319 32.981449 30.884394 0.247696 0.595396 -0.764297 0.929688 0.298096
23.933212 25.027672 21.361879 0.247696 0.595396 -0.764297 0.905762 0.243164
23.933212 25.027672 21.361879 0.274606 0.571467 -0.773316 0.905762 0.243164
34.197319 32.981449 30.884394 0.274606 0.571467 -0.773316 0.929688 0.298096
27.336285 23.549200 21.477753 0.274606 0.571467 -0.773316 0.923828 0.241211
23.933212 25.027672 21.361879 0.294918 0.621977 -0.725375 0.905762 0.243164
27.336285 23.549200 21.477753 0.294918 0.621977 -0.725375 0.923828 0.241211
17.291735 16.276714 11.158072 0.294918 0.621977 -0.725375 0.891357 0.183594
17.291735 16.276714 11.158072 0.237218 0.670231 -0.703219 0.891357 0.183594
27.336285 23.549200 21.477753 0.237218 0.670231 -0.703219 0.923828 0.241211
21.957235 14.494073 11.032879 0.237218 0.670231 -0.703219 0.905029 0.182129
17.291735 16.276714 11.158072 0.193166 0.562033 -0.804243 0.891357 0.183594
21.957235 14.494073 11.032879 0.193166 0.562033 -0.804243 0.905029 0.182129
15.260869 12.127292 7.770531 0.193166 0.562033 -0.804243 0.883545 0.148193
15.260869 12.127292 7.770531 0.192577 0.562981 -0.803721 0.883545 0.148193
21.957235 14.494073 11.032879 0.192577 0.562981 -0.803721 0.905029 0.182129
19.926371 10.283818 7.597122 0.192577 0.562981 -0.803721 0.900146 0.146240
31.452909 38.093372 33.994762 0.230828 0.593197 -0.771256 0.907715 0.320313
36.118412 36.390495 34.081356 0.230828 0.593197 -0.771256 0.929688 0.319336
34.197319 32.981449 30.884394 0.230828 0.593197 -0.771256 0.929688 0.298096
34.197319 32.981449 30.884394 0.837287 0.039568 -0.545329 0.929688 0.298096
36.118412 36.390495 34.081356 0.837287 0.039568 -0.545329 0.929688 0.319336
36.228188 29.333391 33.737850 0.837287 0.039568 -0.545329 0.951416 0.292480
34.197319 32.981449 30.884394 0.810895 -0.006277 -0.585158 0.929688 0.298096
36.228188 29.333391 33.737850 0.810895 -0.006277 -0.585158 0.951416 0.292480
27.336285 23.549200 21.477753 0.810895 -0.006277 -0.585158 0.923828 0.241211
27.336285 23.549200 21.477753 0.815095 -0.026366 -0.578727 0.923828 0.241211
36.228188 29.333391 33.737850 0.815095 -0.026366 -0.578727 0.951416 0.292480
28.873156 21.050192 23.756176 0.815095 -0.026366 -0.578727 0.944336 0.239014
27.336285 23.549200 21.477753 0.860879 0.069939 -0.503981 0.923828 0.241211
28.873156 21.050192 23.756176 0.860879 0.069939 -0.503981 0.944336 0.239014
21.957235 14.494073 11.032879 0.860879 0.069939 -0.503981 0.905029 0.182129
36.118412 36.390495 34.081356 0.827977 0.040105 -0.559325 0.929688 0.319336
38.368828 32.767685 37.152916 0.827977 0.040105 -0.559325 0.952637 0.316162
36.228188 29.333391 33.737850 0.827977 0.040105 -0.559325 0.951416 0.292480
36.228188 29.333391 33.737850 0.750272 -0.638433 0.171741 0.951416 0.292480
38.368828 32.767685 37.152916 0.750272 -0.638433 0.171741 0.952637 0.316162
35.569527 30.499901 40.951706 0.750272 -0.638433 0.171741 0.975586 0.311768
36.228188 29.333391 33.737850 0.753250 -0.634994 0.171457 0.951416 0.292480
35.569527 30.499901 40.951706 0.753250 -0.634994 0.171457 0.975586 0.311768
33.648438 27.277395 37.456871 0.753250 -0.634994 0.171457 0.972656 0.286377
36.228188 29.333391 33.737850 0.692508 -0.716470 0.084279 0.951416 0.292480
33.648438 27.277395 37.456871 0.692508 -0.716470 0.084279 0.972656 0.286377
28.873156 21.050192 23.756176 0.692508 -0.716470 0.084279 0.944336 0.239014
28.873156 21.050192 23.756176 0.710601 -0.700053 0.070511 0.944336 0.239014
33.648438 27.277395 37.456871 0.710601 -0.700053 0.070511 0.972656 0.286377
27.226507 19.656551 26.514458 0.710601 -0.700053 0.070511 0.960205 0.237305
3 0 1 2
3 3 4 5
3 6 7 8
3 9 10 11
3 12 13 14
3 15 16 17
3 18 19 20
3 21 22 23
3 24 25 26
3 27 28 29
3 30 31 32
3 33 34 35
3 36 37 38
3 39 40 41
3 42 43 44
3 45 46 47
3 48 49 50
3 51 52 53
3 54 55 56
3 57 58 59
3 60 61 62
3 63 64 65
3 66 67 68
3 69 70 71
3 72 73 74
3 75 76 77
3 78 79 80
3 81 82 83
3 84 85 86
3 87 88 89
3 90 91 92
3 93 94 95
3 96 97 98
3 99 100 101
3 102 103 104
3 105 106 107
3 108 109 110
3 111 112 113
3 114 115 116
3 117 118 119
3 120 121 122
3 123 124 125
3 126 127 128
3 129 130 131
3 132 133 134
3 135 136 137
3 138 139 140
3 141 142 143
3 144 145 146
3 147 148 149
3 150 151 152
3 153 154 155
3 156 157 158
3 159 160 161
3 162 163 164
3 165 166 167
3 168 169 170
3 171 172 173
3 174 175 176
3 177 178 179
3 180 181 182
3 183 184 185
3 186 187 188
3 189 190 191
3 192 193 194
3 195 196 197
3 198 199 200
3 201 202 203
3 204 205 206
3 207 208 209
3 210 211 212
3 213 214 215
3 216 217 218
3 219 220 221
3 222 223 224
3 225 226 227
3 228 229 230
3 231 232 233
3 234 235 236
3 237 238 239
3 240 241 242
3 243 244 245
3 246 247 248
3 249 250 251
3 252 253 254
3 255 256 257
3 258 259 260
3 261 262 263
3 264 265 266
3 267 268 269
3 270 271 272
3 273 274 275
3 276 277 278
3 279 280 281
3 282 283 284
3 285 286 287
3 288 289 290
3 291 292 293
3 294 295 296
3 297 298 299
3 300 301 302
3 303 304 305
3 306 307 308
3 309 310 311
3 312 313 314
3 315 316 317
3 318 319 320
3 321 322 323
3 324 325 326
3 327 328 329
3 330 331 332
3 333 334 335
3 336 337 338
3 339 340 341
3 342 343 344
3 345 346 347
3 348 349 350
3 351 352 353
3 354 355 356
3 357 358 359
3 360 361 362
3 363 364 365
3 366 367 368
3 369 370 371
3 372 373 374
3 375 376 377
3 378 379 380
3 381 382 383
3 384 385 386
3 387 388 389
3 390 391 392
3 393 394 395
3 396 397 398
3 399 400 401
3 402 403 404
3 405 406 407
