ply
format ascii 1.0
comment Created by Blender 2.91.2 - www.blender.org
element vertex 408
property float x
property float y
property float z
property float nx
property float ny
property float nz
property float s
property float t
element face 136
property list uchar uint vertex_indices
end_header
-2.390938 2.489791 -4.668107 0.321975 0.875412 -0.360536 0.908936 0.038818
-3.872920 4.812906 -0.350860 0.321975 0.875412 -0.360536 0.886475 0.041259
0.188811 3.321818 -0.344035 0.321975 0.875412 -0.360536 0.896973 0.026367
-2.390938 2.489791 -4.668107 0.539731 0.706395 -0.457927 0.908936 0.038818
0.188811 3.321818 -0.344035 0.539731 0.706395 -0.457927 0.896973 0.026367
3.536993 -0.090751 -1.661936 0.539731 0.706395 -0.457927 0.905762 0.021240
-2.390938 2.489791 -4.668107 0.521630 0.246911 -0.816662 0.908936 0.038818
3.536993 -0.090751 -1.661936 0.521630 0.246911 -0.816662 0.905762 0.021240
-1.348062 -2.010992 -5.362758 0.521630 0.246911 -0.816662 0.922119 0.037841
-2.390938 2.489791 -4.668107 0.101751 0.174729 -0.979345 0.908936 0.038818
-1.348062 -2.010992 -5.362758 0.101751 0.174729 -0.979345 0.922119 0.037841
-10.185069 -3.022220 -6.461314 0.101751 0.174729 -0.979345 0.921387 0.053710
-2.390938 2.489791 -4.668107 0.211850 0.018326 -0.977130 0.908936 0.038818
-10.185069 -3.022220 -6.461314 0.211850 0.018326 -0.977130 0.921387 0.053710
-8.977528 1.604265 -6.112741 0.211850 0.018326 -0.977130 0.907959 0.055175
-2.390938 2.489791 -4.668107 -0.013418 0.878595 -0.477379 0.908936 0.038818
-8.977528 1.604265 -6.112741 -0.013418 0.878595 -0.477379 0.907959 0.055175
-3.872920 4.812906 -0.350860 -0.013418 0.878595 -0.477379 0.886475 0.041259
-3.872920 4.812906 -0.350860 0.275292 0.715352 -0.642250 0.886475 0.041259
-8.977528 1.604265 -6.112741 0.275292 0.715352 -0.642250 0.907959 0.055175
-9.471522 5.191784 -2.328629 0.275292 0.715352 -0.642250 0.885254 0.057617
-3.872920 4.812906 -0.350860 0.004793 0.984549 0.175041 0.886475 0.041259
-9.471522 5.191784 -2.328629 0.004793 0.984549 0.175041 0.885254 0.057617
-4.751132 4.145259 3.428483 0.004793 0.984549 0.175041 0.871582 0.042724
-3.872920 4.812906 -0.350860 0.334300 0.911726 0.238745 0.886475 0.041259
-4.751132 4.145259 3.428483 0.334300 0.911726 0.238745 0.871582 0.042724
0.188811 3.321818 -0.344035 0.334300 0.911726 0.238745 0.896973 0.026367
0.188811 3.321818 -0.344035 0.098760 0.991296 -0.087051 0.896973 0.026367
-4.751132 4.145259 3.428483 0.098760 0.991296 -0.087051 0.871582 0.042724
0.792581 3.593706 3.437068 0.098760 0.991296 -0.087051 0.877197 0.029541
0.188811 3.321818 -0.344035 0.673203 0.722068 -0.159420 0.896973 0.026367
0.792581 3.593706 3.437068 0.673203 0.722068 -0.159420 0.877197 0.029541
3.536993 -0.090751 -1.661936 0.673203 0.722068 -0.159420 0.905762 0.021240
3.536993 -0.090751 -1.661936 0.349497 0.838601 -0.417852 0.905762 0.021240
0.792581 3.593706 3.437068 0.349497 0.838601 -0.417852 0.877197 0.029541
3.866323 1.966051 2.741390 0.349497 0.838601 -0.417852 0.870361 0.014892
3.536993 -0.090751 -1.661936 0.959306 -0.276475 0.057394 0.905762 0.021240
3.866323 1.966051 2.741390 0.959306 -0.276475 0.057394 0.870361 0.014892
2.768558 -2.100812 1.499222 0.959306 -0.276475 0.057394 0.910889 0.011474
3.536993 -0.090751 -1.661936 0.557817 -0.755077 -0.344527 0.905762 0.021240
2.768558 -2.100812 1.499222 0.557817 -0.755077 -0.344527 0.910889 0.011474
-1.348062 -2.010992 -5.362758 0.557817 -0.755077 -0.344527 0.922119 0.037841
-1.348062 -2.010992 -5.362758 0.442273 -0.853197 -0.276495 0.922119 0.037841
2.768558 -2.100812 1.499222 0.442273 -0.853197 -0.276495 0.910889 0.011474
-2.610491 -3.974594 -1.322902 0.442273 -0.853197 -0.276495 0.929932 0.035888
-1.348062 -2.010992 -5.362758 0.051401 -0.904419 -0.423537 0.922119 0.037841
-2.610491 -3.974594 -1.322902 0.051401 -0.904419 -0.423537 0.929932 0.035888
-11.282834 -4.249487 -1.788375 0.051401 -0.904419 -0.423537 0.932617 0.052002
-1.348062 -2.010992 -5.362758 0.137967 -0.965433 -0.221143 0.922119 0.037841
-11.282834 -4.249487 -1.788375 0.137967 -0.965433 -0.221143 0.932617 0.052002
-10.185069 -3.022220 -6.461314 0.137967 -0.965433 -0.221143 0.921387 0.053710
-10.185069 -3.022220 -6.461314 -0.046830 -0.963381 -0.264017 0.921387 0.053710
-11.282834 -4.249487 -1.788375 -0.046830 -0.963381 -0.264017 0.932617 0.052002
-13.203923 -2.745558 -6.935373 -0.046830 -0.963381 -0.264017 0.923584 0.073486
-10.185069 -3.022220 -6.461314 0.158008 0.033114 -0.986883 0.921387 0.053710
-13.203923 -2.745558 -6.935373 0.158008 0.033114 -0.986883 0.923584 0.073486
-8.977528 1.604265 -6.112741 0.158008 0.033114 -0.986883 0.907959 0.055175
-8.977528 1.604265 -6.112741 0.333030 -0.147451 -0.931316 0.907959 0.055175
-13.203923 -2.745558 -6.935373 0.333030 -0.147451 -0.931316 0.923584 0.073486
-10.788840 1.964731 -6.817520 0.333030 -0.147451 -0.931316 0.905762 0.075439
-8.977528 1.604265 -6.112741 0.376353 0.696382 -0.611073 0.907959 0.055175
-10.788840 1.964731 -6.817520 0.376353 0.696382 -0.611073 0.905762 0.075439
-9.471522 5.191784 -2.328629 0.376353 0.696382 -0.611073 0.885254 0.057617
-9.471522 5.191784 -2.328629 -0.044459 0.817294 -0.574504 0.885254 0.057617
-10.788840 1.964731 -6.817520 -0.044459 0.817294 -0.574504 0.905762 0.075439
-11.173058 4.747009 -2.829694 -0.044459 0.817294 -0.574504 0.884766 0.077880
-9.471522 5.191784 -2.328629 -0.290832 0.945157 0.148643 0.885254 0.057617
-11.173058 4.747009 -2.829694 -0.290832 0.945157 0.148643 0.884766 0.077880
-13.807693 3.257463 1.486821 -0.290832 0.945157 0.148643 0.864990 0.079834
-9.471522 5.191784 -2.328629 -0.266380 0.947373 0.177556 0.885254 0.057617
-13.807693 3.257463 1.486821 -0.266380 0.947373 0.177556 0.864990 0.079834
-11.173056 3.813567 2.472292 -0.266380 0.947373 0.177556 0.866699 0.059570
-9.471522 5.191784 -2.328629 -0.086550 0.965287 0.246434 0.885254 0.057617
-11.173056 3.813567 2.472292 -0.086550 0.965287 0.246434 0.866699 0.059570
-4.751132 4.145259 3.428483 -0.086550 0.965287 0.246434 0.871582 0.042724
-4.751132 4.145259 3.428483 -0.150458 0.070299 0.986114 0.871582 0.042724
-11.173056 3.813567 2.472292 -0.150458 0.070299 0.986114 0.866699 0.059570
-3.708256 -1.919554 4.019958 -0.150458 0.070299 0.986114 0.849121 0.045166
-4.751132 4.145259 3.428483 -0.115187 0.076780 0.990372 0.871582 0.042724
-3.708256 -1.919554 4.019958 -0.115187 0.076780 0.990372 0.849121 0.045166
0.957246 -0.214407 4.430394 -0.115187 0.076780 0.990372 0.859131 0.029296
-4.751132 4.145259 3.428483 0.023702 0.253288 0.967101 0.871582 0.042724
0.957246 -0.214407 4.430394 0.023702 0.253288 0.967101 0.859131 0.029296
0.792581 3.593706 3.437068 0.023702 0.253288 0.967101 0.877197 0.029541
0.792581 3.593706 3.437068 0.338272 0.251188 0.906905 0.877197 0.029541
0.957246 -0.214407 4.430394 0.338272 0.251188 0.906905 0.859131 0.029296
3.866323 1.966051 2.741390 0.338272 0.251188 0.906905 0.870361 0.014892
3.866323 1.966051 2.741390 0.659833 -0.376694 0.650171 0.870361 0.014892
0.957246 -0.214407 4.430394 0.659833 -0.376694 0.650171 0.859131 0.029296
2.768558 -2.100812 1.499222 0.659833 -0.376694 0.650171 0.841553 0.025878
2.768558 -2.100812 1.499222 0.220451 -0.752548 0.620542 0.841553 0.025878
0.957246 -0.214407 4.430394 0.220451 -0.752548 0.620542 0.859131 0.029296
-3.708256 -1.919554 4.019958 0.220451 -0.752548 0.620542 0.849121 0.045166
2.768558 -2.100812 1.499222 0.121418 -0.917821 0.377971 0.841553 0.025878
-3.708256 -1.919554 4.019958 0.121418 -0.917821 0.377971 0.849121 0.045166
-2.610491 -3.974594 -1.322902 0.121418 -0.917821 0.377971 0.827148 0.047607
-2.610491 -3.974594 -1.322902 0.010196 -0.932588 0.360799 0.827148 0.047607
-3.708256 -1.919554 4.019958 0.010196 -0.932588 0.360799 0.849121 0.045166
-11.282834 -4.249487 -1.788375 0.010196 -0.932588 0.360799 0.829834 0.063476
-11.282834 -4.249487 -1.788375 -0.140815 -0.841695 0.521269 0.829834 0.063476
-3.708256 -1.919554 4.019958 -0.140815 -0.841695 0.521269 0.849121 0.045166
-11.282834 -1.599230 2.491006 -0.140815 -0.841695 0.521269 0.844727 0.061767
-11.282834 -4.249487 -1.788375 -0.228905 -0.827593 0.512536 0.829834 0.063476
-11.282834 -1.599230 2.491006 -0.228905 -0.827593 0.512536 0.844727 0.061767
-14.685906 -1.136030 1.719081 -0.228905 -0.827593 0.512536 0.848633 0.081543
-11.282834 -4.249487 -1.788375 -0.235830 -0.829011 0.507075 0.829834 0.063476
-14.685906 -1.136030 1.719081 -0.235830 -0.829011 0.507075 0.848633 0.081543
-14.521241 -3.578537 -2.197563 -0.235830 -0.829011 0.507075 0.831787 0.083496
-11.282834 -4.249487 -1.788375 -0.171726 -0.961014 -0.216708 0.932617 0.052002
-14.521241 -3.578537 -2.197563 -0.171726 -0.961014 -0.216708 0.935547 0.072265
-13.203923 -2.745558 -6.935373 -0.171726 -0.961014 -0.216708 0.923584 0.073486
-13.203923 -2.745558 -6.935373 -0.684006 -0.661934 -0.306561 0.923584 0.073486
-14.521241 -3.578537 -2.197563 -0.684006 -0.661934 -0.306561 0.935547 0.072265
-14.740794 -1.013406 -7.246375 -0.684006 -0.661934 -0.306561 0.921631 0.090820
-13.203923 -2.745558 -6.935373 0.254107 0.052058 -0.965774 0.923584 0.073486
-14.740794 -1.013406 -7.246375 0.254107 0.052058 -0.965774 0.921631 0.090820
-12.490376 2.336054 -6.473716 0.254107 0.052058 -0.965774 0.902344 0.092773
-13.203923 -2.745558 -6.935373 -0.172992 0.113177 -0.978399 0.923584 0.073486
-12.490376 2.336054 -6.473716 -0.172992 0.113177 -0.978399 0.902344 0.092773
-10.788840 1.964731 -6.817520 -0.172992 0.113177 -0.978399 0.905762 0.075439
-10.788840 1.964731 -6.817520 0.070997 0.833153 -0.548466 0.905762 0.075439
-12.490376 2.336054 -6.473716 0.070997 0.833153 -0.548466 0.902344 0.092773
-12.655041 4.478424 -3.240643 0.070997 0.833153 -0.548466 0.881836 0.094970
-10.788840 1.964731 -6.817520 0.009777 0.820522 -0.571531 0.905762 0.075439
-12.655041 4.478424 -3.240643 0.009777 0.820522 -0.571531 0.881836 0.094970
-11.173058 4.747009 -2.829694 0.009777 0.820522 -0.571531 0.884766 0.077880
-11.173058 4.747009 -2.829694 -0.200391 0.976044 0.084744 0.884766 0.077880
-12.655041 4.478424 -3.240643 -0.200391 0.976044 0.084744 0.881836 0.094970
-14.960347 3.758013 -0.394522 -0.200391 0.976044 0.084744 0.864502 0.096923
-11.173058 4.747009 -2.829694 -0.061671 0.954507 0.291741 0.884766 0.077880
-14.960347 3.758013 -0.394522 -0.061671 0.954507 0.291741 0.864502 0.096923
-13.807693 3.257463 1.486821 -0.061671 0.954507 0.291741 0.864990 0.079834
-13.807693 3.257463 1.486821 -0.631269 0.560615 0.535920 0.864990 0.079834
-14.960347 3.758013 -0.394522 -0.631269 0.560615 0.535920 0.864502 0.096923
-17.594984 0.184662 0.240102 -0.631269 0.560615 0.535920 0.848877 0.098632
-13.807693 3.257463 1.486821 -0.402517 0.128374 0.906366 0.864990 0.079834
-17.594984 0.184662 0.240102 -0.402517 0.128374 0.906366 0.848877 0.098632
-14.685906 -1.136030 1.719081 -0.402517 0.128374 0.906366 0.848633 0.081543
-13.807693 3.257463 1.486821 -0.208185 0.093086 0.973650 0.864990 0.079834
-14.685906 -1.136030 1.719081 -0.208185 0.093086 0.973650 0.848633 0.081543
-11.282834 -1.599230 2.491006 -0.208185 0.093086 0.973650 0.844727 0.061767
-13.807693 3.257463 1.486821 -0.352241 0.010379 0.935852 0.864990 0.079834
-11.282834 -1.599230 2.491006 -0.352241 0.010379 0.935852 0.844727 0.061767
-11.173056 3.813567 2.472292 -0.352241 0.010379 0.935852 0.866699 0.059570
-11.173056 3.813567 2.472292 -0.197557 0.007396 0.980264 0.866699 0.059570
-11.282834 -1.599230 2.491006 -0.197557 0.007396 0.980264 0.844727 0.061767
-3.708256 -1.919554 4.019958 -0.197557 0.007396 0.980264 0.849121 0.045166
-12.655041 4.478424 -3.240643 0.375179 0.781388 -0.498672 0.881836 0.094970
-12.490376 2.336054 -6.473716 0.375179 0.781388 -0.498672 0.902344 0.092773
-16.771660 4.512987 -6.283652 0.375179 0.781388 -0.498672 0.894531 0.114014
-12.655041 4.478424 -3.240643 0.086713 0.990572 -0.106055 0.881836 0.094970
-16.771660 4.512987 -6.283652 0.086713 0.990572 -0.106055 0.894531 0.114014
-16.552107 4.938100 -2.133500 0.086713 0.990572 -0.106055 0.875244 0.115967
-12.655041 4.478424 -3.240643 0.293141 0.436544 0.850587 0.881836 0.094970
-16.552107 4.938100 -2.133500 0.293141 0.436544 0.850587 0.875244 0.115967
-19.735624 3.388968 -0.241296 0.293141 0.436544 0.850587 0.859619 0.117676
-12.655041 4.478424 -3.240643 -0.069517 0.979027 0.191505 0.881836 0.094970
-19.735624 3.388968 -0.241296 -0.069517 0.979027 0.191505 0.859619 0.117676
-14.960347 3.758013 -0.394522 -0.069517 0.979027 0.191505 0.864502 0.096923
-14.960347 3.758013 -0.394522 0.019214 0.161081 0.986754 0.864502 0.096923
-19.735624 3.388968 -0.241296 0.019214 0.161081 0.986754 0.859619 0.117676
-17.594984 0.184662 0.240102 0.019214 0.161081 0.986754 0.848877 0.098632
-17.594984 0.184662 0.240102 -0.645742 -0.327783 0.689620 0.848877 0.098632
-19.735624 3.388968 -0.241296 -0.645742 -0.327783 0.689620 0.859619 0.117676
-20.229620 0.525676 -2.064812 -0.645742 -0.327783 0.689620 0.849121 0.118896
-17.594984 0.184662 0.240102 -0.264466 -0.950754 0.161633 0.848877 0.098632
-20.229620 0.525676 -2.064812 -0.264466 -0.950754 0.161633 0.849121 0.118896
-19.900290 -0.144541 -5.468283 -0.264466 -0.950754 0.161633 0.835205 0.120361
-17.594984 0.184662 0.240102 -0.717908 -0.615397 0.325414 0.848877 0.098632
-19.900290 -0.144541 -5.468283 -0.717908 -0.615397 0.325414 0.835205 0.120361
-17.320541 -1.989263 -3.265592 -0.717908 -0.615397 0.325414 0.832031 0.100342
-17.594984 0.184662 0.240102 -0.563288 -0.721233 0.403149 0.848877 0.098632
-17.320541 -1.989263 -3.265592 -0.563288 -0.721233 0.403149 0.832031 0.100342
-14.521241 -3.578537 -2.197563 -0.563288 -0.721233 0.403149 0.831787 0.083496
-17.594984 0.184662 0.240102 -0.544776 -0.721649 0.427133 0.848877 0.098632
-14.521241 -3.578537 -2.197563 -0.544776 -0.721649 0.427133 0.831787 0.083496
-14.685906 -1.136030 1.719081 -0.544776 -0.721649 0.427133 0.848633 0.081543
-18.802525 2.605885 -8.438863 0.263687 0.585511 -0.766580 0.918701 0.111328
-16.771660 4.512987 -6.283652 0.263687 0.585511 -0.766580 0.894531 0.114014
-12.490376 2.336054 -6.473716 0.263687 0.585511 -0.766580 0.902344 0.092773
-18.802525 2.605885 -8.438863 0.297973 0.019954 -0.954366 0.918701 0.111328
-12.490376 2.336054 -6.473716 0.297973 0.019954 -0.954366 0.902344 0.092773
-14.740794 -1.013406 -7.246375 0.297973 0.019954 -0.954366 0.921631 0.090820
-18.802525 2.605885 -8.438863 -0.346832 -0.620863 -0.703020 0.918701 0.111328
-14.740794 -1.013406 -7.246375 -0.346832 -0.620863 -0.703020 0.921631 0.090820
-19.900290 -0.144541 -5.468283 -0.346832 -0.620863 -0.703020 0.939697 0.109131
-18.802525 2.605885 -8.438863 -0.533316 -0.513323 -0.672364 0.918701 0.111328
-19.900290 -0.144541 -5.468283 -0.533316 -0.513323 -0.672364 0.939697 0.109131
-22.370260 4.074517 -6.730192 -0.533316 -0.513323 -0.672364 0.939697 0.124756
-18.802525 2.605885 -8.438863 -0.494929 -0.226238 -0.838965 0.918701 0.111328
-22.370260 4.074517 -6.730192 -0.494929 -0.226238 -0.838965 0.939697 0.124756
-19.461184 5.489360 -8.827870 -0.494929 -0.226238 -0.838965 0.918945 0.126953
-18.802525 2.605885 -8.438863 0.694130 0.061801 -0.717192 0.918701 0.111328
-19.461184 5.489360 -8.827870 0.694130 0.061801 -0.717192 0.918945 0.126953
-16.936325 7.616829 -6.200875 0.694130 0.061801 -0.717192 0.892578 0.129883
-18.802525 2.605885 -8.438863 0.701361 0.056159 -0.710590 0.918701 0.111328
-16.936325 7.616829 -6.200875 0.701361 0.056159 -0.710590 0.892578 0.129883
-16.771660 4.512987 -6.283652 0.701361 0.056159 -0.710590 0.894531 0.114014
-16.771660 4.512987 -6.283652 0.996813 0.054438 -0.058310 0.894531 0.114014
-16.936325 7.616829 -6.200875 0.996813 0.054438 -0.058310 0.892578 0.129883
-16.552107 4.938100 -2.133500 0.996813 0.054438 -0.058310 0.875244 0.115967
-16.552107 4.938100 -2.133500 0.826982 0.502258 0.252662 0.875244 0.115967
-16.936325 7.616829 -6.200875 0.826982 0.502258 0.252662 0.892578 0.129883
-17.924313 7.337166 -2.411185 0.826982 0.502258 0.252662 0.875000 0.131592
-16.552107 4.938100 -2.133500 0.368554 0.312155 0.875629 0.875244 0.115967
-17.924313 7.337166 -2.411185 0.368554 0.312155 0.875629 0.875000 0.131592
-19.735624 3.388968 -0.241296 0.368554 0.312155 0.875629 0.859619 0.117676
-19.735624 3.388968 -0.241296 0.571175 0.178309 0.801227 0.859619 0.117676
-17.924313 7.337166 -2.411185 0.571175 0.178309 0.801227 0.875000 0.131592
-20.668726 5.995784 -0.156245 0.571175 0.178309 0.801227 0.862549 0.133057
-19.735624 3.388968 -0.241296 -0.554078 -0.224485 0.801626 0.859619 0.117676
-20.668726 5.995784 -0.156245 -0.554078 -0.224485 0.801626 0.862549 0.133057
-23.413137 4.227012 -2.548486 -0.554078 -0.224485 0.801626 0.849365 0.134521
-19.735624 3.388968 -0.241296 -0.552301 -0.377935 0.743054 0.859619 0.117676
-23.413137 4.227012 -2.548486 -0.552301 -0.377935 0.743054 0.849365 0.134521
-20.229620 0.525676 -2.064812 -0.552301 -0.377935 0.743054 0.849121 0.118896
-20.229620 0.525676 -2.064812 -0.760515 -0.647084 0.053835 0.849121 0.118896
-23.413137 4.227012 -2.548486 -0.760515 -0.647084 0.053835 0.849365 0.134521
-19.900290 -0.144541 -5.468283 -0.760515 -0.647084 0.053835 0.835205 0.120361
-19.900290 -0.144541 -5.468283 -0.822782 -0.537197 -0.185604 0.835205 0.120361
-23.413137 4.227012 -2.548486 -0.822782 -0.537197 -0.185604 0.849365 0.134521
-22.370260 4.074517 -6.730192 -0.822782 -0.537197 -0.185604 0.838623 0.135498
-22.370260 4.074517 -6.730192 -0.556106 -0.823980 -0.108639 0.838623 0.135498
-23.413137 4.227012 -2.548486 -0.556106 -0.823980 -0.108639 0.849365 0.134521
-24.895121 5.871541 -7.435485 -0.556106 -0.823980 -0.108639 0.839844 0.152832
-22.370260 4.074517 -6.730192 -0.158736 -0.545908 -0.822671 0.939697 0.124756
-24.895121 5.871541 -7.435485 -0.158736 -0.545908 -0.822671 0.946289 0.141357
-21.382273 8.466985 -9.835579 -0.158736 -0.545908 -0.822671 0.926514 0.143555
-22.370260 4.074517 -6.730192 -0.339829 -0.490765 -0.802288 0.939697 0.124756
-21.382273 8.466985 -9.835579 -0.339829 -0.490765 -0.802288 0.926514 0.143555
-19.461184 5.489360 -8.827870 -0.339829 -0.490765 -0.802288 0.918945 0.126953
-19.461184 5.489360 -8.827870 0.576766 0.097633 -0.811054 0.918945 0.126953
-21.382273 8.466985 -9.835579 0.576766 0.097633 -0.811054 0.926514 0.143555
-17.869425 11.225780 -7.005383 0.576766 0.097633 -0.811054 0.900146 0.146240
-19.461184 5.489360 -8.827870 0.709863 0.026637 -0.703836 0.918945 0.126953
-17.869425 11.225780 -7.005383 0.709863 0.026637 -0.703836 0.900146 0.146240
-16.936325 7.616829 -6.200875 0.709863 0.026637 -0.703836 0.892578 0.129883
-16.936325 7.616829 -6.200875 0.946696 0.280197 0.158921 0.892578 0.129883
-17.869425 11.225780 -7.005383 0.946696 0.280197 0.158921 0.900146 0.146240
-18.747637 11.315673 -1.932356 0.946696 0.280197 0.158921 0.883545 0.148193
-16.936325 7.616829 -6.200875 0.951255 0.165538 0.260212 0.892578 0.129883
-18.747637 11.315673 -1.932356 0.951255 0.165538 0.260212 0.883545 0.148193
-17.924313 7.337166 -2.411185 0.951255 0.165538 0.260212 0.875000 0.131592
-17.924313 7.337166 -2.411185 0.624115 0.035215 0.780538 0.875000 0.131592
-18.747637 11.315673 -1.932356 0.624115 0.035215 0.780538 0.883545 0.148193
-20.668726 5.995784 -0.156245 0.624115 0.035215 0.780538 0.862549 0.133057
-20.668726 5.995784 -0.156245 0.453027 0.130821 0.881846 0.862549 0.133057
-18.747637 11.315673 -1.932356 0.453027 0.130821 0.881846 0.883545 0.148193
-22.589813 9.150116 0.362726 0.453027 0.130821 0.881846 0.868164 0.149658
-20.668726 5.995784 -0.156245 -0.366013 -0.363837 0.856538 0.862549 0.133057
-22.589813 9.150116 0.362726 -0.366013 -0.363837 0.856538 0.868164 0.149658
-25.883108 6.131323 -2.326867 -0.366013 -0.363837 0.856538 0.852539 0.151367
-20.668726 5.995784 -0.156245 -0.337854 -0.528821 0.778590 0.862549 0.133057
-25.883108 6.131323 -2.326867 -0.337854 -0.528821 0.778590 0.852539 0.151367
-23.413137 4.227012 -2.548486 -0.337854 -0.528821 0.778590 0.849365 0.134521
-23.413137 4.227012 -2.548486 -0.613108 -0.786079 -0.078599 0.849365 0.134521
-25.883108 6.131323 -2.326867 -0.613108 -0.786079 -0.078599 0.852539 0.151367
-24.895121 5.871541 -7.435485 -0.613108 -0.786079 -0.078599 0.839844 0.152832
-24.895121 5.871541 -7.435485 -0.811648 -0.569953 -0.127987 0.839844 0.152832
-25.883108 6.131323 -2.326867 -0.811648 -0.569953 -0.127987 0.852539 0.151367
-29.286180 11.170519 -3.186412 -0.811648 -0.569953 -0.127987 0.861816 0.186768
-24.895121 5.871541 -7.435485 -0.707396 -0.693930 0.134360 0.839844 0.152832
-29.286180 11.170519 -3.186412 -0.707396 -0.693930 0.134360 0.861816 0.186768
-29.395956 10.317286 -8.171085 -0.707396 -0.693930 0.134360 0.844971 0.188477
-24.895121 5.871541 -7.435485 -0.258922 -0.407064 -0.875933 0.946289 0.141357
-29.395956 10.317286 -8.171085 -0.258922 -0.407064 -0.875933 0.949219 0.177490
-25.553780 12.604515 -10.369740 -0.258922 -0.407064 -0.875933 0.933594 0.178955
-24.895121 5.871541 -7.435485 -0.291768 -0.405974 -0.866058 0.946289 0.141357
-25.553780 12.604515 -10.369740 -0.291768 -0.405974 -0.866058 0.933594 0.178955
-21.382273 8.466985 -9.835579 -0.291768 -0.405974 -0.866058 0.926514 0.143555
-21.382273 8.466985 -9.835579 0.427591 0.322055 -0.844658 0.926514 0.143555
-25.553780 12.604515 -10.369740 0.427591 0.322055 -0.844658 0.933594 0.178955
-17.869425 11.225780 -7.005383 0.427591 0.322055 -0.844658 0.900146 0.146240
-17.869425 11.225780 -7.005383 0.427654 0.329543 -0.841733 0.900146 0.146240
-25.553780 12.604515 -10.369740 0.427654 0.329543 -0.841733 0.933594 0.178955
-22.150707 15.187114 -7.629661 0.427654 0.329543 -0.841733 0.905029 0.182129
-17.869425 11.225780 -7.005383 0.667480 0.737542 0.102481 0.900146 0.146240
-22.150707 15.187114 -7.629661 0.667480 0.737542 0.102481 0.905029 0.182129
-18.747637 11.315673 -1.932356 0.667480 0.737542 0.102481 0.883545 0.148193
-18.747637 11.315673 -1.932356 0.824613 0.553598 -0.116370 0.883545 0.148193
-22.150707 15.187114 -7.629661 0.824613 0.553598 -0.116370 0.905029 0.182129
-21.986044 15.979512 -2.693201 0.824613 0.553598 -0.116370 0.891357 0.183594
-18.747637 11.315673 -1.932356 0.315380 0.362088 0.877170 0.883545 0.148193
-21.986044 15.979512 -2.693201 0.315380 0.362088 0.877170 0.891357 0.183594
-25.883108 13.813955 -0.398120 0.315380 0.362088 0.877170 0.876465 0.185303
-18.747637 11.315673 -1.932356 0.316366 0.366162 0.875122 0.883545 0.148193
-25.883108 13.813955 -0.398120 0.316366 0.366162 0.875122 0.876465 0.185303
-22.589813 9.150116 0.362726 0.316366 0.366162 0.875122 0.868164 0.149658
-22.589813 9.150116 0.362726 -0.494485 -0.211644 0.843025 0.868164 0.149658
-25.883108 13.813955 -0.398120 -0.494485 -0.211644 0.843025 0.876465 0.185303
-25.883108 6.131323 -2.326867 -0.494485 -0.211644 0.843025 0.852539 0.151367
-25.883108 6.131323 -2.326867 -0.517977 -0.208286 0.829649 0.852539 0.151367
-25.883108 13.813955 -0.398120 -0.517977 -0.208286 0.829649 0.876465 0.185303
-29.286180 11.170519 -3.186412 -0.517977 -0.208286 0.829649 0.861816 0.186768
-29.286180 11.170519 -3.186412 -0.571680 -0.120147 0.811632 0.861816 0.186768
-25.883108 13.813955 -0.398120 -0.571680 -0.120147 0.811632 0.876465 0.185303
-36.696087 27.814791 -5.941760 -0.571680 -0.120147 0.811632 0.866943 0.247314
-29.286180 11.170519 -3.186412 -0.910121 -0.376564 0.172854 0.861816 0.186768
-36.696087 27.814791 -5.941760 -0.910121 -0.376564 0.172854 0.866943 0.247314
-37.025417 27.029222 -9.387133 -0.910121 -0.376564 0.172854 0.849609 0.249268
-29.286180 11.170519 -3.186412 -0.908459 -0.408197 0.089878 0.861816 0.186768
-37.025417 27.029222 -9.387133 -0.908459 -0.408197 0.089878 0.849609 0.249268
-29.395956 10.317286 -8.171085 -0.908459 -0.408197 0.089878 0.844971 0.188477
-29.395956 10.317286 -8.171085 -0.373194 -0.235667 -0.897322 0.949219 0.177490
-37.025417 27.029222 -9.387133 -0.373194 -0.235667 -0.897322 0.960205 0.237305
-25.553780 12.604515 -10.369740 -0.373194 -0.235667 -0.897322 0.933594 0.178955
-25.553780 12.604515 -10.369740 -0.360842 -0.225321 -0.904999 0.933594 0.178955
-37.025417 27.029222 -9.387133 -0.360842 -0.225321 -0.904999 0.960205 0.237305
-34.390781 28.683369 -10.849454 -0.360842 -0.225321 -0.904999 0.944336 0.239014
-25.553780 12.604515 -10.369740 0.489179 0.243871 -0.837396 0.933594 0.178955
-34.390781 28.683369 -10.849454 0.489179 0.243871 -0.837396 0.944336 0.239014
-22.150707 15.187114 -7.629661 0.489179 0.243871 -0.837396 0.905029 0.182129
-22.150707 15.187114 -7.629661 0.487437 0.241913 -0.838978 0.905029 0.182129
-34.390781 28.683369 -10.849454 0.487437 0.241913 -0.838978 0.944336 0.239014
-31.975698 30.680578 -8.870437 0.487437 0.241913 -0.838978 0.923828 0.241211
-22.150707 15.187114 -7.629661 0.843200 0.525695 -0.112510 0.905029 0.182129
-31.975698 30.680578 -8.870437 0.843200 0.525695 -0.112510 0.923828 0.241211
-21.986044 15.979512 -2.693201 0.843200 0.525695 -0.112510 0.891357 0.183594
-21.986044 15.979512 -2.693201 0.846034 0.510939 -0.152210 0.891357 0.183594
-31.975698 30.680578 -8.870437 0.846034 0.510939 -0.152210 0.923828 0.241211
-31.756145 31.363419 -5.357918 0.846034 0.510939 -0.152210 0.905762 0.243164
-21.986044 15.979512 -2.693201 0.319853 0.355274 0.878336 0.891357 0.183594
-31.756145 31.363419 -5.357918 0.319853 0.355274 0.878336 0.905762 0.243164
-25.883108 13.813955 -0.398120 0.319853 0.355274 0.878336 0.876465 0.185303
-25.883108 13.813955 -0.398120 0.283750 0.347535 0.893703 0.876465 0.185303
-31.756145 31.363419 -5.357918 0.283750 0.347535 0.893703 0.905762 0.243164
-34.335892 29.709267 -3.895597 0.283750 0.347535 0.893703 0.887451 0.245117
-25.883108 13.813955 -0.398120 -0.584925 -0.135078 0.799760 0.876465 0.185303
-34.335892 29.709267 -3.895597 -0.584925 -0.135078 0.799760 0.887451 0.245117
-36.696087 27.814791 -5.941760 -0.584925 -0.135078 0.799760 0.866943 0.247314
-36.696087 27.814791 -5.941760 -0.503509 -0.261957 0.823321 0.866943 0.247314
-34.335892 29.709267 -3.895597 -0.503509 -0.261957 0.823321 0.887451 0.245117
-46.081978 38.369015 -8.323730 -0.503509 -0.261957 0.823321 0.864746 0.307861
-36.696087 27.814791 -5.941760 -0.753442 -0.621787 0.213790 0.866943 0.247314
-46.081978 38.369015 -8.323730 -0.753442 -0.621787 0.213790 0.864746 0.307861
-37.025417 27.029222 -9.387133 -0.753442 -0.621787 0.213790 0.849609 0.249268
-37.025417 27.029222 -9.387133 -0.764833 -0.625353 0.154803 0.849609 0.249268
-46.081978 38.369015 -8.323730 -0.764833 -0.625353 0.154803 0.864746 0.307861
-46.301529 37.406727 -13.295779 -0.764833 -0.625353 0.154803 0.841309 0.308594
-37.025417 27.029222 -9.387133 -0.175346 -0.480404 -0.859340 0.960205 0.237305
-46.301529 37.406727 -13.295779 -0.175346 -0.480404 -0.859340 0.972656 0.286377
-34.390781 28.683369 -10.849454 -0.175346 -0.480404 -0.859340 0.944336 0.239014
-34.390781 28.683369 -10.849454 -0.181633 -0.487496 -0.854024 0.944336 0.239014
-46.301529 37.406727 -13.295779 -0.181633 -0.487496 -0.854024 0.972656 0.286377
-42.569130 39.912048 -15.519677 -0.181633 -0.487496 -0.854024 0.951416 0.292480
-34.390781 28.683369 -10.849454 0.585097 0.090987 -0.805843 0.944336 0.239014
-42.569130 39.912048 -15.519677 0.585097 0.090987 -0.805843 0.951416 0.292480
-31.975698 30.680578 -8.870437 0.585097 0.090987 -0.805843 0.923828 0.241211
-31.975698 30.680578 -8.870437 0.582700 0.086643 -0.808055 0.923828 0.241211
-42.569130 39.912048 -15.519677 0.582700 0.086643 -0.808055 0.951416 0.292480
-39.495388 42.857388 -12.987349 0.582700 0.086643 -0.808055 0.929688 0.298096
-31.975698 30.680578 -8.870437 0.863056 0.482989 -0.147840 0.923828 0.241211
-39.495388 42.857388 -12.987349 0.863056 0.482989 -0.147840 0.929688 0.298096
-31.756145 31.363419 -5.357918 0.863056 0.482989 -0.147840 0.905762 0.243164
-31.756145 31.363419 -5.357918 0.858042 0.500069 -0.117024 0.905762 0.243164
-39.495388 42.857388 -12.987349 0.858042 0.500069 -0.117024 0.929688 0.298096
-39.385612 43.807049 -8.124346 0.858042 0.500069 -0.117024 0.907959 0.302734
-31.756145 31.363419 -5.357918 0.312592 0.384736 0.868484 0.905762 0.243164
-39.385612 43.807049 -8.124346 0.312592 0.384736 0.868484 0.907959 0.302734
-42.898460 41.423389 -5.804019 0.312592 0.384736 0.868484 0.886963 0.306152
-31.756145 31.363419 -5.357918 0.281184 0.351042 0.893143 0.905762 0.243164
-42.898460 41.423389 -5.804019 0.281184 0.351042 0.893143 0.886963 0.306152
-34.335892 29.709267 -3.895597 0.281184 0.351042 0.893143 0.887451 0.245117
-34.335892 29.709267 -3.895597 -0.475953 -0.208716 0.854345 0.887451 0.245117
-42.898460 41.423389 -5.804019 -0.475953 -0.208716 0.854345 0.886963 0.306152
-46.081978 38.369015 -8.323730 -0.475953 -0.208716 0.854345 0.864746 0.307861
-46.081978 38.369015 -8.323730 -0.440298 -0.251998 0.861763 0.864746 0.307861
-42.898460 41.423389 -5.804019 -0.440298 -0.251998 0.861763 0.886963 0.306152
-48.881279 42.143806 -8.650141 -0.440298 -0.251998 0.861763 0.863281 0.325439
-46.081978 38.369015 -8.323730 -0.799649 -0.579354 0.157828 0.864746 0.307861
-48.881279 42.143806 -8.650141 -0.799649 -0.579354 0.157828 0.863281 0.325439
-49.265495 41.271629 -13.798386 -0.799649 -0.579354 0.157828 0.839600 0.325439
-46.081978 38.369015 -8.323730 -0.793916 -0.589454 0.149139 0.864746 0.307861
-49.265495 41.271629 -13.798386 -0.793916 -0.589454 0.149139 0.839600 0.325439
-46.301529 37.406727 -13.295779 -0.793916 -0.589454 0.149139 0.841309 0.308594
-46.301529 37.406727 -13.295779 -0.298748 -0.344828 -0.889856 0.972656 0.286377
-49.265495 41.271629 -13.798386 -0.298748 -0.344828 -0.889856 0.975586 0.311768
-42.569130 39.912048 -15.519677 -0.298748 -0.344828 -0.889856 0.951416 0.292480
-42.569130 39.912048 -15.519677 -0.300611 -0.365081 -0.881107 0.951416 0.292480
-49.265495 41.271629 -13.798386 -0.300611 -0.365081 -0.881107 0.975586 0.311768
-45.478207 43.976124 -16.211102 -0.300611 -0.365081 -0.881107 0.952637 0.316162
-42.569130 39.912048 -15.519677 0.515777 0.228730 -0.825625 0.951416 0.292480
-45.478207 43.976124 -16.211102 0.515777 0.228730 -0.825625 0.952637 0.316162
-42.239799 46.843960 -13.393529 0.515777 0.228730 -0.825625 0.929688 0.319336
-42.569130 39.912048 -15.519677 0.471470 0.238050 -0.849145 0.951416 0.292480
-42.239799 46.843960 -13.393529 0.471470 0.238050 -0.849145 0.929688 0.319336
-39.495388 42.857388 -12.987349 0.471470 0.238050 -0.849145 0.929688 0.298096
-39.495388 42.857388 -12.987349 0.823850 0.555847 -0.110931 0.929688 0.298096
-42.239799 46.843960 -13.393529 0.823850 0.555847 -0.110931 0.929688 0.319336
-41.965359 47.405647 -8.540873 0.823850 0.555847 -0.110931 0.907715 0.320313
-39.495388 42.857388 -12.987349 0.812944 0.567821 -0.129237 0.929688 0.298096
-41.965359 47.405647 -8.540873 0.812944 0.567821 -0.129237 0.907715 0.320313
-39.385612 43.807049 -8.124346 0.812944 0.567821 -0.129237 0.907959 0.302734
-39.385612 43.807049 -8.124346 0.341198 0.345769 0.874087 0.907959 0.302734
-41.965359 47.405647 -8.540873 0.341198 0.345769 0.874087 0.907715 0.320313
-45.533096 45.076515 -6.226858 0.341198 0.345769 0.874087 0.886719 0.323975
-39.385612 43.807049 -8.124346 0.341310 0.347252 0.873455 0.907959 0.302734
-45.533096 45.076515 -6.226858 0.341310 0.347252 0.873455 0.886719 0.323975
-42.898460 41.423389 -5.804019 0.341310 0.347252 0.873455 0.886963 0.306152
-42.898460 41.423389 -5.804019 -0.440533 -0.216880 0.871145 0.886963 0.306152
-45.533096 45.076515 -6.226858 -0.440533 -0.216880 0.871145 0.886719 0.323975
-48.881279 42.143806 -8.650141 -0.440533 -0.216880 0.871145 0.863281 0.325439
-14.740794 -1.013406 -7.246375 -0.284036 -0.872344 -0.397918 0.921631 0.090820
-17.320541 -1.989263 -3.265592 -0.284036 -0.872344 -0.397918 0.937500 0.089111
-19.900290 -0.144541 -5.468283 -0.284036 -0.872344 -0.397918 0.939697 0.109131
-17.320541 -1.989263 -3.265592 -0.322931 -0.849363 -0.417490 0.937500 0.089111
-14.740794 -1.013406 -7.246375 -0.322931 -0.849363 -0.417490 0.921631 0.090820
-14.521241 -3.578537 -2.197563 -0.322931 -0.849363 -0.417490 0.935547 0.072265
3 0 1 2
3 3 4 5
3 6 7 8
3 9 10 11
3 12 13 14
3 15 16 17
3 18 19 20
3 21 22 23
3 24 25 26
3 27 28 29
3 30 31 32
3 33 34 35
3 36 37 38
3 39 40 41
3 42 43 44
3 45 46 47
3 48 49 50
3 51 52 53
3 54 55 56
3 57 58 59
3 60 61 62
3 63 64 65
3 66 67 68
3 69 70 71
3 72 73 74
3 75 76 77
3 78 79 80
3 81 82 83
3 84 85 86
3 87 88 89
3 90 91 92
3 93 94 95
3 96 97 98
3 99 100 101
3 102 103 104
3 105 106 107
3 108 109 110
3 111 112 113
3 114 115 116
3 117 118 119
3 120 121 122
3 123 124 125
3 126 127 128
3 129 130 131
3 132 133 134
3 135 136 137
3 138 139 140
3 141 142 143
3 144 145 146
3 147 148 149
3 150 151 152
3 153 154 155
3 156 157 158
3 159 160 161
3 162 163 164
3 165 166 167
3 168 169 170
3 171 172 173
3 174 175 176
3 177 178 179
3 180 181 182
3 183 184 185
3 186 187 188
3 189 190 191
3 192 193 194
3 195 196 197
3 198 199 200
3 201 202 203
3 204 205 206
3 207 208 209
3 210 211 212
3 213 214 215
3 216 217 218
3 219 220 221
3 222 223 224
3 225 226 227
3 228 229 230
3 231 232 233
3 234 235 236
3 237 238 239
3 240 241 242
3 243 244 245
3 246 247 248
3 249 250 251
3 252 253 254
3 255 256 257
3 258 259 260
3 261 262 263
3 264 265 266
3 267 268 269
3 270 271 272
3 273 274 275
3 276 277 278
3 279 280 281
3 282 283 284
3 285 286 287
3 288 289 290
3 291 292 293
3 294 295 296
3 297 298 299
3 300 301 302
3 303 304 305
3 306 307 308
3 309 310 311
3 312 313 314
3 315 316 317
3 318 319 320
3 321 322 323
3 324 325 326
3 327 328 329
3 330 331 332
3 333 334 335
3 336 337 338
3 339 340 341
3 342 343 344
3 345 346 347
3 348 349 350
3 351 352 353
3 354 355 356
3 357 358 359
3 360 361 362
3 363 364 365
3 366 367 368
3 369 370 371
3 372 373 374
3 375 376 377
3 378 379 380
3 381 382 383
3 384 385 386
3 387 388 389
3 390 391 392
3 393 394 395
3 396 397 398
3 399 400 401
3 402 403 404
3 405 406 407
