ply
format ascii 1.0
comment Created by Blender 2.91.2 - www.blender.org
element vertex 480
property float x
property float y
property float z
property float nx
property float ny
property float nz
property float s
property float t
element face 160
property list uchar uint vertex_indices
end_header
-2.616611 2.553014 -3.051233 0.342318 0.846133 -0.408506 0.908936 0.038818
-1.628621 3.841929 0.446389 0.342318 0.846133 -0.408506 0.886475 0.041259
0.072914 3.114181 0.364860 0.342318 0.846133 -0.408506 0.896973 0.026367
-2.616611 2.553014 -3.051233 0.348369 0.841694 -0.412541 0.908936 0.038818
0.072914 3.114181 0.364860 0.348369 0.841694 -0.412541 0.896973 0.026367
3.256432 0.483368 -2.314387 0.348369 0.841694 -0.412541 0.905762 0.021240
-2.616611 2.553014 -3.051233 0.266419 0.453149 -0.850692 0.908936 0.038818
3.256432 0.483368 -2.314387 0.266419 0.453149 -0.850692 0.905762 0.021240
-1.299293 -1.576959 -4.838645 0.266419 0.453149 -0.850692 0.922119 0.037841
-2.616611 2.553014 -3.051233 -0.099110 0.368439 -0.924354 0.908936 0.038818
-1.299293 -1.576959 -4.838645 -0.099110 0.368439 -0.924354 0.922119 0.037841
-7.172336 -3.875561 -5.125134 -0.099110 0.368439 -0.924354 0.921387 0.053710
-2.616611 2.553014 -3.051233 0.193253 0.174525 -0.965502 0.908936 0.038818
-7.172336 -3.875561 -5.125134 0.193253 0.174525 -0.965502 0.921387 0.053710
-6.513675 0.711296 -4.164172 0.193253 0.174525 -0.965502 0.907959 0.055175
-2.616611 2.553014 -3.051233 -0.361025 0.903501 -0.230971 0.908936 0.038818
-6.513675 0.711296 -4.164172 -0.361025 0.903501 -0.230971 0.907959 0.055175
-1.628621 3.841929 0.446389 -0.361025 0.903501 -0.230971 0.886475 0.041259
-1.628621 3.841929 0.446389 0.001788 0.826423 -0.563047 0.886475 0.041259
-6.513675 0.711296 -4.164172 0.001788 0.826423 -0.563047 0.907959 0.055175
-6.897893 3.573344 0.035439 0.001788 0.826423 -0.563047 0.885254 0.057617
-1.628621 3.841929 0.446389 -0.068178 0.967994 0.241536 0.886475 0.041259
-6.897893 3.573344 0.035439 -0.068178 0.967994 0.241536 0.885254 0.057617
-4.098592 2.541202 4.962065 -0.068178 0.967994 0.241536 0.871582 0.042724
-1.628621 3.841929 0.446389 0.371067 0.818437 0.438714 0.886475 0.041259
-4.098592 2.541202 4.962065 0.371067 0.818437 0.438714 0.871582 0.042724
0.072914 3.114181 0.364860 0.371067 0.818437 0.438714 0.896973 0.026367
0.072914 3.114181 0.364860 -0.058309 0.995756 0.071198 0.896973 0.026367
-4.098592 2.541202 4.962065 -0.058309 0.995756 0.071198 0.871582 0.042724
0.951126 2.934977 3.590374 -0.058309 0.995756 0.071198 0.877197 0.029541
0.072914 3.114181 0.364860 0.575498 0.810141 -0.111681 0.896973 0.026367
0.951126 2.934977 3.590374 0.575498 0.810141 -0.111681 0.877197 0.029541
3.256432 0.483368 -2.314387 0.575498 0.810141 -0.111681 0.905762 0.021240
3.256432 0.483368 -2.314387 0.161105 0.932190 -0.324140 0.905762 0.021240
0.951126 2.934977 3.590374 0.161105 0.932190 -0.324140 0.877197 0.029541
3.860203 1.860639 1.946575 0.161105 0.932190 -0.324140 0.870361 0.014892
3.256432 0.483368 -2.314387 0.983670 -0.156561 -0.088779 0.905762 0.021240
3.860203 1.860639 1.946575 0.983670 -0.156561 -0.088779 0.870361 0.014892
3.091767 -2.032306 0.297493 0.983670 -0.156561 -0.088779 0.910889 0.011474
3.256432 0.483368 -2.314387 0.577294 -0.605990 -0.547273 0.905762 0.021240
3.091767 -2.032306 0.297493 0.577294 -0.605990 -0.547273 0.910889 0.011474
-1.299293 -1.576959 -4.838645 0.577294 -0.605990 -0.547273 0.922119 0.037841
-1.299293 -1.576959 -4.838645 0.492008 -0.723153 -0.484746 0.922119 0.037841
3.091767 -2.032306 0.297493 0.492008 -0.723153 -0.484746 0.910889 0.011474
-1.848176 -4.270586 -1.377346 0.492008 -0.723153 -0.484746 0.929932 0.035888
-1.299293 -1.576959 -4.838645 0.186095 -0.789485 -0.584877 0.922119 0.037841
-1.848176 -4.270586 -1.377346 0.186095 -0.789485 -0.584877 0.929932 0.035888
-7.611440 -5.935593 -0.963608 0.186095 -0.789485 -0.584877 0.932617 0.052002
-1.299293 -1.576959 -4.838645 0.352593 -0.852908 -0.385001 0.922119 0.037841
-7.611440 -5.935593 -0.963608 0.352593 -0.852908 -0.385001 0.932617 0.052002
-7.172336 -3.875561 -5.125134 0.352593 -0.852908 -0.385001 0.921387 0.053710
-7.172336 -3.875561 -5.125134 -0.014783 -0.895487 -0.444842 0.921387 0.053710
-7.611440 -5.935593 -0.963608 -0.014783 -0.895487 -0.444842 0.932617 0.052002
-9.971637 -4.001267 -4.779056 -0.014783 -0.895487 -0.444842 0.923584 0.073486
-7.172336 -3.875561 -5.125134 -0.129433 0.221097 -0.966625 0.921387 0.053710
-9.971637 -4.001267 -4.779056 -0.129433 0.221097 -0.966625 0.923584 0.073486
-6.513675 0.711296 -4.164172 -0.129433 0.221097 -0.966625 0.907959 0.055175
-6.513675 0.711296 -4.164172 0.055868 0.088763 -0.994485 0.907959 0.055175
-9.971637 -4.001267 -4.779056 0.055868 0.088763 -0.994485 0.923584 0.073486
-8.270100 0.923087 -4.243941 0.055868 0.088763 -0.994485 0.905762 0.075439
-6.513675 0.711296 -4.164172 0.124524 0.825181 -0.550971 0.907959 0.055175
-8.270100 0.923087 -4.243941 0.124524 0.825181 -0.550971 0.905762 0.075439
-6.897893 3.573344 0.035439 0.124524 0.825181 -0.550971 0.885254 0.057617
-6.897893 3.573344 0.035439 -0.315356 0.848731 -0.424506 0.885254 0.057617
-8.270100 0.923087 -4.243941 -0.315356 0.848731 -0.424506 0.905762 0.075439
-8.379876 2.948334 -0.113236 -0.315356 0.848731 -0.424506 0.884766 0.077880
-6.897893 3.573344 0.035439 -0.395039 0.859595 0.324100 0.885254 0.057617
-8.379876 2.948334 -0.113236 -0.395039 0.859595 0.324100 0.884766 0.077880
-10.300964 0.500319 4.037943 -0.395039 0.859595 0.324100 0.864990 0.079834
-6.897893 3.573344 0.035439 -0.327708 0.863178 0.384098 0.885254 0.057617
-10.300964 0.500319 4.037943 -0.327708 0.863178 0.384098 0.864990 0.079834
-7.885881 1.259623 4.392093 -0.327708 0.863178 0.384098 0.866699 0.059570
-6.897893 3.573344 0.035439 -0.347292 0.858551 0.377199 0.885254 0.057617
-7.885881 1.259623 4.392093 -0.347292 0.858551 0.377199 0.866699 0.059570
-4.098592 2.541202 4.962065 -0.347292 0.858551 0.377199 0.871582 0.042724
-4.098592 2.541202 4.962065 -0.085566 -0.182731 0.979432 0.871582 0.042724
-7.885881 1.259623 4.392093 -0.085566 -0.182731 0.979432 0.866699 0.059570
-2.561722 -3.203290 4.024588 -0.085566 -0.182731 0.979432 0.849121 0.045166
-4.098592 2.541202 4.962065 0.143810 -0.121797 0.982082 0.871582 0.042724
-2.561722 -3.203290 4.024588 0.143810 -0.121797 0.982082 0.849121 0.045166
1.554896 -0.919582 3.705000 0.143810 -0.121797 0.982082 0.859131 0.029296
-4.098592 2.541202 4.962065 0.256513 0.068850 0.964086 0.871582 0.042724
1.554896 -0.919582 3.705000 0.256513 0.068850 0.964086 0.859131 0.029296
0.951126 2.934977 3.590374 0.256513 0.068850 0.964086 0.877197 0.029541
0.951126 2.934977 3.590374 0.518670 0.106471 0.848319 0.877197 0.029541
1.554896 -0.919582 3.705000 0.518670 0.106471 0.848319 0.859131 0.029296
3.860203 1.860639 1.946575 0.518670 0.106471 0.848319 0.870361 0.014892
3.860203 1.860639 1.946575 0.800354 -0.360808 0.478802 0.870361 0.014892
1.554896 -0.919582 3.705000 0.800354 -0.360808 0.478802 0.859131 0.029296
3.091767 -2.032306 0.297493 0.800354 -0.360808 0.478802 0.841553 0.025878
3.091767 -2.032306 0.297493 0.458560 -0.762800 0.455915 0.841553 0.025878
1.554896 -0.919582 3.705000 0.458560 -0.762800 0.455915 0.859131 0.029296
-2.561722 -3.203290 4.024588 0.458560 -0.762800 0.455915 0.849121 0.045166
3.091767 -2.032306 0.297493 0.337744 -0.913905 0.225179 0.841553 0.025878
-2.561722 -3.203290 4.024588 0.337744 -0.913905 0.225179 0.849121 0.045166
-1.848176 -4.270586 -1.377346 0.337744 -0.913905 0.225179 0.827148 0.047607
-1.848176 -4.270586 -1.377346 0.285299 -0.932396 0.221905 0.827148 0.047607
-2.561722 -3.203290 4.024588 0.285299 -0.932396 0.221905 0.849121 0.045166
-7.611440 -5.935593 -0.963608 0.285299 -0.932396 0.221905 0.829834 0.063476
-7.611440 -5.935593 -0.963608 0.091926 -0.909604 0.405179 0.829834 0.063476
-2.561722 -3.203290 4.024588 0.091926 -0.909604 0.405179 0.849121 0.045166
-7.446775 -4.000460 3.343292 0.091926 -0.909604 0.405179 0.844727 0.061767
-7.611440 -5.935593 -0.963608 0.004398 -0.912211 0.409697 0.829834 0.063476
-7.446775 -4.000460 3.343292 0.004398 -0.912211 0.409697 0.844727 0.061767
-10.630294 -3.920690 3.555078 0.004398 -0.912211 0.409697 0.848633 0.081543
-7.611440 -5.935593 -0.963608 -0.003451 -0.914166 0.405325 0.829834 0.063476
-10.630294 -3.920690 3.555078 -0.003451 -0.914166 0.405325 0.848633 0.081543
-10.575406 -5.715222 -0.491823 -0.003451 -0.914166 0.405325 0.831787 0.083496
-7.611440 -5.935593 -0.963608 -0.129064 -0.914382 -0.383729 0.932617 0.052002
-10.575406 -5.715222 -0.491823 -0.129064 -0.914382 -0.383729 0.935547 0.072265
-9.971637 -4.001267 -4.779056 -0.129064 -0.914382 -0.383729 0.923584 0.073486
-9.971637 -4.001267 -4.779056 -0.671533 -0.650583 -0.354662 0.923584 0.073486
-10.575406 -5.715222 -0.491823 -0.671533 -0.650583 -0.354662 0.935547 0.072265
-11.508506 -2.629574 -4.385277 -0.671533 -0.650583 -0.354662 0.921631 0.090820
-9.971637 -4.001267 -4.779056 -0.172151 0.088758 -0.981064 0.923584 0.073486
-11.508506 -2.629574 -4.385277 -0.172151 0.088758 -0.981064 0.921631 0.090820
-9.752082 0.740579 -4.388581 -0.172151 0.088758 -0.981064 0.902344 0.092773
-9.971637 -4.001267 -4.779056 0.087356 0.077737 -0.993140 0.923584 0.073486
-9.752082 0.740579 -4.388581 0.087356 0.077737 -0.993140 0.902344 0.092773
-8.270100 0.923087 -4.243941 0.087356 0.077737 -0.993140 0.905762 0.075439
-8.270100 0.923087 -4.243941 -0.058533 0.867201 -0.494506 0.905762 0.075439
-9.752082 0.740579 -4.388581 -0.058533 0.867201 -0.494506 0.902344 0.092773
-8.983646 3.153806 -0.247530 -0.058533 0.867201 -0.494506 0.881836 0.094970
-8.270100 0.923087 -4.243941 0.373776 0.836695 -0.400291 0.905762 0.075439
-8.983646 3.153806 -0.247530 0.373776 0.836695 -0.400291 0.881836 0.094970
-8.379876 2.948334 -0.113236 0.373776 0.836695 -0.400291 0.884766 0.077880
-8.379876 2.948334 -0.113236 0.159594 0.824141 0.543435 0.884766 0.077880
-8.983646 3.153806 -0.247530 0.159594 0.824141 0.543435 0.881836 0.094970
-10.575406 1.554700 2.645043 0.159594 0.824141 0.543435 0.864502 0.096923
-8.379876 2.948334 -0.113236 0.202683 0.799581 0.565323 0.884766 0.077880
-10.575406 1.554700 2.645043 0.202683 0.799581 0.565323 0.864502 0.096923
-10.300964 0.500319 4.037943 0.202683 0.799581 0.565323 0.864990 0.079834
-10.300964 0.500319 4.037943 -0.698246 0.497826 0.514413 0.864990 0.079834
-10.575406 1.554700 2.645043 -0.698246 0.497826 0.514413 0.864502 0.096923
-13.484483 -3.079856 3.181480 -0.698246 0.497826 0.514413 0.848877 0.098632
-10.300964 0.500319 4.037943 -0.156852 -0.095677 0.982977 0.864990 0.079834
-13.484483 -3.079856 3.181480 -0.156852 -0.095677 0.982977 0.848877 0.098632
-10.630294 -3.920690 3.555078 -0.156852 -0.095677 0.982977 0.848633 0.081543
-10.300964 0.500319 4.037943 0.063134 -0.113005 0.991587 0.864990 0.079834
-10.630294 -3.920690 3.555078 0.063134 -0.113005 0.991587 0.848633 0.081543
-7.446775 -4.000460 3.343292 0.063134 -0.113005 0.991587 0.844727 0.061767
-10.300964 0.500319 4.037943 -0.079864 -0.201323 0.976264 0.864990 0.079834
-7.446775 -4.000460 3.343292 -0.079864 -0.201323 0.976264 0.844727 0.061767
-7.885881 1.259623 4.392093 -0.079864 -0.201323 0.976264 0.866699 0.059570
-7.885881 1.259623 4.392093 -0.102730 -0.202746 0.973828 0.866699 0.059570
-7.446775 -4.000460 3.343292 -0.102730 -0.202746 0.973828 0.844727 0.061767
-2.561722 -3.203290 4.024588 -0.102730 -0.202746 0.973828 0.849121 0.045166
-8.983646 3.153806 -0.247530 0.863678 0.349015 -0.363660 0.881836 0.094970
-9.752082 0.740579 -4.388581 0.863678 0.349015 -0.363660 0.902344 0.092773
-10.136300 2.051435 -4.043016 0.863678 0.349015 -0.363660 0.894531 0.114014
-8.983646 3.153806 -0.247530 0.761011 0.523500 -0.383159 0.881836 0.094970
-10.136300 2.051435 -4.043016 0.761011 0.523500 -0.383159 0.894531 0.114014
-9.587418 3.776542 -0.595882 0.761011 0.523500 -0.383159 0.875244 0.115967
-8.983646 3.153806 -0.247530 0.398288 0.710607 0.580003 0.881836 0.094970
-9.587418 3.776542 -0.595882 0.398288 0.710607 0.580003 0.875244 0.115967
-11.837835 2.529831 2.476922 0.398288 0.710607 0.580003 0.859619 0.117676
-8.983646 3.153806 -0.247530 0.433668 0.666067 0.606867 0.881836 0.094970
-11.837835 2.529831 2.476922 0.433668 0.666067 0.606867 0.859619 0.117676
-10.575406 1.554700 2.645043 0.433668 0.666067 0.606867 0.864502 0.096923
-10.575406 1.554700 2.645043 -0.029201 0.132999 0.990686 0.864502 0.096923
-11.837835 2.529831 2.476922 -0.029201 0.132999 0.990686 0.859619 0.117676
-13.484483 -3.079856 3.181480 -0.029201 0.132999 0.990686 0.848877 0.098632
-13.484483 -3.079856 3.181480 -0.656204 0.280597 0.700472 0.848877 0.098632
-11.837835 2.529831 2.476922 -0.656204 0.280597 0.700472 0.859619 0.117676
-13.978477 -1.018796 1.893080 -0.656204 0.280597 0.700472 0.849121 0.118896
-13.484483 -3.079856 3.181480 -0.976963 -0.126905 0.171574 0.848877 0.098632
-13.978477 -1.018796 1.893080 -0.976963 -0.126905 0.171574 0.849121 0.118896
-14.307806 -2.766872 -1.275121 -0.976963 -0.126905 0.171574 0.835205 0.120361
-13.484483 -3.079856 3.181480 -0.896763 -0.421061 0.136099 0.848877 0.098632
-14.307806 -2.766872 -1.275121 -0.896763 -0.421061 0.136099 0.835205 0.120361
-13.319818 -4.605799 -0.454469 -0.896763 -0.421061 0.136099 0.832031 0.100342
-13.484483 -3.079856 3.181480 -0.347052 -0.870281 0.349524 0.848877 0.098632
-13.319818 -4.605799 -0.454469 -0.347052 -0.870281 0.349524 0.832031 0.100342
-10.575406 -5.715222 -0.491823 -0.347052 -0.870281 0.349524 0.831787 0.083496
-13.484483 -3.079856 3.181480 -0.306816 -0.871599 0.382335 0.848877 0.098632
-10.575406 -5.715222 -0.491823 -0.306816 -0.871599 0.382335 0.831787 0.083496
-10.630294 -3.920690 3.555078 -0.306816 -0.871599 0.382335 0.848633 0.081543
-12.276941 -1.792776 -4.316370 -0.216922 0.188896 -0.957739 0.918701 0.111328
-10.136300 2.051435 -4.043016 -0.216922 0.188896 -0.957739 0.894531 0.114014
-9.752082 0.740579 -4.388581 -0.216922 0.188896 -0.957739 0.902344 0.092773
-12.276941 -1.792776 -4.316370 -0.057766 0.029128 -0.997905 0.918701 0.111328
-9.752082 0.740579 -4.388581 -0.057766 0.029128 -0.997905 0.902344 0.092773
-11.508506 -2.629574 -4.385277 -0.057766 0.029128 -0.997905 0.921631 0.090820
-12.276941 -1.792776 -4.316370 -0.621873 -0.523076 -0.582808 0.918701 0.111328
-11.508506 -2.629574 -4.385277 -0.621873 -0.523076 -0.582808 0.921631 0.090820
-14.307806 -2.766872 -1.275121 -0.621873 -0.523076 -0.582808 0.939697 0.109131
-12.276941 -1.792776 -4.316370 -0.662682 -0.461017 -0.590183 0.918701 0.111328
-14.307806 -2.766872 -1.275121 -0.662682 -0.461017 -0.590183 0.939697 0.109131
-15.734900 0.139569 -1.943063 -0.662682 -0.461017 -0.590183 0.939697 0.124756
-12.276941 -1.792776 -4.316370 -0.662721 -0.480946 -0.574013 0.918701 0.111328
-15.734900 0.139569 -1.943063 -0.662721 -0.480946 -0.574013 0.939697 0.124756
-13.704038 1.101041 -5.093359 -0.662721 -0.480946 -0.574013 0.918945 0.126953
-12.276941 -1.792776 -4.316370 0.437187 -0.025781 -0.899001 0.918701 0.111328
-13.704038 1.101041 -5.093359 0.437187 -0.025781 -0.899001 0.918945 0.126953
-11.673171 4.354078 -4.199030 0.437187 -0.025781 -0.899001 0.892578 0.129883
-12.276941 -1.792776 -4.316370 0.112697 0.007898 -0.993598 0.918701 0.111328
-11.673171 4.354078 -4.199030 0.112697 0.007898 -0.993598 0.892578 0.129883
-10.136300 2.051435 -4.043016 0.112697 0.007898 -0.993598 0.894531 0.114014
-10.136300 2.051435 -4.043016 0.783029 0.497313 -0.373559 0.894531 0.114014
-11.673171 4.354078 -4.199030 0.783029 0.497313 -0.373559 0.892578 0.129883
-9.587418 3.776542 -0.595882 0.783029 0.497313 -0.373559 0.875244 0.115967
-9.587418 3.776542 -0.595882 0.778261 0.508025 -0.369082 0.875244 0.115967
-11.673171 4.354078 -4.199030 0.778261 0.508025 -0.369082 0.892578 0.129883
-11.179176 5.877749 -1.060109 0.778261 0.508025 -0.369082 0.875000 0.131592
-9.587418 3.776542 -0.595882 0.548473 0.553887 0.626408 0.875244 0.115967
-11.179176 5.877749 -1.060109 0.548473 0.553887 0.626408 0.875000 0.131592
-11.837835 2.529831 2.476922 0.548473 0.553887 0.626408 0.859619 0.117676
-11.837835 2.529831 2.476922 0.698026 0.450618 0.556510 0.859619 0.117676
-11.179176 5.877749 -1.060109 0.698026 0.450618 0.556510 0.875000 0.131592
-13.100266 4.970797 2.083876 0.698026 0.450618 0.556510 0.862549 0.133057
-11.837835 2.529831 2.476922 -0.303389 -0.003478 0.952860 0.859619 0.117676
-13.100266 4.970797 2.083876 -0.303389 -0.003478 0.952860 0.862549 0.133057
-15.350682 2.179198 1.357157 -0.303389 -0.003478 0.952860 0.849365 0.134521
-11.837835 2.529831 2.476922 -0.306132 0.028110 0.951574 0.859619 0.117676
-15.350682 2.179198 1.357157 -0.306132 0.028110 0.951574 0.849365 0.134521
-13.978477 -1.018796 1.893080 -0.306132 0.028110 0.951574 0.849121 0.118896
-13.978477 -1.018796 1.893080 -0.898298 -0.338497 0.280144 0.849121 0.118896
-15.350682 2.179198 1.357157 -0.898298 -0.338497 0.280144 0.849365 0.134521
-14.307806 -2.766872 -1.275121 -0.898298 -0.338497 0.280144 0.835205 0.120361
-14.307806 -2.766872 -1.275121 -0.876913 -0.356480 0.322407 0.835205 0.120361
-15.350682 2.179198 1.357157 -0.876913 -0.356480 0.322407 0.849365 0.134521
-15.734900 0.139569 -1.943063 -0.876913 -0.356480 0.322407 0.838623 0.135498
-15.734900 0.139569 -1.943063 -0.755444 -0.514381 0.405852 0.838623 0.135498
-15.350682 2.179198 1.357157 -0.755444 -0.514381 0.405852 0.849365 0.134521
-17.930429 2.175385 -3.449560 -0.755444 -0.514381 0.405852 0.839844 0.152832
-15.734900 0.139569 -1.943063 -0.127411 -0.675111 -0.726631 0.939697 0.124756
-17.930429 2.175385 -3.449560 -0.127411 -0.675111 -0.726631 0.946289 0.141357
-14.088256 4.200337 -6.004641 -0.127411 -0.675111 -0.726631 0.926514 0.143555
-15.734900 0.139569 -1.943063 -0.771335 -0.265667 -0.578329 0.939697 0.124756
-14.088256 4.200337 -6.004641 -0.771335 -0.265667 -0.578329 0.926514 0.143555
-13.704038 1.101041 -5.093359 -0.771335 -0.265667 -0.578329 0.918945 0.126953
-13.704038 1.101041 -5.093359 0.636881 -0.143756 -0.757441 0.918945 0.126953
-14.088256 4.200337 -6.004641 0.636881 -0.143756 -0.757441 0.926514 0.143555
-10.794959 7.271376 -3.818389 0.636881 -0.143756 -0.757441 0.900146 0.146240
-13.704038 1.101041 -5.093359 0.407955 -0.003684 -0.912995 0.918945 0.126953
-10.794959 7.271376 -3.818389 0.407955 -0.003684 -0.912995 0.900146 0.146240
-11.673171 4.354078 -4.199030 0.407955 -0.003684 -0.912995 0.892578 0.129883
-11.673171 4.354078 -4.199030 0.930892 -0.306219 0.199171 0.892578 0.129883
-10.794959 7.271376 -3.818389 0.930892 -0.306219 0.199171 0.900146 0.146240
-11.234065 8.837467 0.641736 0.930892 -0.306219 0.199171 0.883545 0.148193
-11.673171 4.354078 -4.199030 0.963972 0.145805 -0.222483 0.892578 0.129883
-11.234065 8.837467 0.641736 0.963972 0.145805 -0.222483 0.883545 0.148193
-11.179176 5.877749 -1.060109 0.963972 0.145805 -0.222483 0.875000 0.131592
-11.179176 5.877749 -1.060109 0.857179 -0.244684 0.453183 0.875000 0.131592
-11.234065 8.837467 0.641736 0.857179 -0.244684 0.453183 0.883545 0.148193
-13.100266 4.970797 2.083876 0.857179 -0.244684 0.453183 0.862549 0.133057
-13.100266 4.970797 2.083876 0.477492 0.095313 0.873451 0.862549 0.133057
-11.234065 8.837467 0.641736 0.477492 0.095313 0.873451 0.883545 0.148193
-15.295794 7.290606 3.030968 0.477492 0.095313 0.873451 0.868164 0.149658
-13.100266 4.970797 2.083876 -0.106884 -0.460846 0.881020 0.862549 0.133057
-15.295794 7.290606 3.030968 -0.106884 -0.460846 0.881020 0.868164 0.149658
-18.369535 4.068615 0.972700 -0.106884 -0.460846 0.881020 0.852539 0.151367
-13.100266 4.970797 2.083876 -0.188448 -0.102352 0.976735 0.862549 0.133057
-18.369535 4.068615 0.972700 -0.188448 -0.102352 0.976735 0.852539 0.151367
-15.350682 2.179198 1.357157 -0.188448 -0.102352 0.976735 0.849365 0.134521
-15.350682 2.179198 1.357157 -0.534186 -0.795041 0.287326 0.849365 0.134521
-18.369535 4.068615 0.972700 -0.534186 -0.795041 0.287326 0.852539 0.151367
-17.930429 2.175385 -3.449560 -0.534186 -0.795041 0.287326 0.839844 0.152832
-17.930429 2.175385 -3.449560 -0.894367 -0.436456 0.098047 0.839844 0.152832
-18.369535 4.068615 0.972700 -0.894367 -0.436456 0.098047 0.852539 0.151367
-20.894400 8.941964 -0.364943 -0.894367 -0.436456 0.098047 0.861816 0.186768
-17.930429 2.175385 -3.449560 -0.897736 -0.432173 0.085415 0.839844 0.152832
-20.894400 8.941964 -0.364943 -0.897736 -0.432173 0.085415 0.861816 0.186768
-20.455294 7.164093 -4.745300 -0.897736 -0.432173 0.085415 0.844971 0.188477
-17.930429 2.175385 -3.449560 -0.340606 -0.394101 -0.853623 0.946289 0.141357
-20.455294 7.164093 -4.745300 -0.340606 -0.394101 -0.853623 0.949219 0.177490
-16.448450 8.771788 -7.086320 -0.340606 -0.394101 -0.853623 0.933594 0.178955
-17.930429 2.175385 -3.449560 -0.360482 -0.386935 -0.848725 0.946289 0.141357
-16.448450 8.771788 -7.086320 -0.360482 -0.386935 -0.848725 0.933594 0.178955
-14.088256 4.200337 -6.004641 -0.360482 -0.386935 -0.848725 0.926514 0.143555
-14.088256 4.200337 -6.004641 0.511665 0.061390 -0.856989 0.926514 0.143555
-16.448450 8.771788 -7.086320 0.511665 0.061390 -0.856989 0.933594 0.178955
-10.794959 7.271376 -3.818389 0.511665 0.061390 -0.856989 0.900146 0.146240
-10.794959 7.271376 -3.818389 0.510834 0.056438 -0.857825 0.900146 0.146240
-16.448450 8.771788 -7.086320 0.510834 0.056438 -0.857825 0.933594 0.178955
-13.264930 11.721157 -4.996495 0.510834 0.056438 -0.857825 0.905029 0.182129
-10.794959 7.271376 -3.818389 0.880278 0.468055 -0.077684 0.900146 0.146240
-13.264930 11.721157 -4.996495 0.880278 0.468055 -0.077684 0.905029 0.182129
-11.234065 8.837467 0.641736 0.880278 0.468055 -0.077684 0.883545 0.148193
-11.234065 8.837467 0.641736 0.892030 0.441806 -0.095342 0.883545 0.148193
-13.264930 11.721157 -4.996495 0.892030 0.441806 -0.095342 0.905029 0.182129
-13.594259 13.335459 -0.597205 0.892030 0.441806 -0.095342 0.891357 0.183594
-11.234065 8.837467 0.641736 0.351128 0.415382 0.839147 0.883545 0.148193
-13.594259 13.335459 -0.597205 0.351128 0.415382 0.839147 0.891357 0.183594
-17.710876 11.903959 1.833930 0.351128 0.415382 0.839147 0.876465 0.185303
-11.234065 8.837467 0.641736 0.346071 0.401223 0.848089 0.883545 0.148193
-17.710876 11.903959 1.833930 0.346071 0.401223 0.848089 0.876465 0.185303
-15.295794 7.290606 3.030968 0.346071 0.401223 0.848089 0.868164 0.149658
-15.295794 7.290606 3.030968 -0.518850 -0.050186 0.853391 0.868164 0.149658
-17.710876 11.903959 1.833930 -0.518850 -0.050186 0.853391 0.876465 0.185303
-18.369535 4.068615 0.972700 -0.518850 -0.050186 0.853391 0.852539 0.151367
-18.369535 4.068615 0.972700 -0.537472 -0.047363 0.841950 0.852539 0.151367
-17.710876 11.903959 1.833930 -0.537472 -0.047363 0.841950 0.876465 0.185303
-20.894400 8.941964 -0.364943 -0.537472 -0.047363 0.841950 0.861816 0.186768
-20.894400 8.941964 -0.364943 -0.508117 -0.089785 0.856596 0.861816 0.186768
-17.710876 11.903959 1.833930 -0.508117 -0.089785 0.856596 0.876465 0.185303
-26.602774 25.045538 -2.063122 -0.508117 -0.089785 0.856596 0.866943 0.247314
-20.894400 8.941964 -0.364943 -0.819329 -0.235302 0.522813 0.861816 0.186768
-26.602774 25.045538 -2.063122 -0.819329 -0.235302 0.522813 0.866943 0.247314
-27.700542 23.203310 -4.612625 -0.819329 -0.235302 0.522813 0.849609 0.249268
-20.894400 8.941964 -0.364943 -0.908480 -0.411006 0.075747 0.861816 0.186768
-27.700542 23.203310 -4.612625 -0.908480 -0.411006 0.075747 0.849609 0.249268
-20.455294 7.164093 -4.745300 -0.908480 -0.411006 0.075747 0.844971 0.188477
-20.455294 7.164093 -4.745300 -0.437231 -0.190235 -0.878999 0.949219 0.177490
-27.700542 23.203310 -4.612625 -0.437231 -0.190235 -0.878999 0.960205 0.237305
-16.448450 8.771788 -7.086320 -0.437231 -0.190235 -0.878999 0.933594 0.178955
-16.448450 8.771788 -7.086320 -0.638751 -0.383713 -0.666904 0.933594 0.178955
-27.700542 23.203310 -4.612625 -0.638751 -0.383713 -0.666904 0.960205 0.237305
-25.395235 23.688969 -7.100044 -0.638751 -0.383713 -0.666904 0.944336 0.239014
-16.448450 8.771788 -7.086320 0.379091 0.226540 -0.897201 0.933594 0.178955
-25.395235 23.688969 -7.100044 0.379091 0.226540 -0.897201 0.944336 0.239014
-13.264930 11.721157 -4.996495 0.379091 0.226540 -0.897201 0.905029 0.182129
-13.264930 11.721157 -4.996495 0.138411 -0.033684 -0.989802 0.905029 0.182129
-25.395235 23.688969 -7.100044 0.138411 -0.033684 -0.989802 0.944336 0.239014
-22.595932 25.660423 -6.775689 0.138411 -0.033684 -0.989802 0.923828 0.241211
-13.264930 11.721157 -4.996495 0.831237 0.539125 -0.135604 0.905029 0.182129
-22.595932 25.660423 -6.775689 0.831237 0.539125 -0.135604 0.923828 0.241211
-13.594259 13.335459 -0.597205 0.831237 0.539125 -0.135604 0.891357 0.183594
-13.594259 13.335459 -0.597205 0.791250 0.315228 -0.523980 0.891357 0.183594
-22.595932 25.660423 -6.775689 0.791250 0.315228 -0.523980 0.923828 0.241211
-21.607943 27.508963 -4.171662 0.791250 0.315228 -0.523980 0.905762 0.243164
-13.594259 13.335459 -0.597205 0.353096 0.411536 0.840215 0.891357 0.183594
-21.607943 27.508963 -4.171662 0.353096 0.411536 0.840215 0.905762 0.243164
-17.710876 11.903959 1.833930 0.353096 0.411536 0.840215 0.876465 0.185303
-17.710876 11.903959 1.833930 0.643344 0.409584 0.646799 0.876465 0.185303
-21.607943 27.508963 -4.171662 0.643344 0.409584 0.646799 0.905762 0.243164
-23.858360 27.029615 -1.629718 0.643344 0.409584 0.646799 0.887451 0.245117
-17.710876 11.903959 1.833930 -0.240715 0.122643 0.962816 0.876465 0.185303
-23.858360 27.029615 -1.629718 -0.240715 0.122643 0.962816 0.887451 0.245117
-26.602774 25.045538 -2.063122 -0.240715 0.122643 0.962816 0.866943 0.247314
-26.602774 25.045538 -2.063122 -0.113792 -0.059237 0.991737 0.866943 0.247314
-23.858360 27.029615 -1.629718 -0.113792 -0.059237 0.991737 0.887451 0.245117
-31.542715 38.666767 -1.816335 -0.113792 -0.059237 0.991737 0.864746 0.307861
-26.602774 25.045538 -2.063122 -0.782428 -0.293708 0.549128 0.866943 0.247314
-31.542715 38.666767 -1.816335 -0.782428 -0.293708 0.549128 0.864746 0.307861
-27.700542 23.203310 -4.612625 -0.782428 -0.293708 0.549128 0.849609 0.249268
-27.700542 23.203310 -4.612625 -0.628098 -0.286863 0.723328 0.849609 0.249268
-31.542715 38.666767 -1.816335 -0.628098 -0.286863 0.723328 0.864746 0.307861
-33.408916 35.574520 -4.663188 -0.628098 -0.286863 0.723328 0.841309 0.308594
-27.700542 23.203310 -4.612625 -0.666302 -0.310219 -0.678089 0.960205 0.237305
-33.408916 35.574520 -4.663188 -0.666302 -0.310219 -0.678089 0.972656 0.286377
-25.395235 23.688969 -7.100044 -0.666302 -0.310219 -0.678089 0.944336 0.239014
-25.395235 23.688969 -7.100044 -0.767787 -0.418140 -0.485450 0.944336 0.239014
-33.408916 35.574520 -4.663188 -0.767787 -0.418140 -0.485450 0.972656 0.286377
-31.597605 37.735016 -9.388890 -0.767787 -0.418140 -0.485450 0.951416 0.292480
-25.395235 23.688969 -7.100044 0.172654 -0.083686 -0.981421 0.944336 0.239014
-31.597605 37.735016 -9.388890 0.172654 -0.083686 -0.981421 0.951416 0.292480
-22.595932 25.660423 -6.775689 0.172654 -0.083686 -0.981421 0.923828 0.241211
-22.595932 25.660423 -6.775689 0.025980 -0.192914 -0.980872 0.923828 0.241211
-31.597605 37.735016 -9.388890 0.025980 -0.192914 -0.980872 0.951416 0.292480
-28.084757 40.932999 -9.924814 0.025980 -0.192914 -0.980872 0.929688 0.298096
-22.595932 25.660423 -6.775689 0.855442 0.209805 -0.473498 0.923828 0.241211
-28.084757 40.932999 -9.924814 0.855442 0.209805 -0.473498 0.929688 0.298096
-21.607943 27.508963 -4.171662 0.855442 0.209805 -0.473498 0.905762 0.243164
-21.607943 27.508963 -4.171662 0.812586 0.150769 -0.563004 0.905762 0.243164
-28.084757 40.932999 -9.924814 0.812586 0.150769 -0.563004 0.929688 0.298096
-26.163668 42.347622 -6.773269 0.812586 0.150769 -0.563004 0.907959 0.302734
-21.607943 27.508963 -4.171662 0.822662 0.333321 0.460569 0.905762 0.243164
-26.163668 42.347622 -6.773269 0.822662 0.333321 0.460569 0.907959 0.302734
-28.414085 41.961182 -2.473929 0.822662 0.333321 0.460569 0.886963 0.306152
-21.607943 27.508963 -4.171662 0.700638 0.251521 0.667715 0.905762 0.243164
-28.414085 41.961182 -2.473929 0.700638 0.251521 0.667715 0.886963 0.306152
-23.858360 27.029615 -1.629718 0.700638 0.251521 0.667715 0.887451 0.245117
-23.858360 27.029615 -1.629718 0.112822 0.090368 0.989497 0.887451 0.245117
-28.414085 41.961182 -2.473929 0.112822 0.090368 0.989497 0.886963 0.306152
-31.542715 38.666767 -1.816335 0.112822 0.090368 0.989497 0.864746 0.307861
-31.542715 38.666767 -1.816335 0.216875 -0.011116 0.976136 0.864746 0.307861
-28.414085 41.961182 -2.473929 0.216875 -0.011116 0.976136 0.886963 0.306152
-33.738247 48.737610 -1.213854 0.216875 -0.011116 0.976136 0.863281 0.325439
-31.542715 38.666767 -1.816335 -0.303398 -0.122673 0.944934 0.864746 0.307861
-33.738247 48.737610 -1.213854 -0.303398 -0.122673 0.944934 0.863281 0.325439
-36.921764 45.924801 -2.601176 -0.303398 -0.122673 0.944934 0.839600 0.325439
-31.542715 38.666767 -1.816335 -0.570913 -0.342424 0.746193 0.864746 0.307861
-36.921764 45.924801 -2.601176 -0.570913 -0.342424 0.746193 0.839600 0.325439
-33.408916 35.574520 -4.663188 -0.570913 -0.342424 0.746193 0.841309 0.308594
-33.408916 35.574520 -4.663188 -0.876496 -0.211305 -0.432556 0.972656 0.286377
-36.921764 45.924801 -2.601176 -0.876496 -0.211305 -0.432556 0.975586 0.311768
-31.597605 37.735016 -9.388890 -0.876496 -0.211305 -0.432556 0.951416 0.292480
-31.597605 37.735016 -9.388890 -0.893780 -0.324048 -0.310081 0.951416 0.292480
-36.921764 45.924801 -2.601176 -0.893780 -0.324048 -0.310081 0.975586 0.311768
-35.055565 47.390347 -9.511883 -0.893780 -0.324048 -0.310081 0.952637 0.316162
-31.597605 37.735016 -9.388890 -0.240221 -0.098334 -0.965725 0.951416 0.292480
-35.055565 47.390347 -9.511883 -0.240221 -0.098334 -0.965725 0.952637 0.316162
-31.542715 50.621658 -10.714718 -0.240221 -0.098334 -0.965725 0.929688 0.319336
-31.597605 37.735016 -9.388890 -0.058718 -0.101920 -0.993058 0.951416 0.292480
-31.542715 50.621658 -10.714718 -0.058718 -0.101920 -0.993058 0.929688 0.319336
-28.084757 40.932999 -9.924814 -0.058718 -0.101920 -0.993058 0.929688 0.298096
-28.084757 40.932999 -9.924814 0.745732 0.214738 -0.630691 0.929688 0.298096
-31.542715 50.621658 -10.714718 0.745732 0.214738 -0.630691 0.929688 0.319336
-29.017857 50.981380 -7.606839 0.745732 0.214738 -0.630691 0.907715 0.320313
-28.084757 40.932999 -9.924814 0.791659 0.206184 -0.575121 0.929688 0.298096
-29.017857 50.981380 -7.606839 0.791659 0.206184 -0.575121 0.907715 0.320313
-26.163668 42.347622 -6.773269 0.791659 0.206184 -0.575121 0.907959 0.302734
-26.163668 42.347622 -6.773269 0.929971 0.324175 0.173391 0.907959 0.302734
-29.017857 50.981380 -7.606839 0.929971 0.324175 0.173391 0.907715 0.320313
-30.225397 51.870213 -2.792049 0.929971 0.324175 0.173391 0.886719 0.323975
-26.163668 42.347622 -6.773269 0.866065 0.173365 0.468910 0.907959 0.302734
-30.225397 51.870213 -2.792049 0.866065 0.173365 0.468910 0.886719 0.323975
-28.414085 41.961182 -2.473929 0.866065 0.173365 0.468910 0.886963 0.306152
-28.414085 41.961182 -2.473929 0.338675 0.091970 0.936398 0.886963 0.306152
-30.225397 51.870213 -2.792049 0.338675 0.091970 0.936398 0.886719 0.323975
-33.738247 48.737610 -1.213854 0.338675 0.091970 0.936398 0.863281 0.325439
-33.738247 48.737610 -1.213854 0.169934 0.284733 0.943424 0.863281 0.325439
-30.225397 51.870213 -2.792049 0.169934 0.284733 0.943424 0.886719 0.323975
-31.707380 54.195827 -3.226995 0.169934 0.284733 0.943424 0.888184 0.333008
-33.738247 48.737610 -1.213854 0.256578 0.248983 0.933903 0.863281 0.325439
-31.707380 54.195827 -3.226995 0.256578 0.248983 0.933903 0.888184 0.333008
-35.000675 51.402985 -1.577619 0.256578 0.248983 0.933903 0.864990 0.333008
-33.738247 48.737610 -1.213854 -0.364760 -0.045844 0.929972 0.863281 0.325439
-35.000675 51.402985 -1.577619 -0.364760 -0.045844 0.929972 0.864990 0.333008
-36.921764 45.924801 -2.601176 -0.364760 -0.045844 0.929972 0.839600 0.325439
-36.921764 45.924801 -2.601176 -0.795203 0.170122 0.581988 0.839600 0.325439
-35.000675 51.402985 -1.577619 -0.795203 0.170122 0.581988 0.864990 0.333008
-37.909752 48.606319 -4.734958 -0.795203 0.170122 0.581988 0.840576 0.333008
-36.921764 45.924801 -2.601176 -0.793140 -0.530410 -0.299324 0.975586 0.311768
-37.909752 48.606319 -4.734958 -0.793140 -0.530410 -0.299324 0.978516 0.327393
-36.427769 49.237862 -9.780981 -0.793140 -0.530410 -0.299324 0.954834 0.328613
-36.921764 45.924801 -2.601176 -0.736036 -0.593973 -0.324726 0.975586 0.311768
-36.427769 49.237862 -9.780981 -0.736036 -0.593973 -0.324726 0.954834 0.328613
-35.055565 47.390347 -9.511883 -0.736036 -0.593973 -0.324726 0.952637 0.316162
-35.055565 47.390347 -9.511883 -0.119609 -0.229528 -0.965925 0.952637 0.316162
-36.427769 49.237862 -9.780981 -0.119609 -0.229528 -0.965925 0.954834 0.328613
-31.542715 50.621658 -10.714718 -0.119609 -0.229528 -0.965925 0.929688 0.319336
-31.542715 50.621658 -10.714718 -0.132080 -0.190163 -0.972827 0.929688 0.319336
-36.427769 49.237862 -9.780981 -0.132080 -0.190163 -0.972827 0.954834 0.328613
-32.695370 52.584530 -10.941915 -0.132080 -0.190163 -0.972827 0.930664 0.330322
-31.542715 50.621658 -10.714718 0.708604 0.344860 -0.615590 0.929688 0.319336
-32.695370 52.584530 -10.941915 0.708604 0.344860 -0.615590 0.930664 0.330322
-29.017857 50.981380 -7.606839 0.708604 0.344860 -0.615590 0.907715 0.320313
-29.017857 50.981380 -7.606839 0.648317 0.644741 -0.404962 0.907715 0.320313
-32.695370 52.584530 -10.941915 0.648317 0.644741 -0.404962 0.930664 0.330322
-31.213387 53.395351 -7.278445 0.648317 0.644741 -0.404962 0.910400 0.332275
-29.017857 50.981380 -7.606839 0.736113 0.675447 -0.043699 0.907715 0.320313
-31.213387 53.395351 -7.278445 0.736113 0.675447 -0.043699 0.910400 0.332275
-31.707380 54.195827 -3.226995 0.736113 0.675447 -0.043699 0.888184 0.333008
-29.017857 50.981380 -7.606839 0.829338 0.548455 0.106749 0.907715 0.320313
-31.707380 54.195827 -3.226995 0.829338 0.548455 0.106749 0.888184 0.333008
-30.225397 51.870213 -2.792049 0.829338 0.548455 0.106749 0.886719 0.323975
-11.508506 -2.629574 -4.385277 -0.597043 -0.571845 -0.562613 0.921631 0.090820
-13.319818 -4.605799 -0.454469 -0.597043 -0.571845 -0.562613 0.937500 0.089111
-14.307806 -2.766872 -1.275121 -0.597043 -0.571845 -0.562613 0.939697 0.109131
-13.319818 -4.605799 -0.454469 -0.321867 -0.778049 -0.539482 0.937500 0.089111
-11.508506 -2.629574 -4.385277 -0.321867 -0.778049 -0.539482 0.921631 0.090820
-10.575406 -5.715222 -0.491823 -0.321867 -0.778049 -0.539482 0.935547 0.072265
-32.420929 56.654186 -7.766155 0.873096 0.261985 -0.411178 0.911133 0.343262
-31.213387 53.395351 -7.278445 0.873096 0.261985 -0.411178 0.910400 0.332275
-32.695370 52.584530 -10.941915 0.873096 0.261985 -0.411178 0.930664 0.330322
-32.420929 56.654186 -7.766155 0.392281 0.549305 -0.737821 0.911133 0.343262
-32.695370 52.584530 -10.941915 0.392281 0.549305 -0.737821 0.930664 0.330322
-33.848022 54.260399 -10.307072 0.392281 0.549305 -0.737821 0.931396 0.340332
-32.420929 56.654186 -7.766155 0.927338 0.359286 0.104680 0.911133 0.343262
-32.640480 56.024406 -3.659667 0.927338 0.359286 0.104680 0.888916 0.340820
-31.213387 53.395351 -7.278445 0.927338 0.359286 0.104680 0.910400 0.332275
-31.213387 53.395351 -7.278445 0.888865 0.457818 0.017925 0.910400 0.332275
-32.640480 56.024406 -3.659667 0.888865 0.457818 0.017925 0.888916 0.340820
-31.707380 54.195827 -3.226995 0.888865 0.457818 0.017925 0.888184 0.333008
-31.707380 54.195827 -3.226995 0.095581 0.275131 0.956644 0.888184 0.333008
-32.640480 56.024406 -3.659667 0.095581 0.275131 0.956644 0.888916 0.340820
-35.659336 52.956669 -2.475763 0.095581 0.275131 0.956644 0.864990 0.339600
-31.707380 54.195827 -3.226995 0.006740 0.502599 0.864494 0.888184 0.333008
-35.659336 52.956669 -2.475763 0.006740 0.502599 0.864494 0.864990 0.339600
-35.000675 51.402985 -1.577619 0.006740 0.502599 0.864494 0.864990 0.333008
-35.000675 51.402985 -1.577619 -0.757920 0.054479 0.650069 0.864990 0.333008
-35.659336 52.956669 -2.475763 -0.757920 0.054479 0.650069 0.864990 0.339600
-37.909752 48.606319 -4.734958 -0.757920 0.054479 0.650069 0.840576 0.333008
-37.909752 48.606319 -4.734958 -0.814182 0.126950 0.566561 0.840576 0.333008
-35.659336 52.956669 -2.475763 -0.814182 0.126950 0.566561 0.864990 0.339600
-37.964642 50.428593 -5.222156 -0.814182 0.126950 0.566561 0.842773 0.338379
-37.909752 48.606319 -4.734958 -0.964224 -0.095191 -0.247410 0.978516 0.327393
-37.964642 50.428593 -5.222156 -0.964224 -0.095191 -0.247410 0.976318 0.338135
-36.921764 50.930386 -9.479594 -0.964224 -0.095191 -0.247410 0.955322 0.338623
-37.909752 48.606319 -4.734958 -0.928772 -0.217656 -0.300015 0.978516 0.327393
-36.921764 50.930386 -9.479594 -0.928772 -0.217656 -0.300015 0.955322 0.338623
-36.427769 49.237862 -9.780981 -0.928772 -0.217656 -0.300015 0.954834 0.328613
-36.427769 49.237862 -9.780981 -0.330439 0.071144 -0.941142 0.954834 0.328613
-36.921764 50.930386 -9.479594 -0.330439 0.071144 -0.941142 0.955322 0.338623
-33.848022 54.260399 -10.307072 -0.330439 0.071144 -0.941142 0.931396 0.340332
-36.427769 49.237862 -9.780981 -0.371719 0.094189 -0.923555 0.954834 0.328613
-33.848022 54.260399 -10.307072 -0.371719 0.094189 -0.923555 0.931396 0.340332
-32.695370 52.584530 -10.941915 -0.371719 0.094189 -0.923555 0.930664 0.330322
3 0 1 2
3 3 4 5
3 6 7 8
3 9 10 11
3 12 13 14
3 15 16 17
3 18 19 20
3 21 22 23
3 24 25 26
3 27 28 29
3 30 31 32
3 33 34 35
3 36 37 38
3 39 40 41
3 42 43 44
3 45 46 47
3 48 49 50
3 51 52 53
3 54 55 56
3 57 58 59
3 60 61 62
3 63 64 65
3 66 67 68
3 69 70 71
3 72 73 74
3 75 76 77
3 78 79 80
3 81 82 83
3 84 85 86
3 87 88 89
3 90 91 92
3 93 94 95
3 96 97 98
3 99 100 101
3 102 103 104
3 105 106 107
3 108 109 110
3 111 112 113
3 114 115 116
3 117 118 119
3 120 121 122
3 123 124 125
3 126 127 128
3 129 130 131
3 132 133 134
3 135 136 137
3 138 139 140
3 141 142 143
3 144 145 146
3 147 148 149
3 150 151 152
3 153 154 155
3 156 157 158
3 159 160 161
3 162 163 164
3 165 166 167
3 168 169 170
3 171 172 173
3 174 175 176
3 177 178 179
3 180 181 182
3 183 184 185
3 186 187 188
3 189 190 191
3 192 193 194
3 195 196 197
3 198 199 200
3 201 202 203
3 204 205 206
3 207 208 209
3 210 211 212
3 213 214 215
3 216 217 218
3 219 220 221
3 222 223 224
3 225 226 227
3 228 229 230
3 231 232 233
3 234 235 236
3 237 238 239
3 240 241 242
3 243 244 245
3 246 247 248
3 249 250 251
3 252 253 254
3 255 256 257
3 258 259 260
3 261 262 263
3 264 265 266
3 267 268 269
3 270 271 272
3 273 274 275
3 276 277 278
3 279 280 281
3 282 283 284
3 285 286 287
3 288 289 290
3 291 292 293
3 294 295 296
3 297 298 299
3 300 301 302
3 303 304 305
3 306 307 308
3 309 310 311
3 312 313 314
3 315 316 317
3 318 319 320
3 321 322 323
3 324 325 326
3 327 328 329
3 330 331 332
3 333 334 335
3 336 337 338
3 339 340 341
3 342 343 344
3 345 346 347
3 348 349 350
3 351 352 353
3 354 355 356
3 357 358 359
3 360 361 362
3 363 364 365
3 366 367 368
3 369 370 371
3 372 373 374
3 375 376 377
3 378 379 380
3 381 382 383
3 384 385 386
3 387 388 389
3 390 391 392
3 393 394 395
3 396 397 398
3 399 400 401
3 402 403 404
3 405 406 407
3 408 409 410
3 411 412 413
3 414 415 416
3 417 418 419
3 420 421 422
3 423 424 425
3 426 427 428
3 429 430 431
3 432 433 434
3 435 436 437
3 438 439 440
3 441 442 443
3 444 445 446
3 447 448 449
3 450 451 452
3 453 454 455
3 456 457 458
3 459 460 461
3 462 463 464
3 465 466 467
3 468 469 470
3 471 472 473
3 474 475 476
3 477 478 479
