ply
format ascii 1.0
comment Created by Blender 2.91.2 - www.blender.org
element vertex 408
property float x
property float y
property float z
property float nx
property float ny
property float nz
property float s
property float t
element face 136
property list uchar uint vertex_indices
end_header
0.318417 2.753625 -3.768118 -0.313940 0.875504 -0.367335 0.908936 0.038818
-2.261330 3.640176 0.549642 -0.313940 0.875504 -0.367335 0.896973 0.026367
1.745512 5.076741 0.549128 -0.313940 0.875504 -0.367335 0.886475 0.041259
0.318417 2.753625 -3.768118 0.020638 0.877553 -0.479035 0.908936 0.038818
1.745512 5.076741 0.549128 0.020638 0.877553 -0.479035 0.886475 0.041259
6.905006 1.813577 -5.206443 0.020638 0.877553 -0.479035 0.907959 0.055175
0.318417 2.753625 -3.768118 -0.210405 0.021218 -0.977384 0.908936 0.038818
6.905006 1.813577 -5.206443 -0.210405 0.021218 -0.977384 0.907959 0.055175
8.057659 -2.812912 -5.555016 -0.210405 0.021218 -0.977384 0.921387 0.053710
0.318417 2.753625 -3.768118 -0.099884 0.175522 -0.979395 0.908936 0.038818
8.057659 -2.812912 -5.555016 -0.099884 0.175522 -0.979395 0.921387 0.053710
-0.779349 -1.747158 -4.462770 -0.099884 0.175522 -0.979395 0.922119 0.037841
0.318417 2.753625 -3.768118 -0.519212 0.252649 -0.816448 0.908936 0.038818
-0.779349 -1.747158 -4.462770 -0.519212 0.252649 -0.816448 0.922119 0.037841
-5.664402 0.173084 -0.761947 -0.519212 0.252649 -0.816448 0.905762 0.021240
0.318417 2.753625 -3.768118 -0.537245 0.703390 -0.465414 0.908936 0.038818
-5.664402 0.173084 -0.761947 -0.537245 0.703390 -0.465414 0.905762 0.021240
-2.261330 3.640176 0.549642 -0.537245 0.703390 -0.465414 0.896973 0.026367
-2.261330 3.640176 0.549642 -0.673705 0.721590 -0.159465 0.896973 0.026367
-5.664402 0.173084 -0.761947 -0.673705 0.721590 -0.159465 0.905762 0.021240
-2.865101 3.912064 4.330747 -0.673705 0.721590 -0.159465 0.877197 0.029541
-2.261330 3.640176 0.549642 -0.079226 0.993305 -0.084077 0.896973 0.026367
-2.865101 3.912064 4.330747 -0.079226 0.993305 -0.084077 0.877197 0.029541
2.678613 4.354570 4.334783 -0.079226 0.993305 -0.084077 0.871582 0.042724
-2.261330 3.640176 0.549642 -0.326384 0.910435 0.254127 0.896973 0.026367
2.678613 4.354570 4.334783 -0.326384 0.910435 0.254127 0.871582 0.042724
1.745512 5.076741 0.549128 -0.326384 0.910435 0.254127 0.886475 0.041259
1.745512 5.076741 0.549128 0.008355 0.982629 0.185392 0.886475 0.041259
2.678613 4.354570 4.334783 0.008355 0.982629 0.185392 0.871582 0.042724
7.344112 5.401092 -1.422330 0.008355 0.982629 0.185392 0.885254 0.057617
1.745512 5.076741 0.549128 -0.268883 0.714366 -0.646052 0.886475 0.041259
7.344112 5.401092 -1.422330 -0.268883 0.714366 -0.646052 0.885254 0.057617
6.905006 1.813577 -5.206443 -0.268883 0.714366 -0.646052 0.907959 0.055175
6.905006 1.813577 -5.206443 -0.376889 0.693633 -0.613863 0.907959 0.055175
7.344112 5.401092 -1.422330 -0.376889 0.693633 -0.613863 0.885254 0.057617
8.716318 2.174035 -5.911222 -0.376889 0.693633 -0.613863 0.905762 0.075439
6.905006 1.813577 -5.206443 -0.334697 -0.140118 -0.931850 0.907959 0.055175
8.716318 2.174035 -5.911222 -0.334697 -0.140118 -0.931850 0.905762 0.075439
11.021625 -2.590780 -6.022765 -0.334697 -0.140118 -0.931850 0.923584 0.073486
6.905006 1.813577 -5.206443 -0.158339 0.034897 -0.986768 0.907959 0.055175
11.021625 -2.590780 -6.022765 -0.158339 0.034897 -0.986768 0.923584 0.073486
8.057659 -2.812912 -5.555016 -0.158339 0.034897 -0.986768 0.921387 0.053710
8.057659 -2.812912 -5.555016 0.031167 -0.964906 -0.260738 0.921387 0.053710
11.021625 -2.590780 -6.022765 0.031167 -0.964906 -0.260738 0.923584 0.073486
9.155424 -4.040183 -0.882077 0.031167 -0.964906 -0.260738 0.932617 0.052002
8.057659 -2.812912 -5.555016 -0.143530 -0.964949 -0.219710 0.921387 0.053710
9.155424 -4.040183 -0.882077 -0.143530 -0.964949 -0.219710 0.932617 0.052002
-0.779349 -1.747158 -4.462770 -0.143530 -0.964949 -0.219710 0.922119 0.037841
-0.779349 -1.747158 -4.462770 -0.056384 -0.904479 -0.422775 0.922119 0.037841
9.155424 -4.040183 -0.882077 -0.056384 -0.904479 -0.422775 0.932617 0.052002
0.428193 -3.710759 -0.422913 -0.056384 -0.904479 -0.422775 0.929932 0.035888
-0.779349 -1.747158 -4.462770 -0.443820 -0.850938 -0.280943 0.922119 0.037841
0.428193 -3.710759 -0.422913 -0.443820 -0.850938 -0.280943 0.929932 0.035888
-4.950855 -1.836977 2.399211 -0.443820 -0.850938 -0.280943 0.910889 0.011474
-0.779349 -1.747158 -4.462770 -0.560508 -0.750292 -0.350562 0.922119 0.037841
-4.950855 -1.836977 2.399211 -0.560508 -0.750292 -0.350562 0.910889 0.011474
-5.664402 0.173084 -0.761947 -0.560508 -0.750292 -0.350562 0.905762 0.021240
-5.664402 0.173084 -0.761947 -0.964252 -0.259737 0.052497 0.905762 0.021240
-4.950855 -1.836977 2.399211 -0.964252 -0.259737 0.052497 0.910889 0.011474
-5.993731 2.284409 3.635068 -0.964252 -0.259737 0.052497 0.870361 0.014892
-5.664402 0.173084 -0.761947 -0.340559 0.837369 -0.427589 0.905762 0.021240
-5.993731 2.284409 3.635068 -0.340559 0.837369 -0.427589 0.870361 0.014892
-2.865101 3.912064 4.330747 -0.340559 0.837369 -0.427589 0.877197 0.029541
-2.865101 3.912064 4.330747 -0.333940 0.253904 0.907754 0.877197 0.029541
-5.993731 2.284409 3.635068 -0.333940 0.253904 0.907754 0.870361 0.014892
-3.084654 0.049428 5.330382 -0.333940 0.253904 0.907754 0.859131 0.029296
-2.865101 3.912064 4.330747 -0.020787 0.251595 0.967609 0.877197 0.029541
-3.084654 0.049428 5.330382 -0.020787 0.251595 0.967609 0.859131 0.029296
2.678613 4.354570 4.334783 -0.020787 0.251595 0.967609 0.871582 0.042724
2.678613 4.354570 4.334783 0.115639 0.074259 0.990512 0.871582 0.042724
-3.084654 0.049428 5.330382 0.115639 0.074259 0.990512 0.859131 0.029296
1.525958 -1.655719 4.919946 0.115639 0.074259 0.990512 0.849121 0.045166
2.678613 4.354570 4.334783 0.149098 0.067454 0.986519 0.871582 0.042724
1.525958 -1.655719 4.919946 0.149098 0.067454 0.986519 0.849121 0.045166
9.155426 4.022869 3.378589 0.149098 0.067454 0.986519 0.866699 0.059570
2.678613 4.354570 4.334783 0.085621 0.965750 0.244939 0.871582 0.042724
9.155426 4.022869 3.378589 0.085621 0.965750 0.244939 0.866699 0.059570
7.344112 5.401092 -1.422330 0.085621 0.965750 0.244939 0.885254 0.057617
7.344112 5.401092 -1.422330 0.285534 0.944341 0.163369 0.885254 0.057617
9.155426 4.022869 3.378589 0.285534 0.944341 0.163369 0.866699 0.059570
11.735172 3.412241 2.399429 0.285534 0.944341 0.163369 0.864990 0.079834
7.344112 5.401092 -1.422330 0.292357 0.943637 0.155163 0.885254 0.057617
11.735172 3.412241 2.399429 0.292357 0.943637 0.155163 0.864990 0.079834
9.045648 4.956315 -1.923396 0.292357 0.943637 0.155163 0.884766 0.077880
7.344112 5.401092 -1.422330 0.044651 0.817568 -0.574099 0.885254 0.057617
9.045648 4.956315 -1.923396 0.044651 0.817568 -0.574099 0.884766 0.077880
8.716318 2.174035 -5.911222 0.044651 0.817568 -0.574099 0.905762 0.075439
8.716318 2.174035 -5.911222 0.082311 0.814134 -0.574813 0.905762 0.075439
9.045648 4.956315 -1.923396 0.082311 0.814134 -0.574813 0.884766 0.077880
10.582519 4.524153 -2.315412 0.082311 0.814134 -0.574813 0.881836 0.094970
8.716318 2.174035 -5.911222 0.016144 0.833108 -0.552874 0.905762 0.075439
10.582519 4.524153 -2.315412 0.016144 0.833108 -0.552874 0.881836 0.094970
10.417854 2.381786 -5.548485 0.016144 0.833108 -0.552874 0.902344 0.092773
8.716318 2.174035 -5.911222 0.193464 0.116407 -0.974177 0.905762 0.075439
10.417854 2.381786 -5.548485 0.193464 0.116407 -0.974177 0.902344 0.092773
11.021625 -2.590780 -6.022765 0.193464 0.116407 -0.974177 0.923584 0.073486
11.021625 -2.590780 -6.022765 -0.245104 0.062517 -0.967479 0.923584 0.073486
10.417854 2.381786 -5.548485 -0.245104 0.062517 -0.967479 0.902344 0.092773
12.613384 -0.967674 -6.321144 -0.245104 0.062517 -0.967479 0.921631 0.090820
11.021625 -2.590780 -6.022765 0.651827 -0.695019 -0.303431 0.923584 0.073486
12.613384 -0.967674 -6.321144 0.651827 -0.695019 -0.303431 0.921631 0.090820
12.338943 -3.423758 -1.284955 0.651827 -0.695019 -0.303431 0.935547 0.072265
11.021625 -2.590780 -6.022765 0.159555 -0.963758 -0.213806 0.923584 0.073486
12.338943 -3.423758 -1.284955 0.159555 -0.963758 -0.213806 0.935547 0.072265
9.155424 -4.040183 -0.882077 0.159555 -0.963758 -0.213806 0.932617 0.052002
9.155424 -4.040183 -0.882077 0.225255 -0.832336 0.506436 0.829834 0.063476
12.338943 -3.423758 -1.284955 0.225255 -0.832336 0.506436 0.831787 0.083496
12.558496 -0.981251 2.631690 0.225255 -0.832336 0.506436 0.848633 0.081543
9.155424 -4.040183 -0.882077 0.212389 -0.829548 0.516470 0.829834 0.063476
12.558496 -0.981251 2.631690 0.212389 -0.829548 0.516470 0.848633 0.081543
9.100536 -1.389925 3.397303 0.212389 -0.829548 0.516470 0.844727 0.061767
9.155424 -4.040183 -0.882077 0.134661 -0.841648 0.522967 0.829834 0.063476
9.100536 -1.389925 3.397303 0.134661 -0.841648 0.522967 0.844727 0.061767
1.525958 -1.655719 4.919946 0.134661 -0.841648 0.522967 0.849121 0.045166
9.155424 -4.040183 -0.882077 -0.016147 -0.932102 0.361835 0.829834 0.063476
1.525958 -1.655719 4.919946 -0.016147 -0.932102 0.361835 0.849121 0.045166
0.428193 -3.710759 -0.422913 -0.016147 -0.932102 0.361835 0.827148 0.047607
0.428193 -3.710759 -0.422913 -0.121418 -0.917821 0.377971 0.827148 0.047607
1.525958 -1.655719 4.919946 -0.121418 -0.917821 0.377971 0.849121 0.045166
-4.950855 -1.836977 2.399211 -0.121418 -0.917821 0.377971 0.841553 0.025878
-4.950855 -1.836977 2.399211 -0.221725 -0.749635 0.623607 0.841553 0.025878
1.525958 -1.655719 4.919946 -0.221725 -0.749635 0.623607 0.849121 0.045166
-3.084654 0.049428 5.330382 -0.221725 -0.749635 0.623607 0.859131 0.029296
-4.950855 -1.836977 2.399211 -0.661665 -0.363995 0.655520 0.841553 0.025878
-3.084654 0.049428 5.330382 -0.661665 -0.363995 0.655520 0.859131 0.029296
-5.993731 2.284409 3.635068 -0.661665 -0.363995 0.655520 0.870361 0.014892
1.525958 -1.655719 4.919946 0.197031 0.001392 0.980396 0.849121 0.045166
9.100536 -1.389925 3.397303 0.197031 0.001392 0.980396 0.844727 0.061767
9.155426 4.022869 3.378589 0.197031 0.001392 0.980396 0.866699 0.059570
9.155426 4.022869 3.378589 0.354780 -0.000365 0.934950 0.866699 0.059570
9.100536 -1.389925 3.397303 0.354780 -0.000365 0.934950 0.844727 0.061767
11.735172 3.412241 2.399429 0.354780 -0.000365 0.934950 0.864990 0.079834
11.735172 3.412241 2.399429 0.205147 0.089965 0.974588 0.864990 0.079834
9.100536 -1.389925 3.397303 0.205147 0.089965 0.974588 0.844727 0.061767
12.558496 -0.981251 2.631690 0.205147 0.089965 0.974588 0.848633 0.081543
11.735172 3.412241 2.399429 0.405056 0.123794 0.905872 0.864990 0.079834
12.558496 -0.981251 2.631690 0.405056 0.123794 0.905872 0.848633 0.081543
15.467573 0.230394 1.165332 0.405056 0.123794 0.905872 0.848877 0.098632
11.735172 3.412241 2.399429 0.647899 0.559539 0.516859 0.864990 0.079834
15.467573 0.230394 1.165332 0.647899 0.559539 0.516859 0.848877 0.098632
12.887825 3.803745 0.530708 0.647899 0.559539 0.516859 0.864502 0.096923
11.735172 3.412241 2.399429 0.113948 0.955937 0.270557 0.864990 0.079834
12.887825 3.803745 0.530708 0.113948 0.955937 0.270557 0.864502 0.096923
9.045648 4.956315 -1.923396 0.113948 0.955937 0.270557 0.884766 0.077880
9.045648 4.956315 -1.923396 0.275413 0.961114 0.020197 0.884766 0.077880
12.887825 3.803745 0.530708 0.275413 0.961114 0.020197 0.864502 0.096923
10.582519 4.524153 -2.315412 0.275413 0.961114 0.020197 0.881836 0.094970
10.582519 4.524153 -2.315412 -0.112185 0.937899 0.328268 0.881836 0.094970
12.887825 3.803745 0.530708 -0.112185 0.937899 0.328268 0.864502 0.096923
17.278885 5.096915 -1.663397 -0.112185 0.937899 0.328268 0.859619 0.117676
10.582519 4.524153 -2.315412 -0.115261 0.919365 0.376142 0.881836 0.094970
17.278885 5.096915 -1.663397 -0.115261 0.919365 0.376142 0.859619 0.117676
13.601373 5.253664 -3.173417 -0.115261 0.919365 0.376142 0.875244 0.115967
10.582519 4.524153 -2.315412 -0.326170 0.840177 -0.433262 0.881836 0.094970
13.601373 5.253664 -3.173417 -0.326170 0.840177 -0.433262 0.875244 0.115967
13.217155 3.230691 -6.807093 -0.326170 0.840177 -0.433262 0.894531 0.114014
10.582519 4.524153 -2.315412 -0.444824 0.756849 -0.478864 0.881836 0.094970
13.217155 3.230691 -6.807093 -0.444824 0.756849 -0.478864 0.894531 0.114014
10.417854 2.381786 -5.548485 -0.444824 0.756849 -0.478864 0.902344 0.092773
10.417854 2.381786 -5.548485 -0.458251 0.243896 -0.854705 0.902344 0.092773
13.217155 3.230691 -6.807093 -0.458251 0.243896 -0.854705 0.894531 0.114014
15.248020 0.986095 -8.536457 -0.458251 0.243896 -0.854705 0.918701 0.111328
10.417854 2.381786 -5.548485 -0.554096 -0.175487 -0.813746 0.902344 0.092773
15.248020 0.986095 -8.536457 -0.554096 -0.175487 -0.813746 0.918701 0.111328
12.613384 -0.967674 -6.321144 -0.554096 -0.175487 -0.813746 0.921631 0.090820
12.613384 -0.967674 -6.321144 0.252171 -0.854653 -0.453848 0.921631 0.090820
15.248020 0.986095 -8.536457 0.252171 -0.854653 -0.453848 0.918701 0.111328
17.443550 -0.168229 -5.142819 0.252171 -0.854653 -0.453848 0.939697 0.109131
12.613384 -0.967674 -6.321144 0.239123 -0.897078 -0.371579 0.921631 0.090820
17.443550 -0.168229 -5.142819 0.239123 -0.897078 -0.371579 0.939697 0.109131
15.138244 -1.943531 -2.340362 0.239123 -0.897078 -0.371579 0.937500 0.089111
12.613384 -0.967674 -6.321144 0.303814 -0.862743 -0.404193 0.921631 0.090820
15.138244 -1.943531 -2.340362 0.303814 -0.862743 -0.404193 0.937500 0.089111
12.338943 -3.423758 -1.284955 0.303814 -0.862743 -0.404193 0.935547 0.072265
12.338943 -3.423758 -1.284955 0.542078 -0.736021 0.405493 0.831787 0.083496
15.138244 -1.943531 -2.340362 0.542078 -0.736021 0.405493 0.832031 0.100342
15.467573 0.230394 1.165332 0.542078 -0.736021 0.405493 0.848877 0.098632
12.338943 -3.423758 -1.284955 0.523134 -0.736013 0.429669 0.831787 0.083496
15.467573 0.230394 1.165332 0.523134 -0.736013 0.429669 0.848877 0.098632
12.558496 -0.981251 2.631690 0.523134 -0.736013 0.429669 0.848633 0.081543
12.613384 6.141165 -7.917538 -0.795428 -0.346858 -0.496975 0.892578 0.129883
15.083355 3.621676 -10.112376 -0.795428 -0.346858 -0.496975 0.918945 0.126953
15.248020 0.986095 -8.536457 -0.795428 -0.346858 -0.496975 0.918701 0.111328
12.613384 6.141165 -7.917538 -0.800996 -0.351157 -0.484865 0.892578 0.129883
15.248020 0.986095 -8.536457 -0.800996 -0.351157 -0.484865 0.918701 0.111328
13.217155 3.230691 -6.807093 -0.800996 -0.351157 -0.484865 0.894531 0.114014
12.613384 6.141165 -7.917538 -0.974837 -0.134360 0.177880 0.892578 0.129883
13.217155 3.230691 -6.807093 -0.974837 -0.134360 0.177880 0.894531 0.114014
13.601373 5.253664 -3.173417 -0.974837 -0.134360 0.177880 0.875244 0.115967
12.613384 6.141165 -7.917538 -0.879586 0.399733 0.257958 0.892578 0.129883
13.601373 5.253664 -3.173417 -0.879586 0.399733 0.257958 0.875244 0.115967
14.260032 7.629245 -4.608733 -0.879586 0.399733 0.257958 0.875000 0.131592
12.613384 6.141165 -7.917538 -0.825673 0.538299 0.168810 0.892578 0.129883
14.260032 7.629245 -4.608733 -0.825673 0.538299 0.168810 0.875000 0.131592
16.510450 10.779544 -3.647258 -0.825673 0.538299 0.168810 0.883545 0.148193
12.613384 6.141165 -7.917538 -0.826483 0.215636 0.520026 0.892578 0.129883
16.510450 10.779544 -3.647258 -0.826483 0.215636 0.520026 0.883545 0.148193
13.711149 10.499069 -7.979916 -0.826483 0.215636 0.520026 0.900146 0.146240
12.613384 6.141165 -7.917538 -0.578266 0.134148 -0.804744 0.892578 0.129883
13.711149 10.499069 -7.979916 -0.578266 0.134148 -0.804744 0.900146 0.146240
15.083355 3.621676 -10.112376 -0.578266 0.134148 -0.804744 0.918945 0.126953
15.083355 3.621676 -10.112376 -0.870670 -0.021351 -0.491404 0.918945 0.126953
13.711149 10.499069 -7.979916 -0.870670 -0.021351 -0.491404 0.900146 0.146240
15.961567 7.565841 -11.839759 -0.870670 -0.021351 -0.491404 0.926514 0.143555
15.083355 3.621676 -10.112376 0.400982 -0.440954 -0.802978 0.918945 0.126953
15.961567 7.565841 -11.839759 0.400982 -0.440954 -0.802978 0.926514 0.143555
18.541315 3.653746 -8.403193 0.400982 -0.440954 -0.802978 0.939697 0.124756
15.083355 3.621676 -10.112376 0.398579 -0.452197 -0.797905 0.918945 0.126953
18.541315 3.653746 -8.403193 0.398579 -0.452197 -0.797905 0.939697 0.124756
15.248020 0.986095 -8.536457 0.398579 -0.452197 -0.797905 0.918701 0.111328
15.248020 0.986095 -8.536457 0.534682 -0.632060 -0.560906 0.918701 0.111328
18.541315 3.653746 -8.403193 0.534682 -0.632060 -0.560906 0.939697 0.124756
17.443550 -0.168229 -5.142819 0.534682 -0.632060 -0.560906 0.939697 0.109131
17.443550 -0.168229 -5.142819 0.889687 -0.416015 -0.188117 0.835205 0.120361
18.541315 3.653746 -8.403193 0.889687 -0.416015 -0.188117 0.838623 0.135498
20.187962 5.603265 -4.926779 0.889687 -0.416015 -0.188117 0.849365 0.134521
17.443550 -0.168229 -5.142819 0.898610 -0.430474 0.084809 0.835205 0.120361
20.187962 5.603265 -4.926779 0.898610 -0.430474 0.084809 0.849365 0.134521
18.157097 1.862813 -2.394154 0.898610 -0.430474 0.084809 0.849121 0.118896
17.443550 -0.168229 -5.142819 0.734578 -0.622729 0.269452 0.835205 0.120361
18.157097 1.862813 -2.394154 0.734578 -0.622729 0.269452 0.849121 0.118896
15.467573 0.230394 1.165332 0.734578 -0.622729 0.269452 0.848877 0.098632
17.443550 -0.168229 -5.142819 0.775274 -0.566828 0.278667 0.835205 0.120361
15.467573 0.230394 1.165332 0.775274 -0.566828 0.278667 0.848877 0.098632
15.138244 -1.943531 -2.340362 0.775274 -0.566828 0.278667 0.832031 0.100342
15.961567 7.565841 -11.839759 -0.292354 -0.732672 -0.614591 0.926514 0.143555
20.187962 5.030723 -10.828017 -0.292354 -0.732672 -0.614591 0.946289 0.141357
18.541315 3.653746 -8.403193 -0.292354 -0.732672 -0.614591 0.939697 0.124756
18.541315 3.653746 -8.403193 0.697926 -0.712823 0.069158 0.838623 0.135498
20.187962 5.030723 -10.828017 0.697926 -0.712823 0.069158 0.839844 0.152832
20.187962 5.603265 -4.926779 0.697926 -0.712823 0.069158 0.849365 0.134521
20.187962 5.603265 -4.926779 0.048229 -0.994168 0.096455 0.849365 0.134521
20.187962 5.030723 -10.828017 0.048229 -0.994168 0.096455 0.839844 0.152832
22.987263 5.583817 -6.526914 0.048229 -0.994168 0.096455 0.852539 0.151367
20.187962 5.603265 -4.926779 0.479300 -0.249218 0.841524 0.849365 0.134521
22.987263 5.583817 -6.526914 0.479300 -0.249218 0.841524 0.852539 0.151367
17.553326 7.728459 -2.796812 0.479300 -0.249218 0.841524 0.862549 0.133057
20.187962 5.603265 -4.926779 0.712558 0.213539 0.668328 0.849365 0.134521
17.553326 7.728459 -2.796812 0.712558 0.213539 0.668328 0.862549 0.133057
17.278885 5.096915 -1.663397 0.712558 0.213539 0.668328 0.859619 0.117676
20.187962 5.603265 -4.926779 0.741639 0.050246 0.668915 0.849365 0.134521
17.278885 5.096915 -1.663397 0.741639 0.050246 0.668915 0.859619 0.117676
18.157097 1.862813 -2.394154 0.741639 0.050246 0.668915 0.849121 0.118896
18.157097 1.862813 -2.394154 0.779839 0.071240 0.621913 0.849121 0.118896
17.278885 5.096915 -1.663397 0.779839 0.071240 0.621913 0.859619 0.117676
15.467573 0.230394 1.165332 0.779839 0.071240 0.621913 0.848877 0.098632
15.467573 0.230394 1.165332 0.319521 0.384488 0.866069 0.848877 0.098632
17.278885 5.096915 -1.663397 0.319521 0.384488 0.866069 0.859619 0.117676
12.887825 3.803745 0.530708 0.319521 0.384488 0.866069 0.864502 0.096923
19.529303 11.671303 -14.083106 -0.079322 -0.445092 -0.891965 0.933594 0.178955
23.975252 9.486300 -13.388161 -0.079322 -0.445092 -0.891965 0.949219 0.177490
20.187962 5.030723 -10.828017 -0.079322 -0.445092 -0.891965 0.946289 0.141357
19.529303 11.671303 -14.083106 -0.051976 -0.443704 -0.894665 0.933594 0.178955
20.187962 5.030723 -10.828017 -0.051976 -0.443704 -0.894665 0.946289 0.141357
15.961567 7.565841 -11.839759 -0.051976 -0.443704 -0.894665 0.926514 0.143555
19.529303 11.671303 -14.083106 -0.721088 0.280453 -0.633544 0.933594 0.178955
15.961567 7.565841 -11.839759 -0.721088 0.280453 -0.633544 0.926514 0.143555
13.711149 10.499069 -7.979916 -0.721088 0.280453 -0.633544 0.900146 0.146240
19.529303 11.671303 -14.083106 -0.720890 0.282097 -0.633040 0.933594 0.178955
13.711149 10.499069 -7.979916 -0.720890 0.282097 -0.633040 0.900146 0.146240
17.388662 14.415713 -10.422425 -0.720890 0.282097 -0.633040 0.905029 0.182129
19.529303 11.671303 -14.083106 -0.773117 0.199883 -0.601944 0.933594 0.178955
17.388662 14.415713 -10.422425 -0.773117 0.199883 -0.601944 0.905029 0.182129
27.213661 27.664799 -18.641792 -0.773117 0.199883 -0.601944 0.944336 0.239014
19.529303 11.671303 -14.083106 -0.010681 -0.269351 -0.962983 0.933594 0.178955
27.213661 27.664799 -18.641792 -0.010681 -0.269351 -0.962983 0.944336 0.239014
30.287405 26.108839 -18.240675 -0.010681 -0.269351 -0.962983 0.960205 0.237305
19.529303 11.671303 -14.083106 0.010376 -0.283841 -0.958815 0.933594 0.178955
30.287405 26.108839 -18.240675 0.010376 -0.283841 -0.958815 0.960205 0.237305
23.975252 9.486300 -13.388161 0.010376 -0.283841 -0.958815 0.949219 0.177490
23.975252 9.486300 -13.388161 0.881298 -0.405498 -0.242662 0.844971 0.188477
30.287405 26.108839 -18.240675 0.881298 -0.405498 -0.242662 0.849609 0.249268
25.731676 10.567978 -8.816712 0.881298 -0.405498 -0.242662 0.861816 0.186768
23.975252 9.486300 -13.388161 0.722721 -0.681253 -0.116486 0.844971 0.188477
25.731676 10.567978 -8.816712 0.722721 -0.681253 -0.116486 0.861816 0.186768
20.187962 5.030723 -10.828017 0.722721 -0.681253 -0.116486 0.839844 0.152832
20.187962 5.030723 -10.828017 0.717307 -0.575449 -0.392848 0.839844 0.152832
25.731676 10.567978 -8.816712 0.717307 -0.575449 -0.392848 0.861816 0.186768
22.987263 5.583817 -6.526914 0.717307 -0.575449 -0.392848 0.852539 0.151367
22.987263 5.583817 -6.526914 0.795842 -0.171413 0.580735 0.852539 0.151367
25.731676 10.567978 -8.816712 0.795842 -0.171413 0.580735 0.861816 0.186768
23.591034 13.379537 -5.053294 0.795842 -0.171413 0.580735 0.876465 0.185303
22.987263 5.583817 -6.526914 0.787489 -0.172821 0.591603 0.852539 0.151367
23.591034 13.379537 -5.053294 0.787489 -0.172821 0.591603 0.876465 0.185303
20.956398 8.709895 -2.910410 0.787489 -0.172821 0.591603 0.868164 0.149658
22.987263 5.583817 -6.526914 0.218049 -0.674423 0.705413 0.852539 0.151367
20.956398 8.709895 -2.910410 0.218049 -0.674423 0.705413 0.868164 0.149658
17.553326 7.728459 -2.796812 0.218049 -0.674423 0.705413 0.862549 0.133057
17.553326 7.728459 -2.796812 -0.041334 0.255136 0.966021 0.862549 0.133057
20.956398 8.709895 -2.910410 -0.041334 0.255136 0.966021 0.868164 0.149658
16.510450 10.779544 -3.647258 -0.041334 0.255136 0.966021 0.883545 0.148193
17.553326 7.728459 -2.796812 -0.482373 0.078308 0.872459 0.862549 0.133057
16.510450 10.779544 -3.647258 -0.482373 0.078308 0.872459 0.883545 0.148193
14.260032 7.629245 -4.608733 -0.482373 0.078308 0.872459 0.875000 0.131592
17.553326 7.728459 -2.796812 -0.452473 0.392151 0.800928 0.862549 0.133057
14.260032 7.629245 -4.608733 -0.452473 0.392151 0.800928 0.875000 0.131592
17.278885 5.096915 -1.663397 -0.452473 0.392151 0.800928 0.859619 0.117676
17.278885 5.096915 -1.663397 -0.296265 0.552753 0.778904 0.859619 0.117676
14.260032 7.629245 -4.608733 -0.296265 0.552753 0.778904 0.875000 0.131592
13.601373 5.253664 -3.173417 -0.296265 0.552753 0.778904 0.875244 0.115967
30.287405 26.108839 -18.240675 0.912807 -0.371045 -0.170614 0.849609 0.249268
31.275394 27.039059 -14.977806 0.912807 -0.371045 -0.170614 0.866943 0.247314
25.731676 10.567978 -8.816712 0.912807 -0.371045 -0.170614 0.861816 0.186768
25.731676 10.567978 -8.816712 0.839073 -0.081195 0.537926 0.861816 0.186768
31.275394 27.039059 -14.977806 0.839073 -0.081195 0.537926 0.866943 0.247314
23.591034 13.379537 -5.053294 0.839073 -0.081195 0.537926 0.876465 0.185303
23.591034 13.379537 -5.053294 0.847345 -0.097394 0.522036 0.876465 0.185303
31.275394 27.039059 -14.977806 0.847345 -0.097394 0.522036 0.866943 0.247314
29.848299 29.063787 -12.283665 0.847345 -0.097394 0.522036 0.887451 0.245117
23.591034 13.379537 -5.053294 0.069506 0.394637 0.916205 0.876465 0.185303
29.848299 29.063787 -12.283665 0.069506 0.394637 0.916205 0.887451 0.245117
26.829443 30.667969 -12.745616 0.069506 0.394637 0.916205 0.905762 0.243164
23.591034 13.379537 -5.053294 0.020397 0.403240 0.914867 0.876465 0.185303
26.829443 30.667969 -12.745616 0.020397 0.403240 0.914867 0.905762 0.243164
19.090197 15.388341 -5.838355 0.020397 0.403240 0.914867 0.891357 0.183594
23.591034 13.379537 -5.053294 0.027454 0.416626 0.908663 0.876465 0.185303
19.090197 15.388341 -5.838355 0.027454 0.416626 0.908663 0.891357 0.183594
16.510450 10.779544 -3.647258 0.027454 0.416626 0.908663 0.883545 0.148193
23.591034 13.379537 -5.053294 0.034726 0.400576 0.915605 0.876465 0.185303
16.510450 10.779544 -3.647258 0.034726 0.400576 0.915605 0.883545 0.148193
20.956398 8.709895 -2.910410 0.034726 0.400576 0.915605 0.868164 0.149658
38.849972 37.417809 -21.262552 0.771740 -0.174212 0.611610 0.864746 0.307861
36.873997 40.573174 -17.870455 0.771740 -0.174212 0.611610 0.886963 0.306152
29.848299 29.063787 -12.283665 0.771740 -0.174212 0.611610 0.887451 0.245117
38.849972 37.417809 -21.262552 0.783723 -0.220324 0.580720 0.864746 0.307861
29.848299 29.063787 -12.283665 0.783723 -0.220324 0.580720 0.887451 0.245117
31.275394 27.039059 -14.977806 0.783723 -0.220324 0.580720 0.866943 0.247314
38.849972 37.417809 -21.262552 0.787388 -0.613167 -0.063610 0.864746 0.307861
31.275394 27.039059 -14.977806 0.787388 -0.613167 -0.063610 0.866943 0.247314
30.287405 26.108839 -18.240675 0.787388 -0.613167 -0.063610 0.849609 0.249268
38.849972 37.417809 -21.262552 0.774673 -0.619910 -0.124872 0.864746 0.307861
30.287405 26.108839 -18.240675 0.774673 -0.619910 -0.124872 0.849609 0.249268
37.148438 36.220772 -25.875902 0.774673 -0.619910 -0.124872 0.841309 0.308594
38.849972 37.417809 -21.262552 0.794320 -0.591254 -0.139554 0.864746 0.307861
37.148438 36.220772 -25.875902 0.794320 -0.591254 -0.139554 0.841309 0.308594
39.673294 40.043266 -27.699713 0.794320 -0.591254 -0.139554 0.839600 0.325439
38.849972 37.417809 -21.262552 0.807746 -0.574766 -0.131112 0.864746 0.307861
39.673294 40.043266 -27.699713 0.807746 -0.574766 -0.131112 0.839600 0.325439
41.265057 41.162811 -22.801117 0.807746 -0.574766 -0.131112 0.863281 0.325439
38.849972 37.417809 -21.262552 0.741671 -0.217626 0.634479 0.864746 0.307861
41.265057 41.162811 -22.801117 0.741671 -0.217626 0.634479 0.863281 0.325439
36.873997 40.573174 -17.870455 0.741671 -0.217626 0.634479 0.886963 0.306152
36.873997 40.573174 -17.870455 0.746262 -0.165130 0.644845 0.886963 0.306152
41.265057 41.162811 -22.801117 0.746262 -0.165130 0.644845 0.863281 0.325439
39.014637 44.263649 -19.402712 0.746262 -0.165130 0.644845 0.886719 0.323975
36.873997 40.573174 -17.870455 0.005417 0.380768 0.924655 0.886963 0.306152
39.014637 44.263649 -19.402712 0.005417 0.380768 0.924655 0.886719 0.323975
32.647598 42.896503 -18.802429 0.005417 0.380768 0.924655 0.907959 0.302734
36.873997 40.573174 -17.870455 0.037027 0.429336 0.902385 0.886963 0.306152
32.647598 42.896503 -18.802429 0.037027 0.429336 0.902385 0.907959 0.302734
26.829443 30.667969 -12.745616 0.037027 0.429336 0.902385 0.905762 0.243164
36.873997 40.573174 -17.870455 0.072401 0.399423 0.913903 0.886963 0.306152
26.829443 30.667969 -12.745616 0.072401 0.399423 0.913903 0.905762 0.243164
29.848299 29.063787 -12.283665 0.072401 0.399423 0.913903 0.887451 0.245117
39.014637 44.263649 -19.402712 0.003364 0.388851 0.921294 0.886719 0.323975
34.843128 46.477936 -20.322063 0.003364 0.388851 0.921294 0.907715 0.320313
32.647598 42.896503 -18.802429 0.003364 0.388851 0.921294 0.907959 0.302734
32.647598 42.896503 -18.802429 -0.809794 0.564413 0.160223 0.907959 0.302734
34.843128 46.477936 -20.322063 -0.809794 0.564413 0.160223 0.907715 0.320313
30.946064 41.718403 -23.252209 -0.809794 0.564413 0.160223 0.929688 0.298096
32.647598 42.896503 -18.802429 -0.845997 0.497502 0.191781 0.907959 0.302734
30.946064 41.718403 -23.252209 -0.845997 0.497502 0.191781 0.929688 0.298096
26.829443 30.667969 -12.745616 -0.845997 0.497502 0.191781 0.905762 0.243164
26.829443 30.667969 -12.745616 -0.857871 0.483922 0.172846 0.905762 0.243164
30.946064 41.718403 -23.252209 -0.857871 0.483922 0.172846 0.929688 0.298096
25.676790 29.792282 -16.014793 -0.857871 0.483922 0.172846 0.923828 0.241211
26.829443 30.667969 -12.745616 -0.848117 0.503757 0.164094 0.905762 0.243164
25.676790 29.792282 -16.014793 -0.848117 0.503757 0.164094 0.923828 0.241211
19.090197 15.388341 -5.838355 -0.848117 0.503757 0.164094 0.891357 0.183594
19.090197 15.388341 -5.838355 -0.830921 0.519926 0.198109 0.891357 0.183594
25.676790 29.792282 -16.014793 -0.830921 0.519926 0.198109 0.923828 0.241211
17.388662 14.415713 -10.422425 -0.830921 0.519926 0.198109 0.905029 0.182129
19.090197 15.388341 -5.838355 -0.816550 0.546070 0.187228 0.891357 0.183594
17.388662 14.415713 -10.422425 -0.816550 0.546070 0.187228 0.905029 0.182129
16.510450 10.779544 -3.647258 -0.816550 0.546070 0.187228 0.883545 0.148193
16.510450 10.779544 -3.647258 -0.579276 0.747147 0.325900 0.883545 0.148193
17.388662 14.415713 -10.422425 -0.579276 0.747147 0.325900 0.905029 0.182129
13.711149 10.499069 -7.979916 -0.579276 0.747147 0.325900 0.900146 0.146240
34.843128 46.477936 -20.322063 -0.813436 0.550609 0.187489 0.907715 0.320313
33.251369 45.675179 -24.870543 -0.813436 0.550609 0.187489 0.929688 0.319336
30.946064 41.718403 -23.252209 -0.813436 0.550609 0.187489 0.929688 0.298096
30.946064 41.718403 -23.252209 -0.766162 0.196070 -0.612007 0.929688 0.298096
33.251369 45.675179 -24.870543 -0.766162 0.196070 -0.612007 0.929688 0.319336
32.867153 38.617565 -26.650616 -0.766162 0.196070 -0.612007 0.951416 0.292480
30.946064 41.718403 -23.252209 -0.847414 0.053874 -0.528192 0.929688 0.298096
32.867153 38.617565 -26.650616 -0.847414 0.053874 -0.528192 0.951416 0.292480
25.676790 29.792282 -16.014793 -0.847414 0.053874 -0.528192 0.923828 0.241211
25.676790 29.792282 -16.014793 -0.845165 0.046919 -0.532443 0.923828 0.241211
32.867153 38.617565 -26.650616 -0.845165 0.046919 -0.532443 0.951416 0.292480
27.213661 27.664799 -18.641792 -0.845165 0.046919 -0.532443 0.944336 0.239014
25.676790 29.792282 -16.014793 -0.770092 0.194072 -0.607696 0.923828 0.241211
27.213661 27.664799 -18.641792 -0.770092 0.194072 -0.607696 0.944336 0.239014
17.388662 14.415713 -10.422425 -0.770092 0.194072 -0.607696 0.905029 0.182129
33.251369 45.675179 -24.870543 -0.799411 0.187483 -0.570782 0.929688 0.319336
35.172459 42.651844 -28.554193 -0.799411 0.187483 -0.570782 0.952637 0.316162
32.867153 38.617565 -26.650616 -0.799411 0.187483 -0.570782 0.951416 0.292480
32.867153 38.617565 -26.650616 -0.057490 -0.398968 -0.915161 0.951416 0.292480
35.172459 42.651844 -28.554193 -0.057490 -0.398968 -0.915161 0.952637 0.316162
39.673294 40.043266 -27.699713 -0.057490 -0.398968 -0.915161 0.975586 0.311768
32.867153 38.617565 -26.650616 -0.057569 -0.398679 -0.915282 0.951416 0.292480
39.673294 40.043266 -27.699713 -0.057569 -0.398679 -0.915282 0.975586 0.311768
37.148438 36.220772 -25.875902 -0.057569 -0.398679 -0.915282 0.972656 0.286377
32.867153 38.617565 -26.650616 -0.147630 -0.532999 -0.833137 0.951416 0.292480
37.148438 36.220772 -25.875902 -0.147630 -0.532999 -0.833137 0.972656 0.286377
27.213661 27.664799 -18.641792 -0.147630 -0.532999 -0.833137 0.944336 0.239014
27.213661 27.664799 -18.641792 -0.156719 -0.525216 -0.836413 0.944336 0.239014
37.148438 36.220772 -25.875902 -0.156719 -0.525216 -0.836413 0.972656 0.286377
30.287405 26.108839 -18.240675 -0.156719 -0.525216 -0.836413 0.960205 0.237305
3 0 1 2
3 3 4 5
3 6 7 8
3 9 10 11
3 12 13 14
3 15 16 17
3 18 19 20
3 21 22 23
3 24 25 26
3 27 28 29
3 30 31 32
3 33 34 35
3 36 37 38
3 39 40 41
3 42 43 44
3 45 46 47
3 48 49 50
3 51 52 53
3 54 55 56
3 57 58 59
3 60 61 62
3 63 64 65
3 66 67 68
3 69 70 71
3 72 73 74
3 75 76 77
3 78 79 80
3 81 82 83
3 84 85 86
3 87 88 89
3 90 91 92
3 93 94 95
3 96 97 98
3 99 100 101
3 102 103 104
3 105 106 107
3 108 109 110
3 111 112 113
3 114 115 116
3 117 118 119
3 120 121 122
3 123 124 125
3 126 127 128
3 129 130 131
3 132 133 134
3 135 136 137
3 138 139 140
3 141 142 143
3 144 145 146
3 147 148 149
3 150 151 152
3 153 154 155
3 156 157 158
3 159 160 161
3 162 163 164
3 165 166 167
3 168 169 170
3 171 172 173
3 174 175 176
3 177 178 179
3 180 181 182
3 183 184 185
3 186 187 188
3 189 190 191
3 192 193 194
3 195 196 197
3 198 199 200
3 201 202 203
3 204 205 206
3 207 208 209
3 210 211 212
3 213 214 215
3 216 217 218
3 219 220 221
3 222 223 224
3 225 226 227
3 228 229 230
3 231 232 233
3 234 235 236
3 237 238 239
3 240 241 242
3 243 244 245
3 246 247 248
3 249 250 251
3 252 253 254
3 255 256 257
3 258 259 260
3 261 262 263
3 264 265 266
3 267 268 269
3 270 271 272
3 273 274 275
3 276 277 278
3 279 280 281
3 282 283 284
3 285 286 287
3 288 289 290
3 291 292 293
3 294 295 296
3 297 298 299
3 300 301 302
3 303 304 305
3 306 307 308
3 309 310 311
3 312 313 314
3 315 316 317
3 318 319 320
3 321 322 323
3 324 325 326
3 327 328 329
3 330 331 332
3 333 334 335
3 336 337 338
3 339 340 341
3 342 343 344
3 345 346 347
3 348 349 350
3 351 352 353
3 354 355 356
3 357 358 359
3 360 361 362
3 363 364 365
3 366 367 368
3 369 370 371
3 372 373 374
3 375 376 377
3 378 379 380
3 381 382 383
3 384 385 386
3 387 388 389
3 390 391 392
3 393 394 395
3 396 397 398
3 399 400 401
3 402 403 404
3 405 406 407
