ply
format ascii 1.0
comment Created by Blender 2.91.2 - www.blender.org
element vertex 444
property float x
property float y
property float z
property float nx
property float ny
property float nz
property float s
property float t
element face 148
property list uchar uint vertex_indices
end_header
1.160691 -0.102889 -8.603312 -0.552709 0.652532 -0.518377 0.908936 0.038818
-0.540844 1.953913 -4.199986 -0.552709 0.652532 -0.518377 0.896973 0.026367
3.081780 3.759007 -5.790289 -0.552709 0.652532 -0.518377 0.886475 0.041259
1.160691 -0.102889 -8.603312 -0.261192 0.649847 -0.713777 0.908936 0.038818
3.081780 3.759007 -5.790289 -0.261192 0.649847 -0.713777 0.886475 0.041259
7.308175 -0.764520 -11.455231 -0.261192 0.649847 -0.713777 0.907959 0.055175
1.160691 -0.102889 -8.603312 -0.424783 -0.352403 -0.833890 0.908936 0.038818
7.308175 -0.764520 -11.455231 -0.424783 -0.352403 -0.833890 0.907959 0.055175
9.229264 -5.034068 -10.629516 -0.424783 -0.352403 -0.833890 0.921387 0.053710
1.160691 -0.102889 -8.603312 -0.354739 -0.205675 -0.912062 0.908936 0.038818
9.229264 -5.034068 -10.629516 -0.354739 -0.205675 -0.912062 0.921387 0.053710
0.886250 -4.668027 -7.467110 -0.354739 -0.205675 -0.912062 0.922119 0.037841
1.160691 -0.102889 -8.603312 -0.721993 -0.125925 -0.680345 0.908936 0.038818
0.886250 -4.668027 -7.467110 -0.721993 -0.125925 -0.680345 0.922119 0.037841
-3.395033 -2.097536 -3.399514 -0.721993 -0.125925 -0.680345 0.905762 0.021240
1.160691 -0.102889 -8.603312 -0.753827 0.433501 -0.493783 0.908936 0.038818
-3.395033 -2.097536 -3.399514 -0.753827 0.433501 -0.493783 0.905762 0.021240
-0.540844 1.953913 -4.199986 -0.753827 0.433501 -0.493783 0.896973 0.026367
-0.540844 1.953913 -4.199986 -0.819935 0.540204 -0.189439 0.896973 0.026367
-3.395033 -2.097536 -3.399514 -0.819935 0.540204 -0.189439 0.905762 0.021240
-0.321290 3.521759 -0.679395 -0.819935 0.540204 -0.189439 0.877197 0.029541
-0.540844 1.953913 -4.199986 -0.283318 0.882521 -0.375350 0.896973 0.026367
-0.321290 3.521759 -0.679395 -0.283318 0.882521 -0.375350 0.877197 0.029541
4.893093 4.490059 -2.338606 -0.283318 0.882521 -0.375350 0.871582 0.042724
-0.540844 1.953913 -4.199986 -0.432852 0.900731 0.036373 0.896973 0.026367
4.893093 4.490059 -2.338606 -0.432852 0.900731 0.036373 0.871582 0.042724
3.081780 3.759007 -5.790289 -0.432852 0.900731 0.036373 0.886475 0.041259
3.081780 3.759007 -5.790289 -0.138578 0.981097 -0.135071 0.886475 0.041259
4.893093 4.490059 -2.338606 -0.138578 0.981097 -0.135071 0.871582 0.042724
7.911946 3.973803 -9.185688 -0.138578 0.981097 -0.135071 0.885254 0.057617
3.081780 3.759007 -5.790289 -0.534438 0.419540 -0.733732 0.886475 0.041259
7.911946 3.973803 -9.185688 -0.534438 0.419540 -0.733732 0.885254 0.057617
7.308175 -0.764520 -11.455231 -0.534438 0.419540 -0.733732 0.907959 0.055175
7.308175 -0.764520 -11.455231 -0.633897 0.398316 -0.662962 0.907959 0.055175
7.911946 3.973803 -9.185688 -0.633897 0.398316 -0.662962 0.885254 0.057617
8.790158 -0.406332 -12.657040 -0.633897 0.398316 -0.662962 0.905762 0.075439
7.308175 -0.764520 -11.455231 -0.378018 -0.649512 -0.659725 0.907959 0.055175
8.790158 -0.406332 -12.657040 -0.378018 -0.649512 -0.659725 0.905762 0.075439
11.973677 -3.968826 -10.973832 -0.378018 -0.649512 -0.659725 0.923584 0.073486
7.308175 -0.764520 -11.455231 -0.041926 -0.207863 -0.977259 0.907959 0.055175
11.973677 -3.968826 -10.973832 -0.041926 -0.207863 -0.977259 0.923584 0.073486
9.229264 -5.034068 -10.629516 -0.041926 -0.207863 -0.977259 0.921387 0.053710
9.229264 -5.034068 -10.629516 0.356718 -0.933184 -0.043812 0.921387 0.053710
11.973677 -3.968826 -10.973832 0.356718 -0.933184 -0.043812 0.923584 0.073486
11.534571 -4.359301 -6.231986 0.356718 -0.933184 -0.043812 0.932617 0.052002
9.229264 -5.034068 -10.629516 0.011792 -0.989271 0.145614 0.921387 0.053710
11.534571 -4.359301 -6.231986 0.011792 -0.989271 0.145614 0.932617 0.052002
0.886250 -4.668027 -7.467110 0.011792 -0.989271 0.145614 0.922119 0.037841
0.886250 -4.668027 -7.467110 0.039595 -0.994909 -0.092673 0.922119 0.037841
11.534571 -4.359301 -6.231986 0.039595 -0.994909 -0.092673 0.932617 0.052002
3.301333 -4.935071 -3.568370 0.039595 -0.994909 -0.092673 0.929932 0.035888
0.886250 -4.668027 -7.467110 -0.329339 -0.933767 0.140051 0.922119 0.037841
3.301333 -4.935071 -3.568370 -0.329339 -0.933767 0.140051 0.929932 0.035888
-1.528832 -2.706620 -0.068987 -0.329339 -0.933767 0.140051 0.910889 0.011474
0.886250 -4.668027 -7.467110 -0.449131 -0.889014 0.089081 0.922119 0.037841
-1.528832 -2.706620 -0.068987 -0.449131 -0.889014 0.089081 0.910889 0.011474
-3.395033 -2.097536 -3.399514 -0.449131 -0.889014 0.089081 0.905762 0.021240
-3.395033 -2.097536 -3.399514 -0.845281 -0.341132 0.411252 0.905762 0.021240
-1.528832 -2.706620 -0.068987 -0.845281 -0.341132 0.411252 0.910889 0.011474
-3.120591 1.397593 0.063764 -0.845281 -0.341132 0.411252 0.870361 0.014892
-3.395033 -2.097536 -3.399514 -0.593043 0.589748 -0.548177 0.905762 0.021240
-3.120591 1.397593 0.063764 -0.593043 0.589748 -0.548177 0.870361 0.014892
-0.321290 3.521759 -0.679395 -0.593043 0.589748 -0.548177 0.877197 0.029541
-0.321290 3.521759 -0.679395 -0.167269 0.514641 0.840932 0.877197 0.029541
-3.120591 1.397593 0.063764 -0.167269 0.514641 0.840932 0.870361 0.014892
0.502033 0.288689 1.462974 -0.167269 0.514641 0.840932 0.859131 0.029296
-0.321290 3.521759 -0.679395 0.150205 0.572404 0.806097 0.877197 0.029541
0.502033 0.288689 1.462974 0.150205 0.572404 0.806097 0.859131 0.029296
4.893093 4.490059 -2.338606 0.150205 0.572404 0.806097 0.871582 0.042724
4.893093 4.490059 -2.338606 0.321378 0.428302 0.844555 0.871582 0.042724
0.502033 0.288689 1.462974 0.321378 0.428302 0.844555 0.859131 0.029296
5.112646 -0.946950 0.335137 0.321378 0.428302 0.844555 0.849121 0.045166
4.893093 4.490059 -2.338606 0.354138 0.424172 0.833465 0.871582 0.042724
5.112646 -0.946950 0.335137 0.354138 0.424172 0.833465 0.849121 0.045166
10.875912 4.629635 -4.951732 0.354138 0.424172 0.833465 0.866699 0.059570
4.893093 4.490059 -2.338606 -0.069125 0.992038 -0.105274 0.871582 0.042724
10.875912 4.629635 -4.951732 -0.069125 0.992038 -0.105274 0.866699 0.059570
7.911946 3.973803 -9.185688 -0.069125 0.992038 -0.105274 0.885254 0.057617
7.911946 3.973803 -9.185688 0.126955 0.962925 -0.238030 0.885254 0.057617
10.875912 4.629635 -4.951732 0.126955 0.962925 -0.238030 0.866699 0.059570
13.290995 3.974832 -6.312563 0.126955 0.962925 -0.238030 0.864990 0.079834
7.911946 3.973803 -9.185688 0.116082 0.969094 -0.217675 0.885254 0.057617
13.290995 3.974832 -6.312563 0.116082 0.969094 -0.217675 0.864990 0.079834
9.503706 3.606517 -9.971997 0.116082 0.969094 -0.217675 0.884766 0.077880
7.911946 3.973803 -9.185688 -0.255108 0.568631 -0.782035 0.885254 0.057617
9.503706 3.606517 -9.971997 -0.255108 0.568631 -0.782035 0.884766 0.077880
8.790158 -0.406332 -12.657040 -0.255108 0.568631 -0.782035 0.905762 0.075439
8.790158 -0.406332 -12.657040 -0.532479 0.534075 -0.656680 0.905762 0.075439
9.503706 3.606517 -9.971997 -0.532479 0.534075 -0.656680 0.884766 0.077880
10.656359 3.304102 -11.152596 -0.532479 0.534075 -0.656680 0.881836 0.094970
8.790158 -0.406332 -12.657040 -0.690154 0.541685 -0.479858 0.905762 0.075439
10.656359 3.304102 -11.152596 -0.690154 0.541685 -0.479858 0.881836 0.094970
9.558594 0.082107 -13.210867 -0.690154 0.541685 -0.479858 0.902344 0.092773
8.790158 -0.406332 -12.657040 -0.213369 -0.566684 -0.795828 0.905762 0.075439
9.558594 0.082107 -13.210867 -0.213369 -0.566684 -0.795828 0.902344 0.092773
11.973677 -3.968826 -10.973832 -0.213369 -0.566684 -0.795828 0.923584 0.073486
11.973677 -3.968826 -10.973832 -0.815669 -0.562025 -0.137154 0.923584 0.073486
9.558594 0.082107 -13.210867 -0.815669 -0.562025 -0.137154 0.902344 0.092773
11.863898 -3.055568 -14.063293 -0.815669 -0.562025 -0.137154 0.921631 0.090820
11.973677 -3.968826 -10.973832 0.480848 -0.836045 -0.264224 0.923584 0.073486
11.863898 -3.055568 -14.063293 0.480848 -0.836045 -0.264224 0.921631 0.090820
14.388760 -3.596480 -7.756904 0.480848 -0.836045 -0.264224 0.935547 0.072265
11.973677 -3.968826 -10.973832 0.228269 -0.971816 -0.058888 0.923584 0.073486
14.388760 -3.596480 -7.756904 0.228269 -0.971816 -0.058888 0.935547 0.072265
11.534571 -4.359301 -6.231986 0.228269 -0.971816 -0.058888 0.932617 0.052002
11.534571 -4.359301 -6.231986 0.501069 -0.565833 0.654800 0.829834 0.063476
14.388760 -3.596480 -7.756904 0.501069 -0.565833 0.654800 0.831787 0.083496
14.992531 0.089223 -5.033996 0.501069 -0.565833 0.654800 0.848633 0.081543
11.534571 -4.359301 -6.231986 0.495010 -0.563009 0.661805 0.829834 0.063476
14.992531 0.089223 -5.033996 0.495010 -0.563009 0.661805 0.848633 0.081543
11.973677 -0.417632 -3.207177 0.495010 -0.563009 0.661805 0.844727 0.061767
11.534571 -4.359301 -6.231986 0.407493 -0.584094 0.701985 0.829834 0.063476
11.973677 -0.417632 -3.207177 0.407493 -0.584094 0.701985 0.844727 0.061767
5.112646 -0.946950 0.335137 0.407493 -0.584094 0.701985 0.849121 0.045166
11.534571 -4.359301 -6.231986 0.255238 -0.733034 0.630488 0.829834 0.063476
5.112646 -0.946950 0.335137 0.255238 -0.733034 0.630488 0.849121 0.045166
3.301333 -4.935071 -3.568370 0.255238 -0.733034 0.630488 0.827148 0.047607
3.301333 -4.935071 -3.568370 0.151434 -0.725689 0.671151 0.827148 0.047607
5.112646 -0.946950 0.335137 0.151434 -0.725689 0.671151 0.849121 0.045166
-1.528832 -2.706620 -0.068987 0.151434 -0.725689 0.671151 0.841553 0.025878
-1.528832 -2.706620 -0.068987 0.078716 -0.495728 0.864903 0.841553 0.025878
5.112646 -0.946950 0.335137 0.078716 -0.495728 0.864903 0.849121 0.045166
0.502033 0.288689 1.462974 0.078716 -0.495728 0.864903 0.859131 0.029296
-1.528832 -2.706620 -0.068987 -0.402895 -0.185248 0.896303 0.841553 0.025878
0.502033 0.288689 1.462974 -0.402895 -0.185248 0.896303 0.859131 0.029296
-3.120591 1.397593 0.063764 -0.402895 -0.185248 0.896303 0.870361 0.014892
5.112646 -0.946950 0.335137 0.402027 0.376004 0.834862 0.849121 0.045166
11.973677 -0.417632 -3.207177 0.402027 0.376004 0.834862 0.844727 0.061767
10.875912 4.629635 -4.951732 0.402027 0.376004 0.834862 0.866699 0.059570
10.875912 4.629635 -4.951732 0.530155 0.377696 0.759132 0.866699 0.059570
11.973677 -0.417632 -3.207177 0.530155 0.377696 0.759132 0.844727 0.061767
13.290995 3.974832 -6.312563 0.530155 0.377696 0.759132 0.864990 0.079834
13.290995 3.974832 -6.312563 0.408988 0.441829 0.798446 0.864990 0.079834
11.973677 -0.417632 -3.207177 0.408988 0.441829 0.798446 0.844727 0.061767
14.992531 0.089223 -5.033996 0.408988 0.441829 0.798446 0.848633 0.081543
13.290995 3.974832 -6.312563 0.814385 0.469062 0.341699 0.864990 0.079834
14.992531 0.089223 -5.033996 0.814385 0.469062 0.341699 0.848633 0.081543
16.529402 0.867679 -9.765495 0.814385 0.469062 0.341699 0.848877 0.098632
13.290995 3.974832 -6.312563 0.820022 0.402566 0.406822 0.864990 0.079834
16.529402 0.867679 -9.765495 0.820022 0.402566 0.406822 0.848877 0.098632
15.102307 3.843544 -9.833669 0.820022 0.402566 0.406822 0.864502 0.096923
13.290995 3.974832 -6.312563 -0.040792 0.997473 -0.058176 0.864990 0.079834
15.102307 3.843544 -9.833669 -0.040792 0.997473 -0.058176 0.864502 0.096923
9.503706 3.606517 -9.971997 -0.040792 0.997473 -0.058176 0.884766 0.077880
9.503706 3.606517 -9.971997 -0.033745 0.959759 -0.278792 0.884766 0.077880
15.102307 3.843544 -9.833669 -0.033745 0.959759 -0.278792 0.864502 0.096923
10.656359 3.304102 -11.152596 -0.033745 0.959759 -0.278792 0.881836 0.094970
10.656359 3.304102 -11.152596 0.125067 0.696585 -0.706489 0.881836 0.094970
15.102307 3.843544 -9.833669 0.125067 0.696585 -0.706489 0.864502 0.096923
17.023396 1.829670 -11.479229 0.125067 0.696585 -0.706489 0.859619 0.117676
10.656359 3.304102 -11.152596 -0.230217 -0.962790 -0.141550 0.881836 0.094970
17.023396 1.829670 -11.479229 -0.230217 -0.962790 -0.141550 0.859619 0.117676
13.730101 2.300210 -9.323503 -0.230217 -0.962790 -0.141550 0.875244 0.115967
10.656359 3.304102 -11.152596 -0.463762 0.165759 0.870315 0.881836 0.094970
13.730101 2.300210 -9.323503 -0.463762 0.165759 0.870315 0.875244 0.115967
10.546582 4.000296 -11.343688 -0.463762 0.165759 0.870315 0.894531 0.114014
10.656359 3.304102 -11.152596 -0.877783 -0.006931 0.479009 0.881836 0.094970
10.546582 4.000296 -11.343688 -0.877783 -0.006931 0.479009 0.894531 0.114014
9.558594 0.082107 -13.210867 -0.877783 -0.006931 0.479009 0.902344 0.092773
9.558594 0.082107 -13.210867 -0.974780 0.210570 0.073919 0.902344 0.092773
10.546582 4.000296 -11.343688 -0.974780 0.210570 0.073919 0.894531 0.114014
10.381916 4.600793 -15.225769 -0.974780 0.210570 0.073919 0.918701 0.111328
9.558594 0.082107 -13.210867 -0.599439 -0.232326 -0.765962 0.902344 0.092773
10.381916 4.600793 -15.225769 -0.599439 -0.232326 -0.765962 0.918701 0.111328
11.863898 -3.055568 -14.063293 -0.599439 -0.232326 -0.765962 0.921631 0.090820
11.863898 -3.055568 -14.063293 -0.509243 -0.224707 -0.830770 0.921631 0.090820
10.381916 4.600793 -15.225769 -0.509243 -0.224707 -0.830770 0.918701 0.111328
13.675211 4.052761 -17.096251 -0.509243 -0.224707 -0.830770 0.939697 0.109131
11.863898 -3.055568 -14.063293 0.573737 -0.440748 -0.690338 0.921631 0.090820
13.675211 4.052761 -17.096251 0.573737 -0.440748 -0.690338 0.939697 0.109131
14.992531 -2.415147 -11.871979 0.573737 -0.440748 -0.690338 0.937500 0.089111
11.863898 -3.055568 -14.063293 0.337342 -0.916807 -0.213696 0.921631 0.090820
14.992531 -2.415147 -11.871979 0.337342 -0.916807 -0.213696 0.937500 0.089111
14.388760 -3.596480 -7.756904 0.337342 -0.916807 -0.213696 0.935547 0.072265
14.388760 -3.596480 -7.756904 0.903296 -0.428915 0.009402 0.831787 0.083496
14.992531 -2.415147 -11.871979 0.903296 -0.428915 0.009402 0.832031 0.100342
16.529402 0.867679 -9.765495 0.903296 -0.428915 0.009402 0.848877 0.098632
14.388760 -3.596480 -7.756904 0.912814 -0.328632 0.242429 0.831787 0.083496
16.529402 0.867679 -9.765495 0.912814 -0.328632 0.242429 0.848877 0.098632
14.992531 0.089223 -5.033996 0.912814 -0.328632 0.242429 0.848633 0.081543
11.095465 6.454397 -10.191122 -0.982685 -0.078093 0.168025 0.892578 0.129883
10.327029 7.247751 -14.316543 -0.982685 -0.078093 0.168025 0.918945 0.126953
10.381916 4.600793 -15.225769 -0.982685 -0.078093 0.168025 0.918701 0.111328
11.095465 6.454397 -10.191122 -0.980000 0.186141 0.070362 0.892578 0.129883
10.381916 4.600793 -15.225769 -0.980000 0.186141 0.070362 0.918701 0.111328
10.546582 4.000296 -11.343688 -0.980000 0.186141 0.070362 0.894531 0.114014
11.095465 6.454397 -10.191122 -0.604607 -0.223792 0.764440 0.892578 0.129883
10.546582 4.000296 -11.343688 -0.604607 -0.223792 0.764440 0.894531 0.114014
13.730101 2.300210 -9.323503 -0.604607 -0.223792 0.764440 0.875244 0.115967
11.095465 6.454397 -10.191122 -0.595749 -0.216282 0.773502 0.892578 0.129883
13.730101 2.300210 -9.323503 -0.595749 -0.216282 0.773502 0.875244 0.115967
13.949654 4.947165 -8.414277 -0.595749 -0.216282 0.773502 0.875000 0.131592
11.095465 6.454397 -10.191122 -0.621598 -0.352306 0.699640 0.892578 0.129883
13.949654 4.947165 -8.414277 -0.621598 -0.352306 0.699640 0.875000 0.131592
14.882754 8.158808 -5.968027 -0.621598 -0.352306 0.699640 0.883545 0.148193
11.095465 6.454397 -10.191122 -0.632372 -0.330642 0.700558 0.892578 0.129883
14.882754 8.158808 -5.968027 -0.632372 -0.330642 0.700558 0.883545 0.148193
10.985688 10.007574 -8.613222 -0.632372 -0.330642 0.700558 0.900146 0.146240
11.095465 6.454397 -10.191122 -0.981261 -0.102713 0.163025 0.892578 0.129883
10.985688 10.007574 -8.613222 -0.981261 -0.102713 0.163025 0.900146 0.146240
10.327029 7.247751 -14.316543 -0.981261 -0.102713 0.163025 0.918945 0.126953
10.327029 7.247751 -14.316543 -0.993117 0.094761 0.068838 0.918945 0.126953
10.985688 10.007574 -8.613222 -0.993117 0.094761 0.068838 0.900146 0.146240
10.711247 10.899112 -13.799847 -0.993117 0.094761 0.068838 0.926514 0.143555
10.327029 7.247751 -14.316543 -0.450439 0.171387 -0.876202 0.918945 0.126953
10.711247 10.899112 -13.799847 -0.450439 0.171387 -0.876202 0.926514 0.143555
13.620322 6.651505 -16.126190 -0.450439 0.171387 -0.876202 0.939697 0.124756
10.327029 7.247751 -14.316543 -0.420926 0.286866 -0.860540 0.918945 0.126953
13.620322 6.651505 -16.126190 -0.420926 0.286866 -0.860540 0.939697 0.124756
10.381916 4.600793 -15.225769 -0.420926 0.286866 -0.860540 0.918701 0.111328
10.381916 4.600793 -15.225769 -0.430702 0.307613 -0.848451 0.918701 0.111328
13.620322 6.651505 -16.126190 -0.430702 0.307613 -0.848451 0.939697 0.124756
13.675211 4.052761 -17.096251 -0.430702 0.307613 -0.848451 0.939697 0.109131
13.675211 4.052761 -17.096251 0.600456 0.290749 -0.744928 0.835205 0.120361
13.620322 6.651505 -16.126190 0.600456 0.290749 -0.744928 0.838623 0.135498
16.968508 5.358334 -13.932086 0.600456 0.290749 -0.744928 0.849365 0.134521
13.675211 4.052761 -17.096251 0.607616 0.274003 -0.745470 0.835205 0.120361
16.968508 5.358334 -13.932086 0.607616 0.274003 -0.745470 0.849365 0.134521
16.694065 2.734348 -15.120243 0.607616 0.274003 -0.745470 0.849121 0.118896
13.675211 4.052761 -17.096251 -0.189181 -0.925395 -0.328411 0.835205 0.120361
16.694065 2.734348 -15.120243 -0.189181 -0.925395 -0.328411 0.849121 0.118896
16.529402 0.867679 -9.765495 -0.189181 -0.925395 -0.328411 0.848877 0.098632
13.675211 4.052761 -17.096251 0.896581 -0.153071 -0.415586 0.835205 0.120361
16.529402 0.867679 -9.765495 0.896581 -0.153071 -0.415586 0.848877 0.098632
14.992531 -2.415147 -11.871979 0.896581 -0.153071 -0.415586 0.832031 0.100342
10.711247 10.899112 -13.799847 -0.626155 -0.001810 -0.779696 0.926514 0.143555
14.443646 9.557944 -16.794130 -0.626155 -0.001810 -0.779696 0.946289 0.141357
13.620322 6.651505 -16.126190 -0.626155 -0.001810 -0.779696 0.939697 0.124756
13.620322 6.651505 -16.126190 0.431443 -0.316375 -0.844845 0.838623 0.135498
14.443646 9.557944 -16.794130 0.431443 -0.316375 -0.844845 0.839844 0.152832
16.968508 5.358334 -13.932086 0.431443 -0.316375 -0.844845 0.849365 0.134521
16.968508 5.358334 -13.932086 0.443323 -0.307316 -0.842034 0.849365 0.134521
14.443646 9.557944 -16.794130 0.443323 -0.307316 -0.842034 0.839844 0.152832
18.505379 7.939904 -14.065130 0.443323 -0.307316 -0.842034 0.852539 0.151367
16.968508 5.358334 -13.932086 0.835027 -0.508003 -0.211338 0.849365 0.134521
18.505379 7.939904 -14.065130 0.835027 -0.508003 -0.211338 0.852539 0.151367
17.297836 4.309019 -10.108565 0.835027 -0.508003 -0.211338 0.862549 0.133057
16.968508 5.358334 -13.932086 0.993448 -0.054406 -0.100499 0.849365 0.134521
17.297836 4.309019 -10.108565 0.993448 -0.054406 -0.100499 0.862549 0.133057
17.023396 1.829670 -11.479229 0.993448 -0.054406 -0.100499 0.859619 0.117676
16.968508 5.358334 -13.932086 0.992962 -0.056796 -0.103926 0.849365 0.134521
17.023396 1.829670 -11.479229 0.992962 -0.056796 -0.103926 0.859619 0.117676
16.694065 2.734348 -15.120243 0.992962 -0.056796 -0.103926 0.849121 0.118896
16.694065 2.734348 -15.120243 0.618022 -0.748061 -0.241770 0.849121 0.118896
17.023396 1.829670 -11.479229 0.618022 -0.748061 -0.241770 0.859619 0.117676
16.529402 0.867679 -9.765495 0.618022 -0.748061 -0.241770 0.848877 0.098632
16.529402 0.867679 -9.765495 0.800269 0.394127 0.451922 0.848877 0.098632
17.023396 1.829670 -11.479229 0.800269 0.394127 0.451922 0.859619 0.117676
15.102307 3.843544 -9.833669 0.800269 0.394127 0.451922 0.864502 0.096923
12.412785 16.297525 -12.988077 -0.533082 0.288522 -0.795348 0.933594 0.178955
16.309849 15.405171 -15.923800 -0.533082 0.288522 -0.795348 0.949219 0.177490
14.443646 9.557944 -16.794130 -0.533082 0.288522 -0.795348 0.946289 0.141357
12.412785 16.297525 -12.988077 -0.534195 0.287894 -0.794829 0.933594 0.178955
14.443646 9.557944 -16.794130 -0.534195 0.287894 -0.794829 0.946289 0.141357
10.711247 10.899112 -13.799847 -0.534195 0.287894 -0.794829 0.926514 0.143555
12.412785 16.297525 -12.988077 -0.953205 0.285479 0.099509 0.933594 0.178955
10.711247 10.899112 -13.799847 -0.953205 0.285479 0.099509 0.926514 0.143555
10.985688 10.007574 -8.613222 -0.953205 0.285479 0.099509 0.900146 0.146240
12.412785 16.297525 -12.988077 -0.951289 0.289524 0.105949 0.933594 0.178955
10.985688 10.007574 -8.613222 -0.951289 0.289524 0.105949 0.900146 0.146240
12.687225 15.338840 -7.904188 -0.951289 0.289524 0.105949 0.905029 0.182129
12.412785 16.297525 -12.988077 -0.939247 0.324491 0.111893 0.933594 0.178955
12.687225 15.338840 -7.904188 -0.939247 0.324491 0.111893 0.905029 0.182129
17.023397 28.669756 -10.165515 -0.939247 0.324491 0.111893 0.944336 0.239014
12.412785 16.297525 -12.988077 -0.541623 0.373632 -0.753023 0.933594 0.178955
17.023397 28.669756 -10.165515 -0.541623 0.373632 -0.753023 0.944336 0.239014
19.603146 28.090166 -12.308617 -0.541623 0.373632 -0.753023 0.960205 0.237305
12.412785 16.297525 -12.988077 -0.509071 0.355561 -0.783851 0.933594 0.178955
19.603146 28.090166 -12.308617 -0.509071 0.355561 -0.783851 0.960205 0.237305
16.309849 15.405171 -15.923800 -0.509071 0.355561 -0.783851 0.949219 0.177490
16.309849 15.405171 -15.923800 0.587398 0.077098 -0.805618 0.844971 0.188477
19.603146 28.090166 -12.308617 0.587398 0.077098 -0.805618 0.849609 0.249268
20.206915 13.726299 -13.243012 0.587398 0.077098 -0.805618 0.861816 0.186768
16.309849 15.405171 -15.923800 0.550753 -0.051782 -0.833060 0.844971 0.188477
20.206915 13.726299 -13.243012 0.550753 -0.051782 -0.833060 0.861816 0.186768
14.443646 9.557944 -16.794130 0.550753 -0.051782 -0.833060 0.839844 0.152832
14.443646 9.557944 -16.794130 0.545747 -0.041574 -0.836918 0.839844 0.152832
20.206915 13.726299 -13.243012 0.545747 -0.041574 -0.836918 0.861816 0.186768
18.505379 7.939904 -14.065130 0.545747 -0.041574 -0.836918 0.852539 0.151367
18.505379 7.939904 -14.065130 0.957716 -0.266067 -0.109495 0.852539 0.151367
20.206915 13.726299 -13.243012 0.957716 -0.266067 -0.109495 0.861816 0.186768
20.536243 12.822138 -8.165435 0.957716 -0.266067 -0.109495 0.876465 0.185303
18.505379 7.939904 -14.065130 0.954588 -0.282415 -0.094890 0.852539 0.151367
20.536243 12.822138 -8.165435 0.954588 -0.282415 -0.094890 0.876465 0.185303
18.834707 7.320984 -8.910060 0.954588 -0.282415 -0.094890 0.868164 0.149658
18.505379 7.939904 -14.065130 0.902263 -0.417503 -0.107766 0.852539 0.151367
18.834707 7.320984 -8.910060 0.902263 -0.417503 -0.107766 0.868164 0.149658
17.297836 4.309019 -10.108565 0.902263 -0.417503 -0.107766 0.862549 0.133057
17.297836 4.309019 -10.108565 0.438243 -0.516374 0.735731 0.862549 0.133057
18.834707 7.320984 -8.910060 0.438243 -0.516374 0.735731 0.868164 0.149658
14.882754 8.158808 -5.968027 0.438243 -0.516374 0.735731 0.883545 0.148193
17.297836 4.309019 -10.108565 0.250828 -0.631626 0.733576 0.862549 0.133057
14.882754 8.158808 -5.968027 0.250828 -0.631626 0.733576 0.883545 0.148193
13.949654 4.947165 -8.414277 0.250828 -0.631626 0.733576 0.875000 0.131592
17.297836 4.309019 -10.108565 0.319373 -0.485315 0.813923 0.862549 0.133057
13.949654 4.947165 -8.414277 0.319373 -0.485315 0.813923 0.875000 0.131592
17.023396 1.829670 -11.479229 0.319373 -0.485315 0.813923 0.859619 0.117676
17.023396 1.829670 -11.479229 0.486553 -0.319648 0.813076 0.859619 0.117676
13.949654 4.947165 -8.414277 0.486553 -0.319648 0.813076 0.875000 0.131592
13.730101 2.300210 -9.323503 0.486553 -0.319648 0.813076 0.875244 0.115967
19.603146 28.090166 -12.308617 0.663192 0.076311 -0.744549 0.849609 0.249268
22.128004 26.899738 -10.181661 0.663192 0.076311 -0.744549 0.866943 0.247314
20.206915 13.726299 -13.243012 0.663192 0.076311 -0.744549 0.861816 0.186768
20.206915 13.726299 -13.243012 0.988514 -0.124120 -0.086216 0.861816 0.186768
22.128004 26.899738 -10.181661 0.988514 -0.124120 -0.086216 0.866943 0.247314
20.536243 12.822138 -8.165435 0.988514 -0.124120 -0.086216 0.876465 0.185303
20.536243 12.822138 -8.165435 0.983315 -0.129483 -0.127769 0.876465 0.185303
22.128004 26.899738 -10.181661 0.983315 -0.129483 -0.127769 0.866943 0.247314
22.512222 26.315893 -6.633035 0.983315 -0.129483 -0.127769 0.887451 0.245117
20.536243 12.822138 -8.165435 0.614562 -0.177289 0.768688 0.876465 0.185303
22.512222 26.315893 -6.633035 0.614562 -0.177289 0.768688 0.887451 0.245117
19.932474 26.901794 -4.435408 0.614562 -0.177289 0.768688 0.905762 0.243164
20.536243 12.822138 -8.165435 0.542225 -0.193370 0.817680 0.876465 0.185303
19.932474 26.901794 -4.435408 0.542225 -0.193370 0.817680 0.905762 0.243164
16.529402 13.592812 -5.326139 0.542225 -0.193370 0.817680 0.891357 0.183594
20.536243 12.822138 -8.165435 0.525869 -0.255196 0.811380 0.876465 0.185303
16.529402 13.592812 -5.326139 0.525869 -0.255196 0.811380 0.891357 0.183594
14.882754 8.158808 -5.968027 0.525869 -0.255196 0.811380 0.883545 0.148193
20.536243 12.822138 -8.165435 0.536265 -0.273934 0.798361 0.876465 0.185303
14.882754 8.158808 -5.968027 0.536265 -0.273934 0.798361 0.883545 0.148193
18.834707 7.320984 -8.910060 0.536265 -0.273934 0.798361 0.868164 0.149658
22.128004 26.899738 -10.181661 0.903680 -0.423017 -0.066475 0.866943 0.247314
29.867247 43.235062 -8.922910 0.903680 -0.423017 -0.066475 0.863281 0.325439
30.031912 42.779713 -3.786771 0.903680 -0.423017 -0.066475 0.886719 0.323975
22.128004 26.899738 -10.181661 0.907889 -0.386677 -0.161918 0.866943 0.247314
30.031912 42.779713 -3.786771 0.907889 -0.386677 -0.161918 0.886719 0.323975
22.512222 26.315893 -6.633035 0.907889 -0.386677 -0.161918 0.887451 0.245117
22.512222 26.315893 -6.633035 0.548566 -0.379363 0.745090 0.887451 0.245117
30.031912 42.779713 -3.786771 0.548566 -0.379363 0.745090 0.886719 0.323975
19.932474 26.901794 -4.435408 0.548566 -0.379363 0.745090 0.905762 0.243164
19.932474 26.901794 -4.435408 0.487499 -0.342886 0.802978 0.905762 0.243164
30.031912 42.779713 -3.786771 0.487499 -0.342886 0.802978 0.886719 0.323975
26.189737 43.877541 -0.985342 0.487499 -0.342886 0.802978 0.907715 0.320313
19.932474 26.901794 -4.435408 -0.569092 0.042880 0.821155 0.905762 0.243164
26.189737 43.877541 -0.985342 -0.569092 0.042880 0.821155 0.907715 0.320313
22.512224 45.726299 -3.630538 -0.569092 0.042880 0.821155 0.929688 0.319336
19.932474 26.901794 -4.435408 -0.606599 0.049203 0.793484 0.905762 0.243164
22.512224 45.726299 -3.630538 -0.606599 0.049203 0.793484 0.929688 0.319336
17.242950 28.146749 -6.568678 -0.606599 0.049203 0.793484 0.923828 0.241211
19.932474 26.901794 -4.435408 -0.590429 0.097349 0.801197 0.905762 0.243164
17.242950 28.146749 -6.568678 -0.590429 0.097349 0.801197 0.923828 0.241211
16.529402 13.592812 -5.326139 -0.590429 0.097349 0.801197 0.891357 0.183594
16.529402 13.592812 -5.326139 -0.523435 0.097926 0.846420 0.891357 0.183594
17.242950 28.146749 -6.568678 -0.523435 0.097926 0.846420 0.923828 0.241211
12.687225 15.338840 -7.904188 -0.523435 0.097926 0.846420 0.905029 0.182129
16.529402 13.592812 -5.326139 -0.536161 0.063039 0.841758 0.891357 0.183594
12.687225 15.338840 -7.904188 -0.536161 0.063039 0.841758 0.905029 0.182129
14.882754 8.158808 -5.968027 -0.536161 0.063039 0.841758 0.883545 0.148193
14.882754 8.158808 -5.968027 -0.540611 0.060951 0.839062 0.883545 0.148193
12.687225 15.338840 -7.904188 -0.540611 0.060951 0.839062 0.905029 0.182129
10.985688 10.007574 -8.613222 -0.540611 0.060951 0.839062 0.900146 0.146240
30.800348 45.107594 -3.724689 0.440271 0.262159 0.858740 0.888184 0.333008
26.903284 46.611820 -2.185904 0.440271 0.262159 0.858740 0.910400 0.332275
26.189737 43.877541 -0.985342 0.440271 0.262159 0.858740 0.907715 0.320313
30.800348 45.107594 -3.724689 0.539341 -0.199853 0.818028 0.888184 0.333008
26.189737 43.877541 -0.985342 0.539341 -0.199853 0.818028 0.907715 0.320313
30.031912 42.779713 -3.786771 0.539341 -0.199853 0.818028 0.886719 0.323975
30.800348 45.107594 -3.724689 0.948460 -0.311540 -0.058028 0.888184 0.333008
30.031912 42.779713 -3.786771 0.948460 -0.311540 -0.058028 0.886719 0.323975
29.867247 43.235062 -8.922910 0.948460 -0.311540 -0.058028 0.863281 0.325439
30.800348 45.107594 -3.724689 0.922839 -0.384221 -0.027247 0.888184 0.333008
29.867247 43.235062 -8.922910 0.922839 -0.384221 -0.027247 0.863281 0.325439
30.855236 45.588188 -8.642730 0.922839 -0.384221 -0.027247 0.864990 0.333008
30.800348 45.107594 -3.724689 0.999432 -0.032733 0.007955 0.888184 0.333008
30.855236 45.588188 -8.642730 0.999432 -0.032733 0.007955 0.864990 0.333008
30.910124 47.440250 -7.917771 0.999432 -0.032733 0.007955 0.864990 0.339600
30.800348 45.107594 -3.724689 0.975522 -0.202026 -0.086850 0.888184 0.333008
30.910124 47.440250 -7.917771 0.975522 -0.202026 -0.086850 0.864990 0.339600
31.294342 47.267876 -3.201169 0.975522 -0.202026 -0.086850 0.888916 0.340820
30.800348 45.107594 -3.724689 0.255965 -0.282566 0.924466 0.888184 0.333008
31.294342 47.267876 -3.201169 0.255965 -0.282566 0.924466 0.888916 0.340820
26.903284 46.611820 -2.185904 0.255965 -0.282566 0.924466 0.910400 0.332275
26.903284 46.611820 -2.185904 0.261942 -0.381063 0.886667 0.910400 0.332275
31.294342 47.267876 -3.201169 0.261942 -0.381063 0.886667 0.888916 0.340820
28.001049 49.130798 -1.427627 0.261942 -0.381063 0.886667 0.911133 0.343262
26.903284 46.611820 -2.185904 -0.317861 -0.143598 0.937200 0.910400 0.332275
28.001049 49.130798 -1.427627 -0.317861 -0.143598 0.937200 0.911133 0.343262
23.280659 48.098362 -3.186786 -0.317861 -0.143598 0.937200 0.930664 0.330322
26.903284 46.611820 -2.185904 -0.078575 0.417908 0.905085 0.910400 0.332275
23.280659 48.098362 -3.186786 -0.078575 0.417908 0.905085 0.930664 0.330322
26.189737 43.877541 -0.985342 -0.078575 0.417908 0.905085 0.907715 0.320313
26.189737 43.877541 -0.985342 -0.572848 0.032357 0.819023 0.907715 0.320313
23.280659 48.098362 -3.186786 -0.572848 0.032357 0.819023 0.930664 0.330322
22.512224 45.726299 -3.630538 -0.572848 0.032357 0.819023 0.929688 0.319336
22.512224 45.726299 -3.630538 -0.948928 0.280328 0.144749 0.929688 0.319336
23.280659 48.098362 -3.186786 -0.948928 0.280328 0.144749 0.930664 0.330322
22.676889 48.807392 -8.518051 -0.948928 0.280328 0.144749 0.954834 0.328613
22.512224 45.726299 -3.630538 -0.958455 0.254756 0.128307 0.929688 0.319336
22.676889 48.807392 -8.518051 -0.958455 0.254756 0.128307 0.954834 0.328613
22.018230 46.412361 -8.682871 -0.958455 0.254756 0.128307 0.952637 0.316162
22.512224 45.726299 -3.630538 -0.955583 0.264800 0.129390 0.929688 0.319336
22.018230 46.412361 -8.682871 -0.955583 0.264800 0.129390 0.952637 0.316162
17.242950 28.146749 -6.568678 -0.955583 0.264800 0.129390 0.923828 0.241211
17.242950 28.146749 -6.568678 -0.960149 0.262214 0.096736 0.923828 0.241211
22.018230 46.412361 -8.682871 -0.960149 0.262214 0.096736 0.952637 0.316162
17.023397 28.669756 -10.165515 -0.960149 0.262214 0.096736 0.944336 0.239014
17.242950 28.146749 -6.568678 -0.940408 0.323607 0.104458 0.923828 0.241211
17.023397 28.669756 -10.165515 -0.940408 0.323607 0.104458 0.944336 0.239014
12.687225 15.338840 -7.904188 -0.940408 0.323607 0.104458 0.905029 0.182129
28.001049 49.130798 -1.427627 -0.391750 0.323534 0.861312 0.911133 0.343262
24.652866 49.862068 -3.225166 -0.391750 0.323534 0.861312 0.931396 0.340332
23.280659 48.098362 -3.186786 -0.391750 0.323534 0.861312 0.930664 0.330322
23.280659 48.098362 -3.186786 -0.776163 0.607545 0.168701 0.930664 0.330322
24.652866 49.862068 -3.225166 -0.776163 0.607545 0.168701 0.931396 0.340332
22.676889 48.807392 -8.518051 -0.776163 0.607545 0.168701 0.954834 0.328613
22.676889 48.807392 -8.518051 -0.771145 0.614804 0.165382 0.954834 0.328613
24.652866 49.862068 -3.225166 -0.771145 0.614804 0.165382 0.931396 0.340332
23.829542 50.130867 -8.063438 -0.771145 0.614804 0.165382 0.955322 0.338623
22.676889 48.807392 -8.518051 -0.374634 0.575881 -0.726643 0.954834 0.328613
23.829542 50.130867 -8.063438 -0.374634 0.575881 -0.726643 0.955322 0.338623
26.903284 47.617176 -11.640316 -0.374634 0.575881 -0.726643 0.978516 0.327393
22.676889 48.807392 -8.518051 -0.528252 0.251579 -0.810961 0.954834 0.328613
26.903284 47.617176 -11.640316 -0.528252 0.251579 -0.810961 0.978516 0.327393
26.025072 45.106789 -11.847037 -0.528252 0.251579 -0.810961 0.975586 0.311768
22.676889 48.807392 -8.518051 -0.562931 0.209826 -0.799426 0.954834 0.328613
26.025072 45.106789 -11.847037 -0.562931 0.209826 -0.799426 0.975586 0.311768
22.018230 46.412361 -8.682871 -0.562931 0.209826 -0.799426 0.952637 0.316162
22.018230 46.412361 -8.682871 -0.558049 0.223871 -0.799039 0.952637 0.316162
26.025072 45.106789 -11.847037 -0.558049 0.223871 -0.799039 0.975586 0.311768
17.023397 28.669756 -10.165515 -0.558049 0.223871 -0.799039 0.944336 0.239014
17.023397 28.669756 -10.165515 -0.587113 0.242521 -0.772323 0.944336 0.239014
26.025072 45.106789 -11.847037 -0.587113 0.242521 -0.772323 0.975586 0.311768
19.603146 28.090166 -12.308617 -0.587113 0.242521 -0.772323 0.960205 0.237305
19.603146 28.090166 -12.308617 0.576121 -0.195898 -0.793541 0.849609 0.249268
26.025072 45.106789 -11.847037 0.576121 -0.195898 -0.793541 0.839600 0.325439
22.128004 26.899738 -10.181661 0.576121 -0.195898 -0.793541 0.866943 0.247314
22.128004 26.899738 -10.181661 0.534421 -0.189727 -0.823649 0.866943 0.247314
26.025072 45.106789 -11.847037 0.534421 -0.189727 -0.823649 0.839600 0.325439
29.867247 43.235062 -8.922910 0.534421 -0.189727 -0.823649 0.863281 0.325439
29.867247 43.235062 -8.922910 0.557049 -0.136343 -0.819211 0.863281 0.325439
26.025072 45.106789 -11.847037 0.557049 -0.136343 -0.819211 0.839600 0.325439
30.855236 45.588188 -8.642730 0.557049 -0.136343 -0.819211 0.864990 0.333008
30.855236 45.588188 -8.642730 0.557093 -0.127312 -0.820633 0.864990 0.333008
26.025072 45.106789 -11.847037 0.557093 -0.127312 -0.820633 0.839600 0.325439
26.903284 47.617176 -11.640316 0.557093 -0.127312 -0.820633 0.840576 0.333008
30.855236 45.588188 -8.642730 0.664099 0.255371 -0.702679 0.864990 0.333008
26.903284 47.617176 -11.640316 0.664099 0.255371 -0.702679 0.840576 0.333008
30.910124 47.440250 -7.917771 0.664099 0.255371 -0.702679 0.864990 0.339600
30.910124 47.440250 -7.917771 0.638801 0.378948 -0.669576 0.864990 0.339600
26.903284 47.617176 -11.640316 0.638801 0.378948 -0.669576 0.840576 0.333008
27.342390 49.029007 -10.422363 0.638801 0.378948 -0.669576 0.842773 0.338379
23.829542 50.130867 -8.063438 -0.252881 0.675867 -0.692283 0.955322 0.338623
27.342390 49.029007 -10.422363 -0.252881 0.675867 -0.692283 0.976318 0.338135
26.903284 47.617176 -11.640316 -0.252881 0.675867 -0.692283 0.978516 0.327393
3 0 1 2
3 3 4 5
3 6 7 8
3 9 10 11
3 12 13 14
3 15 16 17
3 18 19 20
3 21 22 23
3 24 25 26
3 27 28 29
3 30 31 32
3 33 34 35
3 36 37 38
3 39 40 41
3 42 43 44
3 45 46 47
3 48 49 50
3 51 52 53
3 54 55 56
3 57 58 59
3 60 61 62
3 63 64 65
3 66 67 68
3 69 70 71
3 72 73 74
3 75 76 77
3 78 79 80
3 81 82 83
3 84 85 86
3 87 88 89
3 90 91 92
3 93 94 95
3 96 97 98
3 99 100 101
3 102 103 104
3 105 106 107
3 108 109 110
3 111 112 113
3 114 115 116
3 117 118 119
3 120 121 122
3 123 124 125
3 126 127 128
3 129 130 131
3 132 133 134
3 135 136 137
3 138 139 140
3 141 142 143
3 144 145 146
3 147 148 149
3 150 151 152
3 153 154 155
3 156 157 158
3 159 160 161
3 162 163 164
3 165 166 167
3 168 169 170
3 171 172 173
3 174 175 176
3 177 178 179
3 180 181 182
3 183 184 185
3 186 187 188
3 189 190 191
3 192 193 194
3 195 196 197
3 198 199 200
3 201 202 203
3 204 205 206
3 207 208 209
3 210 211 212
3 213 214 215
3 216 217 218
3 219 220 221
3 222 223 224
3 225 226 227
3 228 229 230
3 231 232 233
3 234 235 236
3 237 238 239
3 240 241 242
3 243 244 245
3 246 247 248
3 249 250 251
3 252 253 254
3 255 256 257
3 258 259 260
3 261 262 263
3 264 265 266
3 267 268 269
3 270 271 272
3 273 274 275
3 276 277 278
3 279 280 281
3 282 283 284
3 285 286 287
3 288 289 290
3 291 292 293
3 294 295 296
3 297 298 299
3 300 301 302
3 303 304 305
3 306 307 308
3 309 310 311
3 312 313 314
3 315 316 317
3 318 319 320
3 321 322 323
3 324 325 326
3 327 328 329
3 330 331 332
3 333 334 335
3 336 337 338
3 339 340 341
3 342 343 344
3 345 346 347
3 348 349 350
3 351 352 353
3 354 355 356
3 357 358 359
3 360 361 362
3 363 364 365
3 366 367 368
3 369 370 371
3 372 373 374
3 375 376 377
3 378 379 380
3 381 382 383
3 384 385 386
3 387 388 389
3 390 391 392
3 393 394 395
3 396 397 398
3 399 400 401
3 402 403 404
3 405 406 407
3 408 409 410
3 411 412 413
3 414 415 416
3 417 418 419
3 420 421 422
3 423 424 425
3 426 427 428
3 429 430 431
3 432 433 434
3 435 436 437
3 438 439 440
3 441 442 443
